<svg xmlns="http://www.w3.org/2000/svg" xmlns:xlink="http://www.w3.org/1999/xlink" width="143" zoomAndPan="magnify" viewBox="0 0 107.25 55.5" height="74" preserveAspectRatio="xMidYMid meet" version="1.0"><defs><clipPath id="116152f112"><path d="M 0.105469 0 L 106.132812 0 L 106.132812 53.519531 L 0.105469 53.519531 Z M 0.105469 0 " clip-rule="nonzero"/></clipPath></defs><g clip-path="url(#116152f112)"><path fill="#230606" d="M -0.0507812 14.203125 C 0.644531 12.445312 1.359375 10.710938 2.097656 9.003906 L 2.652344 7.726562 L 3.230469 6.449219 C 3.621094 5.597656 4.015625 4.753906 4.414062 3.914062 C 3.859375 3.238281 3.289062 2.574219 2.742188 1.890625 L 1.273438 0 L 2.140625 0 C 4.285156 2.785156 6.558594 5.46875 8.957031 8.039062 L 9.75 2.921875 L 5.453125 0 L 6.671875 0 L 18.128906 7.800781 L 18.714844 8.199219 L 19.652344 8.804688 L 21.144531 9.773438 C 22.128906 10.4375 23.171875 11.011719 24.195312 11.617188 C 24.707031 11.914062 25.21875 12.21875 25.738281 12.515625 L 27.316406 13.34375 L 28.898438 14.175781 C 29.160156 14.324219 29.429688 14.449219 29.699219 14.574219 L 30.511719 14.957031 L 32.84375 16.058594 L 33.636719 16.398438 L 35.222656 17.070312 L 36.015625 17.410156 L 36.410156 17.578125 L 36.8125 17.730469 L 40.042969 18.957031 L 43.320312 20.066406 C 45.550781 20.785156 47.804688 21.433594 50.085938 22.011719 C 52.363281 22.59375 54.660156 23.105469 56.976562 23.550781 L 58.085938 23.773438 L 59.203125 23.964844 L 61.4375 24.34375 C 63.769531 24.710938 66.113281 25.015625 68.472656 25.253906 C 70.828125 25.496094 73.191406 25.675781 75.558594 25.800781 C 78.082031 25.945312 80.613281 26 83.144531 26 C 83.773438 26 84.398438 25.996094 85.027344 25.992188 C 88.160156 25.953125 91.289062 25.820312 94.402344 25.578125 C 95.957031 25.460938 97.507812 25.308594 99.042969 25.132812 C 99.8125 25.046875 100.578125 24.945312 101.332031 24.84375 C 101.707031 24.789062 102.085938 24.734375 102.449219 24.679688 L 102.980469 24.589844 L 103.507812 24.496094 L 106.066406 24.027344 L 106.066406 24.722656 L 105.457031 24.835938 L 106.066406 25.023438 L 106.066406 25.742188 L 104.242188 25.179688 L 106.019531 27.632812 L 106.066406 27.648438 L 106.066406 28.867188 L 105.597656 28.222656 L 104.929688 27.296875 L 103.550781 25.394531 L 103.417969 25.210938 C 103.125 25.265625 102.78125 25.320312 102.4375 25.371094 C 102.097656 25.425781 101.742188 25.476562 101.394531 25.527344 C 100.691406 25.625 99.980469 25.714844 99.261719 25.796875 C 98.125 29.328125 96.84375 32.84375 95.449219 36.332031 C 95.390625 36.46875 95.289062 36.542969 95.140625 36.554688 C 94.996094 36.5625 94.882812 36.507812 94.804688 36.382812 C 92.890625 33.144531 91.089844 29.871094 89.398438 26.5625 C 88.707031 26.597656 88.011719 26.609375 87.320312 26.632812 L 86.28125 26.660156 L 85.242188 26.671875 C 84.730469 27.820312 84.207031 28.96875 83.671875 30.113281 L 83.382812 30.734375 L 82.59375 32.375 L 82.292969 32.988281 C 81.675781 34.253906 81.039062 35.527344 80.394531 36.785156 C 80.324219 36.914062 80.214844 36.976562 80.070312 36.96875 C 79.921875 36.96875 79.816406 36.898438 79.75 36.769531 C 78.691406 34.476562 77.675781 32.210938 76.710938 29.898438 L 76.273438 28.847656 L 75.398438 26.679688 L 75.3125 26.472656 C 74.585938 26.445312 73.859375 26.382812 73.132812 26.335938 L 72.046875 26.257812 L 71.5 26.222656 L 70.960938 26.171875 C 70.042969 27.78125 69.101562 29.386719 68.128906 30.992188 C 67.15625 32.597656 66.160156 34.164062 65.136719 35.746094 C 65.050781 35.867188 64.9375 35.917969 64.792969 35.902344 C 64.648438 35.886719 64.546875 35.808594 64.496094 35.671875 C 63.875 33.910156 63.28125 32.113281 62.722656 30.332031 C 62.160156 28.542969 61.625 26.773438 61.125 24.984375 L 59.085938 24.636719 L 58.066406 24.464844 C 57.726562 24.40625 57.390625 24.332031 57.050781 24.265625 C 56.324219 25.285156 55.582031 26.300781 54.824219 27.3125 L 54.410156 27.863281 L 53.304688 29.320312 L 52.882812 29.863281 C 52.019531 30.964844 51.132812 32.066406 50.234375 33.160156 C 50.136719 33.277344 50.019531 33.316406 49.875 33.28125 C 49.730469 33.246094 49.640625 33.160156 49.605469 33.015625 C 49.320312 31.789062 49.046875 30.585938 48.792969 29.347656 C 48.539062 28.113281 48.296875 26.882812 48.074219 25.660156 L 47.875 24.539062 C 47.738281 23.773438 47.609375 23.007812 47.484375 22.246094 L 47.449219 22.023438 C 47.097656 21.9375 46.757812 21.824219 46.410156 21.726562 L 45.375 21.414062 C 44.683594 21.203125 43.992188 21.003906 43.304688 20.789062 C 42.0625 22.144531 40.785156 23.492188 39.472656 24.828125 C 38.816406 25.496094 38.152344 26.164062 37.476562 26.824219 C 36.804688 27.488281 36.132812 28.125 35.445312 28.769531 C 35.425781 28.785156 35.402344 28.800781 35.375 28.816406 C 38.78125 30.710938 42.277344 32.40625 45.867188 33.914062 C 47.238281 34.515625 48.648438 35.03125 50.046875 35.570312 C 52.242188 36.382812 54.464844 37.125 56.710938 37.796875 C 58.957031 38.46875 61.226562 39.070312 63.515625 39.601562 C 64.277344 39.777344 65.042969 39.933594 65.804688 40.097656 L 66.949219 40.34375 C 67.335938 40.417969 67.71875 40.488281 68.105469 40.558594 L 70.410156 40.980469 L 72.730469 41.335938 C 73.113281 41.394531 73.496094 41.457031 73.882812 41.507812 L 75.039062 41.652344 C 75.808594 41.742188 76.578125 41.851562 77.351562 41.933594 C 78.898438 42.074219 80.441406 42.25 81.996094 42.335938 L 83.160156 42.414062 C 83.546875 42.445312 83.9375 42.46875 84.324219 42.480469 L 86.65625 42.578125 L 87.238281 42.601562 L 87.824219 42.609375 L 88.992188 42.625 C 89.769531 42.632812 90.546875 42.65625 91.328125 42.636719 C 93.804688 42.625 96.28125 42.539062 98.761719 42.382812 C 101.199219 42.230469 103.636719 42.011719 106.066406 41.722656 L 106.066406 42.414062 C 105.253906 42.503906 104.445312 42.609375 103.632812 42.683594 L 101.003906 42.917969 C 100.574219 44.109375 100.125 45.265625 99.664062 46.441406 L 99.414062 47.078125 L 98.734375 48.773438 L 98.472656 49.410156 L 97.652344 51.371094 L 96.808594 53.308594 C 96.746094 53.441406 96.640625 53.511719 96.492188 53.515625 C 96.347656 53.519531 96.238281 53.460938 96.164062 53.332031 C 95.5625 52.226562 94.972656 51.121094 94.398438 50.015625 C 93.824219 48.910156 93.261719 47.777344 92.714844 46.660156 L 92.214844 45.636719 C 91.875 44.933594 91.542969 44.234375 91.214844 43.527344 L 91.121094 43.328125 L 90.578125 43.332031 L 87.863281 43.292969 C 87.5 43.289062 87.136719 43.289062 86.773438 43.269531 C 85.125 46.574219 83.351562 49.894531 81.453125 53.128906 C 81.378906 53.253906 81.265625 53.3125 81.121094 53.300781 C 80.972656 53.292969 80.871094 53.21875 80.8125 53.085938 C 80.457031 52.214844 80.109375 51.347656 79.765625 50.476562 C 79.429688 49.597656 79.097656 48.71875 78.773438 47.839844 C 78.125 46.082031 77.511719 44.328125 76.925781 42.578125 L 74.878906 42.324219 L 73.855469 42.195312 C 73.511719 42.15625 73.175781 42.09375 72.835938 42.042969 C 72.152344 43.09375 71.457031 44.144531 70.746094 45.1875 L 70.359375 45.753906 L 69.316406 47.257812 L 68.917969 47.816406 C 68.101562 48.960938 67.269531 50.097656 66.414062 51.234375 C 66.324219 51.347656 66.203125 51.394531 66.058594 51.367188 C 65.914062 51.339844 65.820312 51.257812 65.777344 51.113281 L 65.28125 49.304688 L 64.808594 47.476562 C 64.503906 46.257812 64.210938 45.042969 63.933594 43.828125 L 63.6875 42.722656 C 63.519531 41.964844 63.351562 41.210938 63.199219 40.441406 L 63.15625 40.21875 L 61.054688 39.707031 C 60.707031 39.617188 60.351562 39.539062 60.007812 39.441406 L 58.964844 39.148438 C 57.777344 40.566406 56.554688 41.988281 55.300781 43.375 C 54.054688 44.753906 52.769531 46.121094 51.453125 47.476562 C 51.351562 47.582031 51.226562 47.613281 51.085938 47.566406 C 50.945312 47.523438 50.863281 47.429688 50.839844 47.285156 C 50.695312 46.363281 50.570312 45.417969 50.449219 44.488281 C 50.332031 43.554688 50.21875 42.621094 50.117188 41.695312 C 49.914062 39.835938 49.738281 38.003906 49.613281 36.136719 C 48.335938 35.644531 47.046875 35.175781 45.792969 34.625 C 44.871094 35.476562 43.9375 36.320312 42.988281 37.160156 L 42.472656 37.617188 C 42.011719 38.023438 41.554688 38.410156 41.09375 38.804688 L 40.566406 39.242188 C 39.492188 40.144531 38.394531 41.039062 37.277344 41.925781 C 37.160156 42.015625 37.035156 42.03125 36.902344 41.96875 C 36.765625 41.90625 36.695312 41.800781 36.691406 41.65625 C 36.660156 40.410156 36.664062 39.128906 36.667969 37.878906 C 36.679688 36.625 36.707031 35.375 36.746094 34.132812 L 36.785156 33.003906 C 36.8125 32.230469 36.855469 31.449219 36.902344 30.667969 L 36.917969 30.445312 C 35.65625 29.753906 34.378906 29.09375 33.152344 28.34375 C 31.640625 29.40625 30.089844 30.464844 28.523438 31.484375 C 26.957031 32.492188 25.367188 33.476562 23.742188 34.445312 C 23.613281 34.519531 23.488281 34.515625 23.363281 34.433594 C 23.238281 34.355469 23.179688 34.242188 23.195312 34.097656 L 23.359375 32.703125 L 23.546875 31.296875 C 23.675781 30.363281 23.808594 29.433594 23.953125 28.511719 C 24.097656 27.585938 24.25 26.667969 24.40625 25.757812 C 24.566406 24.839844 24.726562 23.941406 24.914062 23.019531 L 23.261719 21.800781 L 22.871094 21.515625 C 22.417969 21.84375 21.964844 22.171875 21.503906 22.496094 C 21.378906 22.578125 21.253906 22.585938 21.121094 22.515625 C 20.988281 22.449219 20.925781 22.339844 20.925781 22.191406 C 20.9375 21.761719 20.957031 21.332031 20.976562 20.898438 C 20.078125 21.359375 19.175781 21.816406 18.261719 22.269531 L 17.644531 22.570312 L 15.996094 23.363281 L 15.371094 23.660156 C 14.09375 24.25 12.808594 24.820312 11.503906 25.378906 C 11.367188 25.433594 11.242188 25.414062 11.128906 25.316406 C 11.019531 25.222656 10.976562 25.105469 11.007812 24.960938 C 11.316406 23.738281 11.632812 22.527344 11.960938 21.328125 C 12.304688 20.113281 12.660156 18.910156 13.023438 17.71875 L 13.359375 16.632812 C 13.59375 15.890625 13.832031 15.152344 14.074219 14.414062 L 14.144531 14.203125 C 13.605469 13.726562 13.101562 13.210938 12.582031 12.710938 L 12.121094 12.261719 L 8.542969 14.347656 C 8.417969 14.421875 8.296875 14.417969 8.179688 14.335938 C 8.0625 14.253906 8.011719 14.140625 8.03125 14 L 8.316406 12.167969 C 7.472656 12.460938 6.625 12.746094 5.773438 13.023438 C 4.882812 13.316406 3.988281 13.601562 3.089844 13.878906 C 2.1875 14.15625 1.28125 14.433594 0.382812 14.683594 C 0.238281 14.722656 0.121094 14.6875 0.0234375 14.574219 C -0.078125 14.464844 -0.101562 14.339844 -0.0507812 14.203125 Z M 91.3125 28.769531 C 91.710938 29.511719 92.113281 30.25 92.523438 30.992188 C 92.933594 31.734375 93.351562 32.472656 93.773438 33.214844 C 94.195312 33.953125 94.621094 34.683594 95.054688 35.417969 C 95.371094 34.625 95.679688 33.835938 95.984375 33.042969 C 96.289062 32.246094 96.585938 31.453125 96.875 30.660156 C 97.457031 29.074219 98.011719 27.472656 98.539062 25.882812 C 95.757812 26.183594 92.945312 26.398438 90.132812 26.527344 C 90.519531 27.273438 90.914062 28.023438 91.3125 28.769531 Z M 84.507812 26.683594 L 83.605469 26.691406 L 82.710938 26.683594 L 80.910156 26.675781 L 79.113281 26.628906 C 78.515625 26.609375 77.914062 26.605469 77.316406 26.570312 C 78.253906 27.132812 79.203125 27.660156 80.164062 28.210938 C 80.640625 28.484375 81.125 28.746094 81.609375 29.007812 L 83.070312 29.796875 C 83.558594 28.769531 84.039062 27.722656 84.507812 26.683594 Z M 80.089844 35.832031 C 80.632812 34.789062 81.160156 33.726562 81.683594 32.667969 L 80.675781 32.132812 L 79.671875 31.582031 L 77.691406 30.472656 C 78.460938 32.257812 79.261719 34.042969 80.089844 35.832031 Z M 77.246094 29.421875 C 78.023438 29.878906 78.804688 30.308594 79.597656 30.753906 L 80.785156 31.414062 L 81.984375 32.050781 L 82.691406 30.589844 L 82.777344 30.410156 L 81.074219 29.496094 C 80.511719 29.195312 79.949219 28.867188 79.394531 28.558594 L 77.734375 27.609375 L 76.09375 26.628906 C 76.46875 27.558594 76.855469 28.492188 77.246094 29.421875 Z M 63.316406 29.9375 C 63.570312 30.746094 63.832031 31.5625 64.101562 32.367188 C 64.371094 33.167969 64.644531 33.96875 64.929688 34.769531 C 65.855469 33.339844 66.761719 31.90625 67.644531 30.46875 C 68.527344 29.023438 69.390625 27.5625 70.226562 26.105469 L 68.125 25.90625 L 66.027344 25.664062 L 64.980469 25.539062 C 64.632812 25.496094 64.285156 25.441406 63.933594 25.394531 L 61.847656 25.097656 C 62.3125 26.707031 62.800781 28.320312 63.316406 29.9375 Z M 56.332031 24.121094 L 54.582031 23.773438 C 53.996094 23.652344 53.417969 23.507812 52.839844 23.378906 L 51.097656 22.976562 C 50.808594 22.914062 50.519531 22.835938 50.234375 22.757812 L 49.371094 22.53125 L 50.566406 23.648438 L 51.789062 24.730469 L 53.03125 25.8125 L 53.660156 26.359375 C 53.871094 26.539062 54.085938 26.707031 54.296875 26.882812 C 54.988281 25.964844 55.667969 25.046875 56.332031 24.121094 Z M 50.132812 32.171875 C 50.886719 31.253906 51.625 30.335938 52.347656 29.414062 L 50.609375 27.929688 L 49.75 27.191406 L 48.90625 26.425781 C 49.277344 28.359375 49.6875 30.257812 50.132812 32.171875 Z M 48.300781 23.078125 C 48.382812 23.570312 48.472656 24.066406 48.5625 24.5625 C 48.605469 24.808594 48.652344 25.054688 48.695312 25.304688 L 49.691406 26.21875 C 50.023438 26.527344 50.367188 26.808594 50.707031 27.105469 L 52.773438 28.875 C 53.144531 28.398438 53.515625 27.921875 53.882812 27.433594 C 52.890625 26.605469 51.925781 25.75 50.96875 24.917969 C 50.730469 24.707031 50.492188 24.503906 50.253906 24.285156 L 49.554688 23.632812 L 48.175781 22.335938 C 48.214844 22.582031 48.257812 22.828125 48.300781 23.078125 Z M 100.273438 42.972656 L 98.488281 43.085938 C 97.890625 43.125 97.292969 43.171875 96.699219 43.1875 L 94.910156 43.253906 L 94.011719 43.289062 C 93.714844 43.296875 93.417969 43.296875 93.117188 43.300781 L 93.84375 43.683594 C 94.085938 43.804688 94.332031 43.921875 94.574219 44.042969 L 96.046875 44.765625 C 96.542969 45.003906 97.039062 45.25 97.539062 45.480469 L 99.042969 46.164062 C 99.464844 45.097656 99.875 44.035156 100.273438 42.972656 Z M 96.445312 52.375 C 96.925781 51.292969 97.390625 50.222656 97.839844 49.132812 C 97.148438 48.820312 96.457031 48.484375 95.769531 48.160156 C 95.082031 47.832031 94.402344 47.515625 93.726562 47.175781 C 94.601562 48.921875 95.507812 50.644531 96.445312 52.375 Z M 93.21875 46.152344 C 94.019531 46.574219 94.824219 46.949219 95.640625 47.339844 L 96.867188 47.925781 L 97.484375 48.21875 L 98.105469 48.492188 L 98.792969 46.800781 C 98.203125 46.53125 97.617188 46.28125 97.035156 46 L 95.304688 45.160156 C 94.730469 44.878906 94.160156 44.613281 93.597656 44.316406 L 91.910156 43.433594 C 92.335938 44.339844 92.773438 45.246094 93.21875 46.152344 Z M 81.199219 52.164062 C 82.058594 50.6875 82.890625 49.21875 83.699219 47.734375 C 84.503906 46.234375 85.289062 44.738281 86.042969 43.238281 L 83.941406 43.152344 C 83.242188 43.113281 82.542969 43.058594 81.84375 43.011719 C 80.441406 42.9375 79.050781 42.78125 77.652344 42.652344 C 78.730469 45.824219 79.910156 49.027344 81.199219 52.164062 Z M 72.113281 41.933594 L 70.347656 41.664062 L 68.59375 41.34375 L 66.839844 41.019531 L 65.097656 40.648438 C 65.921875 41.351562 66.75 42.074219 67.605469 42.742188 L 68.894531 43.769531 C 69.328125 44.105469 69.761719 44.460938 70.203125 44.785156 C 70.851562 43.835938 71.488281 42.886719 72.113281 41.933594 Z M 65.507812 47.410156 C 65.75 48.363281 66.007812 49.300781 66.269531 50.246094 C 66.980469 49.296875 67.679688 48.347656 68.367188 47.394531 C 67.152344 46.453125 65.957031 45.539062 64.800781 44.554688 C 65.027344 45.503906 65.261719 46.457031 65.507812 47.410156 Z M 64.542969 43.449219 L 65.574219 44.3125 C 65.921875 44.601562 66.269531 44.890625 66.625 45.164062 L 68.765625 46.835938 L 68.769531 46.835938 C 68.921875 46.621094 69.074219 46.40625 69.226562 46.191406 C 69.378906 45.976562 69.527344 45.761719 69.679688 45.542969 C 69.722656 45.480469 69.769531 45.417969 69.8125 45.351562 C 69.300781 44.957031 68.792969 44.558594 68.292969 44.160156 C 67.789062 43.761719 67.289062 43.363281 66.792969 42.96875 C 65.808594 42.15625 64.84375 41.324219 63.894531 40.511719 C 64.101562 41.484375 64.316406 42.464844 64.542969 43.449219 Z M 50.777344 41.421875 C 50.96875 43.101562 51.179688 44.808594 51.4375 46.480469 C 53.820312 44.015625 56.082031 41.542969 58.265625 38.957031 C 56.914062 38.601562 55.589844 38.160156 54.253906 37.75 C 53.582031 37.550781 52.929688 37.308594 52.269531 37.085938 L 50.292969 36.398438 C 50.425781 38.066406 50.585938 39.738281 50.777344 41.421875 Z M 42.566406 36.636719 C 43.429688 35.878906 44.28125 35.113281 45.121094 34.34375 L 44.304688 34 L 43.894531 33.828125 L 43.488281 33.640625 L 41.875 32.902344 L 41.070312 32.53125 L 40.664062 32.34375 L 40.269531 32.144531 L 38.679688 31.351562 L 39.609375 32.683594 L 40.082031 33.355469 C 40.242188 33.578125 40.40625 33.789062 40.570312 34.007812 C 41.222656 34.878906 41.886719 35.753906 42.566406 36.636719 Z M 40.664062 38.253906 L 42.050781 37.082031 C 41.257812 36.054688 40.480469 35.039062 39.726562 34.023438 C 38.984375 32.980469 38.261719 31.941406 37.550781 30.917969 C 37.503906 31.910156 37.460938 32.910156 37.433594 33.914062 C 37.949219 34.640625 38.472656 35.378906 39.007812 36.109375 Z M 37.390625 40.933594 C 38.320312 40.195312 39.234375 39.449219 40.140625 38.695312 L 38.742188 36.890625 C 38.285156 36.285156 37.84375 35.660156 37.402344 35.050781 C 37.359375 36.996094 37.34375 38.988281 37.390625 40.933594 Z M 22.121094 14.503906 C 22.589844 15.257812 23.058594 16.039062 23.558594 16.789062 C 24.0625 17.527344 24.574219 18.269531 25.09375 19.019531 C 25.582031 18.65625 26.0625 18.289062 26.539062 17.921875 C 25.804688 16.851562 25.089844 15.796875 24.394531 14.75 C 23.71875 13.664062 23.066406 12.585938 22.429688 11.515625 C 22.316406 12.507812 22.214844 13.5 22.121094 14.503906 Z M 28.945312 14.976562 L 28.164062 14.566406 L 26.601562 13.742188 L 25.820312 13.332031 C 25.558594 13.195312 25.296875 13.0625 25.046875 12.90625 L 23.523438 12.019531 L 24.359375 13.40625 L 24.789062 14.105469 L 25.234375 14.777344 C 25.835938 15.679688 26.449219 16.589844 27.078125 17.503906 C 27.96875 16.8125 28.867188 16.082031 29.746094 15.355469 Z M 34.949219 21.433594 L 35.035156 22.695312 C 35.148438 24.375 35.296875 26.066406 35.46875 27.765625 C 36.089844 27.183594 36.703125 26.601562 37.3125 26.015625 C 37.917969 25.425781 38.523438 24.8125 39.121094 24.210938 C 40.3125 23.003906 41.480469 21.78125 42.617188 20.554688 L 40.636719 19.882812 C 40.308594 19.769531 39.972656 19.664062 39.648438 19.539062 L 38.671875 19.171875 L 36.722656 18.425781 L 36.230469 18.242188 C 36.070312 18.179688 35.910156 18.109375 35.753906 18.042969 L 34.792969 17.632812 C 34.816406 18.472656 34.847656 19.316406 34.886719 20.164062 Z M 24.660156 28.421875 C 24.53125 29.261719 24.410156 30.105469 24.296875 30.949219 C 24.179688 31.796875 24.082031 32.628906 23.984375 33.476562 C 26.925781 31.71875 29.753906 29.917969 32.527344 27.976562 C 30.121094 26.570312 27.796875 25.027344 25.507812 23.441406 C 25.199219 25.085938 24.917969 26.746094 24.660156 28.421875 Z M 33.320312 27.644531 C 33.824219 27.941406 34.328125 28.230469 34.835938 28.515625 C 34.640625 26.644531 34.480469 24.789062 34.359375 22.941406 C 34.242188 21.070312 34.167969 19.199219 34.125 17.351562 L 33.183594 16.949219 C 32.871094 16.8125 32.550781 16.691406 32.246094 16.539062 L 30.398438 15.664062 C 29.4375 16.472656 28.460938 17.269531 27.46875 18.0625 L 26.929688 18.484375 C 26.453125 18.855469 25.976562 19.222656 25.492188 19.585938 L 24.945312 20 C 24.453125 20.367188 23.957031 20.730469 23.457031 21.09375 C 26.625 23.460938 29.910156 25.644531 33.320312 27.644531 Z M 24.542969 19.429688 L 23.246094 17.554688 C 23.027344 17.25 22.828125 16.921875 22.625 16.601562 L 22.019531 15.636719 C 21.90625 17.007812 21.808594 18.398438 21.738281 19.78125 C 21.785156 19.816406 21.835938 19.855469 21.882812 19.894531 C 22.210938 20.148438 22.542969 20.398438 22.875 20.652344 C 23.433594 20.246094 23.992188 19.839844 24.542969 19.429688 Z M 22.277344 21.078125 C 22.085938 20.929688 21.894531 20.777344 21.703125 20.625 C 21.6875 20.921875 21.675781 21.21875 21.667969 21.511719 C 21.871094 21.367188 22.074219 21.222656 22.277344 21.078125 Z M 17.664062 20.894531 L 17.992188 21.648438 C 19.023438 21.144531 20.042969 20.632812 21.054688 20.113281 L 19.660156 19.011719 L 19.3125 18.734375 L 18.976562 18.445312 L 18.296875 17.871094 C 17.398438 17.097656 16.476562 16.351562 15.613281 15.539062 C 15.796875 16.046875 15.964844 16.574219 16.160156 17.074219 L 16.75 18.59375 L 17.355469 20.125 C 17.457031 20.382812 17.558594 20.644531 17.664062 20.894531 Z M 13 20.199219 L 12.609375 21.605469 C 12.355469 22.550781 12.109375 23.496094 11.871094 24.449219 C 12.957031 23.980469 14.035156 23.503906 15.101562 23.019531 L 14.234375 20.898438 C 13.953125 20.191406 13.664062 19.507812 13.410156 18.785156 Z M 13.738281 17.691406 L 14.199219 18.960938 L 14.699219 20.207031 L 15.722656 22.730469 C 16.269531 22.480469 16.824219 22.214844 17.375 21.949219 C 16.375 19.566406 15.445312 17.207031 14.644531 14.8125 C 14.335938 15.765625 14.035156 16.726562 13.738281 17.691406 Z M 21.066406 19.25 C 21.085938 18.972656 21.101562 18.691406 21.121094 18.417969 C 21.207031 17.160156 21.308594 15.914062 21.425781 14.679688 L 21.539062 13.550781 C 21.617188 12.777344 21.703125 12.011719 21.796875 11.246094 L 21.824219 11.027344 L 18.226562 8.695312 L 12.730469 11.90625 C 15.382812 14.496094 18.164062 16.941406 21.066406 19.25 Z M 12.222656 11.40625 L 17.597656 8.269531 L 10.375 3.351562 L 9.550781 8.675781 C 10.425781 9.601562 11.316406 10.511719 12.222656 11.40625 Z M 11.613281 11.761719 L 11.035156 11.199219 C 10.375 11.445312 9.714844 11.679688 9.050781 11.914062 L 8.820312 13.394531 Z M 5.746094 12.3125 C 7.359375 11.789062 8.953125 11.242188 10.527344 10.679688 L 9.082031 9.160156 C 8.597656 8.65625 8.109375 8.160156 7.652344 7.628906 L 6.253906 6.0625 L 5.554688 5.28125 C 5.328125 5.015625 5.105469 4.746094 4.882812 4.476562 C 4.523438 5.238281 4.164062 6.007812 3.816406 6.777344 C 3.476562 7.542969 3.136719 8.316406 2.804688 9.089844 C 2.140625 10.644531 1.492188 12.214844 0.867188 13.808594 C 2.488281 13.347656 4.128906 12.835938 5.746094 12.3125 Z M 5.746094 12.3125 " fill-opacity="1" fill-rule="nonzero"/></g></svg>