<svg xmlns="http://www.w3.org/2000/svg" xmlns:xlink="http://www.w3.org/1999/xlink" width="143" zoomAndPan="magnify" viewBox="0 0 107.25 54.749999" height="73" preserveAspectRatio="xMidYMid meet" version="1.0"><defs><clipPath id="79dff02dd7"><path d="M 0 0.0664062 L 106.503906 0.0664062 L 106.503906 53.691406 L 0 53.691406 Z M 0 0.0664062 " clip-rule="nonzero"/></clipPath></defs><g clip-path="url(#79dff02dd7)"><path fill="#230606" d="M 106.394531 14.296875 C 105.699219 12.535156 104.984375 10.796875 104.246094 9.085938 L 103.6875 7.808594 L 103.105469 6.527344 C 102.71875 5.675781 102.320312 4.828125 101.921875 3.988281 C 102.480469 3.3125 103.050781 2.648438 103.597656 1.960938 L 105.070312 0.0664062 L 104.203125 0.0664062 C 102.050781 2.859375 99.773438 5.542969 97.371094 8.121094 L 96.578125 2.996094 L 100.878906 0.0664062 L 99.660156 0.0664062 L 88.179688 7.882812 L 87.789062 8.148438 L 87.589844 8.28125 L 86.652344 8.886719 L 85.15625 9.859375 C 84.171875 10.523438 83.128906 11.101562 82.101562 11.707031 C 81.585938 12.003906 81.074219 12.308594 80.558594 12.605469 L 78.972656 13.4375 L 77.386719 14.273438 C 77.125 14.417969 76.855469 14.542969 76.585938 14.671875 L 75.773438 15.054688 L 74.214844 15.789062 L 73.4375 16.160156 L 72.640625 16.496094 L 71.050781 17.171875 L 70.257812 17.507812 L 69.859375 17.679688 L 69.457031 17.832031 L 66.222656 19.0625 L 62.9375 20.171875 C 60.703125 20.890625 58.441406 21.539062 56.160156 22.121094 C 53.875 22.703125 51.574219 23.21875 49.253906 23.664062 L 48.140625 23.886719 L 47.023438 24.078125 L 44.785156 24.457031 C 42.449219 24.828125 40.097656 25.128906 37.738281 25.371094 C 35.375 25.613281 33.007812 25.792969 30.636719 25.917969 C 28.105469 26.0625 25.570312 26.117188 23.03125 26.117188 C 22.402344 26.117188 21.777344 26.117188 21.148438 26.109375 C 18.011719 26.074219 14.875 25.9375 11.753906 25.695312 C 10.195312 25.578125 8.644531 25.425781 7.101562 25.25 C 6.332031 25.160156 5.566406 25.0625 4.808594 24.957031 C 4.433594 24.90625 4.054688 24.851562 3.691406 24.792969 L 3.160156 24.707031 L 2.632812 24.613281 L 2.628906 24.613281 L 0.0664062 24.140625 L 0.0664062 24.839844 L 0.679688 24.953125 L 0.0664062 25.140625 L 0.0664062 25.859375 L 1.894531 25.292969 L 0.113281 27.753906 L 0.0664062 27.769531 L 0.0664062 28.992188 L 0.535156 28.34375 L 1.207031 27.417969 L 2.585938 25.511719 L 2.71875 25.328125 C 3.011719 25.378906 3.359375 25.4375 3.703125 25.488281 C 4.042969 25.542969 4.398438 25.59375 4.746094 25.644531 C 5.453125 25.742188 6.164062 25.832031 6.882812 25.914062 C 8.023438 29.449219 9.308594 32.976562 10.707031 36.472656 C 10.765625 36.609375 10.867188 36.679688 11.011719 36.691406 C 11.160156 36.703125 11.273438 36.644531 11.347656 36.519531 C 13.265625 33.277344 15.074219 29.996094 16.769531 26.679688 C 17.460938 26.71875 18.15625 26.726562 18.847656 26.75 L 19.890625 26.78125 L 20.929688 26.792969 C 21.445312 27.941406 21.96875 29.089844 22.503906 30.242188 L 22.796875 30.859375 L 23.585938 32.503906 L 23.886719 33.121094 C 24.507812 34.390625 25.140625 35.664062 25.792969 36.925781 C 25.859375 37.054688 25.96875 37.117188 26.117188 37.109375 C 26.265625 37.109375 26.371094 37.039062 26.433594 36.90625 C 27.496094 34.613281 28.511719 32.34375 29.480469 30.023438 L 29.917969 28.972656 L 30.796875 26.800781 L 30.878906 26.59375 C 31.609375 26.566406 32.335938 26.5 33.0625 26.453125 L 34.152344 26.378906 L 34.699219 26.339844 L 35.242188 26.289062 C 36.160156 27.902344 37.105469 29.511719 38.078125 31.117188 C 39.050781 32.726562 40.050781 34.296875 41.078125 35.882812 C 41.160156 36.003906 41.277344 36.058594 41.421875 36.039062 C 41.566406 36.023438 41.667969 35.945312 41.71875 35.808594 C 42.34375 34.042969 42.933594 32.246094 43.5 30.457031 C 44.058594 28.667969 44.597656 26.894531 45.097656 25.101562 L 47.140625 24.753906 L 48.164062 24.578125 C 48.503906 24.519531 48.839844 24.445312 49.179688 24.378906 C 49.910156 25.402344 50.652344 26.417969 51.410156 27.433594 L 51.824219 27.984375 L 52.933594 29.445312 L 53.355469 29.988281 C 54.222656 31.09375 55.109375 32.195312 56.011719 33.292969 C 56.105469 33.40625 56.226562 33.449219 56.371094 33.414062 C 56.515625 33.378906 56.605469 33.292969 56.640625 33.148438 C 56.925781 31.917969 57.199219 30.710938 57.453125 29.472656 C 57.710938 28.234375 57.949219 27.003906 58.175781 25.777344 L 58.375 24.65625 C 58.511719 23.886719 58.640625 23.121094 58.765625 22.355469 L 58.800781 22.132812 C 59.152344 22.046875 59.496094 21.9375 59.839844 21.835938 L 60.878906 21.523438 C 61.570312 21.3125 62.265625 21.113281 62.953125 20.894531 C 64.199219 22.253906 65.476562 23.605469 66.792969 24.945312 C 67.449219 25.613281 68.117188 26.28125 68.792969 26.945312 C 69.464844 27.609375 70.140625 28.246094 70.828125 28.890625 C 70.851562 28.910156 70.871094 28.925781 70.898438 28.941406 C 67.488281 30.835938 63.984375 32.539062 60.382812 34.046875 C 59.011719 34.648438 57.597656 35.167969 56.199219 35.707031 C 53.996094 36.519531 51.769531 37.265625 49.519531 37.941406 C 47.269531 38.613281 44.996094 39.214844 42.703125 39.746094 C 41.941406 39.925781 41.171875 40.078125 40.40625 40.246094 L 39.261719 40.492188 C 38.875 40.566406 38.492188 40.632812 38.105469 40.703125 L 35.792969 41.128906 L 33.46875 41.484375 C 33.082031 41.542969 32.699219 41.605469 32.316406 41.660156 L 31.15625 41.800781 C 30.382812 41.894531 29.613281 42 28.839844 42.082031 C 27.289062 42.226562 25.742188 42.402344 24.183594 42.488281 L 23.019531 42.566406 C 22.628906 42.59375 22.242188 42.621094 21.851562 42.632812 L 19.515625 42.726562 L 18.929688 42.75 L 18.34375 42.757812 L 17.175781 42.777344 C 16.394531 42.785156 15.617188 42.808594 14.835938 42.789062 C 12.351562 42.777344 9.871094 42.691406 7.386719 42.535156 C 4.941406 42.382812 2.503906 42.160156 0.0664062 41.875 L 0.0664062 42.566406 C 0.878906 42.65625 1.691406 42.757812 2.503906 42.835938 L 5.136719 43.070312 C 5.570312 44.261719 6.019531 45.421875 6.480469 46.601562 L 6.730469 47.238281 L 7.414062 48.9375 L 7.675781 49.574219 L 8.496094 51.539062 L 9.34375 53.480469 C 9.40625 53.613281 9.511719 53.683594 9.65625 53.6875 C 9.804688 53.695312 9.914062 53.632812 9.988281 53.503906 C 10.589844 52.398438 11.179688 51.289062 11.757812 50.179688 C 12.332031 49.074219 12.898438 47.941406 13.445312 46.820312 L 13.945312 45.792969 C 14.285156 45.089844 14.617188 44.386719 14.945312 43.683594 L 15.039062 43.480469 L 15.585938 43.484375 L 16.128906 43.476562 L 17.21875 43.460938 L 18.308594 43.449219 C 18.671875 43.441406 19.035156 43.441406 19.398438 43.421875 C 21.050781 46.734375 22.828125 50.0625 24.726562 53.300781 C 24.804688 53.425781 24.914062 53.484375 25.0625 53.472656 C 25.210938 53.464844 25.3125 53.390625 25.371094 53.257812 C 25.726562 52.386719 26.078125 51.515625 26.417969 50.644531 C 26.757812 49.765625 27.089844 48.882812 27.414062 48 C 28.0625 46.242188 28.679688 44.484375 29.261719 42.730469 L 31.316406 42.472656 L 32.34375 42.347656 C 32.683594 42.304688 33.023438 42.246094 33.363281 42.195312 C 34.046875 43.246094 34.746094 44.296875 35.457031 45.34375 L 35.84375 45.914062 L 36.890625 47.421875 L 37.289062 47.976562 C 38.105469 49.125 38.941406 50.265625 39.796875 51.402344 C 39.890625 51.515625 40.007812 51.5625 40.152344 51.535156 C 40.296875 51.507812 40.394531 51.425781 40.4375 51.285156 L 40.933594 49.46875 L 41.40625 47.636719 C 41.714844 46.417969 42.007812 45.199219 42.285156 43.984375 L 42.53125 42.875 C 42.699219 42.113281 42.863281 41.359375 43.019531 40.589844 L 43.0625 40.367188 L 45.167969 39.851562 C 45.515625 39.761719 45.871094 39.6875 46.21875 39.585938 L 47.261719 39.292969 C 48.453125 40.714844 49.679688 42.136719 50.933594 43.527344 C 52.183594 44.910156 53.46875 46.28125 54.785156 47.640625 C 54.890625 47.742188 55.015625 47.773438 55.15625 47.726562 C 55.296875 47.6875 55.382812 47.59375 55.40625 47.445312 C 55.546875 46.523438 55.671875 45.574219 55.792969 44.640625 C 55.914062 43.707031 56.023438 42.773438 56.125 41.84375 C 56.332031 39.980469 56.507812 38.144531 56.632812 36.273438 C 57.914062 35.78125 59.203125 35.3125 60.460938 34.761719 C 61.382812 35.613281 62.320312 36.460938 63.269531 37.300781 L 63.789062 37.757812 C 64.25 38.164062 64.707031 38.554688 65.171875 38.945312 L 65.695312 39.386719 C 66.773438 40.292969 67.875 41.1875 68.992188 42.074219 C 69.109375 42.167969 69.234375 42.179688 69.371094 42.117188 C 69.507812 42.058594 69.578125 41.953125 69.582031 41.804688 C 69.613281 40.554688 69.609375 39.273438 69.601562 38.019531 C 69.589844 36.761719 69.566406 35.511719 69.523438 34.269531 L 69.484375 33.132812 C 69.457031 32.363281 69.414062 31.578125 69.367188 30.796875 L 69.355469 30.570312 C 70.617188 29.878906 71.898438 29.214844 73.125 28.464844 C 74.640625 29.53125 76.195312 30.589844 77.765625 31.613281 C 79.332031 32.621094 80.929688 33.609375 82.554688 34.578125 C 82.683594 34.652344 82.808594 34.648438 82.933594 34.570312 C 83.0625 34.492188 83.117188 34.378906 83.101562 34.230469 L 82.9375 32.832031 L 82.75 31.425781 C 82.625 30.488281 82.488281 29.558594 82.34375 28.632812 C 82.199219 27.707031 82.046875 26.789062 81.890625 25.875 C 81.730469 24.957031 81.566406 24.054688 81.378906 23.132812 L 83.039062 21.914062 L 83.425781 21.625 C 83.882812 21.953125 84.335938 22.28125 84.800781 22.605469 C 84.921875 22.691406 85.050781 22.695312 85.183594 22.625 C 85.3125 22.558594 85.378906 22.449219 85.378906 22.300781 C 85.367188 21.871094 85.347656 21.4375 85.328125 21.003906 C 86.226562 21.46875 87.132812 21.929688 88.046875 22.378906 L 88.664062 22.683594 L 90.316406 23.476562 L 90.945312 23.773438 C 92.222656 24.363281 93.511719 24.933594 94.820312 25.496094 C 94.957031 25.550781 95.078125 25.53125 95.191406 25.433594 C 95.304688 25.339844 95.34375 25.21875 95.3125 25.078125 C 95.007812 23.851562 94.6875 22.640625 94.359375 21.4375 C 94.015625 20.21875 93.660156 19.015625 93.292969 17.820312 L 92.957031 16.730469 C 92.722656 15.988281 92.484375 15.246094 92.242188 14.511719 L 92.171875 14.296875 C 92.710938 13.820312 93.21875 13.304688 93.738281 12.800781 L 94.199219 12.351562 L 97.78125 14.445312 C 97.90625 14.515625 98.03125 14.511719 98.148438 14.429688 C 98.265625 14.347656 98.316406 14.234375 98.296875 14.09375 L 98.011719 12.257812 C 98.855469 12.550781 99.707031 12.835938 100.5625 13.117188 C 101.453125 13.40625 102.347656 13.695312 103.25 13.972656 C 104.152344 14.253906 105.0625 14.527344 105.960938 14.78125 C 106.105469 14.820312 106.226562 14.78125 106.320312 14.671875 C 106.421875 14.5625 106.445312 14.4375 106.394531 14.296875 Z M 14.847656 28.894531 C 14.449219 29.636719 14.046875 30.378906 13.636719 31.121094 C 13.222656 31.863281 12.808594 32.605469 12.386719 33.347656 C 11.960938 34.085938 11.535156 34.816406 11.101562 35.554688 C 10.785156 34.761719 10.472656 33.96875 10.167969 33.175781 C 9.863281 32.378906 9.566406 31.582031 9.273438 30.785156 C 8.691406 29.199219 8.136719 27.59375 7.609375 26 C 10.394531 26.304688 13.210938 26.515625 16.03125 26.648438 C 15.644531 27.394531 15.25 28.144531 14.847656 28.894531 Z M 21.667969 26.800781 L 22.570312 26.8125 L 23.46875 26.804688 L 25.273438 26.792969 L 27.074219 26.746094 C 27.671875 26.726562 28.273438 26.722656 28.875 26.6875 C 27.933594 27.253906 26.980469 27.78125 26.019531 28.332031 C 25.542969 28.609375 25.058594 28.871094 24.570312 29.132812 L 23.109375 29.921875 C 22.617188 28.890625 22.136719 27.84375 21.667969 26.800781 Z M 26.09375 35.96875 C 25.550781 34.925781 25.019531 33.859375 24.5 32.800781 L 25.507812 32.265625 L 26.511719 31.710938 L 28.496094 30.597656 C 27.726562 32.386719 26.925781 34.179688 26.09375 35.96875 Z M 28.945312 29.546875 C 28.167969 30.007812 27.378906 30.433594 26.589844 30.882812 L 25.398438 31.542969 L 24.195312 32.179688 L 23.488281 30.714844 L 23.402344 30.539062 L 25.105469 29.621094 C 25.671875 29.320312 26.234375 28.992188 26.792969 28.679688 L 28.457031 27.730469 L 30.097656 26.75 C 29.722656 27.679688 29.335938 28.613281 28.945312 29.546875 Z M 42.902344 30.066406 C 42.644531 30.875 42.386719 31.691406 42.113281 32.496094 C 41.84375 33.296875 41.570312 34.101562 41.285156 34.90625 C 40.355469 33.472656 39.449219 32.035156 38.566406 30.597656 C 37.679688 29.144531 36.816406 27.683594 35.976562 26.222656 L 38.085938 26.027344 L 40.183594 25.78125 L 41.234375 25.65625 C 41.585938 25.613281 41.933594 25.558594 42.28125 25.511719 L 44.371094 25.214844 C 43.90625 26.828125 43.417969 28.445312 42.902344 30.066406 Z M 49.898438 24.238281 L 51.65625 23.886719 C 52.242188 23.765625 52.820312 23.621094 53.402344 23.492188 L 55.144531 23.089844 C 55.433594 23.027344 55.722656 22.949219 56.011719 22.871094 L 56.875 22.644531 L 55.679688 23.765625 L 54.449219 24.847656 L 53.207031 25.933594 L 52.578125 26.476562 C 52.367188 26.65625 52.152344 26.828125 51.9375 27.003906 C 51.246094 26.082031 50.566406 25.160156 49.898438 24.238281 Z M 56.109375 32.300781 C 55.359375 31.382812 54.617188 30.460938 53.890625 29.539062 L 55.632812 28.050781 L 56.496094 27.3125 L 57.339844 26.546875 C 56.972656 28.480469 56.558594 30.382812 56.109375 32.300781 Z M 57.949219 23.1875 C 57.863281 23.683594 57.777344 24.179688 57.6875 24.675781 C 57.640625 24.925781 57.597656 25.171875 57.550781 25.421875 L 56.554688 26.335938 C 56.222656 26.644531 55.878906 26.929688 55.539062 27.226562 L 53.46875 29 C 53.09375 28.523438 52.722656 28.042969 52.351562 27.554688 C 53.347656 26.726562 54.316406 25.867188 55.273438 25.035156 C 55.511719 24.820312 55.753906 24.617188 55.988281 24.402344 L 56.691406 23.746094 L 58.074219 22.445312 C 58.03125 22.691406 57.988281 22.941406 57.949219 23.1875 Z M 5.871094 43.125 L 7.660156 43.238281 C 8.257812 43.277344 8.855469 43.324219 9.453125 43.339844 L 11.246094 43.40625 L 12.144531 43.441406 C 12.441406 43.449219 12.738281 43.449219 13.039062 43.453125 L 12.3125 43.835938 C 12.070312 43.960938 11.824219 44.078125 11.582031 44.199219 L 10.105469 44.921875 C 9.609375 45.160156 9.113281 45.40625 8.609375 45.640625 L 7.101562 46.324219 C 6.679688 45.253906 6.269531 44.191406 5.871094 43.125 Z M 9.703125 52.546875 C 9.226562 51.460938 8.761719 50.390625 8.308594 49.296875 C 9.003906 48.984375 9.695312 48.648438 10.382812 48.324219 C 11.074219 47.996094 11.753906 47.679688 12.433594 47.335938 C 11.554688 49.085938 10.648438 50.8125 9.703125 52.546875 Z M 12.941406 46.3125 C 12.136719 46.734375 11.328125 47.109375 10.511719 47.503906 L 9.285156 48.085938 L 8.664062 48.378906 L 8.042969 48.65625 L 7.355469 46.960938 C 7.945312 46.691406 8.53125 46.441406 9.113281 46.15625 L 10.847656 45.316406 C 11.421875 45.035156 11.996094 44.769531 12.5625 44.46875 L 14.253906 43.585938 C 13.824219 44.496094 13.386719 45.402344 12.941406 46.3125 Z M 24.980469 52.335938 C 24.121094 50.855469 23.289062 49.382812 22.480469 47.894531 C 21.671875 46.394531 20.886719 44.894531 20.128906 43.390625 L 22.234375 43.304688 C 22.9375 43.265625 23.636719 43.210938 24.335938 43.164062 C 25.742188 43.085938 27.136719 42.933594 28.535156 42.800781 C 27.457031 45.980469 26.273438 49.191406 24.980469 52.335938 Z M 34.085938 42.085938 L 35.855469 41.8125 L 37.613281 41.492188 L 39.371094 41.167969 L 41.117188 40.796875 C 40.292969 41.5 39.460938 42.222656 38.601562 42.894531 L 37.3125 43.921875 C 36.878906 44.261719 36.445312 44.617188 36 44.9375 C 35.351562 43.988281 34.710938 43.039062 34.085938 42.085938 Z M 40.707031 47.570312 C 40.460938 48.523438 40.207031 49.464844 39.941406 50.414062 C 39.230469 49.460938 38.527344 48.507812 37.839844 47.554688 C 39.058594 46.613281 40.253906 45.695312 41.414062 44.710938 C 41.1875 45.660156 40.953125 46.617188 40.707031 47.570312 Z M 41.671875 43.601562 L 40.636719 44.464844 C 40.289062 44.757812 39.941406 45.046875 39.585938 45.320312 L 37.441406 46.996094 L 37.4375 46.996094 C 37.285156 46.78125 37.132812 46.566406 36.980469 46.351562 C 36.828125 46.132812 36.679688 45.921875 36.527344 45.703125 C 36.480469 45.636719 36.4375 45.574219 36.390625 45.507812 C 36.90625 45.113281 37.414062 44.710938 37.917969 44.3125 C 38.421875 43.914062 38.921875 43.515625 39.417969 43.121094 C 40.40625 42.308594 41.371094 41.472656 42.324219 40.65625 C 42.117188 41.636719 41.898438 42.617188 41.671875 43.601562 Z M 55.464844 41.570312 C 55.273438 43.253906 55.0625 44.964844 54.804688 46.640625 C 52.417969 44.171875 50.148438 41.691406 47.964844 39.097656 C 49.316406 38.742188 50.644531 38.304688 51.984375 37.890625 C 52.65625 37.695312 53.308594 37.449219 53.972656 37.222656 L 55.953125 36.535156 C 55.820312 38.207031 55.65625 39.882812 55.464844 41.570312 Z M 63.695312 36.777344 C 62.828125 36.015625 61.976562 35.25 61.132812 34.476562 L 62.363281 33.960938 L 62.769531 33.773438 L 65.195312 32.660156 L 65.597656 32.472656 L 65.996094 32.273438 L 67.585938 31.480469 L 66.65625 32.816406 L 66.183594 33.488281 C 66.023438 33.710938 65.859375 33.921875 65.695312 34.144531 C 65.039062 35.015625 64.371094 35.890625 63.695312 36.777344 Z M 65.597656 38.398438 L 64.210938 37.21875 C 65.003906 36.191406 65.78125 35.175781 66.539062 34.15625 C 67.28125 33.109375 68.007812 32.074219 68.71875 31.042969 C 68.769531 32.042969 68.808594 33.042969 68.835938 34.050781 C 68.320312 34.777344 67.796875 35.515625 67.257812 36.246094 Z M 68.878906 41.082031 C 67.949219 40.339844 67.03125 39.59375 66.125 38.839844 L 67.523438 37.03125 C 67.984375 36.425781 68.425781 35.800781 68.867188 35.1875 C 68.910156 37.136719 68.929688 39.132812 68.882812 41.082031 Z M 84.179688 14.597656 C 83.707031 15.355469 83.238281 16.136719 82.742188 16.886719 C 82.234375 17.628906 81.722656 18.375 81.199219 19.125 C 80.714844 18.757812 80.230469 18.390625 79.753906 18.023438 C 80.488281 16.953125 81.203125 15.894531 81.902344 14.847656 C 82.578125 13.757812 83.234375 12.675781 83.867188 11.605469 C 83.984375 12.597656 84.085938 13.59375 84.179688 14.597656 Z M 77.339844 15.070312 L 78.125 14.660156 L 79.691406 13.835938 L 80.472656 13.425781 C 80.734375 13.289062 81 13.152344 81.25 13 L 82.773438 12.109375 L 81.9375 13.5 L 81.507812 14.199219 L 81.058594 14.875 C 80.457031 15.777344 79.839844 16.6875 79.210938 17.605469 C 78.320312 16.914062 77.417969 16.179688 76.539062 15.449219 Z M 71.324219 21.542969 L 71.242188 22.804688 C 71.125 24.488281 70.980469 26.183594 70.804688 27.890625 C 70.183594 27.304688 69.566406 26.71875 68.960938 26.132812 C 68.351562 25.542969 67.742188 24.929688 67.148438 24.328125 C 65.949219 23.113281 64.78125 21.894531 63.644531 20.660156 L 65.628906 19.988281 C 65.957031 19.875 66.292969 19.769531 66.617188 19.644531 L 67.59375 19.273438 L 69.550781 18.53125 L 70.039062 18.34375 C 70.203125 18.285156 70.363281 18.210938 70.519531 18.144531 L 71.484375 17.734375 C 71.460938 18.578125 71.429688 19.421875 71.390625 20.273438 Z M 81.632812 28.546875 C 81.761719 29.386719 81.886719 30.230469 82 31.078125 C 82.117188 31.925781 82.214844 32.761719 82.3125 33.609375 C 79.363281 31.847656 76.53125 30.042969 73.753906 28.097656 C 76.164062 26.691406 78.492188 25.144531 80.785156 23.554688 C 81.09375 25.203125 81.375 26.863281 81.636719 28.546875 Z M 72.957031 27.765625 C 72.453125 28.0625 71.949219 28.351562 71.441406 28.640625 C 71.632812 26.765625 71.792969 24.902344 71.917969 23.054688 C 72.035156 21.179688 72.109375 19.304688 72.152344 17.449219 L 73.097656 17.050781 C 73.410156 16.914062 73.730469 16.789062 74.035156 16.636719 L 75.886719 15.761719 C 76.847656 16.570312 77.828125 17.371094 78.824219 18.164062 L 79.359375 18.589844 C 79.835938 18.957031 80.316406 19.328125 80.804688 19.691406 L 81.351562 20.105469 C 81.84375 20.472656 82.339844 20.839844 82.839844 21.203125 C 79.667969 23.574219 76.375 25.761719 72.957031 27.765625 Z M 81.75 19.535156 L 83.050781 17.65625 C 83.269531 17.351562 83.46875 17.023438 83.675781 16.699219 L 84.28125 15.734375 C 84.394531 17.105469 84.492188 18.5 84.5625 19.886719 C 84.515625 19.921875 84.464844 19.960938 84.417969 20 C 84.089844 20.253906 83.757812 20.507812 83.425781 20.757812 C 82.863281 20.355469 82.304688 19.945312 81.75 19.535156 Z M 84.023438 21.183594 C 84.214844 21.035156 84.40625 20.882812 84.601562 20.730469 C 84.613281 21.027344 84.625 21.324219 84.632812 21.621094 C 84.429688 21.476562 84.226562 21.328125 84.023438 21.183594 Z M 88.644531 21.003906 L 88.316406 21.757812 C 87.285156 21.253906 86.261719 20.742188 85.246094 20.21875 L 86.644531 19.113281 L 86.992188 18.839844 L 88.011719 17.972656 C 88.910156 17.199219 89.835938 16.453125 90.699219 15.636719 C 90.519531 16.144531 90.347656 16.671875 90.152344 17.175781 L 89.5625 18.695312 L 88.957031 20.230469 C 88.851562 20.488281 88.753906 20.75 88.644531 21.003906 Z M 93.320312 20.304688 L 93.707031 21.714844 C 93.964844 22.660156 94.210938 23.609375 94.453125 24.566406 C 93.359375 24.09375 92.28125 23.617188 91.214844 23.128906 L 92.082031 21.007812 C 92.363281 20.300781 92.652344 19.609375 92.90625 18.886719 Z M 92.578125 17.792969 L 92.117188 19.0625 L 91.617188 20.316406 L 90.589844 22.84375 C 90.042969 22.59375 89.484375 22.324219 88.9375 22.058594 C 89.9375 19.671875 90.867188 17.308594 91.671875 14.910156 C 91.980469 15.863281 92.285156 16.824219 92.578125 17.792969 Z M 85.234375 19.351562 C 85.21875 19.074219 85.199219 18.796875 85.179688 18.519531 C 85.097656 17.261719 84.996094 16.011719 84.875 14.773438 L 84.765625 13.644531 C 84.683594 12.871094 84.597656 12.101562 84.503906 11.335938 L 84.476562 11.113281 L 88.082031 8.78125 L 93.589844 11.996094 C 90.929688 14.589844 88.144531 17.042969 85.234375 19.351562 Z M 94.097656 11.496094 L 88.710938 8.351562 L 95.949219 3.425781 L 96.773438 8.757812 C 95.898438 9.6875 95.003906 10.601562 94.097656 11.496094 Z M 94.707031 11.851562 L 95.285156 11.289062 C 95.949219 11.53125 96.613281 11.769531 97.277344 12.003906 L 97.507812 13.484375 Z M 100.589844 12.402344 C 98.972656 11.878906 97.375 11.332031 95.796875 10.765625 L 97.246094 9.246094 C 97.730469 8.738281 98.222656 8.242188 98.679688 7.710938 L 100.078125 6.140625 L 100.777344 5.359375 C 101.007812 5.09375 101.226562 4.820312 101.453125 4.550781 C 101.8125 5.316406 102.171875 6.085938 102.519531 6.859375 C 102.863281 7.625 103.199219 8.398438 103.535156 9.175781 C 104.199219 10.730469 104.847656 12.304688 105.476562 13.902344 C 103.851562 13.441406 102.207031 12.929688 100.589844 12.402344 Z M 100.589844 12.402344 " fill-opacity="1" fill-rule="nonzero"/></g></svg>