<svg xmlns="http://www.w3.org/2000/svg" xmlns:xlink="http://www.w3.org/1999/xlink" width="75" zoomAndPan="magnify" viewBox="0 0 56.25 56.249997" height="75" preserveAspectRatio="xMidYMid meet" version="1.2"><defs><clipPath id="55a1286008"><path d="M 7 22 L 27 22 L 27 35 L 7 35 Z M 7 22 "/></clipPath><clipPath id="be5604a4cc"><path d="M 0.00390625 23.582031 L 31.195312 -0.203125 L 54.980469 30.992188 L 23.785156 54.777344 Z M 0.00390625 23.582031 "/></clipPath><clipPath id="06df887754"><path d="M 0.00390625 23.582031 L 31.195312 -0.203125 L 54.980469 30.992188 L 23.785156 54.777344 Z M 0.00390625 23.582031 "/></clipPath><clipPath id="6a7bb7977e"><path d="M 0.00390625 23.582031 L 31.195312 -0.203125 L 54.980469 30.992188 L 23.785156 54.777344 Z M 0.00390625 23.582031 "/></clipPath><clipPath id="553befaa22"><path d="M 23 4 L 42 4 L 42 18 L 23 18 Z M 23 4 "/></clipPath><clipPath id="ce7945ea1e"><path d="M 0.00390625 23.582031 L 31.195312 -0.203125 L 54.980469 30.992188 L 23.785156 54.777344 Z M 0.00390625 23.582031 "/></clipPath><clipPath id="e51cf0dc37"><path d="M 0.00390625 23.582031 L 31.195312 -0.203125 L 54.980469 30.992188 L 23.785156 54.777344 Z M 0.00390625 23.582031 "/></clipPath><clipPath id="180dfa782d"><path d="M 0.00390625 23.582031 L 31.195312 -0.203125 L 54.980469 30.992188 L 23.785156 54.777344 Z M 0.00390625 23.582031 "/></clipPath><clipPath id="24cae84897"><path d="M 30 24 L 42 24 L 42 46 L 30 46 Z M 30 24 "/></clipPath><clipPath id="dce79c1061"><path d="M 0.00390625 23.582031 L 31.195312 -0.203125 L 54.980469 30.992188 L 23.785156 54.777344 Z M 0.00390625 23.582031 "/></clipPath><clipPath id="82bdbf0f89"><path d="M 0.00390625 23.582031 L 31.195312 -0.203125 L 54.980469 30.992188 L 23.785156 54.777344 Z M 0.00390625 23.582031 "/></clipPath><clipPath id="51f0a0c6dd"><path d="M 0.00390625 23.582031 L 31.195312 -0.203125 L 54.980469 30.992188 L 23.785156 54.777344 Z M 0.00390625 23.582031 "/></clipPath></defs><g id="9ee178ed62"><g clip-rule="nonzero" clip-path="url(#55a1286008)"><g clip-rule="nonzero" clip-path="url(#be5604a4cc)"><g clip-rule="nonzero" clip-path="url(#06df887754)"><g clip-rule="nonzero" clip-path="url(#6a7bb7977e)"><path style=" stroke:none;fill-rule:nonzero;fill:#7ca260;fill-opacity:1;" d="M 24.960938 23.175781 C 24.933594 23.175781 24.90625 23.175781 24.878906 23.183594 C 24.863281 23.171875 24.851562 23.160156 24.832031 23.152344 C 24.761719 23.113281 24.6875 23.109375 24.625 23.132812 C 24.609375 23.132812 24.59375 23.136719 24.582031 23.136719 C 24.570312 23.128906 24.558594 23.121094 24.546875 23.113281 C 24.515625 23.097656 24.484375 23.089844 24.457031 23.089844 C 24.429688 23.078125 24.402344 23.074219 24.375 23.074219 C 24.363281 23.058594 24.351562 23.042969 24.335938 23.03125 C 24.226562 22.925781 24.066406 22.949219 24 23.058594 C 23.992188 23.054688 23.988281 23.054688 23.984375 23.050781 C 23.972656 23.039062 23.96875 23.023438 23.960938 23.011719 C 23.894531 22.902344 23.769531 22.886719 23.6875 22.949219 C 23.679688 22.945312 23.667969 22.945312 23.660156 22.941406 C 23.660156 22.9375 23.652344 22.9375 23.652344 22.9375 C 23.648438 22.933594 23.648438 22.925781 23.640625 22.917969 C 23.5625 22.777344 23.386719 22.773438 23.3125 22.90625 C 23.28125 22.894531 23.253906 22.894531 23.222656 22.902344 C 23.203125 22.886719 23.183594 22.871094 23.160156 22.859375 C 23.082031 22.71875 22.882812 22.605469 22.730469 22.65625 C 22.710938 22.644531 22.699219 22.636719 22.679688 22.628906 C 22.554688 22.570312 22.425781 22.617188 22.375 22.71875 C 22.296875 22.648438 22.203125 22.605469 22.113281 22.617188 C 22.097656 22.605469 22.085938 22.589844 22.070312 22.578125 C 21.972656 22.507812 21.863281 22.515625 21.785156 22.574219 C 21.785156 22.574219 21.78125 22.574219 21.78125 22.574219 C 21.765625 22.5625 21.75 22.550781 21.734375 22.542969 C 21.585938 22.464844 21.429688 22.542969 21.40625 22.679688 C 21.359375 22.664062 21.304688 22.65625 21.257812 22.671875 C 21.25 22.664062 21.238281 22.65625 21.226562 22.648438 C 21.203125 22.636719 21.179688 22.632812 21.15625 22.632812 C 21.113281 22.609375 21.070312 22.601562 21.03125 22.617188 C 21.027344 22.613281 21.027344 22.609375 21.023438 22.609375 C 20.960938 22.5625 20.886719 22.566406 20.835938 22.601562 C 20.8125 22.59375 20.792969 22.589844 20.769531 22.59375 C 20.734375 22.578125 20.695312 22.570312 20.65625 22.574219 C 20.597656 22.488281 20.488281 22.46875 20.414062 22.515625 C 20.378906 22.492188 20.339844 22.480469 20.300781 22.480469 C 20.292969 22.46875 20.285156 22.457031 20.273438 22.441406 C 20.195312 22.347656 20.078125 22.328125 19.988281 22.378906 C 19.988281 22.375 19.988281 22.375 19.984375 22.375 C 19.820312 22.265625 19.621094 22.371094 19.628906 22.558594 C 19.621094 22.5625 19.617188 22.5625 19.605469 22.566406 C 19.597656 22.5625 19.59375 22.550781 19.582031 22.546875 C 19.523438 22.515625 19.457031 22.527344 19.414062 22.5625 C 19.324219 22.445312 19.152344 22.367188 19.019531 22.414062 C 19.003906 22.40625 18.988281 22.398438 18.972656 22.386719 C 18.828125 22.324219 18.679688 22.40625 18.660156 22.542969 C 18.65625 22.542969 18.648438 22.542969 18.644531 22.542969 C 18.632812 22.53125 18.625 22.523438 18.613281 22.515625 C 18.574219 22.488281 18.539062 22.476562 18.503906 22.476562 C 18.441406 22.460938 18.367188 22.476562 18.324219 22.535156 C 18.292969 22.535156 18.261719 22.539062 18.234375 22.554688 C 18.210938 22.554688 18.191406 22.554688 18.167969 22.558594 C 18.136719 22.539062 18.105469 22.527344 18.074219 22.527344 C 17.9375 22.4375 17.765625 22.511719 17.761719 22.675781 C 17.738281 22.679688 17.714844 22.683594 17.691406 22.691406 C 17.617188 22.636719 17.53125 22.609375 17.449219 22.628906 C 17.4375 22.621094 17.425781 22.609375 17.410156 22.601562 C 17.308594 22.546875 17.195312 22.578125 17.144531 22.65625 C 17.125 22.664062 17.105469 22.675781 17.089844 22.691406 C 17.078125 22.691406 17.066406 22.691406 17.054688 22.6875 C 17.050781 22.683594 17.050781 22.679688 17.046875 22.671875 C 16.957031 22.523438 16.777344 22.511719 16.679688 22.621094 C 16.621094 22.621094 16.566406 22.644531 16.527344 22.683594 C 16.445312 22.683594 16.367188 22.707031 16.308594 22.761719 C 16.289062 22.78125 16.269531 22.804688 16.253906 22.824219 C 16.222656 22.839844 16.191406 22.859375 16.167969 22.886719 C 16.164062 22.890625 16.160156 22.898438 16.15625 22.90625 C 16.125 22.921875 16.101562 22.945312 16.089844 22.984375 C 16.074219 22.980469 16.0625 22.980469 16.050781 22.984375 C 15.988281 22.972656 15.925781 23.003906 15.898438 23.070312 C 15.828125 23.054688 15.75 23.058594 15.695312 23.105469 C 15.691406 23.109375 15.691406 23.113281 15.6875 23.117188 C 15.644531 23.109375 15.601562 23.125 15.574219 23.15625 C 15.546875 23.136719 15.515625 23.128906 15.488281 23.125 C 15.476562 23.113281 15.46875 23.097656 15.457031 23.085938 C 15.34375 22.949219 15.144531 22.992188 15.101562 23.15625 C 15.101562 23.15625 15.09375 23.160156 15.09375 23.15625 C 15.078125 23.15625 15.066406 23.15625 15.054688 23.160156 C 15.039062 23.148438 15.027344 23.136719 15.015625 23.125 C 14.867188 23.015625 14.679688 23.09375 14.660156 23.261719 C 14.601562 23.261719 14.546875 23.289062 14.511719 23.335938 C 14.472656 23.359375 14.4375 23.390625 14.410156 23.429688 C 14.367188 23.4375 14.332031 23.445312 14.292969 23.464844 C 14.160156 23.351562 13.96875 23.417969 13.949219 23.589844 C 13.84375 23.597656 13.738281 23.636719 13.6875 23.726562 C 13.683594 23.734375 13.679688 23.738281 13.675781 23.746094 C 13.613281 23.714844 13.546875 23.714844 13.492188 23.738281 C 13.488281 23.734375 13.484375 23.730469 13.476562 23.726562 C 13.296875 23.644531 13.121094 23.769531 13.136719 23.949219 C 13.117188 23.960938 13.097656 23.976562 13.085938 24 C 13.035156 24.023438 12.992188 24.054688 12.960938 24.097656 C 12.894531 24.113281 12.835938 24.148438 12.800781 24.203125 C 12.78125 24.234375 12.769531 24.261719 12.761719 24.289062 C 12.714844 24.3125 12.679688 24.351562 12.664062 24.410156 C 12.570312 24.394531 12.46875 24.410156 12.40625 24.480469 C 12.386719 24.503906 12.371094 24.527344 12.359375 24.550781 C 12.285156 24.574219 12.230469 24.648438 12.246094 24.738281 C 12.246094 24.738281 12.246094 24.738281 12.242188 24.738281 C 12.164062 24.765625 12.089844 24.816406 12.0625 24.894531 C 12.027344 24.902344 11.996094 24.910156 11.96875 24.9375 C 11.964844 24.941406 11.964844 24.941406 11.960938 24.945312 C 11.890625 24.9375 11.820312 24.96875 11.777344 25.03125 C 11.730469 25.035156 11.6875 25.058594 11.65625 25.09375 C 11.585938 25.101562 11.519531 25.125 11.472656 25.179688 C 11.457031 25.203125 11.445312 25.226562 11.433594 25.246094 C 11.398438 25.265625 11.371094 25.292969 11.351562 25.324219 C 11.296875 25.410156 11.285156 25.496094 11.304688 25.574219 C 11.296875 25.601562 11.292969 25.628906 11.292969 25.65625 C 11.257812 25.664062 11.222656 25.675781 11.199219 25.707031 C 11.171875 25.738281 11.160156 25.773438 11.152344 25.804688 C 11.089844 25.804688 11.027344 25.820312 10.980469 25.871094 C 10.960938 25.886719 10.953125 25.910156 10.9375 25.929688 C 10.871094 25.929688 10.808594 25.96875 10.777344 26.027344 C 10.777344 26.03125 10.777344 26.03125 10.773438 26.03125 C 10.742188 26.0625 10.726562 26.097656 10.710938 26.128906 C 10.707031 26.132812 10.699219 26.132812 10.691406 26.136719 C 10.613281 26.128906 10.53125 26.148438 10.472656 26.207031 C 10.410156 26.269531 10.378906 26.335938 10.371094 26.402344 C 10.347656 26.421875 10.328125 26.441406 10.316406 26.46875 C 10.289062 26.53125 10.28125 26.585938 10.285156 26.640625 C 10.203125 26.636719 10.125 26.65625 10.066406 26.714844 C 10.046875 26.734375 10.035156 26.75 10.019531 26.773438 C 9.992188 26.785156 9.96875 26.800781 9.949219 26.820312 C 9.832031 26.941406 9.816406 27.074219 9.859375 27.1875 C 9.789062 27.230469 9.730469 27.292969 9.714844 27.375 C 9.714844 27.382812 9.714844 27.390625 9.710938 27.398438 C 9.699219 27.40625 9.6875 27.421875 9.675781 27.4375 C 9.578125 27.445312 9.484375 27.484375 9.429688 27.5625 C 9.378906 27.632812 9.359375 27.703125 9.359375 27.765625 C 9.359375 27.765625 9.355469 27.769531 9.355469 27.769531 C 9.316406 27.785156 9.277344 27.808594 9.25 27.839844 C 9.164062 27.933594 9.136719 28.03125 9.144531 28.121094 C 9.03125 28.21875 9 28.339844 9.023438 28.449219 C 8.96875 28.453125 8.917969 28.472656 8.878906 28.507812 C 8.730469 28.628906 8.714844 28.785156 8.769531 28.914062 C 8.769531 28.914062 8.769531 28.921875 8.765625 28.925781 C 8.730469 28.96875 8.710938 29.03125 8.726562 29.097656 C 8.621094 29.136719 8.527344 29.207031 8.503906 29.3125 C 8.503906 29.316406 8.503906 29.320312 8.503906 29.324219 C 8.496094 29.347656 8.492188 29.375 8.492188 29.402344 C 8.457031 29.421875 8.421875 29.449219 8.398438 29.488281 C 8.371094 29.535156 8.351562 29.582031 8.34375 29.625 C 8.296875 29.648438 8.253906 29.679688 8.230469 29.726562 C 8.167969 29.828125 8.15625 29.921875 8.183594 30.007812 C 8.179688 30.019531 8.179688 30.035156 8.179688 30.046875 C 8.171875 30.058594 8.167969 30.074219 8.164062 30.085938 C 8.121094 30.121094 8.082031 30.160156 8.0625 30.214844 C 8.054688 30.242188 8.046875 30.269531 8.042969 30.292969 C 8.023438 30.316406 8.003906 30.34375 7.992188 30.375 C 7.976562 30.429688 7.96875 30.476562 7.972656 30.519531 C 7.929688 30.59375 7.925781 30.671875 7.953125 30.734375 C 7.902344 30.746094 7.855469 30.769531 7.816406 30.804688 C 7.730469 30.890625 7.703125 30.988281 7.710938 31.078125 C 7.648438 31.183594 7.640625 31.28125 7.675781 31.367188 C 7.640625 31.414062 7.621094 31.464844 7.621094 31.507812 C 7.570312 31.535156 7.527344 31.574219 7.503906 31.628906 C 7.460938 31.738281 7.476562 31.832031 7.527344 31.90625 C 7.496094 31.933594 7.472656 31.964844 7.464844 32 C 7.460938 32.015625 7.464844 32.023438 7.460938 32.035156 C 7.421875 32.042969 7.386719 32.0625 7.355469 32.09375 C 7.269531 32.183594 7.253906 32.289062 7.28125 32.375 C 7.222656 32.488281 7.242188 32.597656 7.3125 32.679688 C 7.261719 32.761719 7.265625 32.847656 7.308594 32.921875 C 7.253906 33.089844 7.367188 33.234375 7.527344 33.277344 C 7.5625 33.328125 7.609375 33.375 7.667969 33.40625 C 7.75 33.449219 7.824219 33.445312 7.890625 33.414062 C 7.953125 33.46875 8.027344 33.488281 8.101562 33.457031 C 8.128906 33.472656 8.15625 33.476562 8.183594 33.480469 C 8.230469 33.511719 8.28125 33.53125 8.335938 33.542969 C 8.359375 33.558594 8.390625 33.570312 8.417969 33.578125 C 8.46875 33.621094 8.527344 33.660156 8.589844 33.683594 C 8.652344 33.703125 8.707031 33.707031 8.761719 33.695312 C 8.773438 33.703125 8.789062 33.707031 8.800781 33.710938 C 8.804688 33.710938 8.808594 33.710938 8.808594 33.710938 C 8.910156 33.792969 9.027344 33.804688 9.125 33.761719 C 9.207031 33.8125 9.296875 33.816406 9.378906 33.773438 C 9.421875 33.785156 9.464844 33.78125 9.503906 33.761719 C 9.507812 33.761719 9.515625 33.765625 9.519531 33.765625 C 9.554688 33.804688 9.601562 33.839844 9.648438 33.863281 C 9.722656 33.902344 9.796875 33.90625 9.859375 33.882812 C 9.878906 33.890625 9.894531 33.898438 9.914062 33.902344 C 9.960938 33.910156 10.003906 33.910156 10.042969 33.902344 C 10.078125 33.921875 10.113281 33.941406 10.152344 33.953125 C 10.269531 33.992188 10.378906 33.972656 10.457031 33.90625 C 10.472656 33.90625 10.488281 33.90625 10.507812 33.902344 C 10.609375 34.015625 10.746094 34.027344 10.871094 33.953125 C 10.882812 33.957031 10.890625 33.964844 10.898438 33.96875 C 10.914062 33.972656 10.929688 33.976562 10.941406 33.980469 C 11.035156 34.046875 11.140625 34.035156 11.226562 33.960938 C 11.230469 33.964844 11.234375 33.96875 11.242188 33.972656 C 11.347656 34.046875 11.460938 34.039062 11.554688 33.972656 C 11.578125 33.988281 11.601562 34.003906 11.628906 34.015625 C 11.683594 34.042969 11.738281 34.050781 11.789062 34.046875 C 11.890625 34.097656 11.988281 34.078125 12.0625 34.011719 C 12.070312 34.011719 12.078125 34.015625 12.082031 34.015625 C 12.128906 34.085938 12.191406 34.144531 12.265625 34.1875 C 12.429688 34.28125 12.589844 34.230469 12.6875 34.085938 C 12.726562 34.128906 12.773438 34.164062 12.824219 34.191406 C 12.96875 34.265625 13.101562 34.230469 13.195312 34.121094 C 13.210938 34.117188 13.226562 34.113281 13.242188 34.105469 C 13.261719 34.117188 13.285156 34.132812 13.3125 34.144531 C 13.355469 34.164062 13.394531 34.171875 13.433594 34.175781 C 13.464844 34.195312 13.503906 34.207031 13.542969 34.222656 C 13.707031 34.269531 13.839844 34.199219 13.910156 34.058594 C 13.914062 34.058594 13.921875 34.054688 13.929688 34.050781 C 13.980469 34.070312 14.027344 34.082031 14.070312 34.070312 C 14.117188 34.105469 14.164062 34.132812 14.21875 34.15625 C 14.300781 34.1875 14.378906 34.1875 14.449219 34.160156 C 14.464844 34.167969 14.476562 34.179688 14.492188 34.183594 C 14.613281 34.234375 14.722656 34.214844 14.804688 34.152344 C 14.921875 34.160156 15.015625 34.109375 15.078125 34.015625 C 15.105469 34.019531 15.132812 34.015625 15.15625 34.007812 C 15.175781 34.03125 15.195312 34.058594 15.214844 34.085938 C 15.351562 34.226562 15.53125 34.214844 15.671875 34.089844 C 15.71875 34.042969 15.753906 33.980469 15.78125 33.910156 C 15.804688 33.90625 15.832031 33.898438 15.851562 33.878906 C 15.851562 33.878906 15.855469 33.882812 15.859375 33.878906 C 15.863281 33.878906 15.867188 33.882812 15.875 33.882812 C 15.925781 33.890625 15.96875 33.878906 16.007812 33.855469 C 16.050781 33.867188 16.089844 33.867188 16.128906 33.851562 C 16.191406 33.863281 16.257812 33.84375 16.316406 33.796875 C 16.324219 33.789062 16.328125 33.78125 16.335938 33.773438 C 16.398438 33.792969 16.460938 33.769531 16.507812 33.710938 C 16.511719 33.710938 16.511719 33.703125 16.515625 33.699219 C 16.539062 33.703125 16.558594 33.703125 16.578125 33.699219 C 16.621094 33.734375 16.671875 33.75 16.71875 33.746094 C 16.753906 33.777344 16.792969 33.800781 16.835938 33.824219 C 16.980469 33.886719 17.109375 33.847656 17.195312 33.746094 C 17.210938 33.738281 17.230469 33.730469 17.246094 33.722656 C 17.300781 33.730469 17.351562 33.714844 17.40625 33.6875 C 17.464844 33.691406 17.523438 33.667969 17.574219 33.628906 C 17.578125 33.628906 17.585938 33.632812 17.59375 33.632812 C 17.710938 33.65625 17.804688 33.609375 17.863281 33.527344 C 17.925781 33.527344 17.988281 33.496094 18.039062 33.441406 C 18.042969 33.433594 18.046875 33.425781 18.050781 33.421875 C 18.058594 33.429688 18.0625 33.4375 18.070312 33.441406 C 18.222656 33.5625 18.398438 33.527344 18.515625 33.386719 C 18.558594 33.339844 18.578125 33.28125 18.59375 33.214844 C 18.632812 33.210938 18.671875 33.191406 18.703125 33.164062 C 18.703125 33.164062 18.707031 33.167969 18.707031 33.167969 C 18.8125 33.191406 18.898438 33.171875 18.964844 33.117188 C 19.082031 33.136719 19.191406 33.085938 19.265625 32.972656 C 19.289062 32.9375 19.304688 32.898438 19.316406 32.851562 C 19.328125 32.855469 19.335938 32.851562 19.34375 32.851562 C 19.4375 32.882812 19.535156 32.851562 19.613281 32.777344 C 19.773438 32.808594 19.90625 32.722656 19.96875 32.566406 C 19.988281 32.507812 19.992188 32.445312 19.988281 32.375 C 20.128906 32.390625 20.238281 32.316406 20.289062 32.183594 C 20.296875 32.179688 20.304688 32.171875 20.3125 32.164062 C 20.421875 32.164062 20.507812 32.101562 20.546875 31.988281 C 20.550781 31.976562 20.550781 31.964844 20.554688 31.953125 C 20.59375 31.9375 20.636719 31.910156 20.671875 31.871094 C 20.695312 31.847656 20.714844 31.820312 20.726562 31.789062 C 20.753906 31.769531 20.777344 31.746094 20.796875 31.714844 C 20.804688 31.703125 20.804688 31.695312 20.808594 31.6875 C 20.882812 31.667969 20.921875 31.613281 20.933594 31.542969 C 21 31.53125 21.0625 31.492188 21.113281 31.425781 C 21.152344 31.414062 21.1875 31.386719 21.214844 31.351562 C 21.316406 31.359375 21.410156 31.3125 21.484375 31.222656 C 21.53125 31.167969 21.554688 31.09375 21.570312 31.015625 C 21.570312 31.015625 21.574219 31.011719 21.574219 31.011719 C 21.6875 31 21.738281 30.929688 21.75 30.84375 C 21.769531 30.824219 21.78125 30.804688 21.792969 30.785156 C 21.882812 30.769531 21.960938 30.707031 22 30.609375 C 22.015625 30.574219 22.019531 30.539062 22.019531 30.503906 C 22.078125 30.476562 22.132812 30.433594 22.167969 30.367188 C 22.175781 30.355469 22.175781 30.34375 22.183594 30.332031 C 22.1875 30.320312 22.191406 30.3125 22.191406 30.300781 C 22.269531 30.273438 22.320312 30.207031 22.335938 30.117188 C 22.339844 30.101562 22.335938 30.082031 22.335938 30.0625 C 22.335938 30.0625 22.339844 30.0625 22.339844 30.0625 C 22.398438 30.042969 22.453125 30.007812 22.5 29.953125 C 22.539062 29.910156 22.5625 29.851562 22.578125 29.789062 C 22.597656 29.777344 22.613281 29.761719 22.628906 29.742188 C 22.761719 29.710938 22.789062 29.582031 22.757812 29.453125 C 22.773438 29.4375 22.78125 29.417969 22.789062 29.398438 C 22.796875 29.398438 22.804688 29.402344 22.8125 29.40625 C 22.957031 29.429688 23.058594 29.34375 23.089844 29.210938 C 23.09375 29.183594 23.09375 29.152344 23.089844 29.125 C 23.140625 29.09375 23.179688 29.039062 23.195312 28.972656 C 23.195312 28.960938 23.195312 28.949219 23.195312 28.9375 C 23.203125 28.925781 23.207031 28.914062 23.210938 28.902344 C 23.238281 28.882812 23.261719 28.855469 23.28125 28.824219 C 23.289062 28.808594 23.292969 28.792969 23.296875 28.777344 C 23.339844 28.757812 23.375 28.726562 23.402344 28.679688 C 23.433594 28.65625 23.460938 28.628906 23.488281 28.585938 C 23.523438 28.535156 23.535156 28.464844 23.539062 28.398438 C 23.539062 28.398438 23.539062 28.394531 23.542969 28.394531 C 23.566406 28.386719 23.585938 28.378906 23.601562 28.363281 C 23.734375 28.378906 23.835938 28.304688 23.890625 28.175781 C 23.914062 28.121094 23.914062 28.058594 23.90625 27.996094 C 23.90625 27.992188 23.910156 27.992188 23.910156 27.992188 C 23.917969 27.984375 23.921875 27.972656 23.925781 27.964844 C 23.945312 27.953125 23.960938 27.9375 23.972656 27.925781 C 24 27.910156 24.019531 27.890625 24.035156 27.867188 C 24.101562 27.84375 24.160156 27.796875 24.203125 27.722656 C 24.234375 27.671875 24.242188 27.609375 24.246094 27.542969 C 24.273438 27.527344 24.300781 27.503906 24.324219 27.476562 C 24.351562 27.457031 24.367188 27.429688 24.378906 27.398438 C 24.398438 27.355469 24.414062 27.308594 24.421875 27.257812 C 24.519531 27.242188 24.589844 27.167969 24.621094 27.058594 C 24.632812 27.023438 24.628906 26.984375 24.625 26.945312 C 24.636719 26.921875 24.648438 26.898438 24.652344 26.875 C 24.675781 26.847656 24.695312 26.816406 24.707031 26.777344 C 24.71875 26.753906 24.71875 26.726562 24.722656 26.699219 C 24.734375 26.671875 24.742188 26.640625 24.75 26.609375 C 24.890625 26.589844 24.902344 26.453125 24.851562 26.332031 C 24.871094 26.316406 24.894531 26.300781 24.914062 26.273438 C 24.917969 26.265625 24.921875 26.253906 24.925781 26.242188 C 25.011719 26.230469 25.085938 26.1875 25.148438 26.113281 C 25.191406 26.054688 25.214844 25.980469 25.226562 25.902344 C 25.226562 25.902344 25.230469 25.902344 25.230469 25.902344 C 25.371094 25.878906 25.414062 25.769531 25.398438 25.652344 C 25.402344 25.648438 25.398438 25.644531 25.402344 25.640625 C 25.523438 25.617188 25.5625 25.511719 25.550781 25.394531 C 25.578125 25.355469 25.601562 25.308594 25.617188 25.257812 C 25.617188 25.257812 25.621094 25.257812 25.625 25.257812 C 25.898438 25.265625 25.890625 24.894531 25.734375 24.710938 C 25.734375 24.691406 25.734375 24.671875 25.734375 24.652344 C 25.824219 24.640625 25.898438 24.578125 25.933594 24.476562 C 25.953125 24.425781 25.953125 24.359375 25.941406 24.300781 C 25.941406 24.300781 25.941406 24.296875 25.945312 24.296875 C 26.050781 24.242188 26.050781 24.144531 26 24.054688 C 26.039062 23.980469 26.011719 23.855469 25.941406 23.796875 C 25.988281 23.617188 25.75 23.363281 25.546875 23.398438 C 25.53125 23.386719 25.515625 23.375 25.5 23.367188 C 25.449219 23.332031 25.394531 23.320312 25.34375 23.324219 C 25.3125 23.308594 25.273438 23.296875 25.234375 23.296875 C 25.222656 23.28125 25.210938 23.265625 25.199219 23.25 C 25.128906 23.175781 25.039062 23.15625 24.960938 23.175781 Z M 25.859375 23.90625 C 25.859375 23.90625 25.855469 23.90625 25.855469 23.902344 Z M 25.859375 23.90625 "/></g></g></g></g><g clip-rule="nonzero" clip-path="url(#553befaa22)"><g clip-rule="nonzero" clip-path="url(#ce7945ea1e)"><g clip-rule="nonzero" clip-path="url(#e51cf0dc37)"><g clip-rule="nonzero" clip-path="url(#180dfa782d)"><path style=" stroke:none;fill-rule:nonzero;fill:#8ba378;fill-opacity:1;" d="M 32.496094 5.242188 C 32.496094 5.242188 32.476562 5.238281 32.464844 5.238281 C 32.457031 5.226562 32.445312 5.210938 32.433594 5.203125 C 32.335938 5.113281 32.210938 5.125 32.140625 5.203125 C 32.050781 5.089844 31.886719 5.015625 31.753906 5.058594 C 31.738281 5.050781 31.726562 5.039062 31.707031 5.03125 C 31.65625 5.007812 31.605469 5.003906 31.5625 5.011719 C 31.492188 4.96875 31.414062 4.964844 31.351562 4.992188 C 31.257812 4.863281 31.085938 4.867188 31.007812 4.996094 C 31 5 30.996094 5 30.988281 5 C 30.980469 5 30.976562 5 30.96875 5 C 30.957031 4.988281 30.945312 4.976562 30.929688 4.964844 C 30.859375 4.910156 30.777344 4.898438 30.714844 4.925781 C 30.605469 4.84375 30.457031 4.886719 30.417969 5.027344 C 30.367188 5.019531 30.316406 5.023438 30.269531 5.042969 C 30.25 5.035156 30.230469 5.035156 30.210938 5.035156 C 30.128906 4.941406 30.003906 4.875 29.890625 4.894531 C 29.878906 4.882812 29.863281 4.875 29.847656 4.863281 C 29.796875 4.832031 29.742188 4.820312 29.691406 4.828125 C 29.683594 4.828125 29.679688 4.828125 29.671875 4.832031 C 29.65625 4.832031 29.640625 4.835938 29.625 4.847656 C 29.523438 4.78125 29.402344 4.8125 29.351562 4.910156 C 29.34375 4.910156 29.332031 4.910156 29.320312 4.914062 C 29.320312 4.910156 29.316406 4.902344 29.3125 4.902344 C 29.242188 4.847656 29.160156 4.84375 29.097656 4.875 C 29.089844 4.871094 29.085938 4.867188 29.078125 4.863281 C 28.984375 4.8125 28.886719 4.828125 28.824219 4.882812 C 28.761719 4.816406 28.671875 4.800781 28.59375 4.828125 C 28.554688 4.839844 28.515625 4.863281 28.488281 4.898438 C 28.402344 4.851562 28.296875 4.875 28.238281 4.957031 C 28.222656 4.96875 28.203125 4.980469 28.1875 4.992188 C 28.109375 4.976562 28.027344 4.984375 27.964844 5.027344 C 27.941406 5.015625 27.917969 5.003906 27.894531 4.996094 C 27.882812 4.980469 27.875 4.960938 27.863281 4.945312 C 27.761719 4.792969 27.566406 4.796875 27.480469 4.929688 C 27.433594 4.933594 27.394531 4.949219 27.355469 4.976562 C 27.277344 4.976562 27.195312 5 27.136719 5.058594 C 27.105469 5.089844 27.085938 5.121094 27.066406 5.15625 C 27.035156 5.171875 27.003906 5.195312 26.980469 5.226562 C 26.964844 5.226562 26.953125 5.230469 26.9375 5.234375 C 26.914062 5.222656 26.886719 5.210938 26.863281 5.207031 C 26.851562 5.195312 26.84375 5.175781 26.835938 5.164062 C 26.75 5.058594 26.613281 5.054688 26.535156 5.136719 C 26.453125 5.089844 26.359375 5.101562 26.296875 5.160156 C 26.289062 5.15625 26.28125 5.148438 26.269531 5.148438 C 26.160156 5.097656 26.050781 5.132812 25.996094 5.210938 C 25.914062 5.164062 25.8125 5.171875 25.742188 5.238281 C 25.625 5.1875 25.503906 5.226562 25.445312 5.324219 C 25.445312 5.324219 25.445312 5.324219 25.441406 5.324219 C 25.425781 5.332031 25.410156 5.34375 25.390625 5.355469 C 25.328125 5.34375 25.265625 5.371094 25.230469 5.421875 C 25.203125 5.421875 25.175781 5.421875 25.152344 5.429688 C 25.136719 5.417969 25.121094 5.410156 25.105469 5.398438 C 24.945312 5.320312 24.777344 5.414062 24.765625 5.570312 C 24.738281 5.570312 24.710938 5.578125 24.6875 5.589844 C 24.6875 5.589844 24.683594 5.59375 24.683594 5.59375 C 24.582031 5.523438 24.453125 5.550781 24.394531 5.648438 C 24.359375 5.65625 24.332031 5.667969 24.304688 5.6875 C 24.246094 5.660156 24.179688 5.664062 24.132812 5.695312 C 24.035156 5.621094 23.90625 5.636719 23.835938 5.726562 C 23.703125 5.664062 23.558594 5.734375 23.527344 5.875 C 23.519531 5.882812 23.515625 5.886719 23.507812 5.890625 C 23.496094 5.90625 23.488281 5.917969 23.480469 5.929688 C 23.386719 5.953125 23.296875 6.003906 23.253906 6.09375 C 23.242188 6.117188 23.238281 6.136719 23.230469 6.164062 C 23.230469 6.164062 23.226562 6.164062 23.226562 6.164062 C 23.175781 6.246094 23.171875 6.328125 23.195312 6.394531 C 23.140625 6.484375 23.152344 6.574219 23.207031 6.640625 C 23.210938 6.714844 23.253906 6.78125 23.3125 6.828125 C 23.335938 6.859375 23.363281 6.890625 23.398438 6.914062 C 23.402344 6.941406 23.414062 6.960938 23.429688 6.980469 C 23.429688 7.019531 23.441406 7.054688 23.460938 7.085938 C 23.472656 7.140625 23.5 7.191406 23.546875 7.230469 C 23.550781 7.265625 23.5625 7.296875 23.585938 7.324219 C 23.550781 7.34375 23.519531 7.367188 23.496094 7.402344 C 23.339844 7.625 23.46875 7.847656 23.671875 7.929688 C 23.695312 7.984375 23.734375 8.03125 23.785156 8.0625 C 23.773438 8.140625 23.800781 8.21875 23.851562 8.28125 C 23.867188 8.34375 23.902344 8.398438 23.957031 8.441406 C 23.972656 8.472656 23.992188 8.503906 24.011719 8.53125 C 24.027344 8.550781 24.046875 8.5625 24.0625 8.574219 C 23.949219 8.777344 24.082031 8.96875 24.273438 9.023438 C 24.289062 9.046875 24.308594 9.070312 24.328125 9.09375 C 24.332031 9.125 24.339844 9.15625 24.355469 9.183594 C 24.226562 9.445312 24.410156 9.660156 24.644531 9.703125 C 24.644531 9.789062 24.695312 9.855469 24.769531 9.886719 C 24.769531 9.886719 24.769531 9.886719 24.773438 9.886719 C 24.761719 9.898438 24.75 9.910156 24.742188 9.925781 C 24.632812 10.136719 24.75 10.316406 24.925781 10.378906 C 24.929688 10.488281 25 10.585938 25.105469 10.636719 C 25.113281 10.648438 25.121094 10.660156 25.128906 10.667969 C 25.0625 10.808594 25.089844 10.941406 25.175781 11.035156 C 25.21875 11.160156 25.332031 11.253906 25.46875 11.289062 C 25.503906 11.34375 25.550781 11.386719 25.605469 11.421875 C 25.613281 11.515625 25.675781 11.601562 25.765625 11.652344 C 25.695312 11.828125 25.792969 11.996094 25.953125 12.078125 C 25.976562 12.121094 26.007812 12.160156 26.050781 12.195312 C 26.074219 12.222656 26.101562 12.246094 26.132812 12.269531 C 26.179688 12.300781 26.222656 12.320312 26.265625 12.328125 C 26.296875 12.386719 26.34375 12.441406 26.398438 12.484375 C 26.417969 12.492188 26.429688 12.503906 26.445312 12.507812 C 26.445312 12.511719 26.441406 12.515625 26.441406 12.519531 C 26.378906 12.746094 26.523438 12.898438 26.703125 12.933594 C 26.71875 12.96875 26.738281 13.003906 26.765625 13.035156 C 26.777344 13.046875 26.792969 13.054688 26.808594 13.066406 C 26.832031 13.152344 26.914062 13.210938 27.011719 13.222656 C 27.035156 13.273438 27.082031 13.308594 27.136719 13.324219 C 27.128906 13.398438 27.152344 13.460938 27.195312 13.507812 C 27.191406 13.628906 27.296875 13.722656 27.421875 13.742188 C 27.4375 13.761719 27.457031 13.78125 27.480469 13.796875 C 27.453125 13.933594 27.511719 14.042969 27.609375 14.117188 C 27.644531 14.199219 27.722656 14.253906 27.816406 14.277344 C 27.84375 14.390625 27.933594 14.46875 28.046875 14.5 C 28.089844 14.578125 28.167969 14.636719 28.257812 14.664062 C 28.261719 14.671875 28.269531 14.675781 28.273438 14.683594 C 28.292969 14.703125 28.3125 14.714844 28.328125 14.722656 C 28.367188 14.765625 28.40625 14.800781 28.457031 14.824219 C 28.46875 14.832031 28.480469 14.835938 28.492188 14.84375 C 28.5 14.847656 28.503906 14.851562 28.507812 14.855469 C 28.539062 14.875 28.570312 14.886719 28.601562 14.894531 C 28.613281 14.917969 28.628906 14.945312 28.648438 14.964844 C 28.664062 15 28.6875 15.035156 28.714844 15.066406 C 28.726562 15.082031 28.746094 15.089844 28.761719 15.101562 C 28.785156 15.164062 28.828125 15.207031 28.878906 15.246094 C 28.886719 15.253906 28.890625 15.265625 28.898438 15.273438 C 28.980469 15.367188 29.085938 15.390625 29.1875 15.351562 C 29.21875 15.378906 29.253906 15.398438 29.289062 15.417969 C 29.300781 15.429688 29.316406 15.4375 29.328125 15.445312 C 29.339844 15.464844 29.355469 15.484375 29.367188 15.503906 C 29.390625 15.5625 29.421875 15.617188 29.46875 15.664062 C 29.550781 15.75 29.652344 15.777344 29.746094 15.75 C 29.769531 15.757812 29.792969 15.765625 29.816406 15.773438 C 29.863281 15.839844 29.925781 15.894531 29.996094 15.933594 C 30.070312 15.972656 30.144531 15.980469 30.207031 15.964844 C 30.277344 16.027344 30.371094 16.0625 30.472656 16.066406 C 30.527344 16.121094 30.597656 16.160156 30.675781 16.183594 C 30.695312 16.1875 30.71875 16.191406 30.734375 16.195312 C 30.746094 16.210938 30.757812 16.222656 30.769531 16.234375 C 30.882812 16.335938 31.011719 16.339844 31.121094 16.265625 C 31.15625 16.285156 31.195312 16.304688 31.238281 16.316406 C 31.285156 16.371094 31.339844 16.421875 31.410156 16.457031 C 31.53125 16.515625 31.648438 16.492188 31.730469 16.40625 C 31.78125 16.4375 31.835938 16.460938 31.898438 16.46875 C 31.941406 16.472656 31.980469 16.46875 32.015625 16.457031 C 32.035156 16.46875 32.054688 16.480469 32.074219 16.484375 C 32.101562 16.523438 32.140625 16.554688 32.183594 16.578125 C 32.257812 16.625 32.335938 16.628906 32.402344 16.601562 C 32.433594 16.601562 32.460938 16.59375 32.492188 16.582031 C 32.527344 16.597656 32.5625 16.605469 32.601562 16.609375 C 32.652344 16.660156 32.714844 16.695312 32.78125 16.71875 C 32.792969 16.722656 32.804688 16.71875 32.816406 16.722656 C 32.847656 16.746094 32.878906 16.769531 32.914062 16.789062 C 32.96875 16.820312 33.027344 16.828125 33.078125 16.824219 C 33.179688 16.867188 33.285156 16.84375 33.371094 16.769531 C 33.371094 16.765625 33.375 16.765625 33.378906 16.765625 C 33.382812 16.773438 33.386719 16.78125 33.394531 16.789062 C 33.507812 16.917969 33.664062 16.921875 33.792969 16.816406 C 33.804688 16.808594 33.816406 16.789062 33.824219 16.777344 C 33.84375 16.808594 33.859375 16.835938 33.882812 16.863281 C 33.988281 16.984375 34.128906 16.996094 34.253906 16.917969 C 34.378906 16.976562 34.496094 16.960938 34.582031 16.878906 C 34.597656 16.886719 34.617188 16.894531 34.628906 16.898438 C 34.628906 16.898438 34.628906 16.898438 34.632812 16.902344 C 34.695312 16.976562 34.769531 17.003906 34.847656 16.996094 C 34.886719 17.023438 34.929688 17.042969 34.976562 17.058594 C 34.984375 17.058594 34.988281 17.058594 34.996094 17.0625 C 35.066406 17.097656 35.136719 17.109375 35.203125 17.089844 C 35.273438 17.089844 35.347656 17.058594 35.410156 17.003906 C 35.441406 16.972656 35.46875 16.933594 35.488281 16.890625 C 35.511719 16.882812 35.539062 16.871094 35.5625 16.851562 C 35.570312 16.847656 35.582031 16.835938 35.589844 16.824219 C 35.601562 16.84375 35.621094 16.859375 35.640625 16.875 C 35.710938 16.929688 35.785156 16.933594 35.851562 16.902344 C 35.910156 16.921875 35.96875 16.917969 36.015625 16.886719 C 36.046875 16.902344 36.078125 16.910156 36.109375 16.910156 C 36.195312 16.972656 36.292969 16.976562 36.378906 16.925781 C 36.378906 16.925781 36.382812 16.925781 36.382812 16.925781 C 36.441406 16.9375 36.488281 16.929688 36.527344 16.910156 C 36.546875 16.9375 36.566406 16.964844 36.59375 16.988281 C 36.710938 17.097656 36.855469 17.09375 36.96875 17.003906 C 37.042969 17.015625 37.105469 17 37.15625 16.957031 C 37.160156 16.964844 37.164062 16.972656 37.167969 16.976562 C 37.292969 17.105469 37.457031 17.097656 37.582031 16.980469 C 37.605469 16.960938 37.625 16.933594 37.644531 16.90625 C 37.660156 16.914062 37.675781 16.925781 37.691406 16.933594 C 37.839844 16.996094 37.96875 16.949219 38.050781 16.832031 C 38.09375 16.859375 38.136719 16.878906 38.183594 16.886719 C 38.273438 16.902344 38.34375 16.871094 38.394531 16.8125 C 38.402344 16.8125 38.40625 16.8125 38.417969 16.808594 C 38.476562 16.847656 38.539062 16.871094 38.613281 16.882812 C 38.714844 16.894531 38.796875 16.863281 38.855469 16.804688 C 38.867188 16.804688 38.882812 16.796875 38.894531 16.792969 C 38.90625 16.804688 38.921875 16.816406 38.9375 16.828125 C 39.035156 16.886719 39.132812 16.886719 39.214844 16.839844 C 39.242188 16.859375 39.277344 16.875 39.308594 16.890625 C 39.484375 16.949219 39.632812 16.878906 39.707031 16.722656 C 39.722656 16.710938 39.738281 16.699219 39.75 16.683594 C 39.800781 16.714844 39.855469 16.738281 39.914062 16.746094 C 39.980469 16.757812 40.035156 16.742188 40.078125 16.714844 C 40.132812 16.71875 40.183594 16.707031 40.226562 16.675781 C 40.234375 16.675781 40.238281 16.675781 40.246094 16.675781 C 40.355469 16.777344 40.488281 16.785156 40.601562 16.722656 C 40.621094 16.726562 40.636719 16.734375 40.65625 16.738281 C 40.765625 16.753906 40.859375 16.726562 40.925781 16.660156 C 41.074219 16.695312 41.199219 16.617188 41.257812 16.476562 C 41.28125 16.414062 41.285156 16.339844 41.273438 16.265625 C 41.273438 16.265625 41.277344 16.261719 41.277344 16.261719 C 41.394531 16.207031 41.40625 16.105469 41.367188 16.003906 C 41.382812 15.964844 41.375 15.914062 41.355469 15.867188 C 41.425781 15.785156 41.382812 15.628906 41.289062 15.53125 C 41.421875 15.4375 41.347656 15.203125 41.203125 15.097656 C 41.207031 15.085938 41.207031 15.074219 41.203125 15.0625 C 41.421875 14.9375 41.183594 14.582031 40.957031 14.589844 C 41.035156 14.53125 41.027344 14.433594 40.976562 14.347656 C 41.214844 14.199219 40.921875 13.789062 40.664062 13.824219 C 40.660156 13.820312 40.652344 13.816406 40.644531 13.808594 C 40.734375 13.746094 40.710938 13.625 40.636719 13.535156 C 40.671875 13.449219 40.609375 13.332031 40.515625 13.265625 C 40.519531 13.222656 40.507812 13.175781 40.484375 13.128906 C 40.5 13.054688 40.46875 12.972656 40.410156 12.902344 C 40.5 12.789062 40.410156 12.613281 40.273438 12.515625 C 40.304688 12.363281 40.140625 12.140625 39.964844 12.121094 C 39.960938 12.113281 39.949219 12.105469 39.9375 12.097656 C 39.910156 12.0625 39.878906 12.027344 39.84375 12.007812 C 39.835938 11.945312 39.808594 11.882812 39.761719 11.835938 C 39.78125 11.78125 39.757812 11.707031 39.707031 11.652344 C 39.691406 11.609375 39.671875 11.574219 39.644531 11.542969 C 39.664062 11.457031 39.597656 11.355469 39.503906 11.296875 C 39.46875 11.257812 39.429688 11.226562 39.382812 11.214844 C 39.371094 11.207031 39.359375 11.199219 39.34375 11.191406 C 39.417969 11.078125 39.332031 10.847656 39.1875 10.800781 C 39.222656 10.679688 39.105469 10.5 38.964844 10.464844 C 38.945312 10.382812 38.886719 10.308594 38.8125 10.285156 C 38.804688 10.269531 38.796875 10.253906 38.785156 10.238281 C 38.898438 10.132812 38.808594 9.914062 38.664062 9.816406 C 38.667969 9.671875 38.546875 9.496094 38.402344 9.441406 C 38.363281 9.34375 38.261719 9.25 38.15625 9.21875 C 38.15625 9.074219 38.066406 8.898438 37.933594 8.855469 C 37.925781 8.84375 37.917969 8.832031 37.910156 8.824219 C 37.90625 8.820312 37.902344 8.808594 37.898438 8.800781 C 37.871094 8.761719 37.835938 8.730469 37.800781 8.710938 C 37.847656 8.515625 37.554688 8.261719 37.339844 8.320312 C 37.320312 8.308594 37.304688 8.300781 37.289062 8.289062 C 37.269531 8.28125 37.253906 8.273438 37.234375 8.269531 C 37.203125 8.1875 37.125 8.113281 37.039062 8.09375 C 37.046875 7.964844 36.980469 7.804688 36.867188 7.734375 C 36.816406 7.625 36.710938 7.527344 36.597656 7.519531 C 36.585938 7.507812 36.574219 7.492188 36.5625 7.476562 C 36.539062 7.449219 36.507812 7.429688 36.480469 7.417969 C 36.460938 7.386719 36.441406 7.359375 36.417969 7.332031 C 36.398438 7.207031 36.265625 7.078125 36.121094 7.046875 C 36.0625 6.972656 35.980469 6.910156 35.894531 6.894531 C 35.839844 6.804688 35.761719 6.730469 35.671875 6.703125 C 35.636719 6.640625 35.589844 6.59375 35.527344 6.570312 C 35.523438 6.550781 35.515625 6.535156 35.507812 6.515625 C 35.453125 6.402344 35.335938 6.363281 35.242188 6.398438 C 35.203125 6.363281 35.15625 6.339844 35.109375 6.335938 C 35.101562 6.324219 35.09375 6.308594 35.082031 6.296875 C 35.046875 6.257812 35 6.234375 34.957031 6.226562 C 34.878906 6.097656 34.722656 5.996094 34.582031 6.023438 C 34.566406 6.011719 34.554688 6 34.539062 5.988281 C 34.511719 5.972656 34.488281 5.964844 34.460938 5.960938 C 34.414062 5.933594 34.359375 5.925781 34.3125 5.9375 C 34.25 5.90625 34.1875 5.902344 34.136719 5.929688 C 34.136719 5.929688 34.132812 5.925781 34.132812 5.925781 C 34.09375 5.820312 34.011719 5.730469 33.910156 5.710938 C 33.902344 5.695312 33.894531 5.679688 33.886719 5.664062 C 33.816406 5.566406 33.699219 5.546875 33.617188 5.59375 C 33.574219 5.570312 33.535156 5.558594 33.492188 5.5625 C 33.480469 5.546875 33.46875 5.535156 33.457031 5.523438 C 33.378906 5.449219 33.277344 5.449219 33.207031 5.492188 C 33.179688 5.476562 33.148438 5.46875 33.121094 5.464844 C 33.101562 5.449219 33.085938 5.433594 33.066406 5.421875 C 33.046875 5.40625 33.027344 5.394531 33.011719 5.382812 C 33.003906 5.371094 33.003906 5.363281 33 5.355469 C 32.945312 5.261719 32.855469 5.226562 32.773438 5.242188 C 32.6875 5.164062 32.566406 5.171875 32.496094 5.25 Z M 33.652344 16.648438 C 33.652344 16.648438 33.609375 16.675781 33.613281 16.683594 C 33.601562 16.683594 33.59375 16.679688 33.578125 16.667969 C 33.605469 16.664062 33.628906 16.660156 33.65625 16.652344 Z M 37.390625 16.847656 C 37.382812 16.851562 37.371094 16.847656 37.359375 16.839844 C 37.382812 16.835938 37.40625 16.828125 37.429688 16.816406 C 37.417969 16.828125 37.390625 16.847656 37.390625 16.847656 Z M 41.042969 16.398438 C 41.042969 16.398438 41.042969 16.398438 41.046875 16.394531 C 41.046875 16.394531 41.042969 16.398438 41.042969 16.398438 Z M 40.964844 14.816406 C 40.964844 14.816406 40.96875 14.816406 40.976562 14.816406 C 40.972656 14.816406 40.96875 14.816406 40.964844 14.816406 Z M 24.929688 10.046875 C 24.925781 10.0625 24.921875 10.078125 24.921875 10.097656 C 24.917969 10.082031 24.917969 10.070312 24.914062 10.058594 C 24.917969 10.054688 24.914062 10.058594 24.921875 10.054688 C 24.921875 10.050781 24.925781 10.050781 24.929688 10.046875 C 24.929688 10.046875 24.929688 10.050781 24.929688 10.050781 Z M 39.148438 10.984375 C 39.148438 10.984375 39.140625 10.980469 39.136719 10.980469 C 39.136719 10.980469 39.140625 10.980469 39.144531 10.984375 Z M 38.925781 10.652344 C 38.925781 10.652344 38.917969 10.652344 38.914062 10.65625 C 38.914062 10.65625 38.914062 10.65625 38.921875 10.65625 Z M 37.410156 8.570312 C 37.410156 8.570312 37.410156 8.570312 37.414062 8.570312 C 37.414062 8.570312 37.417969 8.570312 37.421875 8.570312 C 37.417969 8.570312 37.414062 8.570312 37.40625 8.570312 Z M 37.410156 8.570312 "/></g></g></g></g><g clip-rule="nonzero" clip-path="url(#24cae84897)"><g clip-rule="nonzero" clip-path="url(#dce79c1061)"><g clip-rule="nonzero" clip-path="url(#82bdbf0f89)"><g clip-rule="nonzero" clip-path="url(#51f0a0c6dd)"><path style=" stroke:none;fill-rule:nonzero;fill:#487e5c;fill-opacity:1;" d="M 36.949219 24.847656 C 36.949219 24.847656 36.941406 24.839844 36.933594 24.835938 C 36.863281 24.792969 36.789062 24.800781 36.734375 24.835938 C 36.734375 24.835938 36.730469 24.832031 36.726562 24.828125 C 36.5625 24.710938 36.359375 24.808594 36.359375 25.003906 C 36.246094 25.023438 36.136719 25.078125 36.09375 25.183594 C 36.039062 25.308594 36.054688 25.414062 36.101562 25.5 C 36.09375 25.507812 36.078125 25.515625 36.070312 25.523438 C 36.046875 25.542969 36.027344 25.566406 36.011719 25.597656 C 36.003906 25.597656 35.992188 25.601562 35.984375 25.605469 C 35.898438 25.546875 35.789062 25.574219 35.746094 25.65625 C 35.703125 25.675781 35.664062 25.707031 35.640625 25.753906 C 35.605469 25.769531 35.574219 25.792969 35.546875 25.824219 C 35.460938 25.832031 35.378906 25.871094 35.328125 25.941406 C 35.320312 25.953125 35.316406 25.960938 35.3125 25.96875 C 35.257812 25.992188 35.214844 26.03125 35.191406 26.089844 C 35.179688 26.097656 35.167969 26.105469 35.15625 26.117188 C 35.144531 26.136719 35.132812 26.15625 35.125 26.175781 C 35.027344 26.195312 34.9375 26.246094 34.894531 26.332031 C 34.851562 26.414062 34.84375 26.492188 34.855469 26.5625 C 34.832031 26.582031 34.808594 26.609375 34.789062 26.640625 C 34.78125 26.644531 34.769531 26.652344 34.757812 26.660156 C 34.65625 26.640625 34.546875 26.652344 34.472656 26.71875 C 34.375 26.8125 34.34375 26.914062 34.355469 27.011719 C 34.320312 27.035156 34.285156 27.058594 34.261719 27.09375 C 34.21875 27.167969 34.203125 27.238281 34.203125 27.304688 C 34.132812 27.367188 34.105469 27.4375 34.101562 27.507812 C 34 27.511719 33.914062 27.59375 33.917969 27.710938 C 33.914062 27.714844 33.910156 27.714844 33.910156 27.71875 C 33.808594 27.738281 33.714844 27.792969 33.675781 27.886719 C 33.648438 27.953125 33.640625 28.015625 33.648438 28.074219 C 33.648438 28.074219 33.648438 28.074219 33.644531 28.074219 C 33.589844 28.136719 33.570312 28.203125 33.578125 28.265625 C 33.550781 28.28125 33.527344 28.296875 33.507812 28.324219 C 33.378906 28.308594 33.261719 28.402344 33.273438 28.546875 C 33.167969 28.570312 33.066406 28.628906 33.03125 28.730469 C 33.027344 28.742188 33.023438 28.753906 33.019531 28.765625 C 33.019531 28.769531 33.019531 28.769531 33.015625 28.769531 C 32.863281 28.898438 32.859375 29.066406 32.929688 29.199219 C 32.925781 29.207031 32.921875 29.21875 32.917969 29.226562 C 32.804688 29.226562 32.710938 29.308594 32.71875 29.425781 C 32.710938 29.429688 32.707031 29.433594 32.703125 29.441406 C 32.699219 29.449219 32.699219 29.457031 32.695312 29.46875 C 32.628906 29.492188 32.570312 29.535156 32.535156 29.589844 C 32.507812 29.609375 32.484375 29.628906 32.464844 29.65625 C 32.410156 29.734375 32.390625 29.816406 32.398438 29.890625 C 32.390625 29.898438 32.378906 29.910156 32.375 29.921875 C 32.269531 30.027344 32.253906 30.148438 32.296875 30.25 C 32.277344 30.292969 32.273438 30.332031 32.277344 30.371094 C 32.230469 30.386719 32.1875 30.414062 32.164062 30.460938 C 32.160156 30.46875 32.160156 30.476562 32.15625 30.484375 C 32.09375 30.492188 32.039062 30.511719 31.996094 30.558594 C 31.882812 30.675781 31.871094 30.804688 31.917969 30.917969 C 31.894531 30.925781 31.867188 30.9375 31.847656 30.957031 C 31.792969 31.003906 31.765625 31.054688 31.753906 31.105469 C 31.640625 31.210938 31.617188 31.332031 31.652344 31.445312 C 31.597656 31.472656 31.554688 31.507812 31.53125 31.558594 C 31.515625 31.589844 31.507812 31.617188 31.503906 31.648438 C 31.464844 31.707031 31.445312 31.769531 31.449219 31.828125 C 31.351562 31.917969 31.328125 32.023438 31.355469 32.125 C 31.324219 32.199219 31.324219 32.269531 31.351562 32.328125 C 31.300781 32.355469 31.261719 32.394531 31.242188 32.445312 C 31.234375 32.472656 31.226562 32.496094 31.222656 32.519531 C 31.21875 32.519531 31.21875 32.523438 31.214844 32.527344 C 31.183594 32.535156 31.152344 32.546875 31.125 32.570312 C 30.90625 32.738281 30.949219 32.984375 31.109375 33.132812 C 31.105469 33.140625 31.101562 33.144531 31.097656 33.148438 C 31.097656 33.152344 31.097656 33.15625 31.097656 33.160156 C 31.0625 33.179688 31.039062 33.203125 31.019531 33.234375 C 30.988281 33.285156 30.976562 33.335938 30.976562 33.382812 C 30.964844 33.394531 30.953125 33.410156 30.941406 33.429688 C 30.90625 33.496094 30.902344 33.558594 30.914062 33.617188 C 30.867188 33.636719 30.828125 33.664062 30.800781 33.707031 C 30.746094 33.796875 30.738281 33.882812 30.765625 33.957031 C 30.757812 34.011719 30.769531 34.0625 30.792969 34.105469 C 30.746094 34.183594 30.742188 34.257812 30.761719 34.324219 C 30.710938 34.355469 30.667969 34.394531 30.648438 34.453125 C 30.601562 34.605469 30.65625 34.722656 30.75 34.792969 C 30.746094 34.800781 30.742188 34.8125 30.738281 34.820312 C 30.699219 34.832031 30.660156 34.847656 30.632812 34.875 C 30.449219 35.054688 30.519531 35.273438 30.679688 35.390625 C 30.667969 35.402344 30.65625 35.414062 30.648438 35.429688 C 30.628906 35.460938 30.621094 35.496094 30.613281 35.523438 C 30.574219 35.554688 30.539062 35.59375 30.523438 35.640625 C 30.476562 35.761719 30.492188 35.867188 30.542969 35.949219 C 30.53125 35.960938 30.519531 35.972656 30.511719 35.992188 C 30.433594 36.140625 30.460938 36.277344 30.539062 36.371094 C 30.527344 36.390625 30.515625 36.410156 30.507812 36.429688 C 30.464844 36.566406 30.496094 36.679688 30.566406 36.757812 C 30.59375 36.820312 30.640625 36.875 30.703125 36.917969 C 30.71875 36.949219 30.734375 36.976562 30.757812 37 C 30.75 37.0625 30.769531 37.113281 30.808594 37.15625 C 30.792969 37.171875 30.78125 37.1875 30.773438 37.207031 C 30.710938 37.375 30.8125 37.5 30.949219 37.535156 C 30.921875 37.554688 30.902344 37.570312 30.886719 37.601562 C 30.867188 37.648438 30.859375 37.691406 30.859375 37.734375 C 30.824219 37.847656 30.886719 37.96875 30.996094 38.03125 C 31.003906 38.054688 31.015625 38.070312 31.023438 38.09375 C 31.023438 38.097656 31.023438 38.101562 31.023438 38.105469 C 30.921875 38.148438 30.828125 38.222656 30.804688 38.332031 C 30.757812 38.550781 30.878906 38.695312 31.046875 38.742188 C 31.058594 38.757812 31.074219 38.769531 31.09375 38.785156 C 31.09375 38.785156 31.089844 38.785156 31.089844 38.789062 C 31.050781 38.996094 31.207031 39.113281 31.378906 39.109375 C 31.375 39.109375 31.375 39.113281 31.375 39.117188 C 31.351562 39.136719 31.332031 39.152344 31.316406 39.175781 C 31.230469 39.3125 31.269531 39.441406 31.367188 39.519531 C 31.363281 39.566406 31.375 39.601562 31.390625 39.640625 C 31.257812 39.855469 31.375 40.070312 31.574219 40.160156 C 31.589844 40.265625 31.664062 40.347656 31.757812 40.382812 C 31.765625 40.390625 31.777344 40.398438 31.785156 40.40625 C 31.804688 40.480469 31.847656 40.554688 31.902344 40.613281 C 31.90625 40.617188 31.910156 40.621094 31.914062 40.625 C 31.9375 40.664062 31.96875 40.699219 32.007812 40.722656 C 32.023438 40.78125 32.050781 40.835938 32.09375 40.878906 C 32.078125 40.898438 32.070312 40.917969 32.058594 40.941406 C 32.007812 41.074219 32.046875 41.1875 32.125 41.261719 C 32.152344 41.359375 32.222656 41.449219 32.316406 41.5 C 32.320312 41.507812 32.324219 41.515625 32.328125 41.523438 C 32.316406 41.675781 32.433594 41.792969 32.582031 41.824219 C 32.570312 41.847656 32.558594 41.871094 32.550781 41.898438 C 32.507812 42.113281 32.65625 42.242188 32.832031 42.253906 C 32.847656 42.277344 32.867188 42.300781 32.890625 42.316406 C 32.882812 42.390625 32.90625 42.453125 32.957031 42.496094 C 32.953125 42.554688 32.96875 42.605469 32.996094 42.652344 C 32.988281 42.738281 33.015625 42.816406 33.066406 42.878906 C 33.09375 42.988281 33.171875 43.089844 33.28125 43.144531 C 33.308594 43.21875 33.359375 43.289062 33.421875 43.34375 C 33.476562 43.390625 33.535156 43.414062 33.59375 43.421875 C 33.609375 43.484375 33.652344 43.542969 33.707031 43.585938 C 33.722656 43.609375 33.742188 43.628906 33.757812 43.648438 C 33.777344 43.691406 33.804688 43.734375 33.839844 43.769531 C 33.859375 43.785156 33.875 43.796875 33.898438 43.808594 C 33.917969 43.835938 33.941406 43.863281 33.96875 43.886719 C 33.980469 43.898438 33.996094 43.910156 34.007812 43.917969 C 34.03125 43.941406 34.0625 43.960938 34.09375 43.96875 C 34.117188 44.011719 34.15625 44.050781 34.199219 44.082031 C 34.214844 44.113281 34.234375 44.144531 34.265625 44.167969 C 34.28125 44.191406 34.296875 44.210938 34.316406 44.226562 C 34.324219 44.242188 34.328125 44.253906 34.332031 44.265625 C 34.316406 44.367188 34.359375 44.457031 34.433594 44.519531 C 34.453125 44.578125 34.492188 44.628906 34.542969 44.664062 C 34.5625 44.753906 34.617188 44.828125 34.691406 44.886719 C 34.710938 44.910156 34.730469 44.929688 34.753906 44.949219 C 34.777344 45.011719 34.816406 45.074219 34.867188 45.121094 C 34.902344 45.15625 34.941406 45.179688 34.980469 45.195312 C 34.984375 45.199219 34.988281 45.203125 34.988281 45.207031 C 35.023438 45.234375 35.058594 45.253906 35.09375 45.265625 C 35.117188 45.285156 35.140625 45.300781 35.167969 45.3125 C 35.203125 45.339844 35.25 45.359375 35.296875 45.371094 C 35.332031 45.417969 35.378906 45.457031 35.433594 45.484375 C 35.5625 45.546875 35.679688 45.5 35.742188 45.378906 C 35.75 45.367188 35.753906 45.351562 35.757812 45.339844 C 35.785156 45.347656 35.808594 45.347656 35.832031 45.339844 C 35.945312 45.367188 36.042969 45.320312 36.101562 45.214844 C 36.113281 45.1875 36.125 45.160156 36.128906 45.128906 C 36.1875 45.132812 36.25 45.109375 36.304688 45.058594 C 36.320312 45.042969 36.332031 45.023438 36.347656 45.003906 C 36.445312 45.007812 36.535156 44.953125 36.589844 44.851562 C 36.609375 44.820312 36.617188 44.78125 36.621094 44.746094 C 36.679688 44.730469 36.734375 44.699219 36.78125 44.648438 C 36.828125 44.601562 36.863281 44.53125 36.882812 44.457031 C 36.882812 44.457031 36.882812 44.457031 36.886719 44.457031 C 37.007812 44.453125 37.066406 44.371094 37.074219 44.269531 C 37.101562 44.226562 37.117188 44.175781 37.125 44.121094 C 37.199219 44.09375 37.257812 44.039062 37.289062 43.953125 C 37.3125 43.898438 37.3125 43.835938 37.304688 43.769531 C 37.40625 43.773438 37.484375 43.734375 37.527344 43.652344 C 37.546875 43.636719 37.5625 43.617188 37.578125 43.597656 C 37.617188 43.546875 37.636719 43.476562 37.648438 43.40625 C 37.648438 43.40625 37.648438 43.40625 37.652344 43.40625 C 37.726562 43.390625 37.769531 43.355469 37.789062 43.300781 C 37.972656 43.324219 38.101562 43.214844 38.136719 43.035156 C 38.148438 42.964844 38.132812 42.886719 38.109375 42.8125 C 38.109375 42.8125 38.109375 42.8125 38.113281 42.8125 C 38.15625 42.777344 38.179688 42.742188 38.191406 42.699219 C 38.214844 42.683594 38.238281 42.65625 38.253906 42.625 C 38.273438 42.597656 38.285156 42.5625 38.292969 42.523438 C 38.390625 42.519531 38.464844 42.457031 38.503906 42.351562 C 38.511719 42.328125 38.511719 42.304688 38.515625 42.28125 C 38.535156 42.261719 38.550781 42.238281 38.5625 42.214844 C 38.71875 42.230469 38.839844 42.140625 38.882812 41.984375 C 38.898438 41.917969 38.890625 41.84375 38.871094 41.769531 C 38.957031 41.714844 38.976562 41.636719 38.957031 41.5625 C 39.003906 41.511719 39 41.4375 38.96875 41.363281 C 39.101562 41.398438 39.226562 41.339844 39.300781 41.207031 C 39.335938 41.148438 39.347656 41.078125 39.347656 41 C 39.351562 41 39.355469 40.996094 39.359375 40.992188 C 39.378906 40.984375 39.394531 40.976562 39.410156 40.96875 C 39.480469 40.949219 39.542969 40.894531 39.589844 40.816406 C 39.59375 40.816406 39.589844 40.8125 39.59375 40.808594 C 39.632812 40.757812 39.648438 40.6875 39.640625 40.609375 C 39.640625 40.609375 39.640625 40.605469 39.644531 40.601562 C 39.644531 40.601562 39.644531 40.601562 39.648438 40.601562 C 39.785156 40.5625 39.8125 40.445312 39.777344 40.328125 C 39.84375 40.285156 39.867188 40.207031 39.855469 40.121094 C 39.867188 40.109375 39.875 40.09375 39.886719 40.074219 C 39.929688 40.03125 39.949219 39.964844 39.945312 39.890625 C 39.949219 39.871094 39.957031 39.847656 39.960938 39.824219 C 39.972656 39.8125 39.980469 39.800781 39.988281 39.785156 C 40.03125 39.773438 40.066406 39.746094 40.082031 39.714844 C 40.15625 39.6875 40.21875 39.632812 40.265625 39.550781 C 40.289062 39.507812 40.296875 39.460938 40.300781 39.414062 C 40.320312 39.390625 40.339844 39.367188 40.355469 39.339844 C 40.359375 39.335938 40.359375 39.324219 40.363281 39.320312 C 40.4375 39.28125 40.464844 39.195312 40.457031 39.101562 C 40.570312 39.066406 40.597656 38.941406 40.566406 38.820312 C 40.601562 38.789062 40.628906 38.75 40.652344 38.703125 C 40.671875 38.664062 40.675781 38.617188 40.679688 38.570312 C 40.726562 38.539062 40.769531 38.492188 40.800781 38.433594 C 40.835938 38.363281 40.84375 38.28125 40.84375 38.203125 C 40.84375 38.203125 40.84375 38.199219 40.847656 38.199219 C 41.015625 38.140625 41.015625 37.976562 40.941406 37.835938 C 40.9375 37.800781 40.921875 37.761719 40.902344 37.726562 C 40.914062 37.675781 40.910156 37.621094 40.894531 37.570312 C 40.957031 37.546875 41.003906 37.496094 41.023438 37.417969 C 41.03125 37.390625 41.03125 37.363281 41.027344 37.332031 C 41.058594 37.308594 41.089844 37.277344 41.109375 37.242188 C 41.144531 37.1875 41.15625 37.121094 41.160156 37.046875 C 41.160156 37.046875 41.164062 37.046875 41.164062 37.046875 C 41.304688 37.007812 41.320312 36.878906 41.273438 36.757812 C 41.277344 36.742188 41.285156 36.730469 41.292969 36.714844 C 41.304688 36.671875 41.308594 36.625 41.308594 36.578125 C 41.328125 36.546875 41.335938 36.507812 41.328125 36.46875 C 41.433594 36.394531 41.429688 36.277344 41.371094 36.171875 C 41.402344 36.105469 41.378906 36.007812 41.328125 35.929688 C 41.359375 35.867188 41.371094 35.792969 41.367188 35.714844 C 41.367188 35.714844 41.371094 35.714844 41.371094 35.714844 C 41.527344 35.660156 41.53125 35.511719 41.460938 35.382812 C 41.566406 35.320312 41.570312 35.148438 41.511719 35.015625 C 41.523438 34.914062 41.476562 34.789062 41.394531 34.722656 C 41.421875 34.667969 41.40625 34.601562 41.367188 34.535156 C 41.375 34.527344 41.378906 34.515625 41.378906 34.503906 C 41.390625 34.445312 41.382812 34.378906 41.359375 34.316406 C 41.359375 34.316406 41.363281 34.316406 41.363281 34.316406 C 41.484375 34.230469 41.445312 34.097656 41.347656 34.007812 C 41.382812 33.9375 41.386719 33.839844 41.359375 33.75 C 41.445312 33.671875 41.410156 33.535156 41.328125 33.433594 C 41.316406 33.382812 41.285156 33.332031 41.246094 33.292969 C 41.324219 33.230469 41.320312 33.132812 41.273438 33.039062 C 41.414062 32.921875 41.3125 32.648438 41.140625 32.539062 C 41.152344 32.417969 41.082031 32.269531 40.976562 32.183594 C 40.976562 32.179688 40.976562 32.171875 40.972656 32.164062 C 40.972656 32.164062 40.976562 32.164062 40.976562 32.164062 C 41.09375 32.085938 41.089844 31.96875 41.03125 31.867188 C 41.039062 31.75 40.980469 31.605469 40.882812 31.519531 C 40.929688 31.410156 40.859375 31.285156 40.75 31.199219 C 40.730469 31.085938 40.660156 30.96875 40.566406 30.90625 C 40.648438 30.804688 40.59375 30.65625 40.496094 30.550781 C 40.480469 30.488281 40.453125 30.433594 40.414062 30.386719 C 40.476562 30.226562 40.285156 29.972656 40.089844 29.953125 C 40.152344 29.824219 40.089844 29.589844 39.945312 29.535156 C 39.941406 29.523438 39.9375 29.507812 39.929688 29.492188 C 39.925781 29.480469 39.917969 29.472656 39.910156 29.460938 C 40.046875 29.371094 39.988281 29.1875 39.867188 29.070312 C 39.871094 28.976562 39.808594 28.863281 39.722656 28.792969 C 39.671875 28.699219 39.566406 28.617188 39.46875 28.613281 C 39.453125 28.59375 39.441406 28.578125 39.421875 28.5625 C 39.492188 28.492188 39.46875 28.382812 39.40625 28.296875 C 39.449219 28.210938 39.421875 28.089844 39.355469 27.996094 C 39.359375 27.871094 39.234375 27.726562 39.09375 27.671875 C 39.074219 27.640625 39.046875 27.617188 39.019531 27.59375 C 39.003906 27.566406 38.988281 27.542969 38.96875 27.519531 C 38.953125 27.492188 38.941406 27.46875 38.921875 27.449219 C 38.90625 27.382812 38.875 27.320312 38.832031 27.273438 C 38.914062 27.15625 38.8125 26.953125 38.667969 26.867188 C 38.664062 26.855469 38.65625 26.84375 38.648438 26.832031 C 38.632812 26.746094 38.582031 26.652344 38.515625 26.589844 C 38.492188 26.519531 38.4375 26.453125 38.375 26.410156 C 38.347656 26.347656 38.304688 26.292969 38.253906 26.25 C 38.242188 26.210938 38.21875 26.171875 38.195312 26.136719 C 38.191406 26.132812 38.191406 26.128906 38.1875 26.121094 C 38.214844 25.972656 38.058594 25.769531 37.890625 25.738281 C 37.886719 25.734375 37.886719 25.730469 37.882812 25.726562 C 37.957031 25.582031 37.804688 25.332031 37.628906 25.308594 C 37.613281 25.289062 37.597656 25.269531 37.582031 25.25 C 37.597656 25.09375 37.441406 24.875 37.273438 24.871094 C 37.261719 24.859375 37.253906 24.84375 37.242188 24.832031 C 37.144531 24.738281 37.011719 24.746094 36.9375 24.828125 Z M 35.597656 45.3125 C 35.597656 45.3125 35.578125 45.339844 35.574219 45.347656 C 35.566406 45.351562 35.558594 45.351562 35.542969 45.347656 C 35.5625 45.335938 35.582031 45.324219 35.597656 45.3125 Z M 32.765625 42.015625 C 32.757812 42.007812 32.753906 41.996094 32.75 41.984375 C 32.75 41.984375 32.75 41.984375 32.753906 41.980469 C 32.753906 41.976562 32.757812 41.972656 32.761719 41.96875 C 32.761719 41.984375 32.761719 42 32.765625 42.019531 Z M 37.890625 43.070312 C 37.882812 43.078125 37.875 43.082031 37.855469 43.082031 C 37.863281 43.074219 37.875 43.070312 37.882812 43.0625 C 37.886719 43.058594 37.890625 43.050781 37.894531 43.046875 C 37.890625 43.054688 37.890625 43.066406 37.890625 43.066406 Z M 38.644531 42 C 38.636719 42.003906 38.628906 42.007812 38.613281 42.007812 C 38.632812 41.988281 38.648438 41.96875 38.660156 41.953125 C 38.65625 41.96875 38.644531 41.996094 38.644531 42 Z M 39.074219 41.15625 C 39.074219 41.15625 39.0625 41.15625 39.050781 41.15625 C 39.054688 41.152344 39.058594 41.144531 39.058594 41.140625 C 39.066406 41.136719 39.074219 41.128906 39.078125 41.125 C 39.082031 41.125 39.089844 41.125 39.089844 41.128906 C 39.082031 41.140625 39.074219 41.152344 39.074219 41.152344 Z M 30.722656 36.136719 C 30.722656 36.136719 30.722656 36.140625 30.71875 36.140625 C 30.722656 36.140625 30.722656 36.140625 30.722656 36.136719 C 30.722656 36.136719 30.722656 36.136719 30.726562 36.140625 Z M 30.738281 35.796875 C 30.738281 35.796875 30.738281 35.804688 30.738281 35.8125 C 30.738281 35.804688 30.734375 35.796875 30.734375 35.789062 C 30.734375 35.792969 30.738281 35.792969 30.742188 35.792969 Z M 30.75 35.109375 C 30.75 35.109375 30.75 35.105469 30.75 35.105469 Z M 40.863281 37.429688 C 40.863281 37.429688 40.855469 37.433594 40.851562 37.433594 C 40.851562 37.433594 40.851562 37.429688 40.851562 37.429688 C 40.855469 37.425781 40.859375 37.421875 40.867188 37.417969 C 40.863281 37.425781 40.863281 37.429688 40.863281 37.429688 Z M 30.847656 34.554688 C 30.847656 34.554688 30.839844 34.5625 30.835938 34.5625 C 30.835938 34.5625 30.832031 34.558594 30.835938 34.558594 C 30.835938 34.558594 30.835938 34.558594 30.835938 34.554688 C 30.839844 34.550781 30.84375 34.542969 30.84375 34.542969 C 30.84375 34.546875 30.84375 34.550781 30.84375 34.558594 Z M 31.234375 32.824219 C 31.234375 32.824219 31.230469 32.832031 31.226562 32.835938 C 31.226562 32.832031 31.230469 32.824219 31.230469 32.820312 C 31.230469 32.820312 31.234375 32.824219 31.234375 32.824219 Z M 32.15625 30.738281 Z M 34.460938 27.261719 C 34.460938 27.261719 34.453125 27.257812 34.449219 27.261719 C 34.449219 27.261719 34.449219 27.261719 34.453125 27.257812 C 34.457031 27.253906 34.460938 27.25 34.464844 27.246094 C 34.464844 27.253906 34.464844 27.257812 34.460938 27.261719 Z M 34.460938 27.261719 "/></g></g></g></g></g></svg>