<svg xmlns="http://www.w3.org/2000/svg" xmlns:xlink="http://www.w3.org/1999/xlink" width="47" zoomAndPan="magnify" viewBox="0 0 35.25 36.000001" height="48" preserveAspectRatio="xMidYMid meet" version="1.0"><defs><clipPath id="52f1fbd308"><path d="M 2 11 L 17 11 L 17 19 L 2 19 Z M 2 11 " clip-rule="nonzero"/></clipPath><clipPath id="29f4c68fee"><path d="M 0.128906 8.378906 L 25.796875 0 L 34.175781 25.667969 L 8.507812 34.046875 Z M 0.128906 8.378906 " clip-rule="nonzero"/></clipPath><clipPath id="3e0cbff26a"><path d="M 0.128906 8.378906 L 25.796875 0 L 34.175781 25.667969 L 8.507812 34.046875 Z M 0.128906 8.378906 " clip-rule="nonzero"/></clipPath><clipPath id="c94824a508"><path d="M 0.128906 8.378906 L 25.796875 0 L 34.175781 25.667969 L 8.507812 34.046875 Z M 0.128906 8.378906 " clip-rule="nonzero"/></clipPath><clipPath id="195547573d"><path d="M 18 2 L 29 2 L 29 14 L 18 14 Z M 18 2 " clip-rule="nonzero"/></clipPath><clipPath id="49f58d970b"><path d="M 0.128906 8.378906 L 25.796875 0 L 34.175781 25.667969 L 8.507812 34.046875 Z M 0.128906 8.378906 " clip-rule="nonzero"/></clipPath><clipPath id="0c1e8024ba"><path d="M 0.128906 8.378906 L 25.796875 0 L 34.175781 25.667969 L 8.507812 34.046875 Z M 0.128906 8.378906 " clip-rule="nonzero"/></clipPath><clipPath id="17cc255645"><path d="M 0.128906 8.378906 L 25.796875 0 L 34.175781 25.667969 L 8.507812 34.046875 Z M 0.128906 8.378906 " clip-rule="nonzero"/></clipPath><clipPath id="8433db2c78"><path d="M 16 17 L 25 17 L 25 31 L 16 31 Z M 16 17 " clip-rule="nonzero"/></clipPath><clipPath id="e83a9252b9"><path d="M 0.128906 8.378906 L 25.796875 0 L 34.175781 25.667969 L 8.507812 34.046875 Z M 0.128906 8.378906 " clip-rule="nonzero"/></clipPath><clipPath id="209f180289"><path d="M 0.128906 8.378906 L 25.796875 0 L 34.175781 25.667969 L 8.507812 34.046875 Z M 0.128906 8.378906 " clip-rule="nonzero"/></clipPath><clipPath id="a309b91f31"><path d="M 0.128906 8.378906 L 25.796875 0 L 34.175781 25.667969 L 8.507812 34.046875 Z M 0.128906 8.378906 " clip-rule="nonzero"/></clipPath></defs><g clip-path="url(#52f1fbd308)"><g clip-path="url(#29f4c68fee)"><g clip-path="url(#3e0cbff26a)"><g clip-path="url(#c94824a508)"><path fill="#7ca260" d="M 16.441406 13.777344 C 16.425781 13.769531 16.40625 13.765625 16.386719 13.765625 C 16.378906 13.753906 16.371094 13.742188 16.363281 13.730469 C 16.328125 13.691406 16.277344 13.671875 16.230469 13.671875 C 16.222656 13.671875 16.210938 13.667969 16.203125 13.667969 C 16.199219 13.65625 16.191406 13.648438 16.183594 13.644531 C 16.167969 13.625 16.152344 13.613281 16.132812 13.605469 C 16.117188 13.59375 16.101562 13.582031 16.082031 13.578125 C 16.078125 13.566406 16.074219 13.554688 16.066406 13.542969 C 16.019531 13.445312 15.914062 13.425781 15.84375 13.484375 C 15.839844 13.480469 15.835938 13.476562 15.832031 13.472656 C 15.832031 13.464844 15.832031 13.453125 15.828125 13.441406 C 15.808594 13.359375 15.730469 13.316406 15.664062 13.339844 C 15.660156 13.335938 15.65625 13.332031 15.648438 13.332031 C 15.648438 13.328125 15.644531 13.324219 15.644531 13.324219 C 15.644531 13.320312 15.644531 13.316406 15.644531 13.308594 C 15.625 13.203125 15.507812 13.160156 15.429688 13.226562 C 15.414062 13.210938 15.394531 13.207031 15.375 13.207031 C 15.367188 13.1875 15.355469 13.175781 15.34375 13.164062 C 15.324219 13.054688 15.21875 12.933594 15.109375 12.933594 C 15.101562 12.921875 15.09375 12.914062 15.082031 12.902344 C 15.015625 12.835938 14.921875 12.839844 14.863281 12.890625 C 14.832031 12.828125 14.777344 12.777344 14.71875 12.765625 C 14.710938 12.757812 14.707031 12.746094 14.695312 12.734375 C 14.652344 12.664062 14.578125 12.644531 14.515625 12.664062 C 14.515625 12.664062 14.511719 12.664062 14.511719 12.664062 C 14.503906 12.652344 14.496094 12.644531 14.488281 12.632812 C 14.410156 12.550781 14.289062 12.566406 14.242188 12.648438 C 14.214844 12.625 14.183594 12.609375 14.148438 12.609375 C 14.144531 12.601562 14.140625 12.59375 14.132812 12.585938 C 14.121094 12.574219 14.105469 12.566406 14.089844 12.558594 C 14.070312 12.535156 14.042969 12.523438 14.011719 12.519531 C 14.011719 12.519531 14.011719 12.515625 14.011719 12.515625 C 13.980469 12.46875 13.933594 12.457031 13.890625 12.46875 C 13.878906 12.457031 13.863281 12.449219 13.851562 12.445312 C 13.832031 12.429688 13.804688 12.414062 13.78125 12.410156 C 13.761719 12.339844 13.695312 12.304688 13.636719 12.316406 C 13.617188 12.292969 13.597656 12.277344 13.570312 12.269531 C 13.566406 12.257812 13.566406 12.246094 13.5625 12.238281 C 13.53125 12.15625 13.460938 12.117188 13.390625 12.128906 C 13.390625 12.128906 13.390625 12.125 13.390625 12.125 C 13.304688 12.019531 13.152344 12.039062 13.117188 12.167969 C 13.109375 12.164062 13.105469 12.164062 13.101562 12.164062 C 13.097656 12.160156 13.09375 12.152344 13.089844 12.148438 C 13.054688 12.113281 13.011719 12.105469 12.976562 12.121094 C 12.945312 12.023438 12.851562 11.933594 12.753906 11.933594 C 12.746094 11.925781 12.738281 11.914062 12.726562 11.90625 C 12.648438 11.832031 12.535156 11.851562 12.492188 11.933594 C 12.488281 11.933594 12.484375 11.933594 12.480469 11.933594 C 12.476562 11.921875 12.472656 11.914062 12.464844 11.90625 C 12.449219 11.882812 12.425781 11.863281 12.402344 11.855469 C 12.367188 11.832031 12.316406 11.828125 12.273438 11.855469 C 12.253906 11.847656 12.230469 11.84375 12.210938 11.847656 C 12.195312 11.839844 12.183594 11.835938 12.167969 11.832031 C 12.152344 11.8125 12.132812 11.800781 12.113281 11.792969 C 12.046875 11.703125 11.917969 11.714844 11.878906 11.820312 C 11.859375 11.816406 11.84375 11.8125 11.828125 11.8125 C 11.792969 11.761719 11.742188 11.722656 11.683594 11.71875 C 11.675781 11.707031 11.671875 11.699219 11.664062 11.691406 C 11.609375 11.628906 11.53125 11.625 11.480469 11.664062 C 11.464844 11.667969 11.449219 11.667969 11.4375 11.675781 C 11.429688 11.671875 11.421875 11.667969 11.414062 11.667969 C 11.414062 11.664062 11.414062 11.65625 11.414062 11.652344 C 11.386719 11.539062 11.273438 11.488281 11.183594 11.535156 C 11.148438 11.523438 11.105469 11.527344 11.070312 11.542969 C 11.019531 11.523438 10.964844 11.519531 10.914062 11.542969 C 10.894531 11.550781 10.878906 11.5625 10.863281 11.570312 C 10.839844 11.574219 10.816406 11.582031 10.792969 11.59375 C 10.789062 11.597656 10.785156 11.601562 10.78125 11.601562 C 10.757812 11.605469 10.734375 11.617188 10.71875 11.640625 C 10.710938 11.632812 10.703125 11.632812 10.695312 11.628906 C 10.65625 11.609375 10.609375 11.613281 10.574219 11.652344 C 10.535156 11.625 10.480469 11.609375 10.4375 11.628906 C 10.433594 11.628906 10.433594 11.632812 10.429688 11.636719 C 10.402344 11.621094 10.371094 11.621094 10.347656 11.632812 C 10.332031 11.617188 10.316406 11.601562 10.296875 11.59375 C 10.292969 11.585938 10.289062 11.570312 10.285156 11.5625 C 10.242188 11.449219 10.101562 11.429688 10.039062 11.527344 C 10.039062 11.527344 10.035156 11.527344 10.03125 11.527344 C 10.023438 11.523438 10.015625 11.519531 10.007812 11.519531 C 10 11.507812 9.996094 11.496094 9.988281 11.484375 C 9.917969 11.382812 9.777344 11.390625 9.726562 11.496094 C 9.691406 11.484375 9.648438 11.488281 9.613281 11.507812 C 9.582031 11.515625 9.550781 11.527344 9.527344 11.550781 C 9.5 11.542969 9.472656 11.539062 9.445312 11.542969 C 9.382812 11.4375 9.242188 11.4375 9.191406 11.546875 C 9.121094 11.527344 9.042969 11.53125 8.992188 11.574219 C 8.984375 11.578125 8.984375 11.582031 8.976562 11.585938 C 8.945312 11.550781 8.902344 11.535156 8.863281 11.539062 C 8.859375 11.535156 8.855469 11.53125 8.851562 11.53125 C 8.757812 11.4375 8.613281 11.476562 8.582031 11.59375 C 8.566406 11.601562 8.550781 11.605469 8.539062 11.617188 C 8.5 11.621094 8.464844 11.632812 8.433594 11.652344 C 8.386719 11.648438 8.34375 11.65625 8.304688 11.683594 C 8.285156 11.699219 8.273438 11.714844 8.261719 11.730469 C 8.226562 11.734375 8.195312 11.753906 8.171875 11.789062 C 8.113281 11.757812 8.042969 11.746094 7.984375 11.777344 C 7.96875 11.785156 7.953125 11.796875 7.9375 11.808594 C 7.886719 11.808594 7.835938 11.84375 7.824219 11.90625 C 7.824219 11.90625 7.824219 11.90625 7.820312 11.90625 C 7.765625 11.90625 7.703125 11.921875 7.667969 11.96875 C 7.644531 11.964844 7.621094 11.960938 7.597656 11.972656 C 7.59375 11.972656 7.59375 11.976562 7.59375 11.976562 C 7.546875 11.957031 7.496094 11.960938 7.453125 11.992188 C 7.421875 11.980469 7.390625 11.988281 7.359375 12.003906 C 7.3125 11.992188 7.265625 11.996094 7.222656 12.019531 C 7.207031 12.027344 7.191406 12.042969 7.179688 12.050781 C 7.15625 12.058594 7.128906 12.070312 7.109375 12.082031 C 7.054688 12.128906 7.027344 12.183594 7.023438 12.234375 C 7.011719 12.25 7.003906 12.269531 6.996094 12.285156 C 6.972656 12.285156 6.945312 12.285156 6.925781 12.296875 C 6.898438 12.3125 6.882812 12.332031 6.871094 12.351562 C 6.828125 12.335938 6.785156 12.332031 6.746094 12.355469 C 6.730469 12.363281 6.71875 12.375 6.703125 12.382812 C 6.660156 12.371094 6.613281 12.378906 6.578125 12.414062 C 6.578125 12.414062 6.574219 12.414062 6.574219 12.414062 C 6.546875 12.425781 6.527344 12.445312 6.511719 12.464844 C 6.507812 12.464844 6.503906 12.460938 6.496094 12.460938 C 6.445312 12.441406 6.390625 12.433594 6.339844 12.457031 C 6.285156 12.484375 6.246094 12.523438 6.226562 12.5625 C 6.207031 12.570312 6.191406 12.578125 6.175781 12.59375 C 6.144531 12.625 6.128906 12.664062 6.117188 12.699219 C 6.066406 12.675781 6.011719 12.671875 5.960938 12.695312 C 5.941406 12.703125 5.929688 12.714844 5.917969 12.722656 C 5.898438 12.726562 5.878906 12.730469 5.859375 12.738281 C 5.757812 12.789062 5.714844 12.871094 5.71875 12.957031 C 5.660156 12.96875 5.609375 12.996094 5.582031 13.046875 C 5.578125 13.050781 5.578125 13.054688 5.574219 13.058594 C 5.5625 13.0625 5.550781 13.070312 5.539062 13.078125 C 5.476562 13.0625 5.40625 13.0625 5.351562 13.101562 C 5.304688 13.136719 5.277344 13.179688 5.261719 13.21875 C 5.261719 13.21875 5.257812 13.222656 5.257812 13.222656 C 5.226562 13.222656 5.199219 13.230469 5.171875 13.242188 C 5.097656 13.285156 5.054688 13.339844 5.042969 13.402344 C 4.945312 13.4375 4.898438 13.511719 4.886719 13.585938 C 4.851562 13.578125 4.816406 13.578125 4.78125 13.59375 C 4.65625 13.636719 4.609375 13.734375 4.617188 13.832031 C 4.617188 13.832031 4.617188 13.835938 4.613281 13.835938 C 4.578125 13.859375 4.554688 13.894531 4.546875 13.941406 C 4.472656 13.941406 4.394531 13.96875 4.355469 14.03125 C 4.355469 14.03125 4.351562 14.035156 4.351562 14.035156 C 4.339844 14.050781 4.332031 14.070312 4.328125 14.085938 C 4.296875 14.089844 4.269531 14.101562 4.246094 14.121094 C 4.21875 14.144531 4.195312 14.167969 4.179688 14.195312 C 4.144531 14.199219 4.109375 14.210938 4.082031 14.234375 C 4.019531 14.289062 3.992188 14.347656 3.988281 14.410156 C 3.984375 14.417969 3.980469 14.425781 3.976562 14.433594 C 3.96875 14.441406 3.964844 14.449219 3.960938 14.457031 C 3.921875 14.46875 3.886719 14.484375 3.863281 14.515625 C 3.851562 14.53125 3.839844 14.546875 3.832031 14.5625 C 3.8125 14.574219 3.796875 14.585938 3.78125 14.605469 C 3.757812 14.636719 3.742188 14.664062 3.734375 14.695312 C 3.691406 14.734375 3.671875 14.78125 3.675781 14.832031 C 3.636719 14.824219 3.601562 14.828125 3.570312 14.84375 C 3.492188 14.878906 3.453125 14.9375 3.4375 14.996094 C 3.375 15.050781 3.347656 15.113281 3.347656 15.175781 C 3.316406 15.199219 3.292969 15.226562 3.28125 15.257812 C 3.242188 15.261719 3.207031 15.277344 3.179688 15.308594 C 3.125 15.371094 3.113281 15.433594 3.128906 15.492188 C 3.105469 15.503906 3.085938 15.519531 3.070312 15.542969 C 3.0625 15.550781 3.0625 15.554688 3.058594 15.5625 C 3.03125 15.558594 3.003906 15.5625 2.976562 15.574219 C 2.898438 15.617188 2.867188 15.679688 2.863281 15.742188 C 2.800781 15.800781 2.789062 15.878906 2.816406 15.949219 C 2.765625 15.988281 2.75 16.046875 2.757812 16.105469 C 2.683594 16.199219 2.726562 16.320312 2.820312 16.382812 C 2.832031 16.425781 2.851562 16.464844 2.882812 16.5 C 2.925781 16.546875 2.972656 16.5625 3.023438 16.554688 C 3.054688 16.605469 3.097656 16.632812 3.152344 16.632812 C 3.167969 16.648438 3.183594 16.65625 3.199219 16.664062 C 3.222656 16.695312 3.253906 16.722656 3.285156 16.742188 C 3.296875 16.757812 3.3125 16.769531 3.332031 16.785156 C 3.351562 16.824219 3.382812 16.859375 3.417969 16.890625 C 3.453125 16.917969 3.488281 16.933594 3.527344 16.9375 C 3.535156 16.945312 3.542969 16.949219 3.550781 16.957031 C 3.550781 16.957031 3.554688 16.957031 3.554688 16.957031 C 3.601562 17.035156 3.671875 17.070312 3.75 17.0625 C 3.789062 17.113281 3.847656 17.136719 3.910156 17.128906 C 3.9375 17.144531 3.964844 17.152344 3.996094 17.148438 C 3.996094 17.148438 4 17.152344 4.003906 17.152344 C 4.019531 17.1875 4.039062 17.222656 4.066406 17.246094 C 4.105469 17.289062 4.152344 17.308594 4.199219 17.308594 C 4.210938 17.316406 4.21875 17.324219 4.230469 17.332031 C 4.257812 17.347656 4.285156 17.359375 4.3125 17.363281 C 4.332031 17.382812 4.351562 17.402344 4.371094 17.417969 C 4.441406 17.472656 4.515625 17.484375 4.582031 17.457031 C 4.59375 17.460938 4.601562 17.464844 4.613281 17.46875 C 4.65625 17.566406 4.742188 17.605469 4.839844 17.582031 C 4.84375 17.585938 4.847656 17.59375 4.855469 17.597656 C 4.863281 17.605469 4.871094 17.609375 4.878906 17.617188 C 4.925781 17.679688 4.996094 17.695312 5.070312 17.667969 C 5.070312 17.671875 5.070312 17.675781 5.074219 17.679688 C 5.128906 17.753906 5.203125 17.773438 5.277344 17.75 C 5.289062 17.765625 5.304688 17.78125 5.316406 17.796875 C 5.347656 17.824219 5.378906 17.84375 5.414062 17.851562 C 5.46875 17.90625 5.535156 17.917969 5.601562 17.890625 C 5.605469 17.894531 5.609375 17.898438 5.613281 17.898438 C 5.625 17.953125 5.652344 18.007812 5.691406 18.050781 C 5.777344 18.148438 5.890625 18.152344 5.988281 18.082031 C 6.007812 18.117188 6.027344 18.152344 6.054688 18.179688 C 6.132812 18.261719 6.226562 18.269531 6.3125 18.21875 C 6.324219 18.21875 6.332031 18.21875 6.34375 18.21875 C 6.355469 18.234375 6.367188 18.25 6.382812 18.261719 C 6.40625 18.28125 6.429688 18.296875 6.453125 18.308594 C 6.472656 18.328125 6.492188 18.347656 6.515625 18.363281 C 6.609375 18.433594 6.714844 18.417969 6.789062 18.339844 C 6.792969 18.339844 6.800781 18.339844 6.804688 18.339844 C 6.832031 18.367188 6.863281 18.382812 6.894531 18.386719 C 6.914062 18.417969 6.9375 18.449219 6.96875 18.472656 C 7.015625 18.515625 7.066406 18.53125 7.117188 18.53125 C 7.125 18.539062 7.132812 18.546875 7.140625 18.554688 C 7.207031 18.613281 7.28125 18.628906 7.351562 18.605469 C 7.425781 18.636719 7.5 18.625 7.558594 18.578125 C 7.578125 18.585938 7.59375 18.589844 7.613281 18.589844 C 7.621094 18.609375 7.625 18.632812 7.632812 18.65625 C 7.691406 18.777344 7.808594 18.8125 7.929688 18.761719 C 7.96875 18.742188 8.003906 18.707031 8.039062 18.667969 C 8.058594 18.671875 8.078125 18.671875 8.09375 18.667969 C 8.09375 18.667969 8.09375 18.667969 8.097656 18.667969 C 8.101562 18.667969 8.101562 18.671875 8.105469 18.671875 C 8.136719 18.691406 8.167969 18.691406 8.199219 18.6875 C 8.226562 18.703125 8.25 18.710938 8.277344 18.710938 C 8.316406 18.730469 8.363281 18.734375 8.414062 18.71875 C 8.417969 18.714844 8.425781 18.710938 8.429688 18.707031 C 8.46875 18.734375 8.515625 18.734375 8.558594 18.707031 C 8.5625 18.707031 8.5625 18.703125 8.566406 18.699219 C 8.578125 18.707031 8.59375 18.710938 8.605469 18.710938 C 8.625 18.746094 8.65625 18.765625 8.6875 18.773438 C 8.703125 18.804688 8.722656 18.828125 8.746094 18.851562 C 8.824219 18.925781 8.917969 18.929688 8.996094 18.882812 C 9.007812 18.882812 9.023438 18.882812 9.035156 18.878906 C 9.066406 18.894531 9.105469 18.898438 9.144531 18.894531 C 9.183594 18.90625 9.226562 18.90625 9.269531 18.894531 C 9.273438 18.894531 9.277344 18.898438 9.28125 18.902344 C 9.351562 18.941406 9.421875 18.933594 9.480469 18.894531 C 9.523438 18.90625 9.570312 18.902344 9.613281 18.875 C 9.617188 18.875 9.621094 18.867188 9.625 18.867188 C 9.628906 18.871094 9.628906 18.878906 9.632812 18.882812 C 9.707031 18.996094 9.828125 19.015625 9.9375 18.949219 C 9.972656 18.929688 10 18.894531 10.027344 18.855469 C 10.054688 18.863281 10.082031 18.859375 10.109375 18.847656 C 10.109375 18.847656 10.109375 18.851562 10.109375 18.851562 C 10.171875 18.890625 10.234375 18.898438 10.289062 18.875 C 10.359375 18.917969 10.445312 18.90625 10.519531 18.851562 C 10.542969 18.835938 10.558594 18.8125 10.578125 18.785156 C 10.582031 18.789062 10.589844 18.789062 10.59375 18.789062 C 10.652344 18.832031 10.722656 18.832031 10.789062 18.800781 C 10.882812 18.859375 10.988281 18.835938 11.066406 18.746094 C 11.09375 18.714844 11.109375 18.671875 11.121094 18.625 C 11.210938 18.667969 11.296875 18.644531 11.359375 18.570312 C 11.367188 18.566406 11.375 18.566406 11.382812 18.5625 C 11.453125 18.589844 11.523438 18.566406 11.574219 18.5 C 11.578125 18.496094 11.582031 18.488281 11.585938 18.480469 C 11.617188 18.480469 11.648438 18.472656 11.679688 18.453125 C 11.703125 18.445312 11.71875 18.429688 11.734375 18.414062 C 11.757812 18.40625 11.777344 18.394531 11.796875 18.378906 C 11.804688 18.375 11.808594 18.371094 11.8125 18.367188 C 11.863281 18.367188 11.902344 18.34375 11.925781 18.300781 C 11.972656 18.308594 12.023438 18.296875 12.066406 18.265625 C 12.097656 18.265625 12.125 18.257812 12.152344 18.238281 C 12.214844 18.269531 12.289062 18.257812 12.355469 18.21875 C 12.398438 18.191406 12.433594 18.148438 12.460938 18.101562 C 12.460938 18.101562 12.460938 18.101562 12.464844 18.101562 C 12.539062 18.117188 12.585938 18.082031 12.617188 18.03125 C 12.632812 18.023438 12.644531 18.015625 12.65625 18 C 12.71875 18.015625 12.78125 17.992188 12.832031 17.933594 C 12.847656 17.917969 12.859375 17.894531 12.867188 17.871094 C 12.910156 17.867188 12.957031 17.851562 12.996094 17.816406 C 13 17.8125 13.007812 17.800781 13.011719 17.796875 C 13.015625 17.792969 13.023438 17.785156 13.027344 17.78125 C 13.082031 17.777344 13.128906 17.746094 13.160156 17.691406 C 13.167969 17.679688 13.167969 17.667969 13.171875 17.65625 C 13.171875 17.65625 13.175781 17.65625 13.175781 17.65625 C 13.21875 17.660156 13.261719 17.648438 13.304688 17.625 C 13.339844 17.601562 13.367188 17.570312 13.390625 17.53125 C 13.40625 17.53125 13.421875 17.523438 13.433594 17.515625 C 13.527344 17.523438 13.578125 17.445312 13.585938 17.355469 C 13.597656 17.347656 13.609375 17.339844 13.617188 17.328125 C 13.621094 17.328125 13.628906 17.332031 13.632812 17.335938 C 13.71875 17.386719 13.804688 17.355469 13.855469 17.273438 C 13.863281 17.257812 13.871094 17.238281 13.875 17.21875 C 13.914062 17.210938 13.953125 17.183594 13.976562 17.140625 C 13.980469 17.136719 13.984375 17.128906 13.984375 17.121094 C 13.992188 17.117188 14 17.105469 14.003906 17.101562 C 14.027344 17.09375 14.046875 17.082031 14.066406 17.066406 C 14.074219 17.058594 14.082031 17.046875 14.089844 17.039062 C 14.121094 17.035156 14.152344 17.023438 14.179688 17 C 14.203125 16.992188 14.230469 16.980469 14.257812 16.960938 C 14.289062 16.933594 14.3125 16.890625 14.332031 16.847656 C 14.332031 16.847656 14.332031 16.847656 14.335938 16.847656 C 14.351562 16.847656 14.367188 16.84375 14.382812 16.839844 C 14.460938 16.878906 14.546875 16.855469 14.609375 16.785156 C 14.636719 16.753906 14.652344 16.710938 14.660156 16.667969 C 14.664062 16.667969 14.664062 16.667969 14.664062 16.667969 C 14.671875 16.664062 14.675781 16.65625 14.683594 16.652344 C 14.695312 16.648438 14.710938 16.644531 14.722656 16.640625 C 14.742188 16.636719 14.761719 16.628906 14.773438 16.617188 C 14.824219 16.617188 14.875 16.597656 14.917969 16.558594 C 14.949219 16.535156 14.96875 16.496094 14.984375 16.453125 C 15.007812 16.449219 15.03125 16.441406 15.050781 16.429688 C 15.074219 16.421875 15.089844 16.40625 15.105469 16.386719 C 15.125 16.367188 15.148438 16.339844 15.164062 16.308594 C 15.230469 16.320312 15.292969 16.289062 15.339844 16.222656 C 15.355469 16.203125 15.363281 16.175781 15.367188 16.148438 C 15.378906 16.136719 15.390625 16.125 15.402344 16.109375 C 15.421875 16.097656 15.441406 16.082031 15.460938 16.0625 C 15.472656 16.046875 15.480469 16.03125 15.484375 16.011719 C 15.5 15.996094 15.511719 15.980469 15.523438 15.960938 C 15.523438 15.960938 15.523438 15.960938 15.527344 15.960938 C 15.621094 15.976562 15.660156 15.890625 15.652344 15.804688 C 15.671875 15.796875 15.6875 15.792969 15.707031 15.777344 C 15.714844 15.773438 15.71875 15.769531 15.722656 15.761719 C 15.78125 15.773438 15.839844 15.761719 15.898438 15.726562 C 15.9375 15.699219 15.96875 15.65625 15.996094 15.609375 C 15.996094 15.609375 15.996094 15.609375 16 15.609375 C 16.09375 15.628906 16.148438 15.566406 16.164062 15.484375 C 16.164062 15.484375 16.167969 15.480469 16.167969 15.480469 C 16.25 15.492188 16.300781 15.429688 16.320312 15.351562 C 16.347656 15.332031 16.371094 15.308594 16.394531 15.28125 C 16.394531 15.28125 16.398438 15.28125 16.398438 15.28125 C 16.578125 15.347656 16.65625 15.105469 16.59375 14.949219 C 16.601562 14.9375 16.605469 14.925781 16.609375 14.910156 C 16.671875 14.925781 16.734375 14.898438 16.777344 14.84375 C 16.800781 14.8125 16.816406 14.773438 16.824219 14.730469 C 16.90625 14.71875 16.929688 14.652344 16.917969 14.585938 C 16.960938 14.546875 16.96875 14.457031 16.9375 14.402344 C 17.007812 14.296875 16.910156 14.078125 16.769531 14.054688 C 16.761719 14.042969 16.757812 14.03125 16.75 14.023438 C 16.722656 13.988281 16.691406 13.96875 16.65625 13.960938 C 16.636719 13.941406 16.617188 13.925781 16.59375 13.917969 C 16.589844 13.90625 16.585938 13.890625 16.578125 13.878906 C 16.550781 13.816406 16.496094 13.78125 16.441406 13.777344 Z M 16.859375 14.457031 C 16.859375 14.457031 16.859375 14.453125 16.855469 14.453125 Z M 16.859375 14.457031 " fill-opacity="1" fill-rule="nonzero"/></g></g></g></g><g clip-path="url(#195547573d)"><g clip-path="url(#49f58d970b)"><g clip-path="url(#0c1e8024ba)"><g clip-path="url(#17cc255645)"><path fill="#8ba378" d="M 25.40625 3.832031 C 25.40625 3.832031 25.394531 3.828125 25.386719 3.824219 C 25.382812 3.8125 25.378906 3.800781 25.375 3.792969 C 25.332031 3.714844 25.25 3.691406 25.1875 3.726562 C 25.152344 3.632812 25.0625 3.546875 24.96875 3.546875 C 24.960938 3.535156 24.953125 3.523438 24.941406 3.515625 C 24.914062 3.492188 24.882812 3.476562 24.851562 3.472656 C 24.816406 3.425781 24.769531 3.40625 24.71875 3.410156 C 24.6875 3.304688 24.574219 3.269531 24.496094 3.335938 C 24.492188 3.335938 24.488281 3.332031 24.484375 3.332031 C 24.476562 3.332031 24.472656 3.328125 24.46875 3.328125 C 24.464844 3.316406 24.460938 3.308594 24.453125 3.296875 C 24.417969 3.246094 24.367188 3.21875 24.320312 3.222656 C 24.269531 3.144531 24.164062 3.140625 24.105469 3.222656 C 24.074219 3.207031 24.039062 3.195312 24.003906 3.199219 C 23.996094 3.191406 23.980469 3.183594 23.96875 3.179688 C 23.9375 3.101562 23.871094 3.027344 23.792969 3.015625 C 23.785156 3.007812 23.78125 2.996094 23.773438 2.984375 C 23.746094 2.953125 23.714844 2.933594 23.679688 2.925781 C 23.671875 2.925781 23.671875 2.925781 23.664062 2.925781 C 23.652344 2.921875 23.644531 2.921875 23.632812 2.925781 C 23.578125 2.859375 23.496094 2.851562 23.441406 2.902344 C 23.433594 2.902344 23.425781 2.898438 23.417969 2.898438 C 23.417969 2.894531 23.417969 2.890625 23.414062 2.890625 C 23.382812 2.835938 23.332031 2.816406 23.28125 2.824219 C 23.277344 2.820312 23.277344 2.816406 23.269531 2.8125 C 23.222656 2.757812 23.15625 2.746094 23.101562 2.765625 C 23.078125 2.710938 23.023438 2.675781 22.964844 2.679688 C 22.9375 2.679688 22.90625 2.683594 22.878906 2.699219 C 22.835938 2.652344 22.761719 2.640625 22.707031 2.683594 C 22.691406 2.683594 22.675781 2.6875 22.664062 2.691406 C 22.617188 2.664062 22.5625 2.652344 22.511719 2.664062 C 22.5 2.652344 22.484375 2.640625 22.472656 2.628906 C 22.46875 2.617188 22.46875 2.601562 22.464844 2.589844 C 22.433594 2.46875 22.304688 2.425781 22.21875 2.492188 C 22.1875 2.484375 22.15625 2.484375 22.128906 2.492188 C 22.074219 2.476562 22.015625 2.472656 21.964844 2.496094 C 21.941406 2.511719 21.917969 2.527344 21.898438 2.542969 C 21.875 2.546875 21.847656 2.558594 21.828125 2.570312 C 21.816406 2.566406 21.808594 2.566406 21.796875 2.566406 C 21.785156 2.550781 21.769531 2.539062 21.753906 2.53125 C 21.75 2.519531 21.75 2.507812 21.746094 2.5 C 21.714844 2.410156 21.625 2.375 21.558594 2.410156 C 21.515625 2.363281 21.449219 2.347656 21.398438 2.371094 C 21.390625 2.367188 21.390625 2.363281 21.382812 2.359375 C 21.324219 2.300781 21.246094 2.296875 21.191406 2.335938 C 21.148438 2.289062 21.078125 2.269531 21.019531 2.296875 C 20.957031 2.238281 20.867188 2.234375 20.808594 2.285156 C 20.808594 2.285156 20.808594 2.285156 20.804688 2.285156 C 20.792969 2.289062 20.777344 2.292969 20.765625 2.296875 C 20.726562 2.273438 20.679688 2.277344 20.644531 2.300781 C 20.628906 2.292969 20.609375 2.289062 20.59375 2.289062 C 20.585938 2.277344 20.578125 2.269531 20.566406 2.257812 C 20.480469 2.171875 20.351562 2.195312 20.308594 2.292969 C 20.292969 2.285156 20.273438 2.285156 20.253906 2.289062 C 20.253906 2.289062 20.25 2.289062 20.25 2.285156 C 20.203125 2.21875 20.109375 2.207031 20.050781 2.257812 C 20.027344 2.253906 20.003906 2.257812 19.984375 2.265625 C 19.953125 2.230469 19.90625 2.222656 19.867188 2.230469 C 19.824219 2.160156 19.738281 2.140625 19.667969 2.179688 C 19.597656 2.113281 19.488281 2.125 19.4375 2.210938 C 19.429688 2.210938 19.425781 2.214844 19.417969 2.214844 C 19.40625 2.222656 19.402344 2.226562 19.394531 2.234375 C 19.324219 2.226562 19.253906 2.238281 19.207031 2.289062 C 19.195312 2.300781 19.1875 2.3125 19.175781 2.328125 C 19.125 2.371094 19.101562 2.421875 19.101562 2.46875 C 19.046875 2.515625 19.035156 2.578125 19.050781 2.632812 C 19.039062 2.683594 19.050781 2.734375 19.082031 2.78125 C 19.085938 2.804688 19.097656 2.832031 19.117188 2.855469 C 19.113281 2.871094 19.113281 2.890625 19.121094 2.90625 C 19.113281 2.929688 19.109375 2.957031 19.117188 2.980469 C 19.113281 3.019531 19.121094 3.058594 19.140625 3.09375 C 19.132812 3.117188 19.136719 3.140625 19.144531 3.164062 C 19.117188 3.167969 19.09375 3.175781 19.070312 3.195312 C 18.917969 3.304688 18.949219 3.476562 19.0625 3.578125 C 19.066406 3.617188 19.082031 3.65625 19.105469 3.6875 C 19.082031 3.734375 19.082031 3.792969 19.097656 3.84375 C 19.09375 3.890625 19.105469 3.933594 19.132812 3.976562 C 19.132812 4 19.140625 4.023438 19.148438 4.046875 C 19.152344 4.0625 19.164062 4.074219 19.171875 4.085938 C 19.050781 4.191406 19.09375 4.34375 19.207031 4.421875 C 19.210938 4.441406 19.21875 4.460938 19.226562 4.480469 C 19.21875 4.503906 19.21875 4.527344 19.222656 4.546875 C 19.082031 4.6875 19.148438 4.867188 19.292969 4.949219 C 19.273438 5.007812 19.292969 5.0625 19.332031 5.097656 C 19.332031 5.097656 19.332031 5.097656 19.335938 5.097656 C 19.324219 5.105469 19.316406 5.109375 19.304688 5.117188 C 19.1875 5.230469 19.222656 5.371094 19.324219 5.453125 C 19.300781 5.527344 19.324219 5.605469 19.378906 5.664062 C 19.382812 5.671875 19.386719 5.679688 19.390625 5.6875 C 19.3125 5.761719 19.300781 5.855469 19.335938 5.9375 C 19.335938 6.027344 19.386719 6.113281 19.46875 6.167969 C 19.476562 6.210938 19.5 6.25 19.527344 6.285156 C 19.511719 6.347656 19.53125 6.417969 19.578125 6.472656 C 19.492188 6.570312 19.519531 6.703125 19.605469 6.789062 C 19.609375 6.824219 19.621094 6.859375 19.640625 6.886719 C 19.652344 6.910156 19.664062 6.933594 19.675781 6.957031 C 19.699219 6.988281 19.722656 7.007812 19.75 7.023438 C 19.757812 7.070312 19.773438 7.117188 19.804688 7.15625 C 19.8125 7.164062 19.816406 7.175781 19.828125 7.183594 C 19.824219 7.183594 19.820312 7.1875 19.820312 7.1875 C 19.730469 7.320312 19.789062 7.453125 19.898438 7.515625 C 19.898438 7.542969 19.90625 7.570312 19.914062 7.59375 C 19.917969 7.609375 19.929688 7.617188 19.9375 7.625 C 19.929688 7.6875 19.972656 7.746094 20.03125 7.773438 C 20.035156 7.8125 20.058594 7.84375 20.089844 7.867188 C 20.066406 7.914062 20.070312 7.960938 20.085938 8 C 20.058594 8.082031 20.105469 8.164062 20.179688 8.203125 C 20.1875 8.222656 20.195312 8.238281 20.207031 8.253906 C 20.160156 8.335938 20.171875 8.421875 20.21875 8.492188 C 20.222656 8.550781 20.261719 8.605469 20.316406 8.640625 C 20.308594 8.722656 20.347656 8.792969 20.414062 8.839844 C 20.425781 8.898438 20.460938 8.953125 20.515625 8.996094 C 20.515625 9 20.519531 9.003906 20.519531 9.011719 C 20.527344 9.027344 20.539062 9.039062 20.546875 9.050781 C 20.5625 9.085938 20.582031 9.117188 20.605469 9.144531 C 20.613281 9.152344 20.621094 9.15625 20.628906 9.164062 C 20.628906 9.167969 20.632812 9.171875 20.636719 9.175781 C 20.648438 9.195312 20.667969 9.210938 20.683594 9.222656 C 20.6875 9.242188 20.691406 9.257812 20.699219 9.277344 C 20.703125 9.304688 20.710938 9.332031 20.722656 9.359375 C 20.726562 9.371094 20.738281 9.382812 20.746094 9.394531 C 20.746094 9.4375 20.761719 9.476562 20.785156 9.511719 C 20.789062 9.519531 20.789062 9.527344 20.792969 9.535156 C 20.824219 9.613281 20.890625 9.652344 20.964844 9.652344 C 20.976562 9.675781 20.996094 9.699219 21.015625 9.71875 C 21.019531 9.726562 21.027344 9.734375 21.035156 9.746094 C 21.035156 9.761719 21.039062 9.777344 21.046875 9.789062 C 21.046875 9.832031 21.054688 9.878906 21.074219 9.917969 C 21.109375 9.992188 21.167969 10.03125 21.234375 10.035156 C 21.25 10.046875 21.261719 10.058594 21.277344 10.070312 C 21.289062 10.121094 21.320312 10.171875 21.355469 10.214844 C 21.394531 10.253906 21.441406 10.277344 21.488281 10.28125 C 21.519531 10.335938 21.570312 10.382812 21.636719 10.40625 C 21.660156 10.457031 21.695312 10.5 21.742188 10.53125 C 21.753906 10.539062 21.765625 10.542969 21.777344 10.550781 C 21.78125 10.5625 21.785156 10.574219 21.792969 10.585938 C 21.839844 10.675781 21.925781 10.707031 22.011719 10.683594 C 22.03125 10.707031 22.050781 10.726562 22.078125 10.742188 C 22.09375 10.789062 22.121094 10.835938 22.15625 10.875 C 22.222656 10.941406 22.300781 10.953125 22.375 10.914062 C 22.402344 10.945312 22.433594 10.972656 22.46875 10.992188 C 22.496094 11.003906 22.523438 11.011719 22.550781 11.011719 C 22.558594 11.023438 22.570312 11.035156 22.582031 11.042969 C 22.589844 11.074219 22.609375 11.101562 22.628906 11.128906 C 22.667969 11.175781 22.71875 11.195312 22.769531 11.195312 C 22.789062 11.199219 22.808594 11.203125 22.828125 11.203125 C 22.851562 11.21875 22.871094 11.234375 22.898438 11.242188 C 22.917969 11.289062 22.949219 11.324219 22.988281 11.355469 C 22.996094 11.359375 23.003906 11.359375 23.011719 11.367188 C 23.023438 11.390625 23.039062 11.410156 23.058594 11.429688 C 23.089844 11.464844 23.121094 11.484375 23.15625 11.492188 C 23.214844 11.542969 23.289062 11.550781 23.359375 11.519531 C 23.359375 11.519531 23.363281 11.519531 23.367188 11.523438 C 23.367188 11.527344 23.367188 11.535156 23.371094 11.539062 C 23.414062 11.648438 23.515625 11.6875 23.621094 11.648438 C 23.632812 11.644531 23.644531 11.636719 23.652344 11.628906 C 23.65625 11.652344 23.664062 11.675781 23.671875 11.699219 C 23.710938 11.804688 23.800781 11.84375 23.898438 11.820312 C 23.96875 11.886719 24.046875 11.902344 24.121094 11.867188 C 24.132812 11.878906 24.140625 11.886719 24.148438 11.890625 C 24.148438 11.890625 24.148438 11.890625 24.148438 11.894531 C 24.171875 11.957031 24.214844 11.992188 24.269531 12.003906 C 24.289062 12.03125 24.3125 12.054688 24.339844 12.074219 C 24.34375 12.078125 24.34375 12.078125 24.347656 12.082031 C 24.386719 12.121094 24.429688 12.140625 24.476562 12.144531 C 24.523438 12.160156 24.578125 12.160156 24.632812 12.136719 C 24.660156 12.125 24.683594 12.105469 24.707031 12.082031 C 24.726562 12.082031 24.746094 12.082031 24.765625 12.074219 C 24.773438 12.070312 24.78125 12.066406 24.789062 12.058594 C 24.792969 12.078125 24.800781 12.089844 24.808594 12.105469 C 24.84375 12.15625 24.890625 12.175781 24.941406 12.171875 C 24.976562 12.199219 25.015625 12.207031 25.050781 12.199219 C 25.066406 12.214844 25.085938 12.230469 25.105469 12.234375 C 25.148438 12.296875 25.210938 12.320312 25.28125 12.304688 C 25.28125 12.304688 25.28125 12.308594 25.28125 12.308594 C 25.316406 12.328125 25.347656 12.332031 25.378906 12.332031 C 25.386719 12.351562 25.394531 12.375 25.402344 12.394531 C 25.457031 12.492188 25.550781 12.523438 25.644531 12.492188 C 25.6875 12.515625 25.734375 12.519531 25.777344 12.503906 C 25.777344 12.507812 25.78125 12.515625 25.78125 12.519531 C 25.832031 12.632812 25.941406 12.660156 26.050781 12.617188 C 26.070312 12.609375 26.085938 12.59375 26.105469 12.578125 C 26.113281 12.589844 26.121094 12.601562 26.132812 12.609375 C 26.210938 12.683594 26.308594 12.683594 26.386719 12.625 C 26.410156 12.652344 26.433594 12.675781 26.460938 12.691406 C 26.515625 12.71875 26.570312 12.714844 26.613281 12.691406 C 26.617188 12.691406 26.625 12.691406 26.628906 12.695312 C 26.660156 12.730469 26.695312 12.761719 26.738281 12.785156 C 26.804688 12.816406 26.863281 12.8125 26.917969 12.789062 C 26.925781 12.792969 26.933594 12.792969 26.941406 12.792969 C 26.949219 12.800781 26.957031 12.8125 26.964844 12.824219 C 27.011719 12.886719 27.078125 12.90625 27.140625 12.894531 C 27.15625 12.914062 27.171875 12.933594 27.191406 12.949219 C 27.292969 13.027344 27.40625 13.015625 27.488281 12.929688 C 27.5 12.925781 27.515625 12.921875 27.523438 12.914062 C 27.550781 12.945312 27.578125 12.972656 27.617188 12.992188 C 27.65625 13.015625 27.695312 13.015625 27.730469 13.011719 C 27.765625 13.023438 27.800781 13.027344 27.835938 13.015625 C 27.839844 13.019531 27.84375 13.019531 27.847656 13.023438 C 27.898438 13.113281 27.980469 13.148438 28.070312 13.132812 C 28.082031 13.140625 28.089844 13.148438 28.101562 13.15625 C 28.167969 13.191406 28.234375 13.191406 28.292969 13.167969 C 28.382812 13.222656 28.480469 13.199219 28.550781 13.121094 C 28.582031 13.085938 28.601562 13.039062 28.609375 12.988281 C 28.609375 12.988281 28.613281 12.988281 28.613281 12.988281 C 28.699219 12.980469 28.734375 12.914062 28.730469 12.839844 C 28.75 12.816406 28.757812 12.785156 28.753906 12.75 C 28.816406 12.710938 28.824219 12.597656 28.785156 12.515625 C 28.894531 12.484375 28.898438 12.316406 28.828125 12.214844 C 28.832031 12.207031 28.835938 12.199219 28.835938 12.191406 C 29.007812 12.160156 28.933594 11.875 28.785156 11.828125 C 28.847656 11.804688 28.863281 11.742188 28.851562 11.675781 C 29.042969 11.632812 28.945312 11.300781 28.769531 11.265625 C 28.765625 11.257812 28.761719 11.253906 28.757812 11.25 C 28.832031 11.230469 28.84375 11.144531 28.8125 11.070312 C 28.855469 11.023438 28.84375 10.933594 28.796875 10.867188 C 28.8125 10.839844 28.8125 10.808594 28.808594 10.769531 C 28.835938 10.726562 28.835938 10.664062 28.8125 10.609375 C 28.898438 10.554688 28.878906 10.417969 28.808594 10.324219 C 28.867188 10.230469 28.808594 10.050781 28.699219 10 C 28.699219 9.992188 28.691406 9.984375 28.6875 9.976562 C 28.679688 9.949219 28.664062 9.917969 28.644531 9.898438 C 28.65625 9.855469 28.652344 9.808594 28.632812 9.769531 C 28.65625 9.734375 28.65625 9.683594 28.640625 9.632812 C 28.636719 9.605469 28.632812 9.574219 28.621094 9.550781 C 28.65625 9.5 28.636719 9.417969 28.589844 9.359375 C 28.574219 9.324219 28.554688 9.296875 28.527344 9.277344 C 28.519531 9.269531 28.515625 9.261719 28.507812 9.253906 C 28.582031 9.195312 28.578125 9.027344 28.496094 8.964844 C 28.546875 8.894531 28.507812 8.75 28.425781 8.695312 C 28.429688 8.636719 28.410156 8.574219 28.367188 8.542969 C 28.367188 8.53125 28.363281 8.519531 28.359375 8.507812 C 28.457031 8.464844 28.449219 8.300781 28.375 8.207031 C 28.410156 8.113281 28.375 7.972656 28.292969 7.902344 C 28.289062 7.828125 28.242188 7.746094 28.183594 7.699219 C 28.21875 7.605469 28.199219 7.472656 28.121094 7.414062 C 28.117188 7.40625 28.117188 7.398438 28.113281 7.390625 C 28.109375 7.382812 28.113281 7.378906 28.109375 7.371094 C 28.101562 7.339844 28.085938 7.3125 28.066406 7.289062 C 28.140625 7.175781 28.007812 6.941406 27.855469 6.933594 C 27.847656 6.921875 27.839844 6.910156 27.828125 6.902344 C 27.820312 6.890625 27.8125 6.882812 27.800781 6.875 C 27.796875 6.816406 27.761719 6.75 27.710938 6.71875 C 27.746094 6.632812 27.738281 6.515625 27.683594 6.445312 C 27.671875 6.359375 27.625 6.273438 27.554688 6.246094 C 27.550781 6.234375 27.546875 6.21875 27.542969 6.207031 C 27.53125 6.183594 27.519531 6.167969 27.5 6.152344 C 27.496094 6.128906 27.492188 6.101562 27.480469 6.082031 C 27.496094 5.996094 27.4375 5.882812 27.351562 5.828125 C 27.332031 5.765625 27.292969 5.707031 27.238281 5.675781 C 27.226562 5.605469 27.191406 5.539062 27.140625 5.503906 C 27.132812 5.457031 27.109375 5.414062 27.078125 5.382812 C 27.078125 5.371094 27.078125 5.359375 27.074219 5.34375 C 27.066406 5.257812 27 5.207031 26.929688 5.207031 C 26.910156 5.175781 26.886719 5.152344 26.859375 5.136719 C 26.855469 5.128906 26.851562 5.117188 26.847656 5.105469 C 26.835938 5.070312 26.808594 5.046875 26.78125 5.03125 C 26.761719 4.929688 26.683594 4.828125 26.585938 4.8125 C 26.578125 4.804688 26.574219 4.792969 26.5625 4.78125 C 26.550781 4.765625 26.539062 4.753906 26.519531 4.746094 C 26.496094 4.714844 26.460938 4.703125 26.429688 4.699219 C 26.398438 4.664062 26.355469 4.648438 26.316406 4.652344 C 26.316406 4.652344 26.316406 4.648438 26.3125 4.648438 C 26.3125 4.570312 26.28125 4.492188 26.222656 4.457031 C 26.21875 4.445312 26.21875 4.433594 26.214844 4.421875 C 26.191406 4.34375 26.121094 4.304688 26.054688 4.316406 C 26.035156 4.292969 26.011719 4.273438 25.980469 4.265625 C 25.976562 4.253906 25.972656 4.242188 25.96875 4.234375 C 25.933594 4.167969 25.871094 4.144531 25.8125 4.15625 C 25.796875 4.140625 25.78125 4.128906 25.761719 4.121094 C 25.753906 4.105469 25.746094 4.089844 25.734375 4.078125 C 25.726562 4.066406 25.71875 4.050781 25.710938 4.039062 C 25.707031 4.035156 25.707031 4.027344 25.707031 4.019531 C 25.695312 3.949219 25.644531 3.90625 25.585938 3.894531 C 25.546875 3.824219 25.46875 3.804688 25.40625 3.835938 Z M 23.570312 11.507812 C 23.570312 11.507812 23.535156 11.515625 23.535156 11.519531 C 23.527344 11.519531 23.523438 11.511719 23.515625 11.503906 C 23.535156 11.507812 23.554688 11.511719 23.570312 11.511719 Z M 25.953125 12.484375 C 25.945312 12.484375 25.941406 12.480469 25.933594 12.472656 C 25.953125 12.476562 25.96875 12.476562 25.984375 12.476562 C 25.976562 12.476562 25.953125 12.484375 25.953125 12.484375 Z M 28.429688 13.023438 C 28.429688 13.023438 28.429688 13.019531 28.433594 13.019531 C 28.433594 13.019531 28.429688 13.019531 28.429688 13.023438 Z M 28.738281 11.976562 C 28.738281 11.976562 28.742188 11.976562 28.746094 11.980469 C 28.742188 11.980469 28.738281 11.976562 28.738281 11.976562 Z M 19.398438 5.238281 C 19.394531 5.246094 19.386719 5.257812 19.382812 5.269531 C 19.386719 5.257812 19.386719 5.25 19.386719 5.242188 C 19.390625 5.242188 19.386719 5.242188 19.390625 5.242188 C 19.394531 5.238281 19.394531 5.238281 19.398438 5.238281 C 19.398438 5.238281 19.398438 5.238281 19.398438 5.242188 Z M 28.425781 9.074219 C 28.425781 9.074219 28.421875 9.070312 28.421875 9.070312 C 28.421875 9.070312 28.421875 9.070312 28.425781 9.070312 Z M 28.355469 8.808594 C 28.355469 8.808594 28.351562 8.808594 28.347656 8.804688 C 28.347656 8.804688 28.347656 8.808594 28.351562 8.808594 Z M 27.84375 7.113281 C 27.84375 7.113281 27.84375 7.113281 27.847656 7.113281 C 27.847656 7.113281 27.851562 7.113281 27.851562 7.113281 C 27.851562 7.113281 27.847656 7.113281 27.84375 7.113281 Z M 27.84375 7.113281 " fill-opacity="1" fill-rule="nonzero"/></g></g></g></g><g clip-path="url(#8433db2c78)"><g clip-path="url(#e83a9252b9)"><g clip-path="url(#209f180289)"><g clip-path="url(#a309b91f31)"><path fill="#487e5c" d="M 23.851562 17.582031 C 23.851562 17.582031 23.847656 17.578125 23.84375 17.574219 C 23.808594 17.53125 23.757812 17.515625 23.714844 17.527344 C 23.714844 17.527344 23.714844 17.523438 23.710938 17.519531 C 23.632812 17.40625 23.476562 17.425781 23.433594 17.550781 C 23.355469 17.539062 23.273438 17.546875 23.21875 17.605469 C 23.15625 17.675781 23.140625 17.75 23.152344 17.816406 C 23.144531 17.820312 23.136719 17.820312 23.128906 17.824219 C 23.109375 17.832031 23.089844 17.839844 23.074219 17.859375 C 23.066406 17.855469 23.058594 17.859375 23.054688 17.855469 C 23.007812 17.800781 22.933594 17.792969 22.886719 17.835938 C 22.855469 17.839844 22.824219 17.851562 22.796875 17.875 C 22.769531 17.878906 22.742188 17.886719 22.71875 17.898438 C 22.660156 17.886719 22.597656 17.890625 22.550781 17.925781 C 22.542969 17.929688 22.539062 17.9375 22.535156 17.941406 C 22.492188 17.941406 22.453125 17.960938 22.425781 17.992188 C 22.417969 17.996094 22.40625 17.996094 22.398438 18.003906 C 22.386719 18.011719 22.375 18.023438 22.363281 18.035156 C 22.296875 18.023438 22.230469 18.035156 22.179688 18.082031 C 22.132812 18.125 22.109375 18.175781 22.101562 18.222656 C 22.082031 18.230469 22.0625 18.242188 22.042969 18.257812 C 22.035156 18.257812 22.027344 18.261719 22.015625 18.265625 C 21.957031 18.226562 21.882812 18.210938 21.816406 18.238281 C 21.734375 18.277344 21.691406 18.335938 21.675781 18.402344 C 21.648438 18.40625 21.621094 18.417969 21.597656 18.433594 C 21.550781 18.472656 21.523438 18.515625 21.511719 18.554688 C 21.453125 18.582031 21.414062 18.621094 21.398438 18.664062 C 21.332031 18.648438 21.257812 18.679688 21.230469 18.757812 C 21.230469 18.757812 21.226562 18.757812 21.226562 18.757812 C 21.15625 18.75 21.082031 18.761719 21.035156 18.816406 C 21 18.851562 20.984375 18.890625 20.976562 18.929688 C 20.976562 18.929688 20.972656 18.929688 20.972656 18.933594 C 20.921875 18.960938 20.894531 18.996094 20.886719 19.039062 C 20.863281 19.042969 20.84375 19.050781 20.824219 19.0625 C 20.746094 19.019531 20.648438 19.054688 20.625 19.152344 C 20.550781 19.144531 20.472656 19.160156 20.425781 19.21875 C 20.417969 19.226562 20.414062 19.230469 20.410156 19.238281 C 20.410156 19.238281 20.40625 19.238281 20.40625 19.242188 C 20.277344 19.289062 20.234375 19.398438 20.253906 19.5 C 20.246094 19.503906 20.242188 19.511719 20.238281 19.515625 C 20.167969 19.488281 20.085938 19.523438 20.0625 19.597656 C 20.058594 19.601562 20.054688 19.601562 20.050781 19.605469 C 20.046875 19.609375 20.042969 19.617188 20.039062 19.621094 C 19.992188 19.621094 19.941406 19.636719 19.90625 19.664062 C 19.886719 19.671875 19.863281 19.675781 19.847656 19.691406 C 19.792969 19.730469 19.761719 19.777344 19.75 19.828125 C 19.742188 19.832031 19.734375 19.835938 19.726562 19.84375 C 19.636719 19.886719 19.597656 19.960938 19.601562 20.039062 C 19.582031 20.0625 19.570312 20.085938 19.5625 20.113281 C 19.527344 20.113281 19.496094 20.121094 19.46875 20.144531 C 19.464844 20.148438 19.464844 20.15625 19.457031 20.160156 C 19.417969 20.148438 19.375 20.152344 19.339844 20.171875 C 19.238281 20.21875 19.199219 20.304688 19.207031 20.386719 C 19.1875 20.386719 19.167969 20.386719 19.148438 20.394531 C 19.105469 20.414062 19.074219 20.441406 19.054688 20.472656 C 18.957031 20.511719 18.914062 20.589844 18.914062 20.667969 C 18.871094 20.675781 18.835938 20.6875 18.808594 20.714844 C 18.792969 20.730469 18.78125 20.75 18.769531 20.765625 C 18.730469 20.796875 18.707031 20.832031 18.695312 20.871094 C 18.609375 20.910156 18.570312 20.972656 18.566406 21.042969 C 18.527344 21.085938 18.511719 21.128906 18.515625 21.175781 C 18.480469 21.183594 18.445312 21.199219 18.417969 21.226562 C 18.40625 21.242188 18.398438 21.253906 18.390625 21.269531 C 18.386719 21.269531 18.386719 21.269531 18.382812 21.273438 C 18.359375 21.269531 18.335938 21.273438 18.3125 21.28125 C 18.132812 21.339844 18.105469 21.511719 18.175781 21.644531 C 18.171875 21.644531 18.171875 21.648438 18.167969 21.652344 C 18.164062 21.652344 18.164062 21.65625 18.164062 21.65625 C 18.136719 21.660156 18.117188 21.671875 18.097656 21.6875 C 18.066406 21.714844 18.046875 21.746094 18.035156 21.773438 C 18.023438 21.78125 18.011719 21.789062 18 21.796875 C 17.964844 21.832031 17.945312 21.875 17.941406 21.914062 C 17.90625 21.914062 17.871094 21.925781 17.84375 21.945312 C 17.789062 21.992188 17.765625 22.046875 17.765625 22.101562 C 17.75 22.132812 17.746094 22.167969 17.75 22.203125 C 17.703125 22.242188 17.683594 22.289062 17.683594 22.335938 C 17.640625 22.347656 17.601562 22.363281 17.578125 22.394531 C 17.511719 22.484375 17.519531 22.574219 17.566406 22.640625 C 17.5625 22.644531 17.558594 22.648438 17.550781 22.65625 C 17.523438 22.652344 17.496094 22.65625 17.472656 22.667969 C 17.3125 22.742188 17.308594 22.898438 17.386719 23.011719 C 17.375 23.015625 17.367188 23.023438 17.355469 23.03125 C 17.335938 23.046875 17.324219 23.066406 17.3125 23.085938 C 17.28125 23.09375 17.25 23.113281 17.226562 23.140625 C 17.167969 23.207031 17.15625 23.277344 17.171875 23.34375 C 17.160156 23.351562 17.148438 23.355469 17.140625 23.363281 C 17.054688 23.445312 17.042969 23.539062 17.070312 23.617188 C 17.058594 23.625 17.046875 23.636719 17.039062 23.648438 C 16.980469 23.726562 16.972656 23.808594 17 23.875 C 17.007812 23.921875 17.023438 23.96875 17.054688 24.011719 C 17.054688 24.035156 17.0625 24.054688 17.070312 24.074219 C 17.054688 24.113281 17.054688 24.152344 17.066406 24.1875 C 17.054688 24.195312 17.042969 24.203125 17.035156 24.214844 C 16.957031 24.308594 16.992188 24.410156 17.074219 24.464844 C 17.054688 24.472656 17.035156 24.480469 17.019531 24.496094 C 16.992188 24.519531 16.980469 24.546875 16.972656 24.574219 C 16.921875 24.644531 16.933594 24.734375 16.992188 24.800781 C 16.992188 24.816406 16.996094 24.832031 16.996094 24.847656 C 16.996094 24.847656 16.996094 24.851562 16.992188 24.855469 C 16.917969 24.859375 16.839844 24.886719 16.800781 24.953125 C 16.71875 25.082031 16.765625 25.203125 16.863281 25.273438 C 16.867188 25.285156 16.875 25.296875 16.882812 25.3125 C 16.808594 25.4375 16.882812 25.550781 16.996094 25.585938 C 16.996094 25.585938 16.992188 25.589844 16.992188 25.589844 C 16.992188 25.589844 16.992188 25.589844 16.992188 25.59375 C 16.972656 25.597656 16.957031 25.605469 16.941406 25.617188 C 16.855469 25.683594 16.851562 25.777344 16.894531 25.851562 C 16.882812 25.878906 16.878906 25.90625 16.882812 25.933594 C 16.75 26.042969 16.773438 26.210938 16.882812 26.3125 C 16.871094 26.386719 16.902344 26.457031 16.953125 26.503906 C 16.957031 26.507812 16.960938 26.515625 16.964844 26.523438 C 16.960938 26.574219 16.972656 26.632812 16.992188 26.683594 C 16.996094 26.6875 16.996094 26.691406 17 26.695312 C 17.003906 26.722656 17.019531 26.753906 17.039062 26.777344 C 17.035156 26.820312 17.042969 26.863281 17.058594 26.902344 C 17.046875 26.90625 17.035156 26.917969 17.023438 26.929688 C 16.957031 27.007812 16.957031 27.089844 16.992188 27.15625 C 16.988281 27.226562 17.011719 27.296875 17.0625 27.355469 C 17.0625 27.359375 17.066406 27.367188 17.0625 27.371094 C 17.023438 27.46875 17.074219 27.570312 17.164062 27.625 C 17.148438 27.636719 17.136719 27.648438 17.125 27.664062 C 17.046875 27.792969 17.117188 27.914062 17.226562 27.960938 C 17.230469 27.980469 17.238281 28 17.25 28.015625 C 17.230469 28.058594 17.230469 28.105469 17.253906 28.148438 C 17.238281 28.183594 17.234375 28.222656 17.242188 28.257812 C 17.21875 28.3125 17.21875 28.367188 17.238281 28.421875 C 17.230469 28.496094 17.257812 28.582031 17.316406 28.640625 C 17.320312 28.695312 17.335938 28.753906 17.363281 28.800781 C 17.386719 28.84375 17.417969 28.875 17.457031 28.890625 C 17.453125 28.9375 17.46875 28.984375 17.492188 29.027344 C 17.5 29.042969 17.503906 29.058594 17.511719 29.078125 C 17.515625 29.109375 17.523438 29.144531 17.539062 29.175781 C 17.546875 29.1875 17.554688 29.199219 17.566406 29.210938 C 17.574219 29.234375 17.582031 29.257812 17.59375 29.28125 C 17.601562 29.289062 17.605469 29.300781 17.613281 29.308594 C 17.625 29.328125 17.640625 29.347656 17.660156 29.363281 C 17.664062 29.394531 17.679688 29.429688 17.703125 29.457031 C 17.703125 29.480469 17.710938 29.507812 17.722656 29.53125 C 17.730469 29.546875 17.734375 29.566406 17.746094 29.582031 C 17.746094 29.589844 17.746094 29.601562 17.746094 29.609375 C 17.714844 29.671875 17.71875 29.738281 17.753906 29.796875 C 17.753906 29.839844 17.765625 29.878906 17.792969 29.914062 C 17.785156 29.976562 17.800781 30.039062 17.839844 30.09375 C 17.84375 30.113281 17.851562 30.132812 17.863281 30.148438 C 17.867188 30.195312 17.875 30.242188 17.898438 30.285156 C 17.914062 30.316406 17.933594 30.339844 17.957031 30.359375 C 17.957031 30.363281 17.957031 30.367188 17.957031 30.367188 C 17.972656 30.394531 17.992188 30.414062 18.011719 30.429688 C 18.023438 30.449219 18.035156 30.464844 18.050781 30.476562 C 18.066406 30.503906 18.09375 30.527344 18.121094 30.542969 C 18.132812 30.585938 18.15625 30.621094 18.183594 30.652344 C 18.253906 30.71875 18.339844 30.714844 18.410156 30.652344 C 18.417969 30.644531 18.421875 30.636719 18.425781 30.628906 C 18.441406 30.640625 18.460938 30.644531 18.476562 30.648438 C 18.542969 30.691406 18.617188 30.683594 18.679688 30.625 C 18.695312 30.613281 18.707031 30.597656 18.714844 30.578125 C 18.753906 30.59375 18.800781 30.59375 18.847656 30.570312 C 18.863281 30.566406 18.875 30.554688 18.886719 30.546875 C 18.949219 30.570312 19.019531 30.554688 19.078125 30.5 C 19.097656 30.484375 19.113281 30.464844 19.125 30.4375 C 19.164062 30.445312 19.207031 30.433594 19.25 30.414062 C 19.292969 30.394531 19.328125 30.355469 19.359375 30.3125 C 19.359375 30.3125 19.359375 30.3125 19.363281 30.3125 C 19.441406 30.335938 19.496094 30.296875 19.523438 30.234375 C 19.554688 30.210938 19.574219 30.179688 19.59375 30.148438 C 19.644531 30.148438 19.699219 30.125 19.738281 30.078125 C 19.765625 30.046875 19.78125 30.003906 19.789062 29.960938 C 19.851562 29.988281 19.914062 29.976562 19.960938 29.933594 C 19.976562 29.929688 19.992188 29.921875 20.007812 29.910156 C 20.042969 29.886719 20.070312 29.847656 20.09375 29.800781 C 20.09375 29.800781 20.097656 29.800781 20.097656 29.804688 C 20.148438 29.8125 20.183594 29.796875 20.210938 29.765625 C 20.324219 29.820312 20.433594 29.78125 20.496094 29.671875 C 20.519531 29.628906 20.527344 29.578125 20.527344 29.523438 C 20.527344 29.523438 20.53125 29.523438 20.53125 29.519531 C 20.566406 29.507812 20.59375 29.492188 20.609375 29.46875 C 20.628906 29.460938 20.648438 29.449219 20.667969 29.433594 C 20.683594 29.417969 20.699219 29.398438 20.714844 29.375 C 20.777344 29.394531 20.84375 29.371094 20.890625 29.3125 C 20.898438 29.300781 20.90625 29.285156 20.914062 29.269531 C 20.929688 29.261719 20.945312 29.25 20.957031 29.234375 C 21.058594 29.28125 21.15625 29.25 21.21875 29.160156 C 21.246094 29.121094 21.257812 29.070312 21.257812 29.015625 C 21.257812 29.015625 21.261719 29.015625 21.261719 29.015625 C 21.328125 29 21.359375 28.953125 21.363281 28.902344 C 21.40625 28.878906 21.421875 28.828125 21.414062 28.773438 C 21.496094 28.828125 21.589844 28.816406 21.667969 28.75 C 21.703125 28.71875 21.726562 28.675781 21.746094 28.625 C 21.75 28.625 21.75 28.625 21.753906 28.621094 C 21.769531 28.621094 21.78125 28.621094 21.792969 28.617188 C 21.84375 28.621094 21.894531 28.601562 21.945312 28.5625 C 21.945312 28.558594 21.945312 28.558594 21.949219 28.554688 C 21.984375 28.53125 22.011719 28.488281 22.027344 28.4375 C 22.027344 28.4375 22.027344 28.433594 22.027344 28.433594 C 22.027344 28.433594 22.027344 28.433594 22.03125 28.433594 C 22.128906 28.441406 22.171875 28.371094 22.175781 28.285156 C 22.230469 28.273438 22.261719 28.226562 22.273438 28.167969 C 22.285156 28.164062 22.296875 28.15625 22.304688 28.144531 C 22.34375 28.128906 22.371094 28.089844 22.382812 28.039062 C 22.394531 28.027344 22.402344 28.011719 22.410156 28 C 22.421875 27.996094 22.429688 27.988281 22.4375 27.980469 C 22.46875 27.980469 22.496094 27.972656 22.515625 27.957031 C 22.566406 27.957031 22.621094 27.933594 22.671875 27.890625 C 22.695312 27.871094 22.710938 27.839844 22.726562 27.808594 C 22.742188 27.800781 22.761719 27.789062 22.777344 27.773438 C 22.78125 27.769531 22.78125 27.765625 22.785156 27.761719 C 22.84375 27.753906 22.878906 27.703125 22.898438 27.640625 C 22.980469 27.644531 23.023438 27.570312 23.03125 27.484375 C 23.0625 27.472656 23.089844 27.453125 23.113281 27.425781 C 23.136719 27.40625 23.148438 27.378906 23.164062 27.347656 C 23.199219 27.335938 23.238281 27.316406 23.273438 27.285156 C 23.308594 27.25 23.335938 27.199219 23.351562 27.144531 C 23.351562 27.144531 23.351562 27.144531 23.355469 27.144531 C 23.476562 27.144531 23.515625 27.039062 23.5 26.929688 C 23.503906 26.90625 23.503906 26.875 23.5 26.847656 C 23.519531 26.820312 23.527344 26.785156 23.527344 26.746094 C 23.574219 26.746094 23.617188 26.722656 23.648438 26.675781 C 23.660156 26.660156 23.664062 26.644531 23.667969 26.621094 C 23.695312 26.613281 23.71875 26.601562 23.742188 26.582031 C 23.777344 26.554688 23.800781 26.511719 23.820312 26.46875 C 23.820312 26.46875 23.820312 26.46875 23.824219 26.46875 C 23.921875 26.476562 23.964844 26.394531 23.957031 26.304688 C 23.964844 26.296875 23.972656 26.289062 23.980469 26.28125 C 24 26.257812 24.011719 26.226562 24.023438 26.195312 C 24.042969 26.179688 24.054688 26.15625 24.0625 26.128906 C 24.144531 26.105469 24.171875 26.027344 24.15625 25.945312 C 24.191406 25.910156 24.199219 25.839844 24.183594 25.777344 C 24.21875 25.746094 24.242188 25.699219 24.257812 25.648438 C 24.257812 25.648438 24.257812 25.648438 24.261719 25.648438 C 24.371094 25.648438 24.410156 25.554688 24.390625 25.453125 C 24.476562 25.4375 24.519531 25.328125 24.511719 25.226562 C 24.539062 25.160156 24.539062 25.070312 24.5 25.011719 C 24.527344 24.980469 24.535156 24.933594 24.523438 24.882812 C 24.53125 24.878906 24.535156 24.871094 24.539062 24.863281 C 24.5625 24.828125 24.570312 24.785156 24.570312 24.738281 C 24.570312 24.738281 24.570312 24.738281 24.574219 24.738281 C 24.671875 24.710938 24.671875 24.613281 24.632812 24.535156 C 24.671875 24.5 24.695312 24.433594 24.699219 24.371094 C 24.773438 24.339844 24.78125 24.242188 24.75 24.15625 C 24.753906 24.121094 24.746094 24.082031 24.730469 24.046875 C 24.792969 24.023438 24.8125 23.957031 24.804688 23.890625 C 24.921875 23.84375 24.917969 23.644531 24.832031 23.535156 C 24.863281 23.457031 24.855469 23.34375 24.804688 23.265625 C 24.804688 23.261719 24.804688 23.257812 24.804688 23.253906 C 24.804688 23.253906 24.808594 23.25 24.808594 23.25 C 24.902344 23.226562 24.925781 23.148438 24.910156 23.070312 C 24.945312 22.996094 24.9375 22.890625 24.894531 22.8125 C 24.949219 22.753906 24.933594 22.652344 24.878906 22.574219 C 24.894531 22.496094 24.875 22.402344 24.828125 22.339844 C 24.902344 22.296875 24.902344 22.1875 24.863281 22.09375 C 24.867188 22.050781 24.859375 22.007812 24.84375 21.96875 C 24.925781 21.878906 24.855469 21.671875 24.734375 21.613281 C 24.804688 21.542969 24.816406 21.378906 24.734375 21.308594 C 24.734375 21.300781 24.734375 21.289062 24.734375 21.277344 C 24.734375 21.269531 24.730469 21.261719 24.730469 21.253906 C 24.835938 21.226562 24.839844 21.09375 24.789062 20.992188 C 24.8125 20.929688 24.800781 20.84375 24.761719 20.777344 C 24.746094 20.703125 24.699219 20.628906 24.632812 20.601562 C 24.628906 20.585938 24.625 20.574219 24.613281 20.558594 C 24.675781 20.53125 24.6875 20.453125 24.667969 20.382812 C 24.710938 20.335938 24.722656 20.25 24.699219 20.175781 C 24.734375 20.09375 24.683594 19.976562 24.605469 19.90625 C 24.597656 19.882812 24.585938 19.859375 24.574219 19.839844 C 24.570312 19.816406 24.566406 19.796875 24.558594 19.777344 C 24.554688 19.757812 24.550781 19.738281 24.542969 19.722656 C 24.546875 19.675781 24.542969 19.628906 24.523438 19.585938 C 24.605469 19.53125 24.585938 19.375 24.511719 19.285156 C 24.511719 19.277344 24.507812 19.269531 24.503906 19.257812 C 24.515625 19.199219 24.503906 19.128906 24.476562 19.070312 C 24.476562 19.019531 24.457031 18.964844 24.421875 18.921875 C 24.421875 18.875 24.402344 18.828125 24.378906 18.789062 C 24.382812 18.761719 24.378906 18.730469 24.367188 18.703125 C 24.367188 18.703125 24.367188 18.695312 24.367188 18.695312 C 24.417969 18.601562 24.363281 18.433594 24.261719 18.375 C 24.261719 18.371094 24.261719 18.371094 24.257812 18.367188 C 24.339844 18.292969 24.296875 18.09375 24.1875 18.039062 C 24.183594 18.019531 24.179688 18.003906 24.171875 17.988281 C 24.21875 17.890625 24.167969 17.714844 24.058594 17.671875 C 24.054688 17.660156 24.050781 17.652344 24.046875 17.640625 C 24.003906 17.558594 23.914062 17.53125 23.851562 17.566406 Z M 18.328125 30.574219 C 18.328125 30.574219 18.3125 30.589844 18.308594 30.59375 C 18.300781 30.59375 18.296875 30.59375 18.285156 30.585938 C 18.300781 30.585938 18.316406 30.582031 18.332031 30.574219 Z M 17.238281 27.792969 C 17.234375 27.785156 17.234375 27.773438 17.234375 27.765625 C 17.234375 27.765625 17.234375 27.765625 17.238281 27.765625 C 17.238281 27.761719 17.242188 27.761719 17.246094 27.757812 C 17.242188 27.769531 17.238281 27.78125 17.238281 27.792969 Z M 20.328125 29.636719 C 20.320312 29.640625 20.316406 29.640625 20.304688 29.636719 C 20.308594 29.636719 20.316406 29.636719 20.324219 29.632812 C 20.328125 29.632812 20.332031 29.628906 20.335938 29.625 C 20.332031 29.628906 20.328125 29.636719 20.328125 29.636719 Z M 21.0625 29.113281 C 21.054688 29.117188 21.050781 29.117188 21.039062 29.113281 C 21.054688 29.105469 21.070312 29.097656 21.082031 29.085938 C 21.078125 29.097656 21.0625 29.113281 21.0625 29.113281 Z M 21.53125 28.664062 C 21.53125 28.664062 21.523438 28.660156 21.519531 28.660156 C 21.523438 28.65625 21.523438 28.652344 21.527344 28.652344 C 21.53125 28.648438 21.539062 28.648438 21.542969 28.644531 C 21.542969 28.644531 21.546875 28.648438 21.550781 28.648438 C 21.542969 28.65625 21.53125 28.660156 21.535156 28.660156 Z M 17.246094 23.507812 C 17.246094 23.507812 17.242188 23.507812 17.242188 23.507812 C 17.242188 23.507812 17.242188 23.507812 17.246094 23.507812 Z M 17.332031 23.289062 C 17.332031 23.289062 17.332031 23.296875 17.328125 23.300781 C 17.328125 23.296875 17.328125 23.289062 17.328125 23.285156 C 17.332031 23.285156 17.332031 23.285156 17.335938 23.289062 Z M 17.496094 22.84375 C 17.496094 22.84375 17.496094 22.84375 17.492188 22.84375 C 17.492188 22.84375 17.496094 22.84375 17.496094 22.84375 Z M 23.539062 26.648438 C 23.539062 26.648438 23.535156 26.648438 23.53125 26.648438 C 23.53125 26.648438 23.53125 26.644531 23.53125 26.644531 C 23.535156 26.644531 23.539062 26.644531 23.546875 26.644531 C 23.542969 26.644531 23.539062 26.648438 23.539062 26.648438 Z M 17.683594 22.507812 C 17.683594 22.507812 17.679688 22.507812 17.675781 22.511719 C 17.675781 22.511719 17.675781 22.507812 17.675781 22.507812 C 17.675781 22.507812 17.675781 22.507812 17.675781 22.503906 C 17.679688 22.5 17.683594 22.5 17.6875 22.5 C 17.683594 22.5 17.683594 22.503906 17.683594 22.507812 Z M 18.328125 21.472656 C 18.328125 21.472656 18.324219 21.472656 18.320312 21.476562 C 18.324219 21.472656 18.324219 21.46875 18.328125 21.46875 C 18.328125 21.46875 18.328125 21.46875 18.328125 21.472656 Z M 19.402344 20.324219 Z M 21.6875 18.585938 C 21.6875 18.585938 21.683594 18.585938 21.679688 18.585938 C 21.679688 18.585938 21.679688 18.585938 21.683594 18.582031 C 21.683594 18.582031 21.691406 18.582031 21.695312 18.578125 C 21.691406 18.582031 21.691406 18.585938 21.6875 18.589844 Z M 21.6875 18.585938 " fill-opacity="1" fill-rule="nonzero"/></g></g></g></g></svg>