<svg xmlns="http://www.w3.org/2000/svg" xmlns:xlink="http://www.w3.org/1999/xlink" width="68" zoomAndPan="magnify" viewBox="0 0 50.879997 51.749998" height="69" preserveAspectRatio="xMidYMid meet" version="1.2"><defs><clipPath id="7c247af8ec"><path d="M 26 20 L 45 20 L 45 32 L 26 32 Z M 26 20 "/></clipPath><clipPath id="b35dcfd2ca"><path d="M 20.679688 0.00390625 L 50.941406 20.539062 L 30.402344 50.804688 L 0.140625 30.265625 Z M 20.679688 0.00390625 "/></clipPath><clipPath id="bb31d4c8b3"><path d="M 50.71875 20.390625 L 20.457031 -0.148438 L -0.0820312 30.113281 L 30.183594 50.652344 Z M 50.71875 20.390625 "/></clipPath><clipPath id="e83ab9e607"><path d="M 50.71875 20.390625 L 20.457031 -0.148438 L -0.0820312 30.113281 L 30.183594 50.652344 Z M 50.71875 20.390625 "/></clipPath><clipPath id="af1c2f1a2d"><path d="M 11 4 L 29 4 L 29 17 L 11 17 Z M 11 4 "/></clipPath><clipPath id="d80c4a7198"><path d="M 20.679688 0.00390625 L 50.941406 20.539062 L 30.402344 50.804688 L 0.140625 30.265625 Z M 20.679688 0.00390625 "/></clipPath><clipPath id="cb4c032dab"><path d="M 50.71875 20.390625 L 20.457031 -0.148438 L -0.0820312 30.113281 L 30.183594 50.652344 Z M 50.71875 20.390625 "/></clipPath><clipPath id="22ca9bac43"><path d="M 50.71875 20.390625 L 20.457031 -0.148438 L -0.0820312 30.113281 L 30.183594 50.652344 Z M 50.71875 20.390625 "/></clipPath><clipPath id="fbad65934d"><path d="M 12 23 L 24 23 L 24 43 L 12 43 Z M 12 23 "/></clipPath><clipPath id="82a06e46b8"><path d="M 20.679688 0.00390625 L 50.941406 20.539062 L 30.402344 50.804688 L 0.140625 30.265625 Z M 20.679688 0.00390625 "/></clipPath><clipPath id="12eeb1ef74"><path d="M 50.71875 20.390625 L 20.457031 -0.148438 L -0.0820312 30.113281 L 30.183594 50.652344 Z M 50.71875 20.390625 "/></clipPath><clipPath id="1a753fe70f"><path d="M 50.71875 20.390625 L 20.457031 -0.148438 L -0.0820312 30.113281 L 30.183594 50.652344 Z M 50.71875 20.390625 "/></clipPath></defs><g id="ec7d0673da"><g clip-rule="nonzero" clip-path="url(#7c247af8ec)"><g clip-rule="nonzero" clip-path="url(#b35dcfd2ca)"><g clip-rule="nonzero" clip-path="url(#bb31d4c8b3)"><g clip-rule="nonzero" clip-path="url(#e83ab9e607)"><path style=" stroke:none;fill-rule:nonzero;fill:#7ca260;fill-opacity:1;" d="M 27.460938 21.296875 C 27.488281 21.292969 27.515625 21.292969 27.539062 21.300781 C 27.550781 21.289062 27.566406 21.277344 27.582031 21.265625 C 27.644531 21.226562 27.714844 21.222656 27.773438 21.238281 C 27.789062 21.238281 27.800781 21.238281 27.8125 21.242188 C 27.824219 21.230469 27.835938 21.222656 27.847656 21.21875 C 27.875 21.199219 27.902344 21.191406 27.929688 21.191406 C 27.953125 21.179688 27.980469 21.171875 28.003906 21.171875 C 28.015625 21.15625 28.023438 21.140625 28.035156 21.128906 C 28.132812 21.023438 28.28125 21.039062 28.351562 21.136719 C 28.355469 21.132812 28.359375 21.132812 28.367188 21.128906 C 28.375 21.117188 28.378906 21.101562 28.386719 21.089844 C 28.441406 20.988281 28.558594 20.964844 28.636719 21.019531 C 28.644531 21.015625 28.652344 21.011719 28.660156 21.011719 C 28.664062 21.007812 28.667969 21.007812 28.667969 21.007812 C 28.671875 21 28.671875 20.996094 28.675781 20.988281 C 28.742188 20.855469 28.90625 20.839844 28.984375 20.957031 C 29.011719 20.945312 29.039062 20.945312 29.066406 20.953125 C 29.082031 20.933594 29.101562 20.921875 29.121094 20.910156 C 29.1875 20.773438 29.367188 20.65625 29.511719 20.695312 C 29.527344 20.6875 29.539062 20.675781 29.558594 20.667969 C 29.671875 20.609375 29.792969 20.644531 29.847656 20.734375 C 29.914062 20.667969 30 20.621094 30.085938 20.628906 C 30.097656 20.617188 30.109375 20.605469 30.125 20.589844 C 30.207031 20.523438 30.3125 20.523438 30.386719 20.570312 C 30.386719 20.574219 30.390625 20.570312 30.394531 20.570312 C 30.40625 20.5625 30.417969 20.550781 30.433594 20.539062 C 30.566406 20.460938 30.714844 20.523438 30.746094 20.652344 C 30.789062 20.632812 30.839844 20.625 30.882812 20.636719 C 30.890625 20.628906 30.898438 20.621094 30.910156 20.613281 C 30.933594 20.601562 30.957031 20.597656 30.976562 20.59375 C 31.015625 20.570312 31.054688 20.5625 31.09375 20.570312 C 31.09375 20.570312 31.097656 20.566406 31.097656 20.566406 C 31.15625 20.519531 31.222656 20.519531 31.273438 20.550781 C 31.292969 20.539062 31.3125 20.535156 31.332031 20.539062 C 31.367188 20.519531 31.402344 20.511719 31.4375 20.515625 C 31.492188 20.429688 31.589844 20.410156 31.664062 20.449219 C 31.695312 20.421875 31.730469 20.410156 31.765625 20.410156 C 31.773438 20.398438 31.777344 20.386719 31.785156 20.371094 C 31.855469 20.277344 31.964844 20.253906 32.050781 20.296875 C 32.050781 20.296875 32.050781 20.292969 32.054688 20.292969 C 32.203125 20.183594 32.394531 20.269531 32.394531 20.449219 C 32.402344 20.449219 32.40625 20.449219 32.414062 20.453125 C 32.421875 20.449219 32.429688 20.441406 32.4375 20.4375 C 32.492188 20.402344 32.550781 20.410156 32.59375 20.441406 C 32.671875 20.328125 32.828125 20.246094 32.953125 20.28125 C 32.96875 20.273438 32.980469 20.265625 32.996094 20.253906 C 33.128906 20.1875 33.269531 20.257812 33.292969 20.382812 C 33.300781 20.382812 33.304688 20.382812 33.3125 20.382812 C 33.320312 20.371094 33.328125 20.363281 33.339844 20.355469 C 33.371094 20.328125 33.40625 20.3125 33.4375 20.3125 C 33.496094 20.292969 33.5625 20.308594 33.609375 20.359375 C 33.636719 20.355469 33.667969 20.359375 33.691406 20.375 C 33.714844 20.371094 33.734375 20.371094 33.753906 20.371094 C 33.78125 20.351562 33.8125 20.339844 33.839844 20.335938 C 33.960938 20.246094 34.125 20.308594 34.136719 20.460938 C 34.160156 20.464844 34.183594 20.464844 34.207031 20.472656 C 34.269531 20.417969 34.351562 20.386719 34.425781 20.402344 C 34.4375 20.390625 34.449219 20.382812 34.464844 20.375 C 34.554688 20.316406 34.660156 20.339844 34.710938 20.410156 C 34.730469 20.417969 34.75 20.425781 34.765625 20.441406 C 34.777344 20.441406 34.785156 20.4375 34.796875 20.4375 C 34.800781 20.433594 34.800781 20.425781 34.804688 20.421875 C 34.878906 20.277344 35.042969 20.257812 35.144531 20.355469 C 35.195312 20.351562 35.25 20.367188 35.289062 20.40625 C 35.363281 20.402344 35.4375 20.417969 35.496094 20.464844 C 35.515625 20.484375 35.535156 20.503906 35.550781 20.519531 C 35.578125 20.535156 35.609375 20.550781 35.632812 20.578125 C 35.636719 20.578125 35.640625 20.585938 35.644531 20.59375 C 35.675781 20.605469 35.699219 20.628906 35.710938 20.664062 C 35.722656 20.660156 35.734375 20.65625 35.746094 20.660156 C 35.804688 20.644531 35.863281 20.671875 35.894531 20.734375 C 35.957031 20.714844 36.03125 20.714844 36.082031 20.753906 C 36.085938 20.757812 36.089844 20.761719 36.09375 20.765625 C 36.132812 20.757812 36.171875 20.765625 36.199219 20.796875 C 36.222656 20.777344 36.25 20.765625 36.28125 20.761719 C 36.289062 20.75 36.296875 20.734375 36.304688 20.726562 C 36.40625 20.59375 36.59375 20.621094 36.636719 20.773438 C 36.640625 20.773438 36.644531 20.773438 36.648438 20.773438 C 36.660156 20.773438 36.671875 20.769531 36.683594 20.773438 C 36.695312 20.757812 36.707031 20.75 36.71875 20.738281 C 36.847656 20.628906 37.03125 20.691406 37.054688 20.847656 C 37.109375 20.847656 37.160156 20.867188 37.199219 20.90625 C 37.238281 20.925781 37.269531 20.957031 37.296875 20.992188 C 37.335938 20.996094 37.371094 21.003906 37.40625 21.019531 C 37.527344 20.902344 37.707031 20.957031 37.734375 21.117188 C 37.832031 21.117188 37.933594 21.148438 37.984375 21.230469 C 37.988281 21.234375 37.992188 21.242188 37.996094 21.25 C 38.054688 21.214844 38.113281 21.210938 38.164062 21.230469 C 38.171875 21.226562 38.175781 21.222656 38.183594 21.222656 C 38.34375 21.136719 38.515625 21.242188 38.511719 21.40625 C 38.527344 21.421875 38.546875 21.433594 38.558594 21.453125 C 38.605469 21.472656 38.648438 21.5 38.679688 21.539062 C 38.742188 21.550781 38.796875 21.578125 38.835938 21.628906 C 38.855469 21.65625 38.867188 21.679688 38.875 21.707031 C 38.917969 21.722656 38.953125 21.757812 38.972656 21.8125 C 39.058594 21.792969 39.15625 21.804688 39.21875 21.867188 C 39.238281 21.886719 39.253906 21.90625 39.265625 21.929688 C 39.335938 21.945312 39.386719 22.011719 39.378906 22.097656 C 39.378906 22.097656 39.378906 22.097656 39.382812 22.097656 C 39.457031 22.117188 39.53125 22.164062 39.558594 22.234375 C 39.589844 22.238281 39.621094 22.246094 39.648438 22.269531 C 39.652344 22.269531 39.652344 22.273438 39.65625 22.273438 C 39.71875 22.265625 39.789062 22.289062 39.828125 22.347656 C 39.875 22.347656 39.914062 22.367188 39.949219 22.394531 C 40.015625 22.402344 40.074219 22.421875 40.121094 22.46875 C 40.136719 22.488281 40.152344 22.507812 40.164062 22.527344 C 40.195312 22.546875 40.222656 22.570312 40.242188 22.597656 C 40.296875 22.675781 40.3125 22.753906 40.296875 22.828125 C 40.308594 22.851562 40.3125 22.875 40.3125 22.902344 C 40.347656 22.910156 40.378906 22.917969 40.402344 22.945312 C 40.429688 22.972656 40.445312 23.003906 40.449219 23.035156 C 40.511719 23.03125 40.570312 23.042969 40.613281 23.085938 C 40.632812 23.101562 40.644531 23.121094 40.65625 23.140625 C 40.71875 23.136719 40.78125 23.167969 40.8125 23.222656 C 40.8125 23.222656 40.8125 23.226562 40.816406 23.226562 C 40.84375 23.253906 40.863281 23.285156 40.878906 23.3125 C 40.882812 23.316406 40.890625 23.316406 40.898438 23.320312 C 40.972656 23.308594 41.046875 23.324219 41.105469 23.371094 C 41.164062 23.425781 41.199219 23.488281 41.210938 23.550781 C 41.234375 23.566406 41.25 23.585938 41.265625 23.609375 C 41.292969 23.664062 41.300781 23.71875 41.300781 23.769531 C 41.378906 23.757812 41.453125 23.773438 41.511719 23.824219 C 41.527344 23.839844 41.542969 23.859375 41.554688 23.875 C 41.582031 23.886719 41.605469 23.898438 41.625 23.917969 C 41.738281 24.023438 41.761719 24.144531 41.726562 24.257812 C 41.796875 24.292969 41.851562 24.347656 41.871094 24.421875 C 41.875 24.429688 41.871094 24.4375 41.875 24.441406 C 41.886719 24.453125 41.898438 24.464844 41.910156 24.480469 C 42 24.480469 42.09375 24.511719 42.148438 24.582031 C 42.195312 24.644531 42.21875 24.707031 42.222656 24.769531 C 42.222656 24.769531 42.226562 24.769531 42.226562 24.773438 C 42.265625 24.785156 42.300781 24.804688 42.328125 24.832031 C 42.410156 24.914062 42.445312 25.003906 42.4375 25.089844 C 42.550781 25.171875 42.585938 25.28125 42.570312 25.386719 C 42.621094 25.390625 42.667969 25.402344 42.707031 25.433594 C 42.851562 25.539062 42.875 25.683594 42.828125 25.804688 C 42.832031 25.808594 42.832031 25.8125 42.832031 25.816406 C 42.871094 25.855469 42.890625 25.910156 42.878906 25.976562 C 42.976562 26.003906 43.070312 26.066406 43.097656 26.164062 C 43.097656 26.164062 43.097656 26.171875 43.097656 26.171875 C 43.105469 26.195312 43.109375 26.222656 43.113281 26.246094 C 43.148438 26.265625 43.179688 26.289062 43.203125 26.320312 C 43.234375 26.363281 43.253906 26.40625 43.261719 26.445312 C 43.308594 26.464844 43.347656 26.492188 43.375 26.53125 C 43.4375 26.625 43.453125 26.714844 43.433594 26.796875 C 43.4375 26.804688 43.4375 26.816406 43.4375 26.832031 C 43.445312 26.839844 43.449219 26.855469 43.453125 26.867188 C 43.496094 26.894531 43.535156 26.933594 43.554688 26.980469 C 43.5625 27.007812 43.570312 27.03125 43.574219 27.054688 C 43.597656 27.074219 43.617188 27.097656 43.628906 27.128906 C 43.648438 27.175781 43.65625 27.21875 43.65625 27.257812 C 43.699219 27.328125 43.703125 27.398438 43.683594 27.460938 C 43.730469 27.46875 43.777344 27.484375 43.816406 27.515625 C 43.898438 27.59375 43.929688 27.679688 43.925781 27.765625 C 43.992188 27.859375 44 27.953125 43.976562 28.035156 C 44.007812 28.078125 44.03125 28.121094 44.03125 28.164062 C 44.082031 28.183594 44.125 28.21875 44.148438 28.269531 C 44.195312 28.367188 44.183594 28.457031 44.140625 28.527344 C 44.171875 28.550781 44.191406 28.578125 44.203125 28.613281 C 44.207031 28.625 44.207031 28.632812 44.207031 28.644531 C 44.246094 28.652344 44.28125 28.664062 44.308594 28.691406 C 44.394531 28.773438 44.417969 28.867188 44.394531 28.953125 C 44.453125 29.054688 44.441406 29.15625 44.378906 29.238281 C 44.433594 29.308594 44.433594 29.390625 44.394531 29.460938 C 44.457031 29.613281 44.359375 29.757812 44.210938 29.800781 C 44.183594 29.851562 44.136719 29.898438 44.085938 29.929688 C 44.015625 29.976562 43.945312 29.976562 43.882812 29.949219 C 43.824219 30.003906 43.753906 30.023438 43.6875 30 C 43.660156 30.015625 43.636719 30.023438 43.609375 30.023438 C 43.570312 30.058594 43.523438 30.078125 43.472656 30.09375 C 43.449219 30.109375 43.421875 30.121094 43.398438 30.128906 C 43.351562 30.171875 43.300781 30.210938 43.242188 30.234375 C 43.1875 30.257812 43.136719 30.265625 43.085938 30.257812 C 43.074219 30.261719 43.058594 30.265625 43.046875 30.273438 C 43.046875 30.273438 43.042969 30.273438 43.039062 30.273438 C 42.949219 30.355469 42.84375 30.371094 42.746094 30.335938 C 42.675781 30.390625 42.59375 30.394531 42.511719 30.363281 C 42.472656 30.375 42.433594 30.371094 42.394531 30.355469 C 42.390625 30.359375 42.386719 30.359375 42.382812 30.359375 C 42.351562 30.398438 42.3125 30.433594 42.265625 30.457031 C 42.199219 30.496094 42.132812 30.503906 42.070312 30.488281 C 42.054688 30.492188 42.039062 30.503906 42.019531 30.507812 C 41.976562 30.519531 41.9375 30.519531 41.898438 30.515625 C 41.871094 30.535156 41.835938 30.554688 41.804688 30.566406 C 41.695312 30.609375 41.59375 30.597656 41.515625 30.539062 C 41.5 30.539062 41.484375 30.539062 41.46875 30.539062 C 41.378906 30.648438 41.253906 30.667969 41.132812 30.601562 C 41.125 30.609375 41.117188 30.613281 41.109375 30.617188 C 41.09375 30.625 41.082031 30.628906 41.070312 30.632812 C 40.984375 30.699219 40.886719 30.691406 40.800781 30.628906 C 40.796875 30.632812 40.796875 30.636719 40.789062 30.640625 C 40.695312 30.714844 40.585938 30.714844 40.5 30.65625 C 40.476562 30.671875 40.457031 30.691406 40.429688 30.703125 C 40.378906 30.730469 40.332031 30.738281 40.285156 30.738281 C 40.191406 30.789062 40.101562 30.777344 40.027344 30.71875 C 40.019531 30.722656 40.015625 30.722656 40.007812 30.726562 C 39.96875 30.792969 39.914062 30.851562 39.847656 30.894531 C 39.699219 30.988281 39.550781 30.953125 39.449219 30.824219 C 39.414062 30.863281 39.375 30.898438 39.328125 30.925781 C 39.199219 31.003906 39.070312 30.976562 38.980469 30.878906 C 38.964844 30.875 38.949219 30.871094 38.9375 30.867188 C 38.914062 30.878906 38.894531 30.898438 38.871094 30.90625 C 38.832031 30.925781 38.796875 30.9375 38.761719 30.941406 C 38.730469 30.960938 38.695312 30.976562 38.660156 30.992188 C 38.511719 31.042969 38.382812 30.988281 38.3125 30.859375 C 38.304688 30.855469 38.296875 30.855469 38.289062 30.851562 C 38.246094 30.875 38.203125 30.886719 38.160156 30.875 C 38.121094 30.910156 38.078125 30.941406 38.027344 30.964844 C 37.953125 31 37.878906 31.003906 37.8125 30.980469 C 37.800781 30.988281 37.789062 31 37.773438 31.003906 C 37.664062 31.058594 37.5625 31.046875 37.480469 30.992188 C 37.375 31.003906 37.28125 30.960938 37.21875 30.878906 C 37.195312 30.882812 37.171875 30.878906 37.148438 30.875 C 37.128906 30.898438 37.113281 30.925781 37.09375 30.949219 C 36.976562 31.089844 36.808594 31.089844 36.671875 30.976562 C 36.625 30.9375 36.589844 30.878906 36.5625 30.816406 C 36.535156 30.8125 36.511719 30.804688 36.492188 30.792969 C 36.492188 30.792969 36.488281 30.792969 36.488281 30.792969 C 36.484375 30.792969 36.480469 30.792969 36.472656 30.796875 C 36.425781 30.804688 36.382812 30.796875 36.347656 30.777344 C 36.308594 30.789062 36.269531 30.792969 36.234375 30.777344 C 36.175781 30.792969 36.113281 30.78125 36.058594 30.738281 C 36.050781 30.734375 36.046875 30.726562 36.039062 30.71875 C 35.980469 30.742188 35.917969 30.722656 35.871094 30.667969 C 35.871094 30.667969 35.867188 30.660156 35.863281 30.65625 C 35.84375 30.664062 35.824219 30.664062 35.808594 30.660156 C 35.769531 30.695312 35.722656 30.710938 35.679688 30.710938 C 35.648438 30.742188 35.613281 30.769531 35.574219 30.789062 C 35.445312 30.855469 35.320312 30.828125 35.234375 30.734375 C 35.21875 30.730469 35.203125 30.722656 35.1875 30.71875 C 35.136719 30.726562 35.085938 30.714844 35.039062 30.695312 C 34.984375 30.695312 34.925781 30.679688 34.878906 30.644531 C 34.871094 30.648438 34.867188 30.648438 34.859375 30.652344 C 34.75 30.679688 34.660156 30.640625 34.601562 30.566406 C 34.542969 30.570312 34.484375 30.546875 34.4375 30.496094 C 34.429688 30.488281 34.429688 30.480469 34.421875 30.476562 C 34.417969 30.484375 34.414062 30.492188 34.40625 30.496094 C 34.269531 30.617188 34.105469 30.59375 33.988281 30.46875 C 33.949219 30.429688 33.921875 30.375 33.90625 30.3125 C 33.867188 30.3125 33.832031 30.296875 33.800781 30.273438 C 33.800781 30.273438 33.800781 30.273438 33.796875 30.273438 C 33.703125 30.304688 33.621094 30.289062 33.554688 30.238281 C 33.449219 30.265625 33.34375 30.222656 33.265625 30.121094 C 33.242188 30.089844 33.226562 30.054688 33.214844 30.015625 C 33.207031 30.015625 33.199219 30.011719 33.191406 30.015625 C 33.101562 30.046875 33.011719 30.023438 32.933594 29.957031 C 32.789062 29.992188 32.660156 29.921875 32.59375 29.78125 C 32.570312 29.726562 32.5625 29.667969 32.566406 29.601562 C 32.4375 29.625 32.328125 29.558594 32.277344 29.441406 C 32.269531 29.433594 32.261719 29.429688 32.253906 29.421875 C 32.152344 29.429688 32.066406 29.375 32.023438 29.269531 C 32.019531 29.261719 32.019531 29.25 32.015625 29.238281 C 31.976562 29.226562 31.9375 29.203125 31.902344 29.171875 C 31.878906 29.148438 31.863281 29.125 31.847656 29.097656 C 31.820312 29.078125 31.796875 29.054688 31.777344 29.027344 C 31.773438 29.019531 31.769531 29.011719 31.765625 29.003906 C 31.695312 28.988281 31.660156 28.941406 31.644531 28.875 C 31.578125 28.871094 31.519531 28.835938 31.46875 28.777344 C 31.433594 28.765625 31.398438 28.746094 31.371094 28.714844 C 31.277344 28.726562 31.1875 28.6875 31.113281 28.605469 C 31.066406 28.558594 31.039062 28.492188 31.023438 28.417969 C 31.023438 28.417969 31.019531 28.417969 31.019531 28.417969 C 31.019531 28.417969 31.019531 28.417969 31.019531 28.414062 C 30.914062 28.410156 30.863281 28.347656 30.84375 28.265625 C 30.828125 28.253906 30.816406 28.234375 30.804688 28.214844 C 30.71875 28.207031 30.644531 28.152344 30.601562 28.0625 C 30.585938 28.03125 30.578125 27.996094 30.578125 27.964844 C 30.523438 27.945312 30.46875 27.90625 30.433594 27.84375 C 30.425781 27.835938 30.421875 27.824219 30.417969 27.8125 C 30.414062 27.804688 30.410156 27.796875 30.40625 27.785156 C 30.335938 27.761719 30.285156 27.707031 30.261719 27.621094 C 30.261719 27.605469 30.261719 27.589844 30.261719 27.570312 C 30.261719 27.570312 30.257812 27.570312 30.257812 27.570312 C 30.203125 27.558594 30.148438 27.527344 30.101562 27.480469 C 30.066406 27.4375 30.039062 27.386719 30.019531 27.328125 C 30.003906 27.316406 29.984375 27.304688 29.972656 27.289062 C 29.847656 27.265625 29.8125 27.144531 29.835938 27.023438 C 29.820312 27.011719 29.8125 26.992188 29.804688 26.976562 C 29.796875 26.976562 29.789062 26.980469 29.785156 26.984375 C 29.652344 27.011719 29.550781 26.941406 29.515625 26.816406 C 29.511719 26.789062 29.507812 26.761719 29.511719 26.734375 C 29.460938 26.710938 29.421875 26.664062 29.40625 26.597656 C 29.402344 26.589844 29.40625 26.578125 29.402344 26.566406 C 29.398438 26.558594 29.390625 26.546875 29.386719 26.535156 C 29.363281 26.519531 29.339844 26.496094 29.320312 26.46875 C 29.308594 26.453125 29.304688 26.4375 29.300781 26.421875 C 29.257812 26.40625 29.222656 26.378906 29.199219 26.339844 C 29.167969 26.320312 29.140625 26.292969 29.113281 26.257812 C 29.078125 26.207031 29.0625 26.144531 29.054688 26.082031 C 29.027344 26.074219 29.011719 26.066406 28.992188 26.054688 C 28.875 26.078125 28.773438 26.011719 28.71875 25.894531 C 28.695312 25.84375 28.691406 25.785156 28.695312 25.726562 C 28.691406 25.726562 28.691406 25.726562 28.6875 25.722656 C 28.683594 25.71875 28.675781 25.707031 28.671875 25.699219 C 28.65625 25.6875 28.640625 25.675781 28.625 25.667969 C 28.601562 25.65625 28.582031 25.636719 28.566406 25.617188 C 28.503906 25.597656 28.445312 25.554688 28.402344 25.488281 C 28.371094 25.441406 28.359375 25.382812 28.355469 25.324219 C 28.328125 25.308594 28.300781 25.289062 28.277344 25.265625 C 28.25 25.25 28.234375 25.222656 28.222656 25.195312 C 28.203125 25.15625 28.1875 25.113281 28.175781 25.070312 C 28.085938 25.058594 28.011719 24.992188 27.980469 24.894531 C 27.96875 24.859375 27.96875 24.824219 27.96875 24.785156 C 27.957031 24.765625 27.945312 24.746094 27.9375 24.722656 C 27.914062 24.699219 27.894531 24.671875 27.882812 24.636719 C 27.871094 24.613281 27.871094 24.589844 27.867188 24.5625 C 27.855469 24.539062 27.84375 24.511719 27.835938 24.480469 C 27.707031 24.46875 27.6875 24.339844 27.726562 24.230469 C 27.707031 24.214844 27.683594 24.199219 27.667969 24.175781 C 27.660156 24.167969 27.65625 24.15625 27.652344 24.148438 C 27.574219 24.144531 27.5 24.105469 27.4375 24.039062 C 27.394531 23.988281 27.371094 23.917969 27.355469 23.847656 C 27.355469 23.847656 27.355469 23.84375 27.351562 23.847656 C 27.21875 23.832031 27.175781 23.734375 27.183594 23.621094 C 27.179688 23.617188 27.179688 23.613281 27.179688 23.613281 C 27.066406 23.597656 27.023438 23.5 27.03125 23.390625 C 27.003906 23.355469 26.976562 23.3125 26.957031 23.269531 C 26.957031 23.269531 26.957031 23.269531 26.953125 23.269531 C 26.699219 23.289062 26.6875 22.941406 26.824219 22.765625 C 26.820312 22.746094 26.820312 22.726562 26.820312 22.707031 C 26.734375 22.703125 26.664062 22.648438 26.625 22.558594 C 26.605469 22.507812 26.601562 22.449219 26.609375 22.390625 C 26.609375 22.390625 26.605469 22.390625 26.605469 22.390625 C 26.503906 22.34375 26.496094 22.253906 26.539062 22.167969 C 26.5 22.101562 26.519531 21.980469 26.582031 21.921875 C 26.53125 21.757812 26.738281 21.511719 26.929688 21.535156 C 26.941406 21.523438 26.957031 21.511719 26.96875 21.5 C 27.015625 21.464844 27.066406 21.453125 27.113281 21.453125 C 27.144531 21.4375 27.179688 21.425781 27.214844 21.421875 C 27.222656 21.40625 27.234375 21.390625 27.242188 21.375 C 27.304688 21.304688 27.390625 21.28125 27.464844 21.296875 Z M 26.664062 22.023438 C 26.664062 22.023438 26.667969 22.019531 26.667969 22.019531 Z M 26.664062 22.023438 "/></g></g></g></g><g clip-rule="nonzero" clip-path="url(#af1c2f1a2d)"><g clip-rule="nonzero" clip-path="url(#d80c4a7198)"><g clip-rule="nonzero" clip-path="url(#cb4c032dab)"><g clip-rule="nonzero" clip-path="url(#22ca9bac43)"><path style=" stroke:none;fill-rule:nonzero;fill:#8ba378;fill-opacity:1;" d="M 19.527344 4.988281 C 19.527344 4.988281 19.542969 4.984375 19.554688 4.984375 C 19.5625 4.972656 19.570312 4.957031 19.582031 4.949219 C 19.667969 4.863281 19.785156 4.867188 19.851562 4.933594 C 19.933594 4.824219 20.082031 4.746094 20.203125 4.78125 C 20.21875 4.769531 20.230469 4.757812 20.25 4.753906 C 20.292969 4.730469 20.339844 4.722656 20.382812 4.726562 C 20.445312 4.683594 20.515625 4.675781 20.578125 4.699219 C 20.65625 4.574219 20.820312 4.566406 20.898438 4.683594 C 20.90625 4.6875 20.910156 4.683594 20.914062 4.6875 C 20.921875 4.6875 20.929688 4.683594 20.933594 4.6875 C 20.945312 4.671875 20.957031 4.660156 20.96875 4.648438 C 21.03125 4.59375 21.105469 4.582031 21.167969 4.601562 C 21.265625 4.523438 21.40625 4.554688 21.449219 4.683594 C 21.496094 4.671875 21.542969 4.675781 21.585938 4.6875 C 21.605469 4.683594 21.625 4.679688 21.640625 4.679688 C 21.714844 4.585938 21.824219 4.519531 21.933594 4.535156 C 21.945312 4.523438 21.957031 4.511719 21.96875 4.5 C 22.019531 4.46875 22.066406 4.457031 22.113281 4.460938 C 22.121094 4.460938 22.125 4.460938 22.132812 4.460938 C 22.148438 4.464844 22.164062 4.464844 22.175781 4.472656 C 22.269531 4.410156 22.382812 4.433594 22.433594 4.519531 C 22.445312 4.515625 22.453125 4.519531 22.460938 4.519531 C 22.464844 4.515625 22.46875 4.511719 22.472656 4.507812 C 22.535156 4.453125 22.609375 4.445312 22.671875 4.472656 C 22.675781 4.46875 22.679688 4.464844 22.6875 4.460938 C 22.773438 4.410156 22.863281 4.417969 22.921875 4.464844 C 22.980469 4.402344 23.0625 4.382812 23.136719 4.40625 C 23.175781 4.414062 23.210938 4.433594 23.238281 4.460938 C 23.316406 4.417969 23.414062 4.429688 23.472656 4.507812 C 23.492188 4.515625 23.507812 4.523438 23.523438 4.535156 C 23.59375 4.515625 23.671875 4.519531 23.734375 4.558594 C 23.753906 4.542969 23.773438 4.53125 23.796875 4.527344 C 23.808594 4.507812 23.8125 4.492188 23.820312 4.476562 C 23.90625 4.328125 24.089844 4.320312 24.179688 4.441406 C 24.21875 4.441406 24.261719 4.453125 24.296875 4.476562 C 24.371094 4.472656 24.449219 4.492188 24.503906 4.542969 C 24.535156 4.570312 24.554688 4.601562 24.574219 4.628906 C 24.605469 4.644531 24.636719 4.664062 24.660156 4.691406 C 24.671875 4.691406 24.683594 4.695312 24.699219 4.695312 C 24.71875 4.683594 24.742188 4.671875 24.765625 4.667969 C 24.777344 4.65625 24.78125 4.640625 24.789062 4.625 C 24.863281 4.523438 24.992188 4.511719 25.070312 4.585938 C 25.140625 4.539062 25.230469 4.542969 25.292969 4.59375 C 25.300781 4.589844 25.304688 4.585938 25.316406 4.582031 C 25.414062 4.527344 25.519531 4.554688 25.574219 4.628906 C 25.648438 4.578125 25.746094 4.582031 25.8125 4.640625 C 25.917969 4.585938 26.035156 4.613281 26.089844 4.703125 C 26.089844 4.703125 26.089844 4.703125 26.09375 4.707031 C 26.109375 4.710938 26.128906 4.722656 26.144531 4.730469 C 26.203125 4.71875 26.261719 4.738281 26.300781 4.78125 C 26.324219 4.78125 26.347656 4.78125 26.371094 4.789062 C 26.382812 4.777344 26.398438 4.765625 26.414062 4.757812 C 26.558594 4.675781 26.71875 4.753906 26.738281 4.898438 C 26.761719 4.898438 26.789062 4.902344 26.808594 4.914062 C 26.808594 4.914062 26.816406 4.914062 26.816406 4.914062 C 26.90625 4.84375 27.027344 4.863281 27.089844 4.953125 C 27.121094 4.957031 27.144531 4.96875 27.171875 4.984375 C 27.226562 4.953125 27.289062 4.957031 27.335938 4.984375 C 27.417969 4.90625 27.539062 4.914062 27.613281 4.996094 C 27.734375 4.929688 27.871094 4.988281 27.90625 5.117188 C 27.914062 5.125 27.917969 5.128906 27.925781 5.132812 C 27.9375 5.144531 27.945312 5.15625 27.953125 5.167969 C 28.042969 5.183594 28.128906 5.226562 28.171875 5.308594 C 28.183594 5.328125 28.191406 5.347656 28.199219 5.371094 C 28.199219 5.371094 28.199219 5.375 28.199219 5.375 C 28.253906 5.445312 28.257812 5.519531 28.242188 5.582031 C 28.300781 5.664062 28.289062 5.75 28.246094 5.816406 C 28.246094 5.886719 28.207031 5.945312 28.152344 5.992188 C 28.136719 6.027344 28.113281 6.054688 28.082031 6.078125 C 28.078125 6.101562 28.066406 6.125 28.054688 6.140625 C 28.054688 6.179688 28.050781 6.214844 28.03125 6.242188 C 28.023438 6.292969 28 6.34375 27.960938 6.378906 C 27.957031 6.414062 27.945312 6.441406 27.925781 6.472656 C 27.960938 6.488281 27.988281 6.507812 28.011719 6.535156 C 28.171875 6.738281 28.0625 6.953125 27.875 7.039062 C 27.859375 7.089844 27.824219 7.132812 27.78125 7.167969 C 27.792969 7.238281 27.773438 7.3125 27.730469 7.375 C 27.71875 7.433594 27.6875 7.488281 27.640625 7.53125 C 27.625 7.558594 27.609375 7.589844 27.589844 7.617188 C 27.578125 7.632812 27.5625 7.644531 27.546875 7.65625 C 27.660156 7.839844 27.550781 8.027344 27.375 8.085938 C 27.363281 8.109375 27.34375 8.132812 27.328125 8.152344 C 27.328125 8.1875 27.316406 8.214844 27.304688 8.238281 C 27.4375 8.476562 27.28125 8.6875 27.0625 8.738281 C 27.070312 8.820312 27.023438 8.882812 26.957031 8.914062 C 26.957031 8.914062 26.957031 8.914062 26.953125 8.917969 C 26.964844 8.929688 26.972656 8.9375 26.984375 8.953125 C 27.09375 9.140625 26.996094 9.316406 26.835938 9.382812 C 26.835938 9.484375 26.777344 9.578125 26.683594 9.632812 C 26.675781 9.640625 26.671875 9.652344 26.660156 9.660156 C 26.730469 9.789062 26.710938 9.914062 26.636719 10.007812 C 26.605469 10.125 26.503906 10.21875 26.378906 10.257812 C 26.351562 10.308594 26.304688 10.351562 26.257812 10.386719 C 26.253906 10.476562 26.199219 10.558594 26.121094 10.609375 C 26.195312 10.769531 26.113281 10.933594 25.96875 11.015625 C 25.949219 11.058594 25.917969 11.097656 25.882812 11.128906 C 25.863281 11.15625 25.835938 11.183594 25.808594 11.203125 C 25.769531 11.238281 25.730469 11.253906 25.6875 11.265625 C 25.664062 11.324219 25.621094 11.375 25.574219 11.417969 C 25.558594 11.425781 25.546875 11.4375 25.53125 11.441406 C 25.535156 11.445312 25.535156 11.449219 25.539062 11.453125 C 25.605469 11.660156 25.480469 11.808594 25.3125 11.851562 C 25.300781 11.886719 25.285156 11.917969 25.261719 11.949219 C 25.25 11.960938 25.234375 11.96875 25.222656 11.980469 C 25.207031 12.0625 25.132812 12.121094 25.042969 12.136719 C 25.023438 12.183594 24.980469 12.21875 24.929688 12.234375 C 24.929688 12.234375 24.929688 12.234375 24.929688 12.238281 C 24.941406 12.304688 24.921875 12.363281 24.882812 12.410156 C 24.894531 12.523438 24.800781 12.617188 24.6875 12.640625 C 24.671875 12.660156 24.652344 12.679688 24.632812 12.695312 C 24.667969 12.820312 24.617188 12.925781 24.53125 13 C 24.503906 13.078125 24.433594 13.132812 24.347656 13.160156 C 24.328125 13.265625 24.246094 13.34375 24.144531 13.378906 C 24.105469 13.453125 24.039062 13.511719 23.953125 13.542969 C 23.949219 13.546875 23.945312 13.554688 23.941406 13.5625 C 23.925781 13.578125 23.910156 13.589844 23.890625 13.601562 C 23.859375 13.640625 23.824219 13.675781 23.78125 13.703125 C 23.769531 13.707031 23.757812 13.714844 23.746094 13.71875 C 23.738281 13.722656 23.734375 13.730469 23.730469 13.734375 C 23.703125 13.753906 23.675781 13.765625 23.648438 13.773438 C 23.640625 13.796875 23.625 13.820312 23.609375 13.839844 C 23.59375 13.875 23.574219 13.910156 23.550781 13.9375 C 23.539062 13.957031 23.523438 13.964844 23.507812 13.976562 C 23.488281 14.03125 23.453125 14.078125 23.410156 14.113281 C 23.402344 14.125 23.398438 14.132812 23.390625 14.140625 C 23.320312 14.234375 23.21875 14.257812 23.125 14.226562 C 23.097656 14.257812 23.066406 14.277344 23.03125 14.296875 C 23.023438 14.308594 23.011719 14.3125 23 14.324219 C 22.988281 14.34375 22.976562 14.363281 22.964844 14.378906 C 22.945312 14.433594 22.917969 14.488281 22.878906 14.535156 C 22.804688 14.617188 22.714844 14.648438 22.625 14.628906 C 22.605469 14.636719 22.582031 14.648438 22.5625 14.65625 C 22.523438 14.71875 22.46875 14.773438 22.402344 14.8125 C 22.335938 14.851562 22.269531 14.863281 22.207031 14.851562 C 22.148438 14.914062 22.058594 14.953125 21.96875 14.960938 C 21.917969 15.015625 21.851562 15.054688 21.78125 15.078125 C 21.761719 15.085938 21.746094 15.089844 21.726562 15.09375 C 21.71875 15.109375 21.710938 15.121094 21.695312 15.132812 C 21.597656 15.234375 21.476562 15.242188 21.375 15.179688 C 21.339844 15.199219 21.304688 15.21875 21.265625 15.230469 C 21.226562 15.289062 21.175781 15.335938 21.113281 15.371094 C 21.003906 15.433594 20.894531 15.417969 20.8125 15.34375 C 20.765625 15.371094 20.714844 15.398438 20.660156 15.40625 C 20.621094 15.414062 20.582031 15.414062 20.550781 15.40625 C 20.53125 15.414062 20.515625 15.425781 20.496094 15.429688 C 20.472656 15.46875 20.4375 15.5 20.402344 15.527344 C 20.332031 15.574219 20.261719 15.578125 20.199219 15.558594 C 20.167969 15.558594 20.140625 15.554688 20.113281 15.546875 C 20.082031 15.558594 20.046875 15.570312 20.011719 15.574219 C 19.96875 15.625 19.910156 15.660156 19.847656 15.6875 C 19.839844 15.691406 19.828125 15.6875 19.816406 15.691406 C 19.792969 15.71875 19.761719 15.738281 19.730469 15.757812 C 19.679688 15.789062 19.628906 15.800781 19.582031 15.800781 C 19.484375 15.84375 19.386719 15.828125 19.304688 15.761719 C 19.304688 15.761719 19.300781 15.761719 19.296875 15.761719 C 19.292969 15.769531 19.289062 15.777344 19.28125 15.78125 C 19.183594 15.910156 19.042969 15.917969 18.914062 15.828125 C 18.902344 15.820312 18.890625 15.804688 18.882812 15.792969 C 18.867188 15.824219 18.851562 15.851562 18.832031 15.878906 C 18.742188 15.996094 18.609375 16.015625 18.488281 15.949219 C 18.378906 16.007812 18.269531 16 18.183594 15.929688 C 18.167969 15.9375 18.152344 15.941406 18.136719 15.949219 C 18.136719 15.949219 18.136719 15.949219 18.136719 15.953125 C 18.082031 16.023438 18.015625 16.054688 17.941406 16.050781 C 17.90625 16.078125 17.867188 16.097656 17.824219 16.113281 C 17.820312 16.117188 17.8125 16.117188 17.808594 16.121094 C 17.746094 16.15625 17.679688 16.167969 17.617188 16.15625 C 17.550781 16.160156 17.480469 16.132812 17.417969 16.085938 C 17.386719 16.058594 17.363281 16.023438 17.339844 15.984375 C 17.316406 15.980469 17.289062 15.96875 17.269531 15.953125 C 17.257812 15.949219 17.25 15.9375 17.242188 15.925781 C 17.230469 15.945312 17.214844 15.960938 17.199219 15.976562 C 17.136719 16.03125 17.066406 16.039062 17 16.011719 C 16.945312 16.035156 16.894531 16.035156 16.851562 16.007812 C 16.820312 16.023438 16.792969 16.035156 16.761719 16.035156 C 16.6875 16.097656 16.59375 16.105469 16.511719 16.0625 C 16.511719 16.0625 16.511719 16.0625 16.507812 16.0625 C 16.457031 16.078125 16.410156 16.074219 16.375 16.058594 C 16.355469 16.085938 16.339844 16.109375 16.316406 16.132812 C 16.210938 16.238281 16.078125 16.242188 15.964844 16.164062 C 15.902344 16.179688 15.839844 16.167969 15.792969 16.132812 C 15.789062 16.140625 15.785156 16.144531 15.777344 16.152344 C 15.671875 16.277344 15.519531 16.277344 15.394531 16.175781 C 15.371094 16.160156 15.351562 16.132812 15.335938 16.109375 C 15.320312 16.117188 15.304688 16.128906 15.289062 16.136719 C 15.15625 16.203125 15.03125 16.167969 14.949219 16.0625 C 14.914062 16.089844 14.875 16.109375 14.828125 16.117188 C 14.746094 16.136719 14.679688 16.113281 14.632812 16.0625 C 14.625 16.0625 14.617188 16.0625 14.609375 16.058594 C 14.558594 16.097656 14.496094 16.125 14.433594 16.136719 C 14.335938 16.15625 14.261719 16.128906 14.199219 16.078125 C 14.191406 16.078125 14.175781 16.074219 14.164062 16.070312 C 14.152344 16.082031 14.140625 16.09375 14.125 16.105469 C 14.039062 16.164062 13.949219 16.167969 13.867188 16.128906 C 13.84375 16.148438 13.8125 16.167969 13.78125 16.179688 C 13.621094 16.246094 13.480469 16.1875 13.402344 16.042969 C 13.390625 16.035156 13.375 16.023438 13.363281 16.011719 C 13.316406 16.042969 13.269531 16.066406 13.214844 16.078125 C 13.152344 16.089844 13.101562 16.082031 13.054688 16.058594 C 13.007812 16.0625 12.960938 16.054688 12.917969 16.027344 C 12.910156 16.027344 12.90625 16.027344 12.902344 16.03125 C 12.800781 16.128906 12.679688 16.144531 12.570312 16.089844 C 12.554688 16.09375 12.539062 16.105469 12.519531 16.109375 C 12.417969 16.128906 12.332031 16.105469 12.265625 16.050781 C 12.128906 16.089844 12.011719 16.023438 11.949219 15.894531 C 11.921875 15.835938 11.917969 15.769531 11.921875 15.699219 C 11.921875 15.699219 11.921875 15.699219 11.917969 15.695312 C 11.808594 15.652344 11.789062 15.554688 11.820312 15.460938 C 11.804688 15.425781 11.808594 15.378906 11.828125 15.335938 C 11.757812 15.257812 11.789062 15.113281 11.871094 15.015625 C 11.738281 14.9375 11.796875 14.714844 11.925781 14.609375 C 11.925781 14.597656 11.925781 14.585938 11.925781 14.578125 C 11.714844 14.472656 11.917969 14.128906 12.128906 14.121094 C 12.054688 14.074219 12.058594 13.980469 12.101562 13.902344 C 11.867188 13.773438 12.121094 13.375 12.363281 13.398438 C 12.367188 13.390625 12.375 13.386719 12.378906 13.382812 C 12.292969 13.328125 12.3125 13.210938 12.375 13.125 C 12.339844 13.050781 12.390625 12.9375 12.472656 12.871094 C 12.464844 12.828125 12.476562 12.785156 12.496094 12.738281 C 12.476562 12.671875 12.5 12.59375 12.554688 12.527344 C 12.460938 12.425781 12.539062 12.253906 12.660156 12.160156 C 12.621094 12.015625 12.761719 11.800781 12.925781 11.773438 C 12.933594 11.765625 12.941406 11.761719 12.949219 11.753906 C 12.972656 11.71875 13 11.683594 13.035156 11.664062 C 13.039062 11.605469 13.058594 11.546875 13.101562 11.5 C 13.082031 11.449219 13.101562 11.378906 13.140625 11.324219 C 13.15625 11.285156 13.171875 11.25 13.195312 11.21875 C 13.171875 11.140625 13.230469 11.042969 13.3125 10.984375 C 13.34375 10.949219 13.378906 10.914062 13.421875 10.902344 C 13.433594 10.894531 13.445312 10.886719 13.457031 10.878906 C 13.382812 10.777344 13.449219 10.554688 13.582031 10.507812 C 13.542969 10.394531 13.644531 10.222656 13.773438 10.179688 C 13.789062 10.105469 13.835938 10.03125 13.902344 10.007812 C 13.910156 9.992188 13.917969 9.976562 13.929688 9.964844 C 13.816406 9.871094 13.890625 9.664062 14.019531 9.5625 C 14.007812 9.429688 14.109375 9.261719 14.242188 9.199219 C 14.273438 9.105469 14.367188 9.015625 14.460938 8.980469 C 14.453125 8.84375 14.527344 8.675781 14.648438 8.628906 C 14.65625 8.621094 14.664062 8.609375 14.671875 8.601562 C 14.675781 8.597656 14.675781 8.585938 14.679688 8.578125 C 14.703125 8.539062 14.734375 8.511719 14.765625 8.492188 C 14.714844 8.3125 14.972656 8.058594 15.175781 8.101562 C 15.191406 8.09375 15.207031 8.082031 15.222656 8.070312 C 15.238281 8.0625 15.253906 8.054688 15.269531 8.050781 C 15.292969 7.972656 15.367188 7.898438 15.445312 7.878906 C 15.429688 7.757812 15.484375 7.605469 15.582031 7.535156 C 15.628906 7.425781 15.722656 7.332031 15.824219 7.320312 C 15.835938 7.304688 15.84375 7.292969 15.851562 7.277344 C 15.875 7.25 15.902344 7.234375 15.929688 7.21875 C 15.945312 7.191406 15.960938 7.160156 15.984375 7.136719 C 15.992188 7.019531 16.113281 6.894531 16.242188 6.855469 C 16.292969 6.78125 16.367188 6.71875 16.449219 6.699219 C 16.492188 6.613281 16.5625 6.539062 16.644531 6.511719 C 16.671875 6.453125 16.714844 6.40625 16.769531 6.378906 C 16.777344 6.363281 16.78125 6.347656 16.785156 6.332031 C 16.832031 6.21875 16.9375 6.175781 17.03125 6.203125 C 17.0625 6.171875 17.105469 6.148438 17.148438 6.140625 C 17.15625 6.128906 17.164062 6.117188 17.171875 6.105469 C 17.203125 6.0625 17.246094 6.039062 17.285156 6.03125 C 17.351562 5.910156 17.492188 5.804688 17.621094 5.824219 C 17.636719 5.8125 17.648438 5.800781 17.664062 5.789062 C 17.6875 5.773438 17.707031 5.761719 17.734375 5.757812 C 17.777344 5.730469 17.824219 5.722656 17.871094 5.730469 C 17.925781 5.699219 17.984375 5.691406 18.035156 5.710938 C 18.035156 5.710938 18.035156 5.710938 18.039062 5.710938 C 18.070312 5.609375 18.140625 5.519531 18.230469 5.496094 C 18.238281 5.484375 18.246094 5.46875 18.253906 5.453125 C 18.3125 5.359375 18.421875 5.332031 18.5 5.375 C 18.539062 5.351562 18.574219 5.335938 18.617188 5.335938 C 18.625 5.324219 18.632812 5.308594 18.644531 5.300781 C 18.714844 5.230469 18.808594 5.222656 18.875 5.257812 C 18.902344 5.242188 18.929688 5.234375 18.957031 5.230469 C 18.972656 5.210938 18.988281 5.199219 19.003906 5.1875 C 19.019531 5.171875 19.035156 5.15625 19.054688 5.144531 C 19.058594 5.136719 19.058594 5.128906 19.0625 5.121094 C 19.109375 5.03125 19.191406 4.996094 19.265625 5.003906 C 19.34375 4.925781 19.457031 4.929688 19.527344 4.996094 Z M 19.035156 15.667969 C 19.035156 15.667969 19.078125 15.691406 19.074219 15.695312 C 19.085938 15.695312 19.09375 15.691406 19.105469 15.679688 C 19.082031 15.679688 19.058594 15.675781 19.035156 15.667969 Z M 15.566406 16.042969 C 15.574219 16.046875 15.582031 16.042969 15.597656 16.03125 C 15.574219 16.03125 15.550781 16.023438 15.53125 16.015625 C 15.542969 16.023438 15.566406 16.042969 15.566406 16.042969 Z M 12.144531 15.8125 C 12.144531 15.8125 12.140625 15.808594 12.140625 15.808594 C 12.140625 15.808594 12.140625 15.808594 12.144531 15.8125 Z M 12.132812 14.335938 C 12.132812 14.335938 12.128906 14.335938 12.125 14.335938 C 12.128906 14.335938 12.132812 14.335938 12.136719 14.335938 Z M 26.816406 9.074219 C 26.820312 9.089844 26.824219 9.105469 26.828125 9.117188 C 26.828125 9.105469 26.828125 9.09375 26.832031 9.082031 C 26.828125 9.082031 26.832031 9.082031 26.824219 9.078125 C 26.824219 9.078125 26.820312 9.074219 26.816406 9.074219 C 26.816406 9.074219 26.816406 9.074219 26.816406 9.078125 Z M 13.628906 10.675781 C 13.628906 10.675781 13.636719 10.671875 13.636719 10.671875 C 13.636719 10.671875 13.636719 10.671875 13.632812 10.671875 Z M 13.820312 10.355469 C 13.820312 10.355469 13.828125 10.355469 13.832031 10.355469 C 13.832031 10.355469 13.828125 10.359375 13.824219 10.355469 Z M 15.121094 8.339844 C 15.121094 8.339844 15.117188 8.339844 15.113281 8.339844 C 15.113281 8.339844 15.121094 8.339844 15.125 8.339844 Z M 15.121094 8.339844 "/></g></g></g></g><g clip-rule="nonzero" clip-path="url(#fbad65934d)"><g clip-rule="nonzero" clip-path="url(#82a06e46b8)"><g clip-rule="nonzero" clip-path="url(#12eeb1ef74)"><g clip-rule="nonzero" clip-path="url(#1a753fe70f)"><path style=" stroke:none;fill-rule:nonzero;fill:#487e5c;fill-opacity:1;" d="M 16.390625 23.464844 C 16.390625 23.464844 16.398438 23.460938 16.402344 23.457031 C 16.464844 23.414062 16.535156 23.414062 16.589844 23.445312 C 16.589844 23.441406 16.59375 23.441406 16.597656 23.4375 C 16.742188 23.320312 16.9375 23.402344 16.949219 23.582031 C 17.050781 23.59375 17.15625 23.636719 17.203125 23.734375 C 17.261719 23.847656 17.253906 23.949219 17.210938 24.03125 C 17.21875 24.039062 17.234375 24.042969 17.242188 24.050781 C 17.265625 24.066406 17.285156 24.085938 17.300781 24.117188 C 17.308594 24.117188 17.316406 24.121094 17.328125 24.121094 C 17.40625 24.0625 17.507812 24.085938 17.550781 24.15625 C 17.59375 24.171875 17.628906 24.203125 17.652344 24.242188 C 17.6875 24.253906 17.71875 24.273438 17.742188 24.300781 C 17.824219 24.308594 17.90625 24.335938 17.957031 24.402344 C 17.960938 24.410156 17.964844 24.417969 17.972656 24.425781 C 18.023438 24.445312 18.066406 24.480469 18.089844 24.53125 C 18.101562 24.539062 18.113281 24.546875 18.121094 24.558594 C 18.136719 24.574219 18.148438 24.59375 18.15625 24.609375 C 18.246094 24.625 18.332031 24.664062 18.378906 24.742188 C 18.421875 24.816406 18.433594 24.890625 18.425781 24.957031 C 18.449219 24.972656 18.472656 24.996094 18.492188 25.023438 C 18.5 25.027344 18.511719 25.035156 18.523438 25.042969 C 18.613281 25.015625 18.71875 25.019531 18.792969 25.082031 C 18.886719 25.164062 18.921875 25.257812 18.914062 25.347656 C 18.949219 25.367188 18.984375 25.386719 19.007812 25.421875 C 19.050781 25.484375 19.070312 25.550781 19.074219 25.609375 C 19.140625 25.664062 19.171875 25.730469 19.175781 25.792969 C 19.269531 25.796875 19.355469 25.867188 19.359375 25.976562 C 19.363281 25.980469 19.363281 25.980469 19.367188 25.980469 C 19.460938 25.996094 19.550781 26.042969 19.59375 26.125 C 19.625 26.1875 19.632812 26.246094 19.628906 26.300781 C 19.628906 26.300781 19.628906 26.300781 19.632812 26.300781 C 19.6875 26.355469 19.707031 26.417969 19.703125 26.472656 C 19.730469 26.488281 19.753906 26.503906 19.773438 26.523438 C 19.890625 26.503906 20.007812 26.585938 20.003906 26.71875 C 20.101562 26.734375 20.195312 26.789062 20.238281 26.878906 C 20.242188 26.890625 20.242188 26.902344 20.246094 26.914062 C 20.25 26.914062 20.25 26.914062 20.253906 26.914062 C 20.402344 27.027344 20.414062 27.183594 20.355469 27.308594 C 20.359375 27.320312 20.363281 27.328125 20.367188 27.335938 C 20.472656 27.328125 20.5625 27.402344 20.566406 27.511719 C 20.570312 27.515625 20.574219 27.519531 20.578125 27.523438 C 20.582031 27.53125 20.582031 27.539062 20.589844 27.546875 C 20.648438 27.570312 20.707031 27.605469 20.742188 27.652344 C 20.769531 27.671875 20.792969 27.6875 20.8125 27.710938 C 20.867188 27.785156 20.890625 27.855469 20.886719 27.925781 C 20.894531 27.933594 20.902344 27.945312 20.910156 27.957031 C 21.011719 28.046875 21.03125 28.15625 21 28.257812 C 21.015625 28.292969 21.023438 28.332031 21.023438 28.367188 C 21.066406 28.378906 21.109375 28.402344 21.132812 28.445312 C 21.136719 28.453125 21.136719 28.460938 21.140625 28.464844 C 21.199219 28.472656 21.25 28.488281 21.292969 28.527344 C 21.40625 28.628906 21.421875 28.75 21.386719 28.859375 C 21.410156 28.863281 21.433594 28.875 21.453125 28.890625 C 21.503906 28.933594 21.535156 28.976562 21.546875 29.027344 C 21.660156 29.117188 21.6875 29.230469 21.660156 29.335938 C 21.710938 29.355469 21.753906 29.386719 21.78125 29.4375 C 21.792969 29.464844 21.804688 29.488281 21.808594 29.515625 C 21.847656 29.570312 21.867188 29.625 21.867188 29.683594 C 21.964844 29.761719 21.992188 29.859375 21.972656 29.953125 C 22.003906 30.019531 22.007812 30.085938 21.988281 30.140625 C 22.03125 30.167969 22.070312 30.199219 22.09375 30.246094 C 22.101562 30.269531 22.109375 30.292969 22.113281 30.3125 C 22.117188 30.316406 22.121094 30.316406 22.121094 30.320312 C 22.152344 30.324219 22.183594 30.335938 22.210938 30.355469 C 22.421875 30.5 22.394531 30.734375 22.253906 30.878906 C 22.257812 30.882812 22.257812 30.886719 22.261719 30.894531 C 22.265625 30.898438 22.265625 30.898438 22.265625 30.902344 C 22.296875 30.917969 22.320312 30.9375 22.339844 30.964844 C 22.371094 31.015625 22.386719 31.058594 22.390625 31.101562 C 22.402344 31.117188 22.414062 31.128906 22.421875 31.144531 C 22.457031 31.207031 22.46875 31.265625 22.457031 31.320312 C 22.503906 31.332031 22.542969 31.359375 22.570312 31.398438 C 22.625 31.480469 22.636719 31.558594 22.617188 31.628906 C 22.625 31.679688 22.617188 31.726562 22.597656 31.769531 C 22.644531 31.835938 22.652344 31.90625 22.636719 31.96875 C 22.683594 31.996094 22.730469 32.03125 22.75 32.082031 C 22.800781 32.222656 22.757812 32.335938 22.671875 32.402344 C 22.675781 32.414062 22.683594 32.421875 22.683594 32.429688 C 22.722656 32.4375 22.757812 32.453125 22.785156 32.476562 C 22.964844 32.632812 22.914062 32.839844 22.765625 32.957031 C 22.78125 32.964844 22.789062 32.980469 22.800781 32.992188 C 22.820312 33.023438 22.828125 33.050781 22.835938 33.078125 C 22.875 33.105469 22.910156 33.140625 22.929688 33.183594 C 22.976562 33.292969 22.96875 33.390625 22.925781 33.46875 C 22.933594 33.480469 22.949219 33.492188 22.957031 33.507812 C 23.035156 33.644531 23.019531 33.769531 22.949219 33.863281 C 22.960938 33.878906 22.972656 33.898438 22.980469 33.917969 C 23.027344 34.039062 23.007812 34.148438 22.945312 34.222656 C 22.921875 34.285156 22.882812 34.339844 22.824219 34.382812 C 22.8125 34.410156 22.796875 34.4375 22.777344 34.460938 C 22.789062 34.515625 22.773438 34.566406 22.742188 34.605469 C 22.753906 34.621094 22.765625 34.632812 22.773438 34.652344 C 22.839844 34.808594 22.753906 34.925781 22.628906 34.96875 C 22.652344 34.984375 22.671875 35 22.6875 35.027344 C 22.710938 35.070312 22.722656 35.109375 22.71875 35.148438 C 22.761719 35.253906 22.707031 35.367188 22.609375 35.433594 C 22.605469 35.453125 22.59375 35.472656 22.585938 35.492188 C 22.585938 35.496094 22.585938 35.5 22.585938 35.503906 C 22.6875 35.539062 22.777344 35.601562 22.804688 35.703125 C 22.859375 35.902344 22.75 36.042969 22.601562 36.097656 C 22.589844 36.113281 22.574219 36.125 22.558594 36.136719 C 22.558594 36.136719 22.558594 36.136719 22.5625 36.140625 C 22.609375 36.332031 22.46875 36.449219 22.308594 36.453125 C 22.3125 36.453125 22.3125 36.457031 22.3125 36.460938 C 22.3125 36.460938 22.3125 36.460938 22.3125 36.464844 C 22.335938 36.476562 22.355469 36.492188 22.371094 36.511719 C 22.457031 36.636719 22.425781 36.757812 22.34375 36.839844 C 22.34375 36.878906 22.339844 36.914062 22.324219 36.949219 C 22.460938 37.140625 22.363281 37.351562 22.183594 37.441406 C 22.171875 37.542969 22.109375 37.621094 22.019531 37.660156 C 22.011719 37.667969 22.003906 37.675781 21.996094 37.683594 C 21.984375 37.753906 21.949219 37.824219 21.902344 37.882812 C 21.898438 37.886719 21.894531 37.890625 21.890625 37.894531 C 21.871094 37.929688 21.84375 37.964844 21.808594 37.988281 C 21.796875 38.042969 21.769531 38.097656 21.734375 38.140625 C 21.75 38.15625 21.761719 38.171875 21.769531 38.195312 C 21.824219 38.316406 21.796875 38.421875 21.726562 38.496094 C 21.707031 38.589844 21.644531 38.675781 21.558594 38.730469 C 21.558594 38.738281 21.550781 38.742188 21.550781 38.753906 C 21.570312 38.894531 21.464844 39.007812 21.328125 39.046875 C 21.34375 39.0625 21.355469 39.085938 21.359375 39.109375 C 21.414062 39.308594 21.28125 39.4375 21.121094 39.457031 C 21.105469 39.480469 21.089844 39.5 21.066406 39.519531 C 21.078125 39.585938 21.058594 39.644531 21.015625 39.6875 C 21.019531 39.742188 21.007812 39.792969 20.984375 39.835938 C 20.996094 39.917969 20.976562 39.992188 20.933594 40.050781 C 20.914062 40.15625 20.84375 40.25 20.746094 40.308594 C 20.722656 40.378906 20.679688 40.445312 20.625 40.5 C 20.578125 40.546875 20.523438 40.574219 20.46875 40.582031 C 20.457031 40.640625 20.421875 40.699219 20.371094 40.742188 C 20.359375 40.765625 20.34375 40.78125 20.328125 40.800781 C 20.3125 40.84375 20.289062 40.882812 20.257812 40.917969 C 20.242188 40.933594 20.226562 40.945312 20.207031 40.957031 C 20.1875 40.984375 20.167969 41.011719 20.144531 41.035156 C 20.132812 41.046875 20.121094 41.058594 20.109375 41.066406 C 20.085938 41.089844 20.0625 41.105469 20.03125 41.117188 C 20.011719 41.160156 19.980469 41.199219 19.9375 41.226562 C 19.925781 41.257812 19.910156 41.289062 19.882812 41.3125 C 19.867188 41.332031 19.855469 41.355469 19.835938 41.371094 C 19.832031 41.382812 19.828125 41.394531 19.824219 41.40625 C 19.84375 41.5 19.8125 41.585938 19.746094 41.648438 C 19.730469 41.703125 19.695312 41.753906 19.648438 41.789062 C 19.636719 41.871094 19.589844 41.945312 19.519531 42.003906 C 19.507812 42.027344 19.488281 42.046875 19.46875 42.066406 C 19.449219 42.125 19.417969 42.183594 19.371094 42.230469 C 19.339844 42.265625 19.304688 42.289062 19.269531 42.304688 C 19.269531 42.308594 19.265625 42.3125 19.261719 42.316406 C 19.234375 42.34375 19.199219 42.363281 19.167969 42.375 C 19.148438 42.394531 19.125 42.410156 19.101562 42.421875 C 19.070312 42.449219 19.027344 42.472656 18.984375 42.484375 C 18.953125 42.53125 18.914062 42.570312 18.863281 42.597656 C 18.746094 42.660156 18.636719 42.621094 18.570312 42.515625 C 18.5625 42.503906 18.558594 42.492188 18.554688 42.480469 C 18.53125 42.488281 18.507812 42.488281 18.484375 42.484375 C 18.382812 42.515625 18.289062 42.476562 18.226562 42.378906 C 18.214844 42.355469 18.203125 42.332031 18.199219 42.304688 C 18.140625 42.308594 18.082031 42.289062 18.03125 42.246094 C 18.011719 42.234375 18 42.214844 17.988281 42.199219 C 17.894531 42.207031 17.8125 42.160156 17.753906 42.066406 C 17.734375 42.039062 17.722656 42.003906 17.71875 41.96875 C 17.664062 41.960938 17.609375 41.933594 17.5625 41.890625 C 17.515625 41.847656 17.484375 41.78125 17.460938 41.714844 C 17.460938 41.714844 17.460938 41.714844 17.457031 41.714844 C 17.34375 41.714844 17.285156 41.644531 17.273438 41.550781 C 17.246094 41.511719 17.230469 41.464844 17.21875 41.414062 C 17.148438 41.394531 17.089844 41.34375 17.054688 41.265625 C 17.03125 41.21875 17.027344 41.15625 17.035156 41.097656 C 16.941406 41.105469 16.863281 41.070312 16.820312 41 C 16.800781 40.988281 16.785156 40.96875 16.769531 40.953125 C 16.730469 40.90625 16.707031 40.84375 16.695312 40.777344 C 16.695312 40.777344 16.691406 40.777344 16.691406 40.777344 C 16.621094 40.765625 16.578125 40.734375 16.558594 40.683594 C 16.386719 40.714844 16.261719 40.621094 16.21875 40.457031 C 16.203125 40.390625 16.214844 40.320312 16.234375 40.25 C 16.234375 40.25 16.234375 40.246094 16.230469 40.246094 C 16.191406 40.21875 16.164062 40.183594 16.152344 40.148438 C 16.128906 40.132812 16.109375 40.109375 16.089844 40.082031 C 16.070312 40.054688 16.058594 40.023438 16.050781 39.988281 C 15.960938 39.988281 15.882812 39.933594 15.84375 39.839844 C 15.835938 39.820312 15.832031 39.796875 15.828125 39.773438 C 15.8125 39.757812 15.796875 39.738281 15.785156 39.710938 C 15.636719 39.738281 15.519531 39.660156 15.472656 39.515625 C 15.453125 39.457031 15.457031 39.382812 15.472656 39.316406 C 15.472656 39.316406 15.472656 39.316406 15.46875 39.3125 C 15.390625 39.269531 15.367188 39.199219 15.378906 39.128906 C 15.332031 39.082031 15.332031 39.011719 15.363281 38.941406 C 15.238281 38.984375 15.117188 38.933594 15.042969 38.816406 C 15.007812 38.761719 14.992188 38.695312 14.988281 38.625 C 14.984375 38.621094 14.980469 38.621094 14.976562 38.617188 C 14.960938 38.609375 14.945312 38.605469 14.929688 38.597656 C 14.863281 38.582031 14.800781 38.535156 14.753906 38.46875 C 14.75 38.464844 14.75 38.460938 14.75 38.457031 C 14.710938 38.414062 14.695312 38.347656 14.695312 38.273438 C 14.695312 38.273438 14.695312 38.273438 14.695312 38.269531 C 14.695312 38.269531 14.691406 38.269531 14.6875 38.269531 C 14.558594 38.238281 14.527344 38.132812 14.554688 38.023438 C 14.488281 37.984375 14.464844 37.914062 14.46875 37.832031 C 14.457031 37.820312 14.449219 37.804688 14.441406 37.789062 C 14.394531 37.753906 14.375 37.691406 14.375 37.621094 C 14.367188 37.601562 14.363281 37.582031 14.359375 37.558594 C 14.347656 37.550781 14.335938 37.539062 14.328125 37.527344 C 14.289062 37.515625 14.257812 37.496094 14.238281 37.464844 C 14.167969 37.445312 14.105469 37.394531 14.058594 37.320312 C 14.035156 37.285156 14.023438 37.238281 14.019531 37.195312 C 14 37.175781 13.980469 37.15625 13.964844 37.128906 C 13.960938 37.125 13.960938 37.117188 13.957031 37.109375 C 13.886719 37.082031 13.855469 37 13.859375 36.910156 C 13.75 36.886719 13.71875 36.773438 13.742188 36.65625 C 13.707031 36.628906 13.679688 36.597656 13.65625 36.550781 C 13.636719 36.515625 13.628906 36.472656 13.625 36.429688 C 13.578125 36.402344 13.535156 36.363281 13.503906 36.308594 C 13.46875 36.246094 13.453125 36.171875 13.453125 36.09375 C 13.453125 36.09375 13.453125 36.09375 13.449219 36.09375 C 13.289062 36.046875 13.277344 35.894531 13.34375 35.761719 C 13.34375 35.726562 13.355469 35.691406 13.371094 35.65625 C 13.359375 35.613281 13.359375 35.558594 13.371094 35.507812 C 13.3125 35.492188 13.265625 35.445312 13.242188 35.375 C 13.234375 35.351562 13.234375 35.324219 13.234375 35.296875 C 13.207031 35.277344 13.175781 35.25 13.152344 35.214844 C 13.121094 35.167969 13.101562 35.105469 13.097656 35.039062 C 13.097656 35.039062 13.097656 35.039062 13.09375 35.035156 C 12.960938 35.011719 12.9375 34.890625 12.976562 34.773438 C 12.972656 34.761719 12.964844 34.75 12.957031 34.734375 C 12.941406 34.695312 12.9375 34.652344 12.9375 34.609375 C 12.914062 34.582031 12.90625 34.542969 12.910156 34.507812 C 12.808594 34.445312 12.804688 34.335938 12.859375 34.234375 C 12.824219 34.171875 12.839844 34.082031 12.882812 34.003906 C 12.851562 33.949219 12.835938 33.882812 12.835938 33.808594 C 12.835938 33.808594 12.835938 33.808594 12.832031 33.808594 C 12.6875 33.765625 12.675781 33.628906 12.734375 33.503906 C 12.628906 33.449219 12.617188 33.292969 12.664062 33.164062 C 12.652344 33.070312 12.6875 32.953125 12.757812 32.886719 C 12.734375 32.835938 12.742188 32.773438 12.773438 32.710938 C 12.769531 32.703125 12.765625 32.691406 12.761719 32.683594 C 12.75 32.628906 12.753906 32.566406 12.769531 32.507812 C 12.769531 32.507812 12.769531 32.507812 12.769531 32.503906 C 12.648438 32.429688 12.683594 32.304688 12.769531 32.214844 C 12.730469 32.15625 12.722656 32.066406 12.742188 31.980469 C 12.65625 31.910156 12.683594 31.78125 12.757812 31.683594 C 12.761719 31.636719 12.789062 31.585938 12.824219 31.546875 C 12.75 31.496094 12.746094 31.402344 12.785156 31.3125 C 12.648438 31.210938 12.730469 30.953125 12.882812 30.839844 C 12.867188 30.726562 12.925781 30.585938 13.015625 30.503906 C 13.019531 30.496094 13.019531 30.488281 13.019531 30.484375 C 13.019531 30.484375 13.015625 30.480469 13.015625 30.480469 C 12.90625 30.414062 12.902344 30.304688 12.953125 30.207031 C 12.9375 30.101562 12.984375 29.964844 13.070312 29.875 C 13.019531 29.78125 13.082031 29.65625 13.179688 29.570312 C 13.191406 29.46875 13.25 29.355469 13.335938 29.289062 C 13.253906 29.203125 13.292969 29.0625 13.382812 28.957031 C 13.394531 28.898438 13.417969 28.84375 13.453125 28.800781 C 13.382812 28.652344 13.546875 28.40625 13.730469 28.378906 C 13.664062 28.261719 13.710938 28.042969 13.84375 27.984375 C 13.847656 27.972656 13.847656 27.957031 13.855469 27.941406 C 13.859375 27.929688 13.867188 27.921875 13.871094 27.914062 C 13.742188 27.835938 13.785156 27.660156 13.890625 27.546875 C 13.882812 27.460938 13.933594 27.351562 14.007812 27.28125 C 14.054688 27.191406 14.144531 27.109375 14.238281 27.101562 C 14.25 27.082031 14.261719 27.066406 14.28125 27.050781 C 14.210938 26.988281 14.226562 26.886719 14.277344 26.800781 C 14.238281 26.726562 14.257812 26.609375 14.3125 26.519531 C 14.300781 26.402344 14.410156 26.265625 14.539062 26.203125 C 14.554688 26.175781 14.578125 26.152344 14.605469 26.128906 C 14.617188 26.105469 14.632812 26.078125 14.648438 26.058594 C 14.660156 26.03125 14.671875 26.007812 14.6875 25.988281 C 14.699219 25.925781 14.722656 25.867188 14.761719 25.820312 C 14.679688 25.714844 14.761719 25.519531 14.894531 25.433594 C 14.898438 25.421875 14.902344 25.410156 14.910156 25.402344 C 14.917969 25.320312 14.960938 25.230469 15.019531 25.167969 C 15.039062 25.101562 15.085938 25.035156 15.144531 24.992188 C 15.164062 24.933594 15.203125 24.878906 15.25 24.835938 C 15.257812 24.800781 15.273438 24.761719 15.296875 24.730469 C 15.300781 24.726562 15.300781 24.722656 15.300781 24.714844 C 15.269531 24.578125 15.40625 24.378906 15.558594 24.34375 C 15.5625 24.339844 15.5625 24.335938 15.566406 24.332031 C 15.488281 24.203125 15.621094 23.960938 15.78125 23.929688 C 15.792969 23.910156 15.804688 23.890625 15.820312 23.871094 C 15.796875 23.726562 15.929688 23.515625 16.089844 23.507812 C 16.097656 23.492188 16.105469 23.480469 16.117188 23.464844 C 16.199219 23.375 16.328125 23.375 16.398438 23.445312 Z M 18.703125 42.445312 C 18.703125 42.445312 18.722656 42.46875 18.722656 42.476562 C 18.730469 42.480469 18.738281 42.480469 18.753906 42.476562 C 18.734375 42.46875 18.71875 42.457031 18.699219 42.445312 Z M 21.167969 39.234375 C 21.175781 39.222656 21.175781 39.210938 21.179688 39.203125 C 21.179688 39.203125 21.179688 39.203125 21.175781 39.199219 C 21.175781 39.195312 21.171875 39.191406 21.167969 39.1875 C 21.171875 39.203125 21.167969 39.21875 21.167969 39.234375 Z M 16.453125 40.476562 C 16.460938 40.484375 16.464844 40.484375 16.484375 40.484375 C 16.476562 40.480469 16.464844 40.476562 16.460938 40.46875 C 16.453125 40.464844 16.449219 40.457031 16.445312 40.453125 C 16.449219 40.464844 16.453125 40.472656 16.453125 40.472656 Z M 15.691406 39.515625 C 15.699219 39.523438 15.710938 39.523438 15.726562 39.523438 C 15.707031 39.507812 15.691406 39.492188 15.675781 39.472656 C 15.679688 39.488281 15.695312 39.515625 15.691406 39.515625 Z M 15.25 38.753906 C 15.25 38.753906 15.261719 38.753906 15.273438 38.753906 C 15.269531 38.75 15.265625 38.746094 15.261719 38.738281 C 15.257812 38.734375 15.25 38.730469 15.246094 38.726562 C 15.242188 38.726562 15.238281 38.726562 15.234375 38.730469 C 15.242188 38.738281 15.25 38.75 15.25 38.75 Z M 22.765625 33.65625 C 22.765625 33.65625 22.769531 33.65625 22.769531 33.660156 C 22.769531 33.65625 22.765625 33.65625 22.765625 33.65625 Z M 22.734375 33.339844 C 22.734375 33.339844 22.734375 33.347656 22.734375 33.351562 C 22.734375 33.347656 22.738281 33.339844 22.738281 33.332031 C 22.738281 33.335938 22.734375 33.335938 22.730469 33.335938 Z M 22.6875 32.699219 C 22.6875 32.699219 22.6875 32.699219 22.691406 32.699219 C 22.691406 32.699219 22.691406 32.699219 22.6875 32.695312 Z M 13.394531 35.378906 C 13.394531 35.378906 13.402344 35.378906 13.40625 35.382812 C 13.40625 35.382812 13.40625 35.378906 13.40625 35.375 C 13.402344 35.375 13.394531 35.371094 13.390625 35.371094 C 13.390625 35.371094 13.394531 35.378906 13.394531 35.378906 Z M 22.570312 32.191406 C 22.570312 32.191406 22.578125 32.195312 22.578125 32.195312 C 22.578125 32.195312 22.582031 32.191406 22.582031 32.191406 C 22.582031 32.191406 22.582031 32.191406 22.578125 32.1875 C 22.578125 32.183594 22.574219 32.179688 22.570312 32.175781 C 22.570312 32.179688 22.570312 32.1875 22.570312 32.191406 Z M 22.121094 30.597656 C 22.121094 30.597656 22.125 30.605469 22.128906 30.609375 C 22.125 30.601562 22.125 30.597656 22.121094 30.59375 C 22.121094 30.59375 22.121094 30.597656 22.121094 30.597656 Z M 21.152344 28.703125 Z M 18.832031 25.585938 C 18.832031 25.585938 18.835938 25.582031 18.839844 25.582031 C 18.835938 25.578125 18.828125 25.574219 18.824219 25.570312 C 18.824219 25.578125 18.824219 25.582031 18.828125 25.585938 Z M 18.832031 25.585938 "/></g></g></g></g></g></svg>