<svg xmlns="http://www.w3.org/2000/svg" xmlns:xlink="http://www.w3.org/1999/xlink" width="39" zoomAndPan="magnify" viewBox="0 0 29.25 29.250001" height="39" preserveAspectRatio="xMidYMid meet" version="1.0"><defs><clipPath id="06b9b73b8a"><path d="M 13 7 L 28 7 L 28 15 L 13 15 Z M 13 7 " clip-rule="nonzero"/></clipPath><clipPath id="8dbd9e15a4"><path d="M 3.402344 0 L 28.039062 3.339844 L 24.601562 28.703125 L -0.0351562 25.363281 Z M 3.402344 0 " clip-rule="nonzero"/></clipPath><clipPath id="50df072549"><path d="M 28.21875 3.367188 L 3.582031 0.0234375 L 0.144531 25.386719 L 24.78125 28.726562 Z M 28.21875 3.367188 " clip-rule="nonzero"/></clipPath><clipPath id="4649fd68f7"><path d="M 28.21875 3.367188 L 3.582031 0.0234375 L 0.144531 25.386719 L 24.78125 28.726562 Z M 28.21875 3.367188 " clip-rule="nonzero"/></clipPath><clipPath id="eb9b40e32c"><path d="M 2 0 L 11 0 L 11 13 L 2 13 Z M 2 0 " clip-rule="nonzero"/></clipPath><clipPath id="d678337162"><path d="M 3.402344 0 L 28.039062 3.339844 L 24.601562 28.703125 L -0.0351562 25.363281 Z M 3.402344 0 " clip-rule="nonzero"/></clipPath><clipPath id="f897e23d4c"><path d="M 28.21875 3.367188 L 3.582031 0.0234375 L 0.144531 25.386719 L 24.78125 28.726562 Z M 28.21875 3.367188 " clip-rule="nonzero"/></clipPath><clipPath id="d7e7043bb7"><path d="M 28.21875 3.367188 L 3.582031 0.0234375 L 0.144531 25.386719 L 24.78125 28.726562 Z M 28.21875 3.367188 " clip-rule="nonzero"/></clipPath><clipPath id="264b9200ec"><path d="M 7 15 L 16 15 L 16 28 L 7 28 Z M 7 15 " clip-rule="nonzero"/></clipPath><clipPath id="c7ef7c3ae6"><path d="M 3.402344 0 L 28.039062 3.339844 L 24.601562 28.703125 L -0.0351562 25.363281 Z M 3.402344 0 " clip-rule="nonzero"/></clipPath><clipPath id="03ed3efcba"><path d="M 28.21875 3.367188 L 3.582031 0.0234375 L 0.144531 25.386719 L 24.78125 28.726562 Z M 28.21875 3.367188 " clip-rule="nonzero"/></clipPath><clipPath id="d827a33277"><path d="M 28.21875 3.367188 L 3.582031 0.0234375 L 0.144531 25.386719 L 24.78125 28.726562 Z M 28.21875 3.367188 " clip-rule="nonzero"/></clipPath></defs><g clip-path="url(#06b9b73b8a)"><g clip-path="url(#8dbd9e15a4)"><g clip-path="url(#50df072549)"><g clip-path="url(#4649fd68f7)"><path fill="#7ca260" d="M 14.300781 11.230469 C 14.316406 11.21875 14.332031 11.210938 14.347656 11.207031 C 14.355469 11.195312 14.359375 11.183594 14.363281 11.175781 C 14.390625 11.128906 14.433594 11.105469 14.476562 11.097656 C 14.484375 11.09375 14.492188 11.085938 14.5 11.085938 C 14.503906 11.074219 14.507812 11.066406 14.511719 11.058594 C 14.523438 11.039062 14.539062 11.027344 14.554688 11.015625 C 14.566406 11.003906 14.578125 10.988281 14.59375 10.980469 C 14.597656 10.96875 14.597656 10.957031 14.601562 10.945312 C 14.628906 10.847656 14.726562 10.8125 14.796875 10.851562 C 14.800781 10.847656 14.800781 10.84375 14.804688 10.84375 C 14.804688 10.832031 14.804688 10.820312 14.804688 10.8125 C 14.804688 10.730469 14.871094 10.679688 14.9375 10.6875 C 14.9375 10.683594 14.945312 10.679688 14.949219 10.675781 C 14.949219 10.671875 14.949219 10.671875 14.953125 10.667969 C 14.953125 10.664062 14.949219 10.660156 14.949219 10.65625 C 14.949219 10.550781 15.046875 10.492188 15.128906 10.539062 C 15.140625 10.523438 15.160156 10.515625 15.175781 10.511719 C 15.183594 10.496094 15.191406 10.480469 15.199219 10.464844 C 15.199219 10.363281 15.273438 10.230469 15.375 10.210938 C 15.378906 10.199219 15.382812 10.191406 15.390625 10.179688 C 15.445312 10.105469 15.527344 10.089844 15.589844 10.128906 C 15.609375 10.066406 15.648438 10.011719 15.703125 9.988281 C 15.707031 9.976562 15.710938 9.964844 15.714844 9.953125 C 15.746094 9.882812 15.808594 9.851562 15.867188 9.859375 C 15.871094 9.859375 15.871094 9.859375 15.871094 9.855469 C 15.878906 9.84375 15.882812 9.835938 15.890625 9.824219 C 15.945312 9.734375 16.054688 9.726562 16.113281 9.796875 C 16.132812 9.769531 16.160156 9.75 16.191406 9.742188 C 16.195312 9.734375 16.195312 9.726562 16.203125 9.71875 C 16.210938 9.707031 16.222656 9.695312 16.234375 9.6875 C 16.25 9.660156 16.273438 9.644531 16.300781 9.636719 C 16.300781 9.636719 16.300781 9.632812 16.300781 9.632812 C 16.320312 9.585938 16.363281 9.5625 16.402344 9.566406 C 16.414062 9.554688 16.421875 9.546875 16.4375 9.539062 C 16.453125 9.519531 16.472656 9.503906 16.492188 9.492188 C 16.5 9.425781 16.554688 9.378906 16.609375 9.378906 C 16.621094 9.355469 16.640625 9.335938 16.660156 9.324219 C 16.660156 9.3125 16.660156 9.304688 16.664062 9.292969 C 16.675781 9.214844 16.738281 9.164062 16.800781 9.164062 C 16.800781 9.164062 16.800781 9.160156 16.804688 9.160156 C 16.859375 9.046875 17.003906 9.039062 17.058594 9.152344 C 17.0625 9.148438 17.066406 9.148438 17.070312 9.148438 C 17.074219 9.140625 17.074219 9.136719 17.078125 9.128906 C 17.101562 9.09375 17.140625 9.078125 17.175781 9.082031 C 17.191406 8.988281 17.257812 8.886719 17.347656 8.871094 C 17.355469 8.863281 17.359375 8.851562 17.367188 8.839844 C 17.425781 8.757812 17.53125 8.757812 17.585938 8.828125 C 17.589844 8.824219 17.59375 8.824219 17.597656 8.820312 C 17.597656 8.8125 17.601562 8.804688 17.605469 8.796875 C 17.617188 8.769531 17.632812 8.75 17.652344 8.738281 C 17.683594 8.710938 17.726562 8.695312 17.769531 8.714844 C 17.789062 8.703125 17.808594 8.695312 17.828125 8.695312 C 17.839844 8.6875 17.851562 8.683594 17.863281 8.675781 C 17.875 8.65625 17.890625 8.640625 17.90625 8.628906 C 17.953125 8.535156 18.070312 8.519531 18.125 8.613281 C 18.140625 8.605469 18.152344 8.601562 18.167969 8.597656 C 18.191406 8.542969 18.230469 8.5 18.28125 8.484375 C 18.289062 8.472656 18.289062 8.464844 18.296875 8.457031 C 18.335938 8.390625 18.40625 8.375 18.460938 8.398438 C 18.472656 8.398438 18.488281 8.398438 18.5 8.402344 C 18.507812 8.398438 18.511719 8.394531 18.519531 8.390625 C 18.519531 8.386719 18.519531 8.382812 18.519531 8.378906 C 18.523438 8.265625 18.617188 8.199219 18.707031 8.230469 C 18.738281 8.210938 18.773438 8.207031 18.808594 8.214844 C 18.855469 8.1875 18.902344 8.175781 18.953125 8.1875 C 18.972656 8.195312 18.988281 8.199219 19.003906 8.207031 C 19.027344 8.203125 19.046875 8.207031 19.070312 8.214844 C 19.074219 8.214844 19.078125 8.21875 19.082031 8.21875 C 19.105469 8.21875 19.125 8.226562 19.144531 8.242188 C 19.152344 8.238281 19.160156 8.234375 19.164062 8.230469 C 19.195312 8.203125 19.242188 8.199219 19.277344 8.230469 C 19.3125 8.199219 19.355469 8.175781 19.398438 8.183594 C 19.402344 8.183594 19.40625 8.1875 19.410156 8.1875 C 19.429688 8.171875 19.457031 8.164062 19.480469 8.171875 C 19.492188 8.15625 19.507812 8.140625 19.523438 8.128906 C 19.523438 8.117188 19.523438 8.105469 19.527344 8.097656 C 19.546875 7.980469 19.671875 7.941406 19.742188 8.023438 C 19.746094 8.019531 19.75 8.019531 19.75 8.019531 C 19.757812 8.015625 19.765625 8.011719 19.769531 8.007812 C 19.773438 7.996094 19.777344 7.984375 19.78125 7.972656 C 19.828125 7.863281 19.957031 7.847656 20.023438 7.9375 C 20.054688 7.917969 20.089844 7.917969 20.125 7.929688 C 20.15625 7.929688 20.1875 7.9375 20.210938 7.953125 C 20.234375 7.941406 20.261719 7.933594 20.285156 7.933594 C 20.324219 7.824219 20.453125 7.800781 20.515625 7.894531 C 20.574219 7.863281 20.644531 7.851562 20.703125 7.882812 C 20.707031 7.886719 20.710938 7.890625 20.714844 7.890625 C 20.742188 7.851562 20.777344 7.832031 20.8125 7.828125 C 20.816406 7.824219 20.816406 7.820312 20.820312 7.816406 C 20.894531 7.714844 21.03125 7.726562 21.078125 7.832031 C 21.09375 7.832031 21.105469 7.835938 21.121094 7.84375 C 21.15625 7.839844 21.1875 7.847656 21.21875 7.859375 C 21.261719 7.847656 21.304688 7.847656 21.339844 7.867188 C 21.359375 7.878906 21.375 7.890625 21.390625 7.902344 C 21.421875 7.898438 21.453125 7.910156 21.480469 7.9375 C 21.527344 7.898438 21.589844 7.875 21.648438 7.894531 C 21.664062 7.902344 21.679688 7.910156 21.695312 7.917969 C 21.742188 7.910156 21.792969 7.933594 21.816406 7.988281 C 21.867188 7.976562 21.925781 7.984375 21.964844 8.019531 C 21.984375 8.011719 22.007812 8.007812 22.03125 8.011719 C 22.03125 8.011719 22.035156 8.015625 22.035156 8.015625 C 22.074219 7.988281 22.121094 7.980469 22.164062 8.003906 C 22.191406 7.988281 22.222656 7.988281 22.25 7.996094 C 22.292969 7.980469 22.335938 7.972656 22.378906 7.988281 C 22.394531 7.996094 22.410156 8.003906 22.421875 8.011719 C 22.445312 8.015625 22.46875 8.019531 22.492188 8.03125 C 22.546875 8.0625 22.582031 8.109375 22.59375 8.15625 C 22.605469 8.167969 22.617188 8.183594 22.625 8.199219 C 22.648438 8.191406 22.671875 8.1875 22.695312 8.199219 C 22.71875 8.207031 22.738281 8.222656 22.75 8.238281 C 22.785156 8.21875 22.824219 8.207031 22.867188 8.21875 C 22.882812 8.222656 22.894531 8.234375 22.90625 8.238281 C 22.945312 8.21875 22.992188 8.21875 23.027344 8.242188 C 23.027344 8.242188 23.027344 8.246094 23.03125 8.246094 C 23.054688 8.25 23.078125 8.265625 23.09375 8.28125 C 23.097656 8.277344 23.101562 8.277344 23.109375 8.277344 C 23.152344 8.246094 23.203125 8.230469 23.25 8.246094 C 23.304688 8.261719 23.34375 8.289062 23.367188 8.320312 C 23.386719 8.324219 23.402344 8.332031 23.417969 8.34375 C 23.453125 8.367188 23.476562 8.398438 23.488281 8.429688 C 23.53125 8.402344 23.582031 8.386719 23.632812 8.402344 C 23.648438 8.40625 23.664062 8.410156 23.675781 8.417969 C 23.695312 8.417969 23.714844 8.417969 23.730469 8.421875 C 23.832031 8.453125 23.882812 8.523438 23.894531 8.601562 C 23.949219 8.601562 24 8.621094 24.035156 8.660156 C 24.039062 8.664062 24.039062 8.667969 24.042969 8.671875 C 24.054688 8.675781 24.0625 8.679688 24.074219 8.683594 C 24.132812 8.65625 24.195312 8.648438 24.25 8.675781 C 24.296875 8.699219 24.332031 8.730469 24.351562 8.765625 C 24.351562 8.765625 24.355469 8.769531 24.355469 8.769531 C 24.382812 8.765625 24.410156 8.765625 24.4375 8.773438 C 24.511719 8.796875 24.558594 8.84375 24.582031 8.898438 C 24.671875 8.914062 24.730469 8.972656 24.75 9.042969 C 24.78125 9.03125 24.8125 9.023438 24.847656 9.03125 C 24.964844 9.050781 25.023438 9.132812 25.035156 9.226562 C 25.035156 9.226562 25.035156 9.226562 25.039062 9.230469 C 25.074219 9.242188 25.101562 9.273438 25.117188 9.316406 C 25.183594 9.300781 25.257812 9.3125 25.304688 9.363281 C 25.304688 9.367188 25.308594 9.367188 25.308594 9.371094 C 25.320312 9.382812 25.332031 9.398438 25.339844 9.410156 C 25.367188 9.410156 25.394531 9.414062 25.417969 9.429688 C 25.449219 9.445312 25.472656 9.464844 25.492188 9.488281 C 25.523438 9.488281 25.554688 9.492188 25.585938 9.507812 C 25.652344 9.546875 25.6875 9.597656 25.699219 9.652344 C 25.703125 9.660156 25.707031 9.667969 25.714844 9.675781 C 25.71875 9.679688 25.726562 9.6875 25.734375 9.691406 C 25.769531 9.695312 25.800781 9.707031 25.832031 9.734375 C 25.84375 9.746094 25.855469 9.757812 25.863281 9.769531 C 25.882812 9.777344 25.902344 9.785156 25.917969 9.800781 C 25.945312 9.824219 25.960938 9.847656 25.972656 9.875 C 26.019531 9.902344 26.046875 9.945312 26.050781 9.992188 C 26.082031 9.980469 26.117188 9.976562 26.148438 9.984375 C 26.222656 10.007812 26.269531 10.050781 26.292969 10.105469 C 26.359375 10.144531 26.394531 10.199219 26.402344 10.257812 C 26.4375 10.273438 26.460938 10.296875 26.476562 10.320312 C 26.511719 10.320312 26.550781 10.328125 26.578125 10.351562 C 26.636719 10.398438 26.65625 10.457031 26.652344 10.515625 C 26.675781 10.519531 26.699219 10.53125 26.714844 10.546875 C 26.722656 10.554688 26.722656 10.558594 26.726562 10.566406 C 26.753906 10.558594 26.777344 10.558594 26.804688 10.566406 C 26.882812 10.589844 26.921875 10.640625 26.933594 10.703125 C 27 10.746094 27.023438 10.816406 27.011719 10.882812 C 27.0625 10.910156 27.089844 10.964844 27.085938 11.019531 C 27.171875 11.09375 27.152344 11.214844 27.078125 11.289062 C 27.074219 11.332031 27.0625 11.371094 27.039062 11.410156 C 27.007812 11.460938 26.96875 11.480469 26.921875 11.484375 C 26.902344 11.539062 26.867188 11.570312 26.816406 11.578125 C 26.804688 11.597656 26.792969 11.609375 26.777344 11.617188 C 26.761719 11.652344 26.742188 11.679688 26.714844 11.703125 C 26.707031 11.722656 26.691406 11.738281 26.679688 11.75 C 26.667969 11.792969 26.644531 11.832031 26.617188 11.863281 C 26.589844 11.898438 26.558594 11.917969 26.527344 11.929688 C 26.519531 11.933594 26.515625 11.941406 26.507812 11.949219 C 26.507812 11.949219 26.507812 11.953125 26.503906 11.953125 C 26.472656 12.03125 26.414062 12.074219 26.34375 12.082031 C 26.316406 12.136719 26.269531 12.167969 26.210938 12.171875 C 26.1875 12.191406 26.164062 12.203125 26.136719 12.207031 C 26.136719 12.207031 26.132812 12.210938 26.128906 12.210938 C 26.121094 12.246094 26.109375 12.28125 26.089844 12.3125 C 26.058594 12.355469 26.019531 12.382812 25.980469 12.390625 C 25.96875 12.398438 25.960938 12.410156 25.953125 12.417969 C 25.929688 12.4375 25.90625 12.453125 25.882812 12.460938 C 25.871094 12.484375 25.855469 12.503906 25.835938 12.523438 C 25.785156 12.585938 25.71875 12.609375 25.65625 12.597656 C 25.644531 12.601562 25.636719 12.605469 25.625 12.609375 C 25.605469 12.707031 25.535156 12.761719 25.441406 12.757812 C 25.4375 12.761719 25.433594 12.769531 25.429688 12.773438 C 25.421875 12.78125 25.414062 12.789062 25.410156 12.796875 C 25.378906 12.863281 25.316406 12.890625 25.246094 12.878906 C 25.246094 12.882812 25.246094 12.882812 25.242188 12.886719 C 25.207031 12.964844 25.140625 13 25.070312 12.988281 C 25.0625 13.007812 25.054688 13.023438 25.042969 13.039062 C 25.019531 13.074219 24.992188 13.09375 24.964844 13.109375 C 24.921875 13.167969 24.863281 13.191406 24.800781 13.175781 C 24.796875 13.179688 24.792969 13.183594 24.789062 13.1875 C 24.789062 13.242188 24.769531 13.292969 24.742188 13.34375 C 24.683594 13.449219 24.578125 13.472656 24.476562 13.421875 C 24.46875 13.457031 24.457031 13.496094 24.4375 13.527344 C 24.378906 13.613281 24.292969 13.636719 24.207031 13.605469 C 24.199219 13.609375 24.191406 13.609375 24.179688 13.613281 C 24.171875 13.625 24.164062 13.644531 24.152344 13.65625 C 24.132812 13.683594 24.113281 13.699219 24.09375 13.714844 C 24.082031 13.734375 24.066406 13.757812 24.046875 13.773438 C 23.972656 13.855469 23.875 13.859375 23.796875 13.804688 C 23.789062 13.804688 23.785156 13.804688 23.78125 13.804688 C 23.761719 13.832031 23.738281 13.851562 23.707031 13.863281 C 23.695312 13.894531 23.675781 13.929688 23.65625 13.957031 C 23.617188 14.003906 23.574219 14.027344 23.527344 14.035156 C 23.523438 14.046875 23.519531 14.054688 23.511719 14.0625 C 23.460938 14.128906 23.394531 14.15625 23.328125 14.144531 C 23.265625 14.1875 23.199219 14.191406 23.136719 14.160156 C 23.121094 14.167969 23.105469 14.175781 23.089844 14.175781 C 23.085938 14.199219 23.085938 14.21875 23.082031 14.242188 C 23.050781 14.367188 22.945312 14.417969 22.832031 14.390625 C 22.789062 14.382812 22.75 14.355469 22.714844 14.324219 C 22.699219 14.332031 22.683594 14.335938 22.664062 14.332031 C 22.660156 14.335938 22.65625 14.339844 22.65625 14.339844 C 22.628906 14.363281 22.601562 14.367188 22.574219 14.367188 C 22.550781 14.386719 22.527344 14.402344 22.503906 14.40625 C 22.472656 14.429688 22.429688 14.441406 22.382812 14.433594 C 22.378906 14.433594 22.371094 14.429688 22.367188 14.429688 C 22.335938 14.460938 22.292969 14.46875 22.25 14.449219 C 22.246094 14.449219 22.246094 14.445312 22.242188 14.445312 C 22.230469 14.453125 22.21875 14.460938 22.207031 14.464844 C 22.195312 14.5 22.171875 14.523438 22.144531 14.535156 C 22.132812 14.566406 22.121094 14.59375 22.101562 14.617188 C 22.046875 14.699219 21.960938 14.722656 21.882812 14.691406 C 21.871094 14.691406 21.859375 14.695312 21.847656 14.695312 C 21.820312 14.714844 21.785156 14.726562 21.75 14.726562 C 21.714844 14.746094 21.675781 14.753906 21.636719 14.746094 C 21.632812 14.75 21.628906 14.753906 21.625 14.757812 C 21.566406 14.808594 21.503906 14.8125 21.445312 14.785156 C 21.410156 14.804688 21.367188 14.808594 21.320312 14.792969 C 21.316406 14.789062 21.3125 14.785156 21.308594 14.785156 C 21.304688 14.789062 21.304688 14.796875 21.300781 14.800781 C 21.257812 14.921875 21.148438 14.957031 21.039062 14.917969 C 21.003906 14.902344 20.972656 14.875 20.941406 14.84375 C 20.917969 14.855469 20.894531 14.855469 20.867188 14.851562 C 20.867188 14.851562 20.867188 14.851562 20.863281 14.855469 C 20.816406 14.902344 20.761719 14.917969 20.707031 14.910156 C 20.648438 14.960938 20.574219 14.964844 20.496094 14.925781 C 20.472656 14.914062 20.453125 14.894531 20.433594 14.875 C 20.425781 14.878906 20.421875 14.878906 20.417969 14.882812 C 20.371094 14.929688 20.308594 14.945312 20.242188 14.925781 C 20.164062 14.996094 20.066406 14.992188 19.984375 14.921875 C 19.953125 14.898438 19.929688 14.863281 19.914062 14.820312 C 19.839844 14.875 19.753906 14.867188 19.6875 14.808594 C 19.679688 14.808594 19.675781 14.808594 19.667969 14.808594 C 19.605469 14.84375 19.539062 14.835938 19.480469 14.785156 C 19.476562 14.777344 19.472656 14.773438 19.46875 14.765625 C 19.4375 14.769531 19.410156 14.769531 19.378906 14.757812 C 19.355469 14.753906 19.339844 14.742188 19.320312 14.730469 C 19.300781 14.726562 19.277344 14.71875 19.257812 14.710938 C 19.253906 14.707031 19.25 14.703125 19.242188 14.699219 C 19.195312 14.710938 19.160156 14.691406 19.132812 14.65625 C 19.089844 14.671875 19.042969 14.667969 18.996094 14.648438 C 18.96875 14.65625 18.941406 14.652344 18.914062 14.640625 C 18.863281 14.675781 18.796875 14.679688 18.726562 14.65625 C 18.683594 14.636719 18.648438 14.605469 18.613281 14.566406 C 18.613281 14.566406 18.613281 14.566406 18.609375 14.566406 C 18.546875 14.59375 18.496094 14.570312 18.460938 14.527344 C 18.445312 14.523438 18.433594 14.515625 18.421875 14.503906 C 18.363281 14.527344 18.304688 14.519531 18.25 14.476562 C 18.230469 14.460938 18.21875 14.441406 18.207031 14.421875 C 18.167969 14.425781 18.125 14.417969 18.082031 14.390625 C 18.074219 14.386719 18.070312 14.382812 18.0625 14.375 C 18.058594 14.371094 18.054688 14.367188 18.046875 14.363281 C 17.996094 14.371094 17.949219 14.351562 17.910156 14.304688 C 17.90625 14.296875 17.898438 14.285156 17.894531 14.273438 C 17.894531 14.273438 17.894531 14.273438 17.890625 14.273438 C 17.855469 14.285156 17.8125 14.28125 17.769531 14.265625 C 17.734375 14.253906 17.703125 14.226562 17.675781 14.199219 C 17.660156 14.195312 17.648438 14.195312 17.632812 14.1875 C 17.550781 14.210938 17.496094 14.148438 17.472656 14.066406 C 17.457031 14.0625 17.449219 14.054688 17.4375 14.042969 C 17.433594 14.046875 17.429688 14.054688 17.425781 14.054688 C 17.355469 14.117188 17.273438 14.101562 17.214844 14.035156 C 17.203125 14.023438 17.191406 14.003906 17.1875 13.988281 C 17.148438 13.988281 17.109375 13.96875 17.082031 13.933594 C 17.078125 13.929688 17.074219 13.921875 17.070312 13.917969 C 17.0625 13.914062 17.058594 13.90625 17.050781 13.902344 C 17.03125 13.898438 17.007812 13.890625 16.988281 13.878906 C 16.980469 13.875 16.972656 13.867188 16.964844 13.859375 C 16.933594 13.863281 16.90625 13.855469 16.875 13.839844 C 16.851562 13.835938 16.824219 13.828125 16.800781 13.8125 C 16.765625 13.792969 16.734375 13.757812 16.710938 13.722656 C 16.695312 13.726562 16.679688 13.726562 16.667969 13.726562 C 16.601562 13.777344 16.519531 13.765625 16.449219 13.710938 C 16.421875 13.6875 16.398438 13.652344 16.382812 13.613281 C 16.382812 13.613281 16.382812 13.613281 16.378906 13.613281 C 16.375 13.609375 16.367188 13.605469 16.363281 13.601562 C 16.347656 13.601562 16.335938 13.597656 16.324219 13.597656 C 16.304688 13.597656 16.289062 13.59375 16.273438 13.582031 C 16.230469 13.59375 16.179688 13.582031 16.136719 13.554688 C 16.101562 13.535156 16.078125 13.503906 16.054688 13.46875 C 16.035156 13.46875 16.011719 13.464844 15.992188 13.457031 C 15.96875 13.453125 15.953125 13.445312 15.9375 13.429688 C 15.914062 13.410156 15.890625 13.390625 15.871094 13.363281 C 15.8125 13.386719 15.75 13.367188 15.699219 13.316406 C 15.679688 13.300781 15.667969 13.277344 15.660156 13.253906 C 15.648438 13.242188 15.632812 13.234375 15.621094 13.222656 C 15.601562 13.214844 15.582031 13.203125 15.5625 13.1875 C 15.550781 13.175781 15.539062 13.160156 15.53125 13.144531 C 15.515625 13.132812 15.5 13.121094 15.488281 13.101562 C 15.488281 13.101562 15.488281 13.101562 15.484375 13.101562 C 15.402344 13.136719 15.351562 13.0625 15.34375 12.980469 C 15.328125 12.976562 15.308594 12.976562 15.292969 12.964844 C 15.285156 12.960938 15.28125 12.957031 15.273438 12.953125 C 15.226562 12.972656 15.167969 12.976562 15.113281 12.949219 C 15.070312 12.933594 15.035156 12.898438 15.003906 12.859375 C 15.003906 12.859375 15 12.859375 15 12.859375 C 14.914062 12.894531 14.859375 12.84375 14.832031 12.769531 C 14.828125 12.769531 14.828125 12.769531 14.824219 12.765625 C 14.753906 12.792969 14.695312 12.746094 14.667969 12.675781 C 14.640625 12.660156 14.613281 12.644531 14.585938 12.621094 C 14.585938 12.621094 14.585938 12.621094 14.582031 12.625 C 14.433594 12.714844 14.324219 12.503906 14.351562 12.347656 C 14.34375 12.339844 14.339844 12.324219 14.332031 12.3125 C 14.277344 12.335938 14.21875 12.324219 14.167969 12.28125 C 14.144531 12.257812 14.121094 12.222656 14.109375 12.183594 C 14.109375 12.183594 14.109375 12.183594 14.105469 12.183594 C 14.03125 12.1875 14 12.132812 14 12.066406 C 13.957031 12.035156 13.933594 11.953125 13.953125 11.898438 C 13.871094 11.8125 13.925781 11.589844 14.046875 11.546875 C 14.054688 11.535156 14.058594 11.523438 14.0625 11.511719 C 14.082031 11.476562 14.105469 11.453125 14.136719 11.4375 C 14.148438 11.417969 14.167969 11.398438 14.1875 11.386719 C 14.191406 11.375 14.191406 11.363281 14.191406 11.347656 C 14.207031 11.285156 14.253906 11.242188 14.304688 11.230469 Z M 14.035156 11.933594 C 14.035156 11.933594 14.035156 11.933594 14.035156 11.929688 Z M 14.035156 11.933594 " fill-opacity="1" fill-rule="nonzero"/></g></g></g></g><g clip-path="url(#eb9b40e32c)"><g clip-path="url(#d678337162)"><g clip-path="url(#f897e23d4c)"><g clip-path="url(#d7e7043bb7)"><path fill="#8ba378" d="M 4.558594 3.523438 C 4.558594 3.523438 4.570312 3.515625 4.574219 3.515625 C 4.578125 3.503906 4.578125 3.492188 4.582031 3.480469 C 4.605469 3.402344 4.679688 3.367188 4.742188 3.386719 C 4.757812 3.296875 4.824219 3.199219 4.910156 3.179688 C 4.917969 3.171875 4.921875 3.160156 4.929688 3.152344 C 4.949219 3.121094 4.976562 3.101562 5.003906 3.09375 C 5.027344 3.046875 5.070312 3.019531 5.113281 3.011719 C 5.125 2.910156 5.222656 2.855469 5.304688 2.902344 C 5.308594 2.902344 5.3125 2.902344 5.316406 2.898438 C 5.320312 2.898438 5.324219 2.894531 5.328125 2.894531 C 5.332031 2.882812 5.332031 2.871094 5.335938 2.859375 C 5.359375 2.804688 5.402344 2.773438 5.445312 2.769531 C 5.480469 2.6875 5.574219 2.664062 5.640625 2.730469 C 5.664062 2.710938 5.695312 2.695312 5.726562 2.691406 C 5.734375 2.679688 5.746094 2.671875 5.757812 2.667969 C 5.773438 2.585938 5.820312 2.507812 5.890625 2.484375 C 5.894531 2.472656 5.898438 2.464844 5.902344 2.453125 C 5.921875 2.417969 5.949219 2.394531 5.980469 2.382812 C 5.984375 2.378906 5.988281 2.378906 5.992188 2.375 C 5.992188 2.375 5.992188 2.375 5.992188 2.378906 C 6.003906 2.375 6.011719 2.371094 6.023438 2.371094 C 6.058594 2.300781 6.136719 2.28125 6.191406 2.316406 C 6.199219 2.316406 6.203125 2.3125 6.210938 2.308594 C 6.210938 2.308594 6.210938 2.304688 6.214844 2.300781 C 6.234375 2.246094 6.277344 2.21875 6.324219 2.214844 C 6.324219 2.210938 6.328125 2.207031 6.332031 2.203125 C 6.367188 2.144531 6.421875 2.121094 6.476562 2.132812 C 6.488281 2.074219 6.535156 2.035156 6.585938 2.027344 C 6.613281 2.019531 6.640625 2.019531 6.667969 2.03125 C 6.699219 1.976562 6.765625 1.957031 6.824219 1.984375 C 6.835938 1.984375 6.847656 1.984375 6.863281 1.988281 C 6.898438 1.953125 6.949219 1.929688 6.996094 1.933594 C 7.003906 1.917969 7.015625 1.90625 7.027344 1.894531 C 7.027344 1.882812 7.023438 1.867188 7.027344 1.855469 C 7.035156 1.738281 7.144531 1.675781 7.234375 1.722656 C 7.257812 1.710938 7.289062 1.703125 7.316406 1.707031 C 7.359375 1.683594 7.414062 1.667969 7.464844 1.683594 C 7.488281 1.691406 7.511719 1.703125 7.53125 1.714844 C 7.554688 1.714844 7.582031 1.71875 7.601562 1.726562 C 7.609375 1.722656 7.617188 1.722656 7.628906 1.71875 C 7.636719 1.703125 7.648438 1.6875 7.660156 1.679688 C 7.664062 1.667969 7.660156 1.65625 7.664062 1.644531 C 7.675781 1.558594 7.75 1.511719 7.820312 1.53125 C 7.851562 1.480469 7.90625 1.453125 7.960938 1.46875 C 7.964844 1.464844 7.964844 1.457031 7.96875 1.453125 C 8.015625 1.386719 8.085938 1.371094 8.140625 1.398438 C 8.171875 1.347656 8.230469 1.316406 8.292969 1.332031 C 8.339844 1.265625 8.417969 1.246094 8.480469 1.285156 C 8.480469 1.285156 8.480469 1.285156 8.484375 1.285156 C 8.496094 1.285156 8.507812 1.285156 8.519531 1.285156 C 8.554688 1.257812 8.59375 1.253906 8.628906 1.269531 C 8.644531 1.261719 8.660156 1.253906 8.675781 1.25 C 8.679688 1.238281 8.6875 1.230469 8.691406 1.21875 C 8.757812 1.121094 8.878906 1.121094 8.933594 1.203125 C 8.949219 1.195312 8.964844 1.191406 8.980469 1.191406 C 8.980469 1.191406 8.984375 1.191406 8.984375 1.191406 C 9.019531 1.117188 9.101562 1.089844 9.164062 1.128906 C 9.183594 1.121094 9.203125 1.121094 9.222656 1.121094 C 9.246094 1.085938 9.285156 1.066406 9.324219 1.070312 C 9.351562 0.996094 9.425781 0.960938 9.496094 0.992188 C 9.550781 0.914062 9.652344 0.90625 9.710938 0.976562 C 9.71875 0.976562 9.722656 0.976562 9.730469 0.976562 C 9.738281 0.980469 9.746094 0.988281 9.753906 0.992188 C 9.816406 0.972656 9.878906 0.972656 9.929688 1.007812 C 9.945312 1.019531 9.953125 1.03125 9.964844 1.042969 C 9.964844 1.042969 9.96875 1.042969 9.96875 1.042969 C 10.023438 1.074219 10.046875 1.117188 10.058594 1.160156 C 10.117188 1.195312 10.136719 1.25 10.128906 1.304688 C 10.148438 1.347656 10.144531 1.398438 10.125 1.445312 C 10.125 1.46875 10.121094 1.496094 10.105469 1.519531 C 10.113281 1.539062 10.113281 1.554688 10.109375 1.570312 C 10.121094 1.59375 10.128906 1.617188 10.125 1.640625 C 10.136719 1.671875 10.136719 1.710938 10.125 1.746094 C 10.132812 1.769531 10.132812 1.792969 10.132812 1.816406 C 10.15625 1.8125 10.179688 1.816406 10.203125 1.828125 C 10.359375 1.90625 10.359375 2.074219 10.269531 2.1875 C 10.277344 2.222656 10.269531 2.261719 10.25 2.296875 C 10.28125 2.335938 10.289062 2.390625 10.28125 2.441406 C 10.292969 2.480469 10.289062 2.527344 10.273438 2.566406 C 10.273438 2.589844 10.273438 2.613281 10.269531 2.636719 C 10.269531 2.652344 10.261719 2.664062 10.253906 2.675781 C 10.378906 2.753906 10.367188 2.90625 10.28125 3 C 10.277344 3.015625 10.273438 3.035156 10.269531 3.054688 C 10.28125 3.074219 10.285156 3.09375 10.285156 3.117188 C 10.4375 3.222656 10.402344 3.402344 10.285156 3.503906 C 10.3125 3.550781 10.304688 3.605469 10.273438 3.648438 C 10.28125 3.652344 10.289062 3.65625 10.300781 3.664062 C 10.425781 3.746094 10.417969 3.886719 10.339844 3.976562 C 10.371094 4.042969 10.363281 4.117188 10.324219 4.183594 C 10.320312 4.191406 10.320312 4.199219 10.316406 4.207031 C 10.398438 4.265625 10.425781 4.347656 10.40625 4.429688 C 10.421875 4.515625 10.390625 4.605469 10.324219 4.667969 C 10.320312 4.707031 10.308594 4.75 10.289062 4.785156 C 10.3125 4.84375 10.304688 4.914062 10.273438 4.96875 C 10.367188 5.046875 10.363281 5.175781 10.300781 5.269531 C 10.300781 5.304688 10.296875 5.335938 10.28125 5.367188 C 10.277344 5.390625 10.269531 5.417969 10.261719 5.4375 C 10.246094 5.472656 10.226562 5.496094 10.207031 5.515625 C 10.207031 5.558594 10.199219 5.605469 10.179688 5.644531 C 10.175781 5.65625 10.167969 5.667969 10.164062 5.675781 C 10.164062 5.675781 10.167969 5.679688 10.171875 5.679688 C 10.273438 5.789062 10.242188 5.921875 10.152344 6 C 10.15625 6.023438 10.15625 6.050781 10.148438 6.074219 C 10.148438 6.085938 10.140625 6.097656 10.136719 6.105469 C 10.152344 6.164062 10.121094 6.226562 10.074219 6.261719 C 10.074219 6.296875 10.0625 6.332031 10.035156 6.359375 C 10.0625 6.398438 10.066406 6.441406 10.058594 6.484375 C 10.097656 6.550781 10.070312 6.636719 10.007812 6.6875 C 10.003906 6.707031 10 6.722656 9.992188 6.738281 C 10.046875 6.808594 10.050781 6.890625 10.019531 6.960938 C 10.027344 7.019531 10 7.078125 9.957031 7.121094 C 9.976562 7.191406 9.949219 7.265625 9.898438 7.320312 C 9.898438 7.378906 9.875 7.4375 9.832031 7.484375 C 9.832031 7.488281 9.832031 7.492188 9.828125 7.5 C 9.824219 7.515625 9.816406 7.527344 9.8125 7.539062 C 9.804688 7.574219 9.792969 7.609375 9.773438 7.636719 C 9.769531 7.644531 9.761719 7.652344 9.757812 7.660156 C 9.753906 7.664062 9.753906 7.667969 9.753906 7.671875 C 9.742188 7.695312 9.730469 7.710938 9.714844 7.722656 C 9.714844 7.742188 9.714844 7.761719 9.710938 7.777344 C 9.710938 7.804688 9.710938 7.832031 9.703125 7.855469 C 9.703125 7.871094 9.695312 7.882812 9.6875 7.894531 C 9.695312 7.9375 9.6875 7.972656 9.671875 8.011719 C 9.667969 8.019531 9.667969 8.027344 9.667969 8.035156 C 9.652344 8.113281 9.597656 8.160156 9.53125 8.171875 C 9.523438 8.199219 9.511719 8.222656 9.496094 8.242188 C 9.492188 8.253906 9.488281 8.261719 9.484375 8.273438 C 9.484375 8.285156 9.480469 8.300781 9.480469 8.316406 C 9.484375 8.355469 9.484375 8.398438 9.472656 8.441406 C 9.453125 8.515625 9.40625 8.5625 9.347656 8.578125 C 9.335938 8.59375 9.328125 8.605469 9.316406 8.617188 C 9.3125 8.667969 9.292969 8.71875 9.265625 8.765625 C 9.238281 8.808594 9.199219 8.835938 9.160156 8.851562 C 9.140625 8.90625 9.101562 8.960938 9.046875 8.992188 C 9.03125 9.042969 9.003906 9.089844 8.96875 9.125 C 8.957031 9.136719 8.949219 9.144531 8.9375 9.152344 C 8.9375 9.164062 8.9375 9.175781 8.933594 9.1875 C 8.902344 9.28125 8.832031 9.324219 8.75 9.316406 C 8.734375 9.339844 8.71875 9.363281 8.699219 9.382812 C 8.691406 9.429688 8.675781 9.476562 8.648438 9.519531 C 8.597656 9.59375 8.527344 9.617188 8.457031 9.59375 C 8.4375 9.628906 8.414062 9.660156 8.382812 9.683594 C 8.359375 9.699219 8.335938 9.710938 8.3125 9.714844 C 8.308594 9.730469 8.296875 9.742188 8.289062 9.75 C 8.285156 9.78125 8.273438 9.8125 8.257812 9.839844 C 8.230469 9.890625 8.191406 9.914062 8.144531 9.921875 C 8.128906 9.933594 8.109375 9.9375 8.089844 9.941406 C 8.074219 9.960938 8.058594 9.976562 8.035156 9.992188 C 8.023438 10.035156 8 10.078125 7.96875 10.113281 C 7.964844 10.117188 7.960938 10.121094 7.953125 10.125 C 7.945312 10.148438 7.933594 10.171875 7.921875 10.195312 C 7.898438 10.230469 7.871094 10.253906 7.839844 10.269531 C 7.796875 10.324219 7.730469 10.347656 7.660156 10.332031 C 7.660156 10.332031 7.65625 10.332031 7.65625 10.332031 C 7.65625 10.339844 7.65625 10.34375 7.652344 10.351562 C 7.632812 10.460938 7.546875 10.511719 7.445312 10.496094 C 7.433594 10.492188 7.421875 10.488281 7.414062 10.484375 C 7.414062 10.507812 7.410156 10.527344 7.40625 10.550781 C 7.386719 10.652344 7.3125 10.707031 7.21875 10.703125 C 7.167969 10.777344 7.101562 10.804688 7.027344 10.789062 C 7.019531 10.796875 7.011719 10.804688 7.003906 10.8125 C 7.003906 10.8125 7.003906 10.8125 7.003906 10.816406 C 6.996094 10.878906 6.960938 10.917969 6.914062 10.9375 C 6.902344 10.96875 6.886719 10.992188 6.863281 11.015625 C 6.859375 11.019531 6.859375 11.019531 6.855469 11.023438 C 6.828125 11.066406 6.792969 11.09375 6.75 11.105469 C 6.710938 11.128906 6.660156 11.136719 6.609375 11.125 C 6.578125 11.117188 6.554688 11.105469 6.527344 11.085938 C 6.511719 11.089844 6.496094 11.09375 6.476562 11.089844 C 6.46875 11.089844 6.460938 11.085938 6.453125 11.082031 C 6.449219 11.097656 6.445312 11.113281 6.441406 11.125 C 6.417969 11.179688 6.378906 11.207031 6.332031 11.210938 C 6.304688 11.242188 6.273438 11.257812 6.238281 11.253906 C 6.226562 11.273438 6.210938 11.289062 6.191406 11.300781 C 6.164062 11.363281 6.109375 11.394531 6.046875 11.394531 C 6.046875 11.394531 6.046875 11.398438 6.046875 11.398438 C 6.019531 11.421875 5.988281 11.433594 5.960938 11.4375 C 5.957031 11.457031 5.957031 11.480469 5.949219 11.5 C 5.917969 11.601562 5.835938 11.644531 5.746094 11.628906 C 5.710938 11.660156 5.671875 11.671875 5.628906 11.664062 C 5.628906 11.671875 5.628906 11.675781 5.628906 11.679688 C 5.597656 11.792969 5.507812 11.839844 5.398438 11.816406 C 5.382812 11.8125 5.359375 11.804688 5.34375 11.792969 C 5.335938 11.804688 5.332031 11.816406 5.324219 11.824219 C 5.261719 11.90625 5.175781 11.925781 5.09375 11.886719 C 5.078125 11.914062 5.0625 11.9375 5.039062 11.957031 C 4.992188 11.996094 4.945312 12 4.898438 11.984375 C 4.894531 11.988281 4.890625 11.988281 4.886719 11.992188 C 4.863281 12.03125 4.835938 12.066406 4.800781 12.09375 C 4.746094 12.136719 4.691406 12.144531 4.640625 12.128906 C 4.632812 12.132812 4.625 12.136719 4.617188 12.136719 C 4.613281 12.148438 4.609375 12.160156 4.605469 12.171875 C 4.570312 12.234375 4.515625 12.265625 4.453125 12.265625 C 4.445312 12.285156 4.429688 12.308594 4.417969 12.324219 C 4.339844 12.417969 4.234375 12.425781 4.144531 12.359375 C 4.132812 12.359375 4.121094 12.355469 4.109375 12.351562 C 4.09375 12.386719 4.070312 12.417969 4.039062 12.441406 C 4.007812 12.46875 3.972656 12.476562 3.9375 12.476562 C 3.910156 12.496094 3.878906 12.507812 3.84375 12.5 C 3.839844 12.503906 3.835938 12.507812 3.835938 12.507812 C 3.804688 12.601562 3.734375 12.648438 3.652344 12.652344 C 3.640625 12.660156 3.636719 12.667969 3.625 12.675781 C 3.570312 12.722656 3.511719 12.734375 3.453125 12.722656 C 3.382812 12.789062 3.289062 12.785156 3.210938 12.722656 C 3.179688 12.695312 3.15625 12.652344 3.136719 12.609375 C 3.136719 12.609375 3.136719 12.609375 3.132812 12.609375 C 3.054688 12.617188 3.011719 12.5625 3.003906 12.492188 C 2.984375 12.472656 2.972656 12.445312 2.96875 12.410156 C 2.902344 12.386719 2.878906 12.285156 2.902344 12.199219 C 2.796875 12.191406 2.765625 12.03125 2.8125 11.925781 C 2.808594 11.921875 2.804688 11.914062 2.800781 11.90625 C 2.644531 11.90625 2.664062 11.628906 2.789062 11.558594 C 2.730469 11.550781 2.703125 11.492188 2.707031 11.429688 C 2.527344 11.421875 2.5625 11.09375 2.714844 11.03125 C 2.714844 11.027344 2.71875 11.019531 2.71875 11.015625 C 2.652344 11.007812 2.628906 10.933594 2.640625 10.859375 C 2.59375 10.820312 2.59375 10.734375 2.625 10.667969 C 2.605469 10.644531 2.597656 10.613281 2.597656 10.578125 C 2.566406 10.542969 2.558594 10.484375 2.570312 10.425781 C 2.484375 10.390625 2.476562 10.261719 2.523438 10.164062 C 2.457031 10.085938 2.480469 9.90625 2.570312 9.839844 C 2.570312 9.832031 2.574219 9.828125 2.578125 9.820312 C 2.582031 9.789062 2.589844 9.757812 2.605469 9.734375 C 2.589844 9.699219 2.585938 9.65625 2.59375 9.613281 C 2.566406 9.585938 2.558594 9.539062 2.566406 9.492188 C 2.5625 9.460938 2.5625 9.433594 2.570312 9.410156 C 2.53125 9.367188 2.535156 9.289062 2.570312 9.226562 C 2.578125 9.191406 2.589844 9.160156 2.613281 9.136719 C 2.617188 9.128906 2.621094 9.121094 2.625 9.113281 C 2.546875 9.074219 2.523438 8.914062 2.589844 8.84375 C 2.53125 8.785156 2.542969 8.644531 2.609375 8.578125 C 2.59375 8.527344 2.605469 8.464844 2.636719 8.429688 C 2.636719 8.417969 2.636719 8.40625 2.636719 8.394531 C 2.542969 8.371094 2.523438 8.21875 2.574219 8.113281 C 2.527344 8.035156 2.539062 7.894531 2.601562 7.816406 C 2.59375 7.75 2.621094 7.664062 2.667969 7.609375 C 2.621094 7.527344 2.617188 7.402344 2.675781 7.332031 C 2.679688 7.324219 2.679688 7.316406 2.683594 7.308594 C 2.683594 7.304688 2.679688 7.296875 2.683594 7.292969 C 2.683594 7.261719 2.691406 7.230469 2.707031 7.207031 C 2.621094 7.113281 2.703125 6.875 2.839844 6.835938 C 2.847656 6.828125 2.851562 6.816406 2.859375 6.804688 C 2.867188 6.792969 2.875 6.785156 2.882812 6.777344 C 2.875 6.71875 2.894531 6.652344 2.9375 6.613281 C 2.890625 6.542969 2.878906 6.429688 2.917969 6.355469 C 2.914062 6.273438 2.941406 6.183594 3 6.144531 C 3.003906 6.132812 3.003906 6.121094 3.007812 6.109375 C 3.011719 6.085938 3.023438 6.066406 3.035156 6.046875 C 3.035156 6.027344 3.035156 6.003906 3.042969 5.980469 C 3.011719 5.902344 3.046875 5.789062 3.117188 5.722656 C 3.125 5.660156 3.152344 5.597656 3.195312 5.5625 C 3.195312 5.496094 3.214844 5.425781 3.257812 5.382812 C 3.257812 5.335938 3.269531 5.292969 3.296875 5.257812 C 3.292969 5.246094 3.292969 5.234375 3.289062 5.222656 C 3.285156 5.140625 3.335938 5.082031 3.402344 5.070312 C 3.414062 5.039062 3.429688 5.011719 3.453125 4.992188 C 3.457031 4.984375 3.457031 4.972656 3.460938 4.960938 C 3.464844 4.925781 3.484375 4.898438 3.503906 4.878906 C 3.507812 4.785156 3.5625 4.671875 3.648438 4.644531 C 3.652344 4.632812 3.65625 4.621094 3.664062 4.609375 C 3.671875 4.59375 3.683594 4.582031 3.695312 4.570312 C 3.714844 4.539062 3.742188 4.519531 3.773438 4.507812 C 3.796875 4.472656 3.828125 4.449219 3.867188 4.445312 C 3.859375 4.371094 3.875 4.292969 3.921875 4.25 C 3.921875 4.238281 3.921875 4.226562 3.921875 4.214844 C 3.929688 4.136719 3.988281 4.089844 4.050781 4.089844 C 4.066406 4.0625 4.082031 4.042969 4.109375 4.027344 C 4.109375 4.019531 4.113281 4.007812 4.117188 3.996094 C 4.136719 3.929688 4.191406 3.894531 4.242188 3.898438 C 4.253906 3.878906 4.269531 3.867188 4.285156 3.855469 C 4.289062 3.839844 4.292969 3.824219 4.300781 3.8125 C 4.304688 3.796875 4.3125 3.785156 4.316406 3.769531 C 4.316406 3.765625 4.316406 3.757812 4.316406 3.753906 C 4.316406 3.683594 4.355469 3.632812 4.40625 3.617188 C 4.429688 3.542969 4.5 3.507812 4.5625 3.53125 Z M 7.46875 10.355469 C 7.46875 10.355469 7.5 10.359375 7.5 10.359375 C 7.507812 10.355469 7.511719 10.351562 7.515625 10.339844 C 7.5 10.347656 7.484375 10.355469 7.46875 10.355469 Z M 5.464844 11.679688 C 5.472656 11.679688 5.472656 11.671875 5.480469 11.664062 C 5.464844 11.667969 5.449219 11.671875 5.433594 11.675781 C 5.445312 11.675781 5.464844 11.679688 5.464844 11.679688 Z M 3.304688 12.609375 Z M 2.855469 11.6875 C 2.855469 11.6875 2.855469 11.691406 2.851562 11.691406 C 2.851562 11.691406 2.855469 11.691406 2.859375 11.691406 Z M 10.234375 3.789062 C 10.242188 3.796875 10.25 3.808594 10.253906 3.816406 C 10.253906 3.808594 10.25 3.800781 10.246094 3.792969 C 10.246094 3.792969 10.246094 3.792969 10.242188 3.792969 C 10.242188 3.792969 10.238281 3.789062 10.234375 3.789062 C 10.234375 3.789062 10.234375 3.792969 10.234375 3.792969 Z M 2.667969 8.929688 C 2.667969 8.929688 2.671875 8.925781 2.675781 8.925781 C 2.675781 8.925781 2.671875 8.925781 2.671875 8.929688 Z M 2.691406 8.671875 C 2.691406 8.671875 2.695312 8.671875 2.695312 8.667969 C 2.695312 8.667969 2.695312 8.671875 2.691406 8.671875 Z M 2.878906 7.003906 C 2.878906 7.003906 2.875 7.003906 2.871094 7.003906 C 2.875 7.003906 2.878906 7.003906 2.882812 7.003906 Z M 2.878906 7.003906 " fill-opacity="1" fill-rule="nonzero"/></g></g></g></g><g clip-path="url(#264b9200ec)"><g clip-path="url(#c7ef7c3ae6)"><g clip-path="url(#03ed3efcba)"><g clip-path="url(#d827a33277)"><path fill="#487e5c" d="M 8.199219 16.0625 C 8.199219 16.0625 8.199219 16.054688 8.203125 16.050781 C 8.226562 16.003906 8.269531 15.984375 8.3125 15.988281 C 8.3125 15.984375 8.3125 15.980469 8.316406 15.980469 C 8.367188 15.859375 8.511719 15.851562 8.570312 15.960938 C 8.640625 15.933594 8.71875 15.929688 8.773438 15.972656 C 8.84375 16.027344 8.871094 16.09375 8.867188 16.160156 C 8.875 16.160156 8.886719 16.15625 8.894531 16.160156 C 8.910156 16.164062 8.929688 16.167969 8.949219 16.183594 C 8.953125 16.179688 8.960938 16.179688 8.964844 16.179688 C 8.996094 16.117188 9.0625 16.097656 9.113281 16.128906 C 9.144531 16.125 9.175781 16.132812 9.203125 16.152344 C 9.226562 16.148438 9.25 16.152344 9.273438 16.160156 C 9.328125 16.136719 9.382812 16.132812 9.433594 16.15625 C 9.441406 16.160156 9.445312 16.164062 9.453125 16.167969 C 9.488281 16.160156 9.523438 16.171875 9.554688 16.195312 C 9.566406 16.195312 9.574219 16.195312 9.582031 16.199219 C 9.597656 16.207031 9.609375 16.214844 9.621094 16.222656 C 9.679688 16.203125 9.742188 16.203125 9.792969 16.234375 C 9.84375 16.269531 9.871094 16.3125 9.886719 16.355469 C 9.90625 16.359375 9.929688 16.363281 9.945312 16.375 C 9.953125 16.375 9.960938 16.378906 9.972656 16.378906 C 10.019531 16.332031 10.085938 16.304688 10.148438 16.320312 C 10.230469 16.339844 10.28125 16.386719 10.304688 16.445312 C 10.332031 16.445312 10.355469 16.449219 10.382812 16.464844 C 10.429688 16.488281 10.460938 16.523438 10.480469 16.5625 C 10.535156 16.574219 10.574219 16.605469 10.597656 16.644531 C 10.65625 16.613281 10.730469 16.632812 10.765625 16.699219 C 10.765625 16.699219 10.769531 16.699219 10.769531 16.699219 C 10.832031 16.679688 10.902344 16.679688 10.953125 16.71875 C 10.988281 16.75 11.011719 16.78125 11.023438 16.816406 C 11.023438 16.816406 11.027344 16.816406 11.027344 16.816406 C 11.078125 16.835938 11.109375 16.867188 11.125 16.902344 C 11.144531 16.902344 11.164062 16.90625 11.179688 16.914062 C 11.246094 16.863281 11.339844 16.878906 11.378906 16.960938 C 11.445312 16.941406 11.519531 16.945312 11.570312 16.988281 C 11.578125 16.996094 11.582031 17 11.585938 17.007812 C 11.589844 17.007812 11.589844 17.007812 11.589844 17.007812 C 11.714844 17.03125 11.769531 17.125 11.773438 17.222656 C 11.777344 17.226562 11.78125 17.230469 11.785156 17.234375 C 11.847656 17.195312 11.925781 17.214844 11.960938 17.28125 C 11.964844 17.28125 11.96875 17.28125 11.972656 17.285156 C 11.976562 17.289062 11.980469 17.292969 11.984375 17.296875 C 12.03125 17.289062 12.074219 17.292969 12.113281 17.3125 C 12.132812 17.316406 12.152344 17.320312 12.171875 17.328125 C 12.226562 17.355469 12.261719 17.394531 12.28125 17.4375 C 12.289062 17.441406 12.296875 17.445312 12.304688 17.453125 C 12.394531 17.476562 12.4375 17.539062 12.449219 17.609375 C 12.472656 17.628906 12.488281 17.648438 12.496094 17.671875 C 12.527344 17.667969 12.558594 17.667969 12.585938 17.6875 C 12.589844 17.691406 12.59375 17.695312 12.597656 17.699219 C 12.636719 17.683594 12.671875 17.675781 12.710938 17.6875 C 12.808594 17.714844 12.855469 17.785156 12.867188 17.867188 C 12.882812 17.863281 12.898438 17.859375 12.917969 17.863281 C 12.960938 17.875 12.992188 17.894531 13.015625 17.917969 C 13.109375 17.941406 13.160156 18.003906 13.175781 18.078125 C 13.214844 18.074219 13.25 18.082031 13.28125 18.101562 C 13.296875 18.117188 13.308594 18.128906 13.324219 18.144531 C 13.363281 18.164062 13.390625 18.195312 13.40625 18.230469 C 13.488281 18.25 13.535156 18.300781 13.554688 18.367188 C 13.59375 18.398438 13.613281 18.4375 13.617188 18.480469 C 13.652344 18.480469 13.6875 18.488281 13.714844 18.511719 C 13.726562 18.523438 13.738281 18.535156 13.746094 18.546875 C 13.75 18.546875 13.75 18.546875 13.753906 18.546875 C 13.777344 18.542969 13.796875 18.539062 13.820312 18.542969 C 13.992188 18.566406 14.042969 18.722656 14.003906 18.855469 C 14.007812 18.859375 14.007812 18.859375 14.011719 18.863281 C 14.015625 18.863281 14.015625 18.867188 14.015625 18.867188 C 14.039062 18.867188 14.0625 18.875 14.082031 18.882812 C 14.117188 18.902344 14.136719 18.929688 14.152344 18.953125 C 14.164062 18.957031 14.175781 18.960938 14.1875 18.96875 C 14.226562 18.996094 14.25 19.03125 14.261719 19.066406 C 14.292969 19.0625 14.324219 19.066406 14.351562 19.082031 C 14.410156 19.117188 14.441406 19.160156 14.449219 19.210938 C 14.46875 19.242188 14.480469 19.273438 14.480469 19.304688 C 14.527344 19.332031 14.554688 19.375 14.5625 19.417969 C 14.601562 19.417969 14.640625 19.429688 14.667969 19.453125 C 14.742188 19.523438 14.746094 19.609375 14.714844 19.679688 C 14.722656 19.683594 14.726562 19.6875 14.730469 19.691406 C 14.757812 19.683594 14.78125 19.683594 14.808594 19.6875 C 14.964844 19.730469 14.996094 19.875 14.941406 19.996094 C 14.953125 19.996094 14.960938 20 14.972656 20.007812 C 14.992188 20.019531 15.007812 20.035156 15.019531 20.050781 C 15.050781 20.054688 15.082031 20.0625 15.105469 20.085938 C 15.167969 20.140625 15.195312 20.203125 15.191406 20.265625 C 15.199219 20.269531 15.210938 20.273438 15.222656 20.28125 C 15.3125 20.339844 15.339844 20.425781 15.324219 20.503906 C 15.335938 20.511719 15.347656 20.515625 15.359375 20.527344 C 15.425781 20.589844 15.445312 20.664062 15.429688 20.730469 C 15.433594 20.777344 15.425781 20.824219 15.402344 20.867188 C 15.40625 20.890625 15.402344 20.910156 15.398438 20.929688 C 15.421875 20.964844 15.425781 21 15.421875 21.035156 C 15.433594 21.039062 15.445312 21.042969 15.453125 21.054688 C 15.542969 21.128906 15.523438 21.230469 15.460938 21.292969 C 15.480469 21.296875 15.496094 21.300781 15.515625 21.3125 C 15.542969 21.332031 15.558594 21.355469 15.570312 21.378906 C 15.625 21.433594 15.628906 21.519531 15.589844 21.59375 C 15.589844 21.605469 15.589844 21.621094 15.589844 21.636719 C 15.59375 21.636719 15.59375 21.640625 15.59375 21.644531 C 15.667969 21.632812 15.742188 21.644531 15.789062 21.699219 C 15.882812 21.808594 15.859375 21.929688 15.78125 22.011719 C 15.78125 22.023438 15.773438 22.035156 15.769531 22.046875 C 15.769531 22.046875 15.769531 22.046875 15.769531 22.050781 C 15.859375 22.15625 15.808594 22.273438 15.710938 22.324219 C 15.714844 22.324219 15.714844 22.328125 15.714844 22.328125 C 15.714844 22.328125 15.714844 22.328125 15.71875 22.328125 C 15.734375 22.332031 15.75 22.335938 15.765625 22.34375 C 15.855469 22.390625 15.875 22.476562 15.847656 22.554688 C 15.859375 22.578125 15.867188 22.605469 15.871094 22.628906 C 16.011719 22.707031 16.011719 22.867188 15.933594 22.984375 C 15.957031 23.046875 15.941406 23.117188 15.898438 23.171875 C 15.894531 23.175781 15.894531 23.183594 15.890625 23.191406 C 15.902344 23.242188 15.902344 23.292969 15.890625 23.347656 C 15.890625 23.351562 15.890625 23.351562 15.890625 23.355469 C 15.886719 23.386719 15.882812 23.414062 15.867188 23.441406 C 15.875 23.480469 15.878906 23.519531 15.867188 23.558594 C 15.882812 23.5625 15.894531 23.574219 15.90625 23.582031 C 15.976562 23.640625 15.988281 23.71875 15.96875 23.785156 C 15.984375 23.847656 15.972656 23.921875 15.9375 23.984375 C 15.9375 23.988281 15.9375 23.992188 15.941406 24 C 15.992188 24.082031 15.964844 24.1875 15.890625 24.253906 C 15.90625 24.261719 15.921875 24.269531 15.929688 24.285156 C 16.023438 24.390625 15.980469 24.511719 15.886719 24.574219 C 15.886719 24.59375 15.882812 24.613281 15.875 24.628906 C 15.902344 24.667969 15.90625 24.710938 15.894531 24.753906 C 15.914062 24.785156 15.921875 24.820312 15.921875 24.855469 C 15.953125 24.902344 15.960938 24.953125 15.953125 25.007812 C 15.972656 25.078125 15.957031 25.160156 15.914062 25.226562 C 15.921875 25.277344 15.917969 25.332031 15.898438 25.382812 C 15.882812 25.425781 15.859375 25.460938 15.828125 25.484375 C 15.839844 25.523438 15.835938 25.570312 15.816406 25.613281 C 15.816406 25.632812 15.8125 25.648438 15.808594 25.664062 C 15.8125 25.695312 15.8125 25.726562 15.800781 25.761719 C 15.796875 25.777344 15.789062 25.789062 15.78125 25.800781 C 15.777344 25.824219 15.777344 25.847656 15.765625 25.871094 C 15.761719 25.878906 15.757812 25.890625 15.753906 25.898438 C 15.75 25.921875 15.738281 25.941406 15.722656 25.957031 C 15.722656 25.988281 15.714844 26.023438 15.699219 26.054688 C 15.703125 26.074219 15.699219 26.101562 15.691406 26.125 C 15.6875 26.140625 15.6875 26.160156 15.679688 26.175781 C 15.683594 26.183594 15.683594 26.191406 15.683594 26.199219 C 15.722656 26.253906 15.730469 26.316406 15.707031 26.378906 C 15.714844 26.417969 15.710938 26.457031 15.691406 26.496094 C 15.707031 26.550781 15.703125 26.613281 15.679688 26.671875 C 15.675781 26.6875 15.671875 26.707031 15.664062 26.726562 C 15.671875 26.769531 15.667969 26.816406 15.65625 26.859375 C 15.644531 26.890625 15.632812 26.917969 15.613281 26.9375 C 15.613281 26.9375 15.613281 26.941406 15.613281 26.945312 C 15.601562 26.972656 15.589844 26.996094 15.574219 27.011719 C 15.566406 27.03125 15.558594 27.046875 15.546875 27.0625 C 15.535156 27.089844 15.519531 27.117188 15.496094 27.136719 C 15.488281 27.175781 15.476562 27.214844 15.453125 27.25 C 15.402344 27.324219 15.324219 27.335938 15.25 27.289062 C 15.242188 27.285156 15.238281 27.277344 15.230469 27.269531 C 15.21875 27.285156 15.203125 27.292969 15.1875 27.296875 C 15.136719 27.347656 15.066406 27.351562 15 27.3125 C 14.984375 27.300781 14.972656 27.289062 14.960938 27.273438 C 14.925781 27.292969 14.886719 27.300781 14.839844 27.289062 C 14.828125 27.285156 14.816406 27.28125 14.800781 27.273438 C 14.746094 27.308594 14.679688 27.304688 14.617188 27.265625 C 14.597656 27.253906 14.582031 27.234375 14.566406 27.214844 C 14.53125 27.226562 14.492188 27.226562 14.449219 27.210938 C 14.40625 27.199219 14.367188 27.171875 14.335938 27.136719 C 14.335938 27.136719 14.332031 27.136719 14.332031 27.136719 C 14.261719 27.175781 14.207031 27.148438 14.171875 27.09375 C 14.140625 27.078125 14.117188 27.050781 14.09375 27.023438 C 14.046875 27.035156 13.996094 27.019531 13.953125 26.984375 C 13.921875 26.960938 13.902344 26.921875 13.886719 26.882812 C 13.832031 26.917969 13.777344 26.921875 13.726562 26.890625 C 13.710938 26.886719 13.699219 26.882812 13.683594 26.875 C 13.644531 26.859375 13.613281 26.828125 13.585938 26.789062 C 13.585938 26.789062 13.582031 26.789062 13.582031 26.792969 C 13.535156 26.808594 13.5 26.800781 13.472656 26.777344 C 13.378906 26.847656 13.273438 26.828125 13.199219 26.738281 C 13.171875 26.703125 13.15625 26.65625 13.144531 26.605469 C 13.109375 26.597656 13.082031 26.585938 13.066406 26.566406 C 13.046875 26.5625 13.027344 26.554688 13.007812 26.546875 C 12.988281 26.535156 12.96875 26.519531 12.953125 26.5 C 12.898438 26.527344 12.835938 26.515625 12.785156 26.46875 C 12.773438 26.460938 12.765625 26.449219 12.753906 26.433594 C 12.738281 26.429688 12.722656 26.421875 12.707031 26.410156 C 12.625 26.472656 12.53125 26.460938 12.460938 26.386719 C 12.429688 26.355469 12.410156 26.308594 12.402344 26.261719 C 12.402344 26.261719 12.398438 26.261719 12.398438 26.261719 C 12.335938 26.257812 12.300781 26.21875 12.289062 26.171875 C 12.246094 26.160156 12.222656 26.113281 12.21875 26.0625 C 12.15625 26.125 12.070312 26.132812 11.988281 26.082031 C 11.949219 26.058594 11.921875 26.023438 11.894531 25.980469 C 11.894531 25.980469 11.890625 25.980469 11.886719 25.976562 C 11.875 25.980469 11.863281 25.980469 11.851562 25.980469 C 11.808594 25.992188 11.757812 25.984375 11.707031 25.957031 C 11.703125 25.953125 11.703125 25.953125 11.699219 25.949219 C 11.664062 25.933594 11.632812 25.898438 11.613281 25.851562 C 11.613281 25.851562 11.609375 25.851562 11.609375 25.851562 C 11.609375 25.851562 11.609375 25.851562 11.605469 25.851562 C 11.519531 25.875 11.46875 25.816406 11.449219 25.738281 C 11.398438 25.738281 11.363281 25.699219 11.34375 25.648438 C 11.332031 25.644531 11.320312 25.636719 11.3125 25.628906 C 11.273438 25.621094 11.242188 25.589844 11.222656 25.546875 C 11.210938 25.535156 11.203125 25.523438 11.191406 25.511719 C 11.183594 25.511719 11.171875 25.503906 11.164062 25.5 C 11.136719 25.507812 11.109375 25.503906 11.089844 25.492188 C 11.042969 25.5 10.988281 25.488281 10.9375 25.457031 C 10.914062 25.441406 10.894531 25.417969 10.875 25.390625 C 10.859375 25.386719 10.839844 25.378906 10.824219 25.367188 C 10.820312 25.363281 10.816406 25.359375 10.8125 25.359375 C 10.761719 25.359375 10.71875 25.320312 10.691406 25.265625 C 10.617188 25.28125 10.566406 25.21875 10.546875 25.140625 C 10.515625 25.136719 10.488281 25.125 10.460938 25.101562 C 10.4375 25.085938 10.421875 25.0625 10.40625 25.035156 C 10.367188 25.035156 10.332031 25.019531 10.296875 24.996094 C 10.253906 24.972656 10.222656 24.929688 10.199219 24.882812 C 10.085938 24.902344 10.035156 24.8125 10.03125 24.707031 C 10.023438 24.683594 10.019531 24.65625 10.019531 24.632812 C 9.996094 24.609375 9.980469 24.574219 9.976562 24.539062 C 9.933594 24.546875 9.890625 24.535156 9.855469 24.496094 C 9.84375 24.484375 9.835938 24.46875 9.828125 24.449219 C 9.800781 24.445312 9.777344 24.4375 9.753906 24.425781 C 9.71875 24.40625 9.6875 24.371094 9.664062 24.332031 C 9.574219 24.355469 9.523438 24.289062 9.511719 24.203125 C 9.503906 24.199219 9.496094 24.191406 9.488281 24.183594 C 9.46875 24.164062 9.453125 24.140625 9.4375 24.113281 C 9.417969 24.101562 9.402344 24.082031 9.390625 24.058594 C 9.3125 24.050781 9.277344 23.984375 9.277344 23.902344 C 9.238281 23.875 9.21875 23.8125 9.226562 23.753906 C 9.1875 23.730469 9.160156 23.691406 9.136719 23.644531 C 9.136719 23.644531 9.136719 23.644531 9.132812 23.644531 C 9.03125 23.664062 8.984375 23.582031 8.980469 23.488281 C 8.902344 23.484375 8.847656 23.390625 8.839844 23.292969 C 8.800781 23.242188 8.789062 23.15625 8.8125 23.09375 C 8.78125 23.070312 8.769531 23.027344 8.769531 22.976562 C 8.761719 22.972656 8.757812 22.96875 8.753906 22.964844 C 8.726562 22.933594 8.710938 22.894531 8.707031 22.851562 C 8.707031 22.851562 8.703125 22.851562 8.703125 22.851562 C 8.609375 22.84375 8.589844 22.753906 8.617188 22.671875 C 8.574219 22.644531 8.542969 22.589844 8.53125 22.53125 C 8.457031 22.515625 8.433594 22.425781 8.449219 22.339844 C 8.4375 22.308594 8.441406 22.269531 8.449219 22.234375 C 8.386719 22.226562 8.359375 22.167969 8.355469 22.101562 C 8.242188 22.078125 8.214844 21.890625 8.273438 21.773438 C 8.230469 21.707031 8.222656 21.601562 8.253906 21.519531 C 8.253906 21.515625 8.25 21.511719 8.25 21.507812 C 8.25 21.507812 8.246094 21.507812 8.246094 21.507812 C 8.160156 21.5 8.125 21.433594 8.125 21.355469 C 8.082031 21.292969 8.070312 21.195312 8.097656 21.113281 C 8.039062 21.066406 8.039062 20.972656 8.074219 20.886719 C 8.046875 20.820312 8.050781 20.730469 8.082031 20.664062 C 8.007812 20.632812 7.988281 20.53125 8.011719 20.441406 C 8 20.398438 8 20.359375 8.007812 20.320312 C 7.917969 20.25 7.949219 20.042969 8.050781 19.96875 C 7.972656 19.917969 7.9375 19.765625 8 19.6875 C 8 19.675781 7.996094 19.667969 7.996094 19.65625 C 7.996094 19.648438 7.996094 19.640625 7.996094 19.632812 C 7.894531 19.625 7.867188 19.503906 7.898438 19.398438 C 7.867188 19.347656 7.867188 19.261719 7.890625 19.195312 C 7.890625 19.125 7.921875 19.042969 7.976562 19.007812 C 7.980469 18.996094 7.980469 18.980469 7.988281 18.964844 C 7.925781 18.949219 7.90625 18.882812 7.910156 18.8125 C 7.863281 18.777344 7.839844 18.699219 7.847656 18.625 C 7.804688 18.554688 7.828125 18.433594 7.890625 18.355469 C 7.894531 18.332031 7.898438 18.308594 7.90625 18.289062 C 7.90625 18.269531 7.910156 18.25 7.914062 18.230469 C 7.910156 18.210938 7.914062 18.191406 7.917969 18.175781 C 7.90625 18.132812 7.902344 18.085938 7.914062 18.046875 C 7.832031 18.003906 7.820312 17.859375 7.875 17.761719 C 7.875 17.753906 7.875 17.746094 7.875 17.738281 C 7.855469 17.683594 7.855469 17.613281 7.871094 17.558594 C 7.863281 17.507812 7.875 17.453125 7.894531 17.40625 C 7.890625 17.363281 7.898438 17.320312 7.914062 17.277344 C 7.90625 17.253906 7.90625 17.222656 7.910156 17.195312 C 7.910156 17.191406 7.910156 17.1875 7.910156 17.1875 C 7.847656 17.109375 7.871094 16.945312 7.953125 16.871094 C 7.953125 16.867188 7.953125 16.867188 7.957031 16.863281 C 7.867188 16.804688 7.875 16.613281 7.964844 16.542969 C 7.964844 16.527344 7.96875 16.511719 7.972656 16.496094 C 7.914062 16.410156 7.933594 16.238281 8.023438 16.183594 C 8.027344 16.171875 8.027344 16.160156 8.03125 16.148438 C 8.054688 16.0625 8.132812 16.027344 8.195312 16.046875 Z M 15.3125 27.203125 C 15.3125 27.203125 15.328125 27.210938 15.332031 27.214844 C 15.339844 27.214844 15.34375 27.214844 15.351562 27.207031 C 15.335938 27.207031 15.324219 27.207031 15.308594 27.203125 Z M 15.851562 24.421875 C 15.851562 24.414062 15.851562 24.40625 15.847656 24.398438 C 15.847656 24.398438 15.847656 24.398438 15.847656 24.394531 C 15.84375 24.394531 15.839844 24.390625 15.835938 24.390625 C 15.84375 24.402344 15.847656 24.410156 15.851562 24.421875 Z M 13.34375 26.679688 C 13.351562 26.679688 13.355469 26.679688 13.367188 26.671875 C 13.363281 26.671875 13.355469 26.675781 13.347656 26.671875 C 13.34375 26.671875 13.339844 26.667969 13.335938 26.667969 C 13.339844 26.671875 13.347656 26.675781 13.347656 26.675781 Z M 12.59375 26.316406 C 12.601562 26.316406 12.605469 26.316406 12.617188 26.3125 C 12.601562 26.308594 12.585938 26.300781 12.570312 26.296875 C 12.578125 26.304688 12.59375 26.316406 12.59375 26.316406 Z M 12.097656 25.980469 C 12.097656 25.980469 12.105469 25.976562 12.109375 25.972656 C 12.105469 25.972656 12.101562 25.96875 12.097656 25.964844 C 12.09375 25.964844 12.089844 25.964844 12.082031 25.964844 C 12.082031 25.964844 12.078125 25.96875 12.078125 25.96875 C 12.085938 25.972656 12.09375 25.976562 12.09375 25.976562 Z M 15.148438 20.433594 C 15.148438 20.433594 15.152344 20.433594 15.152344 20.433594 C 15.152344 20.433594 15.152344 20.433594 15.148438 20.433594 Z M 15.035156 20.242188 C 15.035156 20.242188 15.039062 20.25 15.039062 20.253906 C 15.039062 20.25 15.035156 20.242188 15.035156 20.238281 C 15.035156 20.238281 15.035156 20.242188 15.03125 20.242188 Z M 14.8125 19.859375 C 14.8125 19.859375 14.816406 19.859375 14.816406 19.859375 C 14.816406 19.859375 14.816406 19.855469 14.8125 19.855469 Z M 9.949219 24.453125 C 9.949219 24.453125 9.953125 24.449219 9.957031 24.449219 C 9.957031 24.449219 9.953125 24.445312 9.957031 24.445312 C 9.949219 24.445312 9.949219 24.445312 9.941406 24.445312 C 9.945312 24.449219 9.949219 24.453125 9.949219 24.453125 Z M 14.589844 19.578125 C 14.589844 19.578125 14.59375 19.578125 14.597656 19.578125 C 14.597656 19.578125 14.597656 19.574219 14.597656 19.574219 C 14.597656 19.574219 14.597656 19.574219 14.59375 19.570312 C 14.59375 19.570312 14.589844 19.570312 14.585938 19.566406 C 14.589844 19.570312 14.589844 19.574219 14.589844 19.578125 Z M 13.835938 18.722656 C 13.835938 18.722656 13.84375 18.726562 13.84375 18.726562 C 13.84375 18.722656 13.839844 18.722656 13.835938 18.71875 C 13.835938 18.71875 13.835938 18.722656 13.835938 18.722656 Z M 12.675781 17.839844 Z M 10.324219 16.621094 C 10.324219 16.621094 10.328125 16.617188 10.328125 16.617188 C 10.324219 16.617188 10.320312 16.617188 10.316406 16.613281 C 10.316406 16.617188 10.320312 16.621094 10.324219 16.621094 Z M 10.324219 16.621094 " fill-opacity="1" fill-rule="nonzero"/></g></g></g></g></svg>