<svg xmlns="http://www.w3.org/2000/svg" xmlns:xlink="http://www.w3.org/1999/xlink" width="170" zoomAndPan="magnify" viewBox="0 0 127.5 48.75" height="65" preserveAspectRatio="xMidYMid meet" version="1.0"><defs><clipPath id="bf9417210d"><path d="M 0.078125 0 L 126.925781 0 L 126.925781 48.5 L 0.078125 48.5 Z M 0.078125 0 " clip-rule="nonzero"/></clipPath></defs><g clip-path="url(#bf9417210d)"><path fill="#663012" d="M 126.371094 9.765625 L 126.359375 9.726562 C 123.765625 2.535156 114.617188 0.0078125 109.007812 0.949219 L 12.640625 18.128906 C 5.523438 19.382812 0.109375 25.550781 0.574219 31.878906 C 0.671875 33.214844 1.132812 34.917969 2.539062 36.5625 L 1.246094 37.023438 L 1.230469 37.273438 C 1.222656 37.386719 1.085938 40.058594 2.921875 41.308594 C 3.355469 41.601562 3.792969 41.808594 4.230469 41.964844 C 4.839844 43.457031 5.835938 44.78125 7.167969 45.824219 C 9.136719 47.363281 11.675781 48.183594 14.378906 48.183594 C 15.164062 48.183594 15.964844 48.117188 16.769531 47.972656 L 21.214844 47.191406 C 22.308594 47.984375 23.226562 48.5 23.921875 48.5 C 24 48.5 24.074219 48.496094 24.144531 48.480469 C 24.441406 48.425781 24.683594 48.261719 24.839844 48.003906 C 25.144531 47.5 25.195312 46.980469 25.175781 46.496094 L 111.996094 31.226562 C 116.808594 30.378906 120.800781 27.175781 122.5625 23.230469 C 123.355469 23.058594 123.96875 22.367188 124.476562 20.625 C 124.929688 19.0625 125.128906 17.613281 125.125 16.351562 C 126.449219 14.152344 126.878906 11.882812 126.367188 9.769531 Z M 126.371094 9.765625 " fill-opacity="1" fill-rule="nonzero"/></g><path fill="#fffeee" d="M 114.316406 23.574219 C 114.441406 23.554688 114.5625 23.523438 114.6875 23.5 C 114.484375 24.269531 114.675781 25.125 114.816406 25.742188 C 114.84375 25.855469 114.867188 25.957031 114.886719 26.0625 C 114.640625 26.269531 113.285156 26.238281 112.472656 26.222656 C 111.347656 26.195312 110.183594 26.171875 109.480469 26.425781 C 108.339844 26.839844 108.230469 27.4375 108.105469 28.132812 C 108.027344 28.554688 107.941406 29.03125 107.621094 29.667969 C 107.496094 29.914062 107.332031 30.066406 107.101562 30.136719 C 106.074219 30.46875 103.878906 29.296875 101.097656 27.8125 C 100.769531 27.636719 100.433594 27.457031 100.085938 27.273438 C 99.226562 26.820312 98.535156 26.554688 97.960938 26.453125 L 114.320312 23.574219 Z M 63.664062 33.015625 C 64.660156 33.355469 65.625 33.652344 66.554688 33.941406 C 69.210938 34.769531 70.617188 35.226562 71.042969 35.847656 C 71.246094 36.140625 72.882812 36.722656 74.492188 36.703125 C 75.367188 36.695312 75.996094 36.496094 76.222656 36.15625 C 76.476562 35.765625 76.789062 35.003906 77.113281 34.195312 C 77.808594 32.472656 78.527344 30.6875 79.488281 30.417969 C 79.699219 30.363281 80.023438 30.347656 80.371094 30.605469 C 80.617188 30.789062 80.867188 31 81.132812 31.21875 C 82.621094 32.453125 83.65625 33.1875 84.5 32.199219 C 85.972656 30.472656 86.59375 30.070312 88.875 30.386719 C 89.582031 30.484375 90.191406 30.75 90.730469 30.984375 C 91.945312 31.511719 92.746094 31.859375 94.054688 30.414062 C 94.660156 29.738281 95.011719 29.003906 95.320312 28.355469 C 95.644531 27.671875 95.941406 27.070312 96.441406 26.714844 L 62.457031 32.691406 C 62.800781 32.742188 63.195312 32.847656 63.664062 33.007812 Z M 14.355469 41.152344 C 14.171875 41.160156 13.984375 41.164062 13.796875 41.164062 C 11.011719 41.164062 7.992188 40.375 5.605469 39.015625 C 4.585938 38.4375 3.769531 37.808594 3.109375 37.164062 L 1.984375 37.5625 C 2 38.191406 2.15625 39.863281 3.351562 40.679688 C 4.28125 41.3125 5.296875 41.5 6.277344 41.683594 C 6.980469 41.816406 7.714844 41.953125 8.402344 42.25 C 9.167969 42.582031 9.648438 43.140625 10.074219 43.628906 C 10.613281 44.261719 11.042969 44.757812 11.921875 44.757812 C 12.625 44.757812 13.527344 44.484375 14.402344 44.222656 C 15.347656 43.933594 16.253906 43.660156 17.035156 43.660156 C 17.40625 43.660156 17.746094 43.722656 18.046875 43.875 C 18.492188 44.097656 19.171875 44.640625 19.960938 45.269531 C 21.265625 46.308594 23.234375 47.878906 24.019531 47.734375 C 24.101562 47.71875 24.15625 47.683594 24.199219 47.609375 C 24.5 47.117188 24.445312 46.574219 24.390625 45.996094 C 24.300781 45.074219 24.1875 43.925781 25.90625 43.320312 C 26.984375 42.9375 27.867188 43.054688 28.722656 43.167969 C 29.863281 43.320312 30.847656 43.453125 32.242188 42.40625 C 34.789062 40.488281 37.605469 39.453125 38.960938 39.453125 C 39.359375 39.453125 40.050781 39.6875 41.007812 40.007812 C 42.898438 40.644531 46.054688 41.710938 47.191406 40.707031 C 47.78125 40.179688 48.289062 39.636719 48.777344 39.113281 C 49.789062 38.027344 50.660156 37.089844 51.8125 36.917969 C 52.535156 36.808594 52.917969 37.289062 53.230469 37.671875 C 53.742188 38.3125 54.226562 38.917969 56.742188 36.988281 C 58.273438 35.816406 59.101562 34.828125 59.710938 34.109375 C 60.125 33.609375 60.464844 33.226562 60.835938 32.980469 L 14.386719 41.148438 L 14.359375 41.148438 Z M 119.109375 21.882812 C 119.699219 21.976562 120.222656 22.121094 120.679688 22.242188 C 122.347656 22.699219 123.039062 22.890625 123.757812 20.40625 C 124.019531 19.503906 124.203125 18.523438 124.292969 17.5625 C 122.960938 19.292969 121.144531 20.789062 119.109375 21.882812 Z M 119.109375 21.882812 " fill-opacity="1" fill-rule="nonzero"/><path fill="#f9eccb" d="M 72.9375 37.324219 L 25.117188 45.734375 C 25.046875 44.921875 25.074219 44.414062 26.15625 44.03125 C 27.0625 43.710938 27.816406 43.8125 28.621094 43.921875 C 29.816406 44.078125 31.050781 44.246094 32.6875 43.011719 C 35.226562 41.101562 37.929688 40.210938 38.953125 40.210938 C 39.230469 40.210938 39.976562 40.460938 40.765625 40.730469 C 43.070312 41.503906 46.222656 42.566406 47.679688 41.28125 C 48.300781 40.730469 48.84375 40.148438 49.324219 39.636719 C 50.273438 38.613281 51.027344 37.808594 51.917969 37.671875 C 52.191406 37.632812 52.328125 37.769531 52.636719 38.152344 C 53.40625 39.109375 54.332031 39.789062 57.195312 37.597656 C 58.792969 36.375 59.652344 35.351562 60.28125 34.601562 C 61.304688 33.382812 61.546875 33.09375 63.421875 33.734375 C 64.425781 34.078125 65.441406 34.390625 66.335938 34.671875 C 68.203125 35.25 70.128906 35.847656 70.429688 36.28125 C 70.75 36.746094 71.816406 37.128906 72.941406 37.324219 Z M 7.628906 45.222656 C 10.003906 47.085938 13.289062 47.816406 16.640625 47.226562 L 20.382812 46.566406 C 20.09375 46.34375 19.796875 46.105469 19.488281 45.859375 C 18.761719 45.28125 18.078125 44.738281 17.703125 44.550781 C 17.03125 44.210938 15.800781 44.582031 14.609375 44.941406 C 13.683594 45.222656 12.730469 45.511719 11.914062 45.511719 C 10.691406 45.511719 10.082031 44.804688 9.496094 44.121094 C 9.089844 43.652344 8.703125 43.203125 8.101562 42.945312 C 7.484375 42.679688 6.828125 42.554688 6.132812 42.425781 C 5.820312 42.367188 5.503906 42.308594 5.183594 42.234375 C 5.753906 43.375 6.578125 44.390625 7.628906 45.21875 Z M 115.550781 25.574219 C 115.578125 25.703125 115.605469 25.816406 115.625 25.921875 C 115.671875 26.152344 115.621094 26.363281 115.476562 26.535156 C 115.078125 27.015625 114.066406 27.015625 112.449219 26.980469 C 111.441406 26.957031 110.304688 26.933594 109.730469 27.140625 C 108.996094 27.40625 108.957031 27.625 108.839844 28.273438 C 108.761719 28.699219 108.65625 29.277344 108.285156 30.011719 C 108.070312 30.441406 107.746094 30.730469 107.324219 30.863281 C 105.996094 31.289062 103.90625 30.171875 100.738281 28.484375 C 100.410156 28.308594 100.078125 28.128906 99.730469 27.945312 C 98.480469 27.285156 97.621094 27.046875 97.105469 27.214844 C 96.621094 27.378906 96.347656 27.957031 95.996094 28.691406 C 95.679688 29.351562 95.289062 30.171875 94.605469 30.929688 C 92.9375 32.777344 91.660156 32.226562 90.425781 31.6875 C 89.90625 31.460938 89.367188 31.230469 88.765625 31.144531 C 86.796875 30.871094 86.40625 31.128906 85.0625 32.699219 C 83.679688 34.328125 81.925781 32.871094 80.648438 31.8125 C 80.390625 31.597656 80.144531 31.394531 79.914062 31.222656 C 79.804688 31.140625 79.738281 31.144531 79.683594 31.15625 C 79.082031 31.328125 78.316406 33.226562 77.804688 34.484375 C 77.449219 35.367188 77.144531 36.128906 76.839844 36.582031 C 76.824219 36.605469 76.804688 36.625 76.789062 36.648438 L 111.859375 30.476562 C 116.292969 29.699219 119.996094 26.824219 121.726562 23.25 C 121.347656 23.207031 120.929688 23.101562 120.472656 22.976562 C 119.695312 22.765625 118.808594 22.523438 117.75 22.53125 C 117.046875 22.832031 116.324219 23.085938 115.589844 23.285156 C 115.167969 23.910156 115.386719 24.867188 115.542969 25.570312 Z M 1.324219 31.824219 C 0.890625 25.871094 6.023438 20.066406 12.769531 18.878906 L 109.132812 1.695312 C 109.855469 1.574219 110.621094 1.515625 111.40625 1.515625 C 113.730469 1.515625 116.257812 2.03125 118.515625 3 C 121 4.0625 124.25 6.132812 125.640625 9.964844 C 126.125 11.984375 125.648438 14.175781 124.269531 16.304688 C 122.152344 19.5625 118.191406 22.125 114.183594 22.832031 L 14.300781 40.398438 C 9.128906 40.585938 1.757812 37.71875 1.324219 31.824219 Z M 110.980469 12.28125 C 112.652344 15.8125 114.503906 18.4375 115.109375 18.144531 C 115.71875 17.851562 114.855469 14.753906 113.183594 11.226562 C 111.507812 7.695312 109.65625 5.066406 109.050781 5.363281 C 108.441406 5.65625 109.304688 8.753906 110.980469 12.28125 Z M 104.679688 13.453125 C 106.746094 18.046875 108.890625 21.53125 109.46875 21.238281 C 110.046875 20.949219 108.839844 16.988281 106.769531 12.394531 C 104.703125 7.800781 102.558594 4.316406 101.980469 4.605469 C 101.402344 4.898438 102.609375 8.859375 104.679688 13.453125 Z M 98.269531 14.621094 C 100.445312 19.214844 102.707031 22.703125 103.316406 22.410156 C 103.925781 22.121094 102.648438 18.15625 100.472656 13.5625 C 98.292969 8.96875 96.035156 5.480469 95.425781 5.773438 C 94.816406 6.066406 96.089844 10.027344 98.269531 14.621094 Z M 91.914062 15.789062 C 94.09375 20.382812 96.351562 23.871094 96.960938 23.582031 C 97.570312 23.289062 96.296875 19.328125 94.117188 14.734375 C 91.941406 10.140625 89.679688 6.652344 89.070312 6.941406 C 88.464844 7.234375 89.738281 11.195312 91.914062 15.789062 Z M 85.558594 16.960938 C 87.738281 21.554688 89.996094 25.042969 90.605469 24.75 C 91.214844 24.457031 89.941406 20.496094 87.761719 15.902344 C 85.585938 11.308594 83.328125 7.820312 82.714844 8.113281 C 82.109375 8.402344 83.382812 12.367188 85.558594 16.960938 Z M 79.207031 18.128906 C 81.382812 22.722656 83.640625 26.210938 84.25 25.917969 C 84.859375 25.628906 83.585938 21.664062 81.410156 17.070312 C 79.230469 12.476562 76.972656 8.988281 76.363281 9.28125 C 75.75 9.574219 77.027344 13.535156 79.207031 18.128906 Z M 72.851562 19.300781 C 75.027344 23.894531 77.285156 27.382812 77.898438 27.089844 C 78.507812 26.796875 77.230469 22.835938 75.054688 18.242188 C 72.875 13.648438 70.617188 10.160156 70.007812 10.449219 C 69.398438 10.742188 70.671875 14.707031 72.851562 19.300781 Z M 66.496094 20.46875 C 68.671875 25.0625 70.933594 28.550781 71.542969 28.257812 C 72.152344 27.96875 70.875 24.003906 68.699219 19.410156 C 66.519531 14.816406 64.261719 11.328125 63.652344 11.621094 C 63.046875 11.914062 64.316406 15.875 66.496094 20.46875 Z M 60.140625 21.636719 C 62.320312 26.230469 64.578125 29.71875 65.1875 29.429688 C 65.796875 29.136719 64.523438 25.175781 62.34375 20.578125 C 60.167969 15.984375 57.90625 12.5 57.296875 12.789062 C 56.691406 13.082031 57.964844 17.042969 60.140625 21.636719 Z M 53.785156 22.808594 C 55.964844 27.402344 58.222656 30.890625 58.832031 30.597656 C 59.441406 30.304688 58.167969 26.34375 55.988281 21.75 C 53.8125 17.15625 51.554688 13.667969 50.941406 13.960938 C 50.332031 14.25 51.609375 18.214844 53.785156 22.808594 Z M 47.433594 23.976562 C 49.609375 28.570312 51.867188 32.058594 52.476562 31.765625 C 53.089844 31.476562 51.8125 27.511719 49.636719 22.917969 C 47.457031 18.324219 45.199219 14.835938 44.589844 15.128906 C 43.976562 15.421875 45.253906 19.382812 47.433594 23.976562 Z M 41.078125 25.144531 C 43.253906 29.738281 45.511719 33.226562 46.125 32.9375 C 46.734375 32.644531 45.457031 28.683594 43.28125 24.089844 C 41.101562 19.496094 38.84375 16.007812 38.234375 16.296875 C 37.625 16.589844 38.898438 20.550781 41.078125 25.144531 Z M 34.722656 26.316406 C 36.898438 30.910156 39.160156 34.398438 39.769531 34.105469 C 40.375 33.8125 39.101562 29.851562 36.925781 25.257812 C 34.746094 20.664062 32.488281 17.175781 31.878906 17.46875 C 31.273438 17.757812 32.542969 21.722656 34.722656 26.316406 Z M 28.367188 27.484375 C 30.546875 32.078125 32.804688 35.566406 33.414062 35.273438 C 34.023438 34.984375 32.75 31.019531 30.570312 26.425781 C 28.394531 21.832031 26.132812 18.34375 25.523438 18.636719 C 24.914062 18.929688 26.191406 22.890625 28.367188 27.484375 Z M 22.050781 28.648438 C 24.15625 33.175781 26.339844 36.613281 26.925781 36.324219 C 27.511719 36.039062 26.28125 32.132812 24.179688 27.605469 C 22.074219 23.074219 19.890625 19.636719 19.304688 19.925781 C 18.714844 20.210938 19.945312 24.117188 22.050781 28.648438 Z M 15.660156 29.824219 C 17.226562 33.132812 18.992188 35.578125 19.601562 35.289062 C 20.207031 34.996094 19.429688 32.078125 17.863281 28.765625 C 16.292969 25.457031 14.527344 23.011719 13.917969 23.300781 C 13.3125 23.59375 14.089844 26.511719 15.660156 29.824219 Z M 15.660156 29.824219 " fill-opacity="1" fill-rule="nonzero"/><path fill="#e9d0a3" d="M 13.917969 23.285156 C 14.523438 22.996094 16.292969 25.441406 17.859375 28.75 C 19.425781 32.0625 20.207031 34.980469 19.597656 35.273438 C 18.988281 35.5625 17.222656 33.117188 15.65625 29.808594 C 14.089844 26.5 13.304688 23.578125 13.917969 23.285156 Z M 22.046875 28.632812 C 24.152344 33.160156 26.335938 36.597656 26.921875 36.308594 C 27.511719 36.023438 26.28125 32.117188 24.175781 27.589844 C 22.070312 23.0625 19.886719 19.621094 19.300781 19.910156 C 18.714844 20.195312 19.945312 24.101562 22.046875 28.632812 Z M 28.363281 27.46875 C 30.542969 32.0625 32.800781 35.550781 33.410156 35.261719 C 34.019531 34.96875 32.746094 31.003906 30.566406 26.410156 C 28.390625 21.816406 26.132812 18.328125 25.523438 18.621094 C 24.910156 18.914062 26.1875 22.875 28.363281 27.46875 Z M 34.71875 26.300781 C 36.898438 30.894531 39.15625 34.382812 39.765625 34.089844 C 40.375 33.796875 39.101562 29.835938 36.921875 25.242188 C 34.746094 20.648438 32.488281 17.160156 31.875 17.453125 C 31.269531 17.742188 32.542969 21.707031 34.71875 26.300781 Z M 41.074219 25.132812 C 43.253906 29.726562 45.511719 33.210938 46.121094 32.921875 C 46.730469 32.628906 45.457031 28.667969 43.277344 24.074219 C 41.101562 19.480469 38.839844 15.992188 38.230469 16.28125 C 37.625 16.574219 38.898438 20.535156 41.074219 25.132812 Z M 47.429688 23.960938 C 49.605469 28.554688 51.867188 32.042969 52.476562 31.75 C 53.085938 31.460938 51.808594 27.496094 49.632812 22.902344 C 47.453125 18.308594 45.195312 14.820312 44.585938 15.113281 C 43.976562 15.40625 45.25 19.367188 47.429688 23.960938 Z M 53.785156 22.792969 C 55.960938 27.386719 58.21875 30.875 58.832031 30.582031 C 59.4375 30.289062 58.164062 26.328125 55.988281 21.734375 C 53.808594 17.140625 51.550781 13.652344 50.941406 13.945312 C 50.332031 14.234375 51.605469 18.199219 53.785156 22.792969 Z M 60.136719 21.621094 C 62.316406 26.214844 64.574219 29.703125 65.183594 29.414062 C 65.792969 29.121094 64.519531 25.160156 62.339844 20.566406 C 60.164062 15.972656 57.90625 12.484375 57.296875 12.773438 C 56.6875 13.066406 57.960938 17.027344 60.136719 21.621094 Z M 66.492188 20.453125 C 68.671875 25.046875 70.929688 28.535156 71.539062 28.242188 C 72.148438 27.953125 70.875 23.988281 68.695312 19.394531 C 66.519531 14.800781 64.261719 11.3125 63.648438 11.605469 C 63.042969 11.898438 64.316406 15.859375 66.492188 20.453125 Z M 72.847656 19.285156 C 75.027344 23.878906 77.285156 27.367188 77.894531 27.074219 C 78.503906 26.78125 77.230469 22.820312 75.050781 18.226562 C 72.875 13.632812 70.613281 10.144531 70.003906 10.4375 C 69.394531 10.726562 70.671875 14.691406 72.847656 19.285156 Z M 79.203125 18.113281 C 81.378906 22.707031 83.640625 26.195312 84.25 25.90625 C 84.855469 25.613281 83.582031 21.652344 81.40625 17.054688 C 79.226562 12.460938 76.96875 8.976562 76.359375 9.265625 C 75.75 9.558594 77.023438 13.519531 79.203125 18.113281 Z M 85.558594 16.945312 C 87.734375 21.539062 89.992188 25.027344 90.605469 24.734375 C 91.210938 24.445312 89.9375 20.480469 87.761719 15.886719 C 85.582031 11.292969 83.324219 7.804688 82.714844 8.097656 C 82.105469 8.390625 83.378906 12.351562 85.558594 16.945312 Z M 91.910156 15.777344 C 94.089844 20.371094 96.347656 23.859375 96.957031 23.566406 C 97.570312 23.273438 96.292969 19.3125 94.113281 14.71875 C 91.9375 10.125 89.679688 6.636719 89.070312 6.925781 C 88.460938 7.21875 89.734375 11.183594 91.910156 15.777344 Z M 98.265625 14.605469 C 100.445312 19.199219 102.703125 22.6875 103.3125 22.394531 C 103.921875 22.105469 102.648438 18.140625 100.46875 13.546875 C 98.292969 8.953125 96.035156 5.464844 95.421875 5.757812 C 94.8125 6.050781 96.089844 10.011719 98.265625 14.605469 Z M 104.675781 13.4375 C 106.742188 18.03125 108.890625 21.515625 109.464844 21.222656 C 110.042969 20.933594 108.835938 16.972656 106.765625 12.378906 C 104.699219 7.785156 102.554688 4.300781 101.976562 4.589844 C 101.398438 4.882812 102.605469 8.84375 104.675781 13.4375 Z M 110.976562 12.265625 C 112.648438 15.796875 114.5 18.425781 115.109375 18.128906 C 115.714844 17.835938 114.851562 14.738281 113.179688 11.210938 C 111.503906 7.679688 109.65625 5.054688 109.046875 5.347656 C 108.441406 5.640625 109.300781 8.738281 110.976562 12.265625 Z M 110.976562 12.265625 " fill-opacity="1" fill-rule="nonzero"/></svg>