<svg xmlns="http://www.w3.org/2000/svg" xmlns:xlink="http://www.w3.org/1999/xlink" width="126" zoomAndPan="magnify" viewBox="0 0 94.5 68.249996" height="91" preserveAspectRatio="xMidYMid meet" version="1.0"><defs><clipPath id="bcfda8a1a7"><path d="M 0.265625 0 L 93.738281 0 L 93.738281 66.765625 L 0.265625 66.765625 Z M 0.265625 0 " clip-rule="nonzero"/></clipPath></defs><g clip-path="url(#bcfda8a1a7)"><path fill="#000000" d="M 48.492188 65.746094 C 40.730469 65.550781 33.898438 63.066406 27.894531 58.203125 C 21.210938 52.75 17.304688 45.644531 16.035156 37.226562 C 14.867188 29.441406 16.523438 22.140625 20.671875 15.378906 C 23.164062 11.289062 26.480469 8.078125 30.335938 5.304688 C 31.261719 4.621094 32.140625 3.894531 33.410156 3.941406 C 33.703125 3.941406 34.046875 3.699219 34.386719 3.550781 C 39.121094 1.070312 44.195312 0 49.515625 0.339844 C 56.984375 0.828125 63.621094 3.457031 69.28125 8.46875 C 74.40625 12.992188 77.820312 18.589844 79.382812 25.257812 C 81.824219 35.671875 79.871094 45.304688 73.285156 53.773438 C 68.550781 59.90625 62.15625 63.554688 54.589844 65.0625 C 52.640625 65.402344 50.539062 65.5 48.492188 65.746094 Z M 18.183594 32.847656 C 18.183594 34.015625 18.085938 35.136719 18.183594 36.304688 C 18.867188 42.09375 20.867188 47.398438 24.429688 52.019531 C 27.652344 56.207031 31.652344 59.417969 36.535156 61.460938 C 41.121094 63.359375 45.808594 64.1875 50.785156 63.699219 C 54.007812 63.359375 57.082031 62.628906 60.007812 61.316406 C 65.914062 58.6875 70.453125 54.550781 73.769531 49.054688 C 77.578125 42.773438 78.992188 35.960938 77.96875 28.710938 C 76.75 20.097656 72.648438 13.042969 65.671875 7.785156 C 61.132812 4.378906 56.007812 2.382812 50.394531 1.898438 C 45.269531 1.460938 40.339844 2.335938 35.605469 4.28125 C 34.777344 4.621094 33.949219 4.867188 33.507812 5.742188 C 33.363281 6.035156 33.019531 6.230469 32.679688 6.375 C 28.433594 8.613281 25.261719 12.019531 22.773438 15.960938 C 19.5 21.121094 17.988281 26.765625 18.183594 32.847656 Z M 3.835938 26.714844 C 3.445312 25.546875 3.347656 24.28125 3.300781 23.066406 C 3.152344 20 3.152344 16.984375 2.957031 13.917969 C 2.859375 12.652344 2.566406 11.386719 2.273438 10.171875 C 2.175781 9.828125 1.835938 9.441406 1.542969 9.34375 C 1.003906 9.199219 0.808594 9.734375 0.664062 10.171875 C 0.613281 10.316406 0.566406 10.511719 0.566406 10.707031 C 0.46875 11.972656 0.320312 13.238281 0.320312 14.5 C 0.371094 17.226562 0.46875 19.953125 0.566406 22.726562 C 0.664062 24.820312 1.054688 26.8125 1.738281 28.808594 C 2.128906 29.929688 2.371094 31.144531 2.371094 32.3125 C 2.421875 35.230469 2.324219 38.152344 2.175781 41.070312 C 2.03125 43.554688 1.835938 46.035156 1.542969 48.515625 C 1.199219 51.484375 0.90625 54.503906 1.347656 57.472656 C 1.6875 59.757812 2.226562 61.996094 3.398438 63.992188 C 4.566406 65.9375 6.8125 66.765625 8.910156 66.035156 C 10.230469 65.597656 11.011719 64.578125 11.449219 63.3125 C 11.9375 61.949219 12.035156 60.585938 12.035156 59.125 C 11.984375 53.628906 11.644531 48.175781 11.15625 42.726562 C 10.960938 40.730469 10.71875 38.785156 10.472656 36.789062 C 9.984375 33.089844 9.839844 29.394531 11.449219 25.839844 C 12.71875 23.113281 13.011719 20.242188 12.863281 17.277344 C 12.765625 15.183594 12.667969 13.140625 12.523438 11.046875 C 12.472656 9.878906 12.375 8.660156 12.277344 7.496094 C 12.230469 7.054688 12.179688 6.519531 11.597656 6.519531 C 11.011719 6.519531 10.960938 7.054688 10.914062 7.496094 C 10.914062 7.542969 10.914062 7.589844 10.914062 7.640625 C 10.816406 10.269531 10.71875 12.945312 10.570312 15.574219 C 10.523438 16.933594 10.425781 18.296875 10.277344 19.660156 C 10.132812 21.316406 9.644531 22.824219 8.765625 24.28125 C 7.496094 26.277344 7.058594 28.515625 7.058594 30.851562 C 7.058594 35.085938 7.933594 39.175781 8.277344 43.359375 C 8.570312 46.570312 8.960938 49.78125 9.253906 52.996094 C 9.449219 55.039062 9.644531 57.035156 9.691406 59.078125 C 9.742188 60.292969 9.644531 61.558594 9.449219 62.777344 C 9.105469 64.578125 7.644531 65.160156 6.179688 64.042969 C 5.59375 63.601562 5.054688 62.921875 4.714844 62.242188 C 4.273438 61.363281 3.980469 60.441406 3.789062 59.515625 C 3.007812 56.402344 3.054688 53.1875 3.542969 50.027344 C 4.324219 45.015625 4.8125 39.953125 4.8125 34.257812 C 4.957031 32.167969 4.714844 29.394531 3.835938 26.714844 Z M 86.800781 40.390625 C 86.605469 41.65625 86.410156 42.921875 86.117188 44.1875 C 85.144531 48.957031 85.242188 53.773438 85.777344 58.542969 C 85.921875 59.660156 86.167969 60.828125 86.507812 61.898438 C 86.996094 63.503906 88.070312 64.722656 89.777344 65.113281 C 91.730469 65.597656 93.683594 65.257812 93.488281 62.582031 C 93.488281 62.339844 93.488281 62.046875 93.488281 61.800781 C 93.390625 56.15625 93.390625 50.511719 93.242188 44.820312 C 93.097656 39.464844 92.902344 34.113281 92.707031 28.808594 C 92.609375 25.0625 92.511719 21.316406 92.367188 17.566406 C 92.269531 15.28125 92.121094 12.992188 92.023438 10.707031 C 91.976562 9.488281 91.925781 8.222656 91.78125 7.007812 C 91.730469 6.277344 91.535156 5.546875 91.390625 4.816406 C 91.339844 4.621094 91.046875 4.527344 90.851562 4.332031 C 90.753906 4.574219 90.65625 4.71875 90.65625 4.816406 C 90.804688 10.316406 90.851562 15.765625 90.558594 21.265625 C 90.316406 25.695312 90.21875 30.121094 90.21875 34.503906 C 90.21875 39.613281 90.316406 44.769531 90.460938 49.878906 C 90.558594 53.628906 90.851562 57.375 91.046875 61.121094 C 91.097656 61.65625 91.144531 62.242188 91.242188 62.875 C 90.21875 62.726562 89.632812 62.191406 89.339844 61.414062 C 89.046875 60.585938 88.804688 59.710938 88.65625 58.835938 C 88.316406 56.351562 88.023438 53.820312 87.777344 51.339844 C 87.632812 49.34375 87.632812 47.347656 87.632812 45.402344 C 87.632812 43.75 87.730469 42.046875 87.777344 40.390625 C 87.777344 40.050781 87.679688 39.757812 87.582031 39.320312 C 86.898438 39.515625 86.851562 39.953125 86.800781 40.390625 Z M 87.191406 21.121094 C 87.679688 16.59375 88.167969 12.070312 88.65625 7.542969 C 88.707031 7.007812 88.707031 6.472656 88.609375 5.9375 C 88.558594 5.695312 88.316406 5.5 88.070312 5.207031 C 87.875 5.597656 87.679688 5.839844 87.632812 6.082031 C 86.949219 8.90625 86.214844 11.726562 85.726562 14.597656 C 84.851562 19.417969 84.117188 24.28125 83.433594 29.101562 C 83.191406 30.753906 83.09375 32.457031 83.042969 34.113281 C 82.996094 35.378906 83.679688 36.109375 84.898438 36.304688 C 85.726562 36.449219 86.558594 36.351562 87.386719 36.351562 C 87.875 36.351562 88.265625 36.15625 88.363281 35.671875 C 88.460938 35.136719 88.265625 34.695312 87.777344 34.453125 C 87.144531 34.113281 86.507812 33.820312 85.777344 33.382812 C 86.265625 29.246094 86.753906 25.207031 87.191406 21.121094 Z M 6.667969 16.546875 C 6.8125 14.40625 6.910156 12.261719 6.960938 10.074219 C 6.960938 9.34375 6.714844 8.613281 6.519531 7.882812 C 6.472656 7.6875 6.128906 7.445312 5.984375 7.445312 C 5.738281 7.496094 5.496094 7.738281 5.300781 7.933594 C 5.203125 8.03125 5.152344 8.273438 5.152344 8.417969 C 5.054688 11.191406 4.957031 13.964844 4.910156 16.742188 C 4.910156 17.324219 5.054688 17.859375 5.691406 18.199219 C 6.472656 17.90625 6.617188 17.179688 6.667969 16.546875 Z M 8.082031 8.371094 C 7.933594 9.050781 7.789062 9.734375 7.742188 10.460938 C 7.691406 12.75 7.742188 15.035156 7.742188 17.324219 C 7.742188 17.566406 7.691406 17.8125 7.789062 17.957031 C 7.933594 18.25 8.226562 18.445312 8.421875 18.6875 C 8.667969 18.445312 9.007812 18.25 9.105469 18.003906 C 9.253906 17.324219 9.253906 16.59375 9.351562 15.914062 C 9.789062 13.332031 9.253906 10.851562 8.960938 8.320312 C 8.960938 8.125 8.714844 7.933594 8.472656 7.640625 C 8.375 7.980469 8.128906 8.175781 8.082031 8.371094 Z M 66.839844 46.863281 C 65.914062 47.789062 65.035156 48.808594 64.011719 49.636719 C 58.640625 54.066406 52.445312 55.671875 45.613281 54.503906 C 40.390625 53.628906 35.898438 51.195312 32.238281 47.398438 C 27.117188 42.140625 24.773438 35.914062 25.652344 28.566406 C 25.699219 28.320312 25.796875 28.03125 25.75 27.785156 C 25.699219 27.25 25.457031 26.863281 24.871094 26.765625 C 24.332031 26.667969 23.894531 26.863281 23.648438 27.398438 C 23.550781 27.59375 23.503906 27.785156 23.453125 28.03125 C 23.113281 30.464844 23.066406 32.898438 23.503906 35.28125 C 25.066406 43.457031 29.652344 49.441406 36.925781 53.382812 C 41.121094 55.671875 45.710938 56.546875 50.492188 56.304688 C 54.835938 56.109375 58.835938 54.796875 62.398438 52.3125 C 64.304688 51 65.914062 49.394531 67.230469 47.445312 C 67.425781 47.15625 67.769531 46.910156 67.28125 46.472656 C 67.183594 46.621094 66.988281 46.71875 66.839844 46.863281 Z M 71.722656 35.230469 C 71.820312 35.085938 71.867188 34.941406 71.917969 34.746094 C 72.84375 32.117188 72.894531 29.488281 72.257812 26.8125 C 71.039062 21.65625 68.0625 17.617188 63.960938 14.40625 C 59.8125 11.191406 55.078125 9.34375 49.859375 8.710938 C 44.292969 8.03125 39.023438 8.953125 34.09375 11.726562 C 31.800781 13.042969 29.800781 14.695312 28.285156 16.886719 C 28.042969 17.226562 27.847656 17.566406 27.699219 17.90625 C 27.457031 18.445312 27.601562 18.882812 28.042969 19.222656 C 28.480469 19.5625 28.96875 19.5625 29.410156 19.222656 C 29.703125 18.980469 29.996094 18.636719 30.191406 18.347656 C 32.386719 15.183594 35.410156 13.089844 39.023438 11.875 C 43.660156 10.316406 48.441406 10.171875 53.175781 11.289062 C 59.8125 12.847656 65.230469 16.300781 68.941406 22.140625 C 70.941406 25.355469 71.867188 28.90625 71.429688 32.75 C 71.378906 33.382812 71.234375 33.96875 71.183594 34.601562 C 71.183594 34.890625 71.234375 35.183594 71.332031 35.574219 C 71.574219 35.328125 71.671875 35.28125 71.722656 35.230469 Z M 71.722656 35.230469 " fill-opacity="1" fill-rule="nonzero"/></g></svg>