<svg xmlns="http://www.w3.org/2000/svg" xmlns:xlink="http://www.w3.org/1999/xlink" width="28" zoomAndPan="magnify" viewBox="0 0 21 20.999999" height="28" preserveAspectRatio="xMidYMid meet" version="1.0"><defs><clipPath id="c8ece12a15"><path d="M 0 0 L 20.25 0 L 20.25 20.25 L 0 20.25 Z M 0 0 " clip-rule="nonzero"/></clipPath></defs><g clip-path="url(#c8ece12a15)"><path fill="#000000" d="M 4.625 0 L 15.917969 0 C 17.195312 0 18.351562 0.519531 19.195312 1.359375 C 20.023438 2.191406 20.554688 3.359375 20.554688 4.625 L 20.554688 15.917969 C 20.554688 17.195312 20.023438 18.351562 19.195312 19.195312 C 18.351562 20.023438 17.195312 20.554688 15.917969 20.554688 L 4.625 20.554688 C 3.359375 20.554688 2.191406 20.023438 1.359375 19.195312 C 0.519531 18.351562 0 17.195312 0 15.917969 L 0 4.625 C 0 3.359375 0.519531 2.191406 1.359375 1.359375 C 2.191406 0.519531 3.359375 0 4.625 0 Z M 15.917969 1.832031 L 4.625 1.832031 C 3.851562 1.832031 3.15625 2.144531 2.648438 2.648438 C 2.144531 3.15625 1.832031 3.851562 1.832031 4.625 L 1.832031 15.917969 C 1.832031 16.6875 2.144531 17.386719 2.648438 17.894531 C 3.15625 18.410156 3.851562 18.722656 4.625 18.722656 L 15.917969 18.722656 C 16.6875 18.722656 17.386719 18.410156 17.894531 17.894531 C 18.410156 17.386719 18.722656 16.6875 18.722656 15.917969 L 18.722656 4.625 C 18.722656 3.851562 18.410156 3.15625 17.894531 2.648438 C 17.386719 2.144531 16.6875 1.832031 15.917969 1.832031 Z M 15.917969 1.832031 " fill-opacity="1" fill-rule="nonzero"/></g><path fill="#000000" d="M 16.039062 3.589844 C 16.292969 3.589844 16.53125 3.683594 16.6875 3.851562 C 16.859375 4.023438 16.964844 4.25 16.964844 4.503906 C 16.964844 4.757812 16.859375 4.996094 16.6875 5.152344 C 16.53125 5.324219 16.292969 5.429688 16.039062 5.429688 C 15.785156 5.429688 15.558594 5.324219 15.390625 5.152344 C 15.21875 4.996094 15.125 4.757812 15.125 4.503906 C 15.125 4.25 15.21875 4.023438 15.390625 3.851562 C 15.558594 3.683594 15.785156 3.589844 16.039062 3.589844 Z M 16.039062 3.589844 " fill-opacity="1" fill-rule="nonzero"/><path fill="#000000" d="M 10.269531 5.285156 C 11.65625 5.285156 12.894531 5.851562 13.800781 6.742188 C 14.703125 7.644531 15.269531 8.898438 15.269531 10.269531 C 15.269531 11.65625 14.703125 12.894531 13.800781 13.800781 C 12.894531 14.703125 11.65625 15.269531 10.269531 15.269531 C 8.898438 15.269531 7.644531 14.703125 6.742188 13.800781 C 5.851562 12.894531 5.285156 11.65625 5.285156 10.269531 C 5.285156 8.898438 5.851562 7.644531 6.742188 6.742188 C 7.644531 5.851562 8.898438 5.285156 10.269531 5.285156 Z M 12.5 8.054688 C 11.933594 7.488281 11.136719 7.128906 10.269531 7.128906 C 9.40625 7.128906 8.621094 7.488281 8.054688 8.054688 C 7.488281 8.621094 7.128906 9.40625 7.128906 10.269531 C 7.128906 11.136719 7.488281 11.933594 8.054688 12.5 C 8.621094 13.066406 9.40625 13.414062 10.269531 13.414062 C 11.136719 13.414062 11.933594 13.066406 12.5 12.5 C 13.066406 11.933594 13.414062 11.136719 13.414062 10.269531 C 13.414062 9.40625 13.066406 8.621094 12.5 8.054688 Z M 12.5 8.054688 " fill-opacity="1" fill-rule="nonzero"/></svg>