<svg xmlns="http://www.w3.org/2000/svg" xmlns:xlink="http://www.w3.org/1999/xlink" width="28" zoomAndPan="magnify" viewBox="0 0 21 20.999999" height="28" preserveAspectRatio="xMidYMid meet" version="1.0"><defs><clipPath id="edaf875c2f"><path d="M 0 0 L 20.25 0 L 20.25 20.25 L 0 20.25 Z M 0 0 " clip-rule="nonzero"/></clipPath></defs><g clip-path="url(#edaf875c2f)"><path fill="#ffffff" d="M 4.554688 0 L 15.683594 0 C 16.941406 0 18.078125 0.511719 18.910156 1.339844 C 19.726562 2.160156 20.25 3.308594 20.25 4.554688 L 20.25 15.683594 C 20.25 16.941406 19.726562 18.078125 18.910156 18.910156 C 18.078125 19.726562 16.941406 20.25 15.683594 20.25 L 4.554688 20.25 C 3.308594 20.25 2.160156 19.726562 1.339844 18.910156 C 0.511719 18.078125 0 16.941406 0 15.683594 L 0 4.554688 C 0 3.308594 0.511719 2.160156 1.339844 1.339844 C 2.160156 0.511719 3.308594 0 4.554688 0 Z M 15.683594 1.804688 L 4.554688 1.804688 C 3.796875 1.804688 3.109375 2.113281 2.609375 2.609375 C 2.113281 3.109375 1.804688 3.796875 1.804688 4.554688 L 1.804688 15.683594 C 1.804688 16.441406 2.113281 17.128906 2.609375 17.628906 C 3.109375 18.136719 3.796875 18.445312 4.554688 18.445312 L 15.683594 18.445312 C 16.441406 18.445312 17.128906 18.136719 17.628906 17.628906 C 18.136719 17.128906 18.445312 16.441406 18.445312 15.683594 L 18.445312 4.554688 C 18.445312 3.796875 18.136719 3.109375 17.628906 2.609375 C 17.128906 2.113281 16.441406 1.804688 15.683594 1.804688 Z M 15.683594 1.804688 " fill-opacity="1" fill-rule="nonzero"/></g><path fill="#ffffff" d="M 15.800781 3.535156 C 16.050781 3.535156 16.289062 3.628906 16.441406 3.796875 C 16.609375 3.960938 16.714844 4.1875 16.714844 4.4375 C 16.714844 4.6875 16.609375 4.921875 16.441406 5.078125 C 16.289062 5.242188 16.050781 5.351562 15.800781 5.351562 C 15.550781 5.351562 15.328125 5.242188 15.160156 5.078125 C 14.996094 4.921875 14.898438 4.6875 14.898438 4.4375 C 14.898438 4.1875 14.996094 3.960938 15.160156 3.796875 C 15.328125 3.628906 15.550781 3.535156 15.800781 3.535156 Z M 15.800781 3.535156 " fill-opacity="1" fill-rule="nonzero"/><path fill="#ffffff" d="M 10.117188 5.207031 C 11.484375 5.207031 12.707031 5.765625 13.59375 6.644531 C 14.484375 7.53125 15.042969 8.765625 15.042969 10.117188 C 15.042969 11.484375 14.484375 12.707031 13.59375 13.59375 C 12.707031 14.484375 11.484375 15.042969 10.117188 15.042969 C 8.765625 15.042969 7.53125 14.484375 6.644531 13.59375 C 5.765625 12.707031 5.207031 11.484375 5.207031 10.117188 C 5.207031 8.765625 5.765625 7.53125 6.644531 6.644531 C 7.53125 5.765625 8.765625 5.207031 10.117188 5.207031 Z M 12.3125 7.9375 C 11.757812 7.378906 10.972656 7.023438 10.117188 7.023438 C 9.265625 7.023438 8.492188 7.378906 7.9375 7.9375 C 7.378906 8.492188 7.023438 9.265625 7.023438 10.117188 C 7.023438 10.972656 7.378906 11.757812 7.9375 12.3125 C 8.492188 12.871094 9.265625 13.214844 10.117188 13.214844 C 10.972656 13.214844 11.757812 12.871094 12.3125 12.3125 C 12.871094 11.757812 13.214844 10.972656 13.214844 10.117188 C 13.214844 9.265625 12.871094 8.492188 12.3125 7.9375 Z M 12.3125 7.9375 " fill-opacity="1" fill-rule="nonzero"/></svg>