<svg xmlns="http://www.w3.org/2000/svg" xmlns:xlink="http://www.w3.org/1999/xlink" width="28" zoomAndPan="magnify" viewBox="0 0 21 20.999999" height="28" preserveAspectRatio="xMidYMid meet" version="1.0"><defs><clipPath id="d719f76ee0"><path d="M 0 0 L 20.25 0 L 20.25 20.25 L 0 20.25 Z M 0 0 " clip-rule="nonzero"/></clipPath></defs><path fill="#ffffff" d="M 4.792969 7.453125 L 6.3125 7.453125 C 6.394531 7.453125 6.460938 7.484375 6.519531 7.539062 C 6.574219 7.597656 6.605469 7.664062 6.605469 7.746094 L 6.605469 16.109375 C 6.605469 16.1875 6.574219 16.257812 6.519531 16.316406 C 6.460938 16.371094 6.394531 16.398438 6.3125 16.398438 L 4.792969 16.398438 C 4.710938 16.398438 4.644531 16.371094 4.585938 16.316406 C 4.527344 16.257812 4.5 16.1875 4.5 16.109375 L 4.5 7.746094 C 4.5 7.664062 4.527344 7.597656 4.585938 7.539062 C 4.644531 7.484375 4.710938 7.453125 4.792969 7.453125 Z M 4.792969 7.453125 " fill-opacity="1" fill-rule="nonzero"/><path fill="#ffffff" d="M 6.777344 5.390625 C 6.773438 4.675781 6.261719 4.15625 5.550781 4.15625 C 4.84375 4.15625 4.308594 4.6875 4.308594 5.398438 C 4.308594 5.726562 4.429688 6.03125 4.648438 6.257812 C 4.871094 6.492188 5.179688 6.621094 5.515625 6.621094 C 5.890625 6.621094 6.222656 6.488281 6.453125 6.25 C 6.671875 6.027344 6.785156 5.722656 6.777344 5.398438 C 6.777344 5.394531 6.777344 5.394531 6.777344 5.390625 Z M 6.777344 5.390625 " fill-opacity="1" fill-rule="nonzero"/><path fill="#ffffff" d="M 15.105469 8.042969 C 14.347656 7.367188 13.460938 7.265625 13 7.265625 C 12.308594 7.265625 11.652344 7.449219 11.097656 7.796875 C 10.855469 7.949219 10.636719 8.128906 10.441406 8.339844 L 10.402344 7.726562 C 10.390625 7.542969 10.296875 7.453125 10.113281 7.453125 L 8.765625 7.453125 C 8.679688 7.453125 8.609375 7.484375 8.550781 7.546875 C 8.492188 7.609375 8.46875 7.683594 8.476562 7.765625 C 8.523438 8.40625 8.542969 9.074219 8.542969 10.007812 L 8.542969 16.109375 C 8.542969 16.1875 8.570312 16.257812 8.628906 16.316406 C 8.683594 16.371094 8.753906 16.398438 8.835938 16.398438 L 10.355469 16.398438 C 10.4375 16.398438 10.503906 16.371094 10.5625 16.316406 C 10.617188 16.257812 10.648438 16.1875 10.648438 16.109375 L 10.648438 11.082031 C 10.648438 10.84375 10.679688 10.621094 10.734375 10.472656 C 10.734375 10.46875 10.734375 10.460938 10.738281 10.457031 C 10.941406 9.785156 11.566406 9.109375 12.496094 9.109375 C 13.074219 9.109375 13.488281 9.304688 13.761719 9.710938 C 14.007812 10.078125 14.140625 10.621094 14.140625 11.289062 L 14.140625 16.109375 C 14.140625 16.1875 14.167969 16.257812 14.226562 16.316406 C 14.28125 16.371094 14.351562 16.398438 14.433594 16.398438 L 15.953125 16.398438 C 16.03125 16.398438 16.101562 16.371094 16.160156 16.316406 C 16.214844 16.257812 16.242188 16.1875 16.242188 16.109375 L 16.242188 11.117188 C 16.242188 10.402344 16.136719 9.773438 15.925781 9.242188 C 15.734375 8.761719 15.457031 8.359375 15.105469 8.042969 Z M 15.105469 8.042969 " fill-opacity="1" fill-rule="nonzero"/><g clip-path="url(#d719f76ee0)"><path fill="#ffffff" d="M 17.878906 0 L 2.675781 0 C 1.199219 0 0 1.199219 0 2.675781 L 0 17.878906 C 0 19.355469 1.199219 20.554688 2.675781 20.554688 L 17.878906 20.554688 C 19.355469 20.554688 20.554688 19.355469 20.554688 17.878906 L 20.554688 2.675781 C 20.554688 1.199219 19.355469 0 17.878906 0 Z M 18.675781 2.804688 L 18.675781 17.75 C 18.675781 18.003906 18.585938 18.222656 18.402344 18.402344 C 18.222656 18.585938 18.003906 18.675781 17.75 18.675781 L 2.804688 18.675781 C 2.550781 18.675781 2.332031 18.585938 2.152344 18.402344 C 1.96875 18.222656 1.878906 18.003906 1.878906 17.75 L 1.878906 2.804688 C 1.878906 2.550781 1.96875 2.332031 2.152344 2.152344 C 2.332031 1.96875 2.550781 1.878906 2.804688 1.878906 L 17.75 1.878906 C 18.003906 1.878906 18.222656 1.96875 18.402344 2.152344 C 18.585938 2.332031 18.675781 2.550781 18.675781 2.804688 Z M 18.675781 2.804688 " fill-opacity="1" fill-rule="nonzero"/></g></svg>