<svg xmlns="http://www.w3.org/2000/svg" xmlns:xlink="http://www.w3.org/1999/xlink" width="28" zoomAndPan="magnify" viewBox="0 0 21 20.999999" height="28" preserveAspectRatio="xMidYMid meet" version="1.0"><defs><clipPath id="9dfc1111de"><path d="M 0 0 L 20.25 0 L 20.25 20.25 L 0 20.25 Z M 0 0 " clip-rule="nonzero"/></clipPath></defs><path fill="#000000" d="M 4.722656 7.34375 L 6.21875 7.34375 C 6.296875 7.34375 6.367188 7.371094 6.421875 7.429688 C 6.476562 7.484375 6.503906 7.550781 6.503906 7.632812 L 6.503906 15.871094 C 6.503906 15.949219 6.476562 16.015625 6.421875 16.074219 C 6.367188 16.128906 6.296875 16.15625 6.21875 16.15625 L 4.722656 16.15625 C 4.640625 16.15625 4.574219 16.128906 4.519531 16.074219 C 4.460938 16.015625 4.433594 15.949219 4.433594 15.871094 L 4.433594 7.632812 C 4.433594 7.550781 4.460938 7.484375 4.519531 7.429688 C 4.574219 7.371094 4.640625 7.34375 4.722656 7.34375 Z M 4.722656 7.34375 " fill-opacity="1" fill-rule="nonzero"/><path fill="#000000" d="M 6.675781 5.3125 C 6.675781 4.605469 6.167969 4.09375 5.46875 4.09375 C 4.773438 4.09375 4.246094 4.617188 4.246094 5.316406 C 4.246094 5.640625 4.363281 5.941406 4.578125 6.167969 C 4.800781 6.394531 5.105469 6.523438 5.4375 6.523438 C 5.800781 6.523438 6.128906 6.394531 6.359375 6.15625 C 6.570312 5.9375 6.683594 5.636719 6.675781 5.316406 C 6.675781 5.316406 6.675781 5.3125 6.675781 5.3125 Z M 6.675781 5.3125 " fill-opacity="1" fill-rule="nonzero"/><path fill="#000000" d="M 14.878906 7.921875 C 14.132812 7.257812 13.261719 7.15625 12.804688 7.15625 C 12.125 7.15625 11.480469 7.339844 10.933594 7.683594 C 10.695312 7.832031 10.480469 8.011719 10.289062 8.214844 L 10.25 7.613281 C 10.238281 7.433594 10.144531 7.34375 9.960938 7.34375 L 8.636719 7.34375 C 8.550781 7.34375 8.480469 7.375 8.425781 7.433594 C 8.367188 7.496094 8.34375 7.570312 8.347656 7.652344 C 8.394531 8.28125 8.417969 8.941406 8.417969 9.859375 L 8.417969 15.871094 C 8.417969 15.949219 8.445312 16.015625 8.5 16.074219 C 8.554688 16.128906 8.625 16.15625 8.703125 16.15625 L 10.203125 16.15625 C 10.28125 16.15625 10.347656 16.128906 10.40625 16.074219 C 10.460938 16.015625 10.488281 15.949219 10.488281 15.871094 L 10.488281 10.917969 C 10.488281 10.683594 10.519531 10.464844 10.574219 10.316406 C 10.574219 10.3125 10.578125 10.308594 10.578125 10.300781 C 10.78125 9.640625 11.394531 8.972656 12.3125 8.972656 C 12.878906 8.972656 13.285156 9.167969 13.558594 9.566406 C 13.800781 9.925781 13.929688 10.464844 13.929688 11.121094 L 13.929688 15.871094 C 13.929688 15.949219 13.957031 16.015625 14.015625 16.074219 C 14.070312 16.128906 14.140625 16.15625 14.21875 16.15625 L 15.714844 16.15625 C 15.796875 16.15625 15.863281 16.128906 15.917969 16.074219 C 15.976562 16.015625 16.003906 15.949219 16.003906 15.871094 L 16.003906 10.949219 C 16.003906 10.25 15.898438 9.628906 15.6875 9.105469 C 15.5 8.632812 15.230469 8.234375 14.878906 7.921875 Z M 14.878906 7.921875 " fill-opacity="1" fill-rule="nonzero"/><g clip-path="url(#9dfc1111de)"><path fill="#000000" d="M 17.613281 0 L 2.636719 0 C 1.183594 0 0 1.183594 0 2.636719 L 0 17.613281 C 0 19.066406 1.183594 20.25 2.636719 20.25 L 17.613281 20.25 C 19.066406 20.25 20.25 19.066406 20.25 17.613281 L 20.25 2.636719 C 20.25 1.183594 19.066406 0 17.613281 0 Z M 18.398438 2.765625 L 18.398438 17.484375 C 18.398438 17.738281 18.308594 17.953125 18.132812 18.132812 C 17.953125 18.308594 17.738281 18.398438 17.484375 18.398438 L 2.765625 18.398438 C 2.511719 18.398438 2.296875 18.308594 2.117188 18.132812 C 1.941406 17.953125 1.851562 17.738281 1.851562 17.484375 L 1.851562 2.765625 C 1.851562 2.511719 1.941406 2.296875 2.117188 2.117188 C 2.296875 1.941406 2.511719 1.851562 2.765625 1.851562 L 17.484375 1.851562 C 17.738281 1.851562 17.953125 1.941406 18.132812 2.117188 C 18.308594 2.296875 18.398438 2.511719 18.398438 2.765625 Z M 18.398438 2.765625 " fill-opacity="1" fill-rule="nonzero"/></g></svg>